<svg xmlns="http://www.w3.org/2000/svg" width="316" height="316" fill="none"><path fill="#D7ECFB" d="M37.714 219.112c0-34.647 24.41-76.928 54.415-94.252 14.006-8.086 26.787-9.901 36.942-4.63l1.957 1.128 19.977 12.298 20.328-35.98.144-.257c10.273-17.778 23.93-32.186 38.45-40.57 15.753-9.093 29.394-9.882 39.341-3.23l.566.359 14.51 8.43-.844 15.346h-.01c.549 3.258.854 6.755.854 10.513 0 34.646-24.411 76.926-54.415 94.25-14.534 8.391-28.2 9.745-38.475 3.814l-.14-.084-20.309-12.503-21.168 37.471-.398.682c-10.134 16.872-23.383 30.592-37.308 38.631-8.044 4.645-15.676 7.009-22.552 7.346l-2.553 4.142-11.276-6.639c-1.522-.705-2.227-1.054-3.588-2.04l-.761-.522h.002c-8.507-6.18-13.687-17.759-13.687-33.705l-.002.002Zm150.826-62.347c5.717 3.29 13.31 2.534 21.387-2.129 16.691-9.636 30.268-33.154 30.268-52.426 0-19.271-13.577-27.113-30.268-17.477-8.072 4.66-15.665 12.67-21.378 22.552l-20.742 36.717 20.733 12.763Zm-96.411 65.882c7.695-4.442 15.015-12.007 20.64-21.308l21.431-37.935-21.317-13.122c-5.636-2.885-13-2.013-20.754 2.462C75.438 162.38 61.86 185.9 61.86 205.172c0 19.271 13.578 27.111 30.269 17.475Z"/><path fill="#B9DEF9" d="M107.084 133.579c14.008-8.086 27.313-9.638 37.468-4.365l.361.205 21.047 12.956 20.328-35.981.144-.256c10.273-17.78 23.93-32.186 38.45-40.57 30.005-17.324 54.415-3.23 54.415 31.418 0 34.648-24.412 76.926-54.415 94.25-14.534 8.391-28.2 9.745-38.476 3.814l-.139-.084-20.31-12.503-21.168 37.471-.398.682c-10.131 16.872-23.383 30.592-37.307 38.631-30.003 17.322-54.415 3.23-54.415-31.416 0-34.645 24.412-76.928 54.415-94.252Zm96.411 31.903c5.717 3.29 13.31 2.534 21.387-2.13 16.691-9.635 30.268-33.154 30.268-52.425 0-19.272-13.579-27.113-30.268-17.478-8.072 4.661-15.665 12.67-21.378 22.553l-20.742 36.716 20.733 12.764Zm-96.411 65.882c7.695-4.443 15.015-12.007 20.64-21.308l21.431-37.936-21.317-13.121c-5.636-2.886-13.001-2.013-20.754 2.462-16.691 9.635-30.269 33.156-30.269 52.427 0 19.272 13.578 27.111 30.269 17.476Z"/><path fill="#60B3F1" d="m247.069 139.339-14.841-8.924 2.38-4.772 3.186-8.401 1.854-8.737.547-7.793-.547-5.81-2.152-5.548 5.429.584 4.691 2.297 3.995 4.351 2.295 5.14 1.14 6.369.104 6.25-1.335 7.633-1.583 5.594-2.652 6.557-2.511 5.21Zm-60.781-32.947-14.811-8.973-20.472 36.237 14.955 8.719 20.328-35.983Zm-58.567 103.664-14.952-8.717 21.431-37.935 14.955 8.716-21.434 37.936ZM61.86 187.69l-15.099-8.456-4.058 10.734-3.016 11.225-1.973 12.004.17 10.746 1.463 9.499 2.509 7.288 2.438 4.486 4.917 5.801 2.948 2.322 13.78 7.886-5.496-4.882-3.1-5.759-2.133-5.233-1.87-8.07-.662-10.513 1.036-11.814 2.434-11.236 3.5-10.672 2.212-5.356Zm121.622-36.141 20.735 12.764-1.441 2.34-20.735-12.764 1.441-2.34Z"/></svg>