<svg xmlns="http://www.w3.org/2000/svg" width="500" height="500" fill="none"><path fill="#455A64" d="M367.315 34.513a2.009 2.009 0 0 0-.105-.6v-.12c-.03-.2-.08-.395-.15-.585a2.752 2.752 0 0 0-.39-.825 1.02 1.02 0 0 0-.21-.345.986.986 0 0 0-.195-.24 1.84 1.84 0 0 0-.42-.42 2.039 2.039 0 0 0-.555-.315 4.738 4.738 0 0 0-4.38.555L75.82 195.598a14.404 14.404 0 0 0-6.51 11.28v246.255a4.412 4.412 0 0 0 2.34 3.915l.285.18c.108.077.224.143.345.195.176.09.362.155.555.195.27.065.547.1.825.105a4.161 4.161 0 0 0 2.16-.615l.165-.105 6.21-3.585 278.64-160.5a14.36 14.36 0 0 0 6.51-11.265V35.323a7.3 7.3 0 0 0-.03-.81Z"/><path fill="#38A0ED" d="M365.17 31.018a4.743 4.743 0 0 0-4.38.555L75.82 195.598a14.404 14.404 0 0 0-6.51 11.28v9.51l-8.295-4.86v-9.36a14.356 14.356 0 0 1 6.48-11.25l285.06-164.04a4.5 4.5 0 0 1 4.71-.39 569.84 569.84 0 0 0 7.905 4.53Z"/><path fill="#38A0ED" d="M367.345 35.278c0-4.11-2.925-5.76-6.495-3.705L75.82 195.598a14.388 14.388 0 0 0-6.51 11.28v9.525L367.345 44.878v-9.6Z"/><path fill="#fff" d="M360.85 31.573 75.82 195.598a13.423 13.423 0 0 0-4.575 4.83l-8.265-4.785a12.788 12.788 0 0 1 4.5-4.74L352.555 26.878a4.5 4.5 0 0 1 4.71-.375c1.17.705 6.57 3.78 7.935 4.5a4.68 4.68 0 0 0-4.35.57Z" opacity=".5"/><path fill="#000" d="M61 211.544v-9.405a13.498 13.498 0 0 1 1.98-6.495l8.28 4.77a13.168 13.168 0 0 0-1.935 6.45v9.525L61 211.544Z" opacity=".15"/><path fill="#263238" d="m71.65 457.079-.345-.195-6.855-4.005a6.94 6.94 0 0 1-3.39-5.04 6.683 6.683 0 0 1 0-.945v-235.5l8.31 4.875v236.865a4.277 4.277 0 0 0 2.025 3.69c.067.054.137.105.21.15l.045.105Z" opacity=".9"/><g opacity=".5"><path fill="#38A0ED" d="m115.57 207.134 59.655-34.41c.9-.525 1.62-.15 1.62.81a3.52 3.52 0 0 1-1.62 2.715l-59.64 34.5c-.9.51-1.635.15-1.635-.825a3.553 3.553 0 0 1 1.62-2.79Zm26.61 27.375 115.725-66.885c.9-.51 1.635-.15 1.635.825a3.492 3.492 0 0 1-1.635 2.7l-115.725 66.9c-.9.51-1.635.15-1.635-.825a3.53 3.53 0 0 1 1.635-2.715Zm39.345-65.431 77.37-44.565c.9-.51 1.635-.15 1.635.825a3.474 3.474 0 0 1-1.635 2.7l-77.37 44.565c-.885.51-1.62.15-1.62-.825a3.495 3.495 0 0 1 1.62-2.7Zm-65.955 48.196 27.9-16.11c.9-.525 1.635-.15 1.635.825a3.504 3.504 0 0 1-1.635 2.7l-27.885 16.11c-.9.525-1.635.15-1.635-.825a3.52 3.52 0 0 1 1.62-2.7Z"/><path fill="#fff" d="m115.57 217.274 27.9-16.11c.9-.525 1.635-.15 1.635.825a3.504 3.504 0 0 1-1.635 2.7l-27.885 16.11c-.9.525-1.635.15-1.635-.825a3.52 3.52 0 0 1 1.62-2.7Z" opacity=".6"/><path fill="#38A0ED" d="m115.57 227.353 14.895-8.565c.9-.51 1.635-.15 1.635.825a3.52 3.52 0 0 1-1.635 2.715l-14.88 8.55c-.9.51-1.635.15-1.635-.825a3.498 3.498 0 0 1 1.62-2.7Z"/><path fill="#fff" d="m115.57 227.353 14.895-8.565c.9-.51 1.635-.15 1.635.825a3.52 3.52 0 0 1-1.635 2.715l-14.88 8.55c-.9.51-1.635.15-1.635-.825a3.498 3.498 0 0 1 1.62-2.7Z" opacity=".6"/><path fill="#38A0ED" d="m149.785 197.518 71.1-41.01c.9-.525 1.62-.15 1.62.825a3.488 3.488 0 0 1-1.62 2.7l-71.1 41.01c-.9.525-1.62.15-1.62-.825a3.461 3.461 0 0 1 1.62-2.7Z"/><path fill="#fff" d="m149.785 197.518 71.1-41.01c.9-.525 1.62-.15 1.62.825a3.488 3.488 0 0 1-1.62 2.7l-71.1 41.01c-.9.525-1.62.15-1.62-.825a3.461 3.461 0 0 1 1.62-2.7Z" opacity=".6"/><path fill="#FFA8A7" d="m184.75 246.163 74.145-42.84c.9-.51 1.635-.15 1.635.825a3.527 3.527 0 0 1-1.635 2.715l-74.145 42.825c-.9.525-1.62.15-1.62-.81a3.52 3.52 0 0 1 1.62-2.715Zm0-10.064 74.145-42.885c.9-.525 1.635-.15 1.635.81a3.527 3.527 0 0 1-1.635 2.715l-74.145 42.885c-.9.525-1.62.15-1.62-.825a3.488 3.488 0 0 1 1.62-2.7Z"/><path fill="#38A0ED" d="m135.67 215.879 32.25-18.75c.9-.525 1.62-.15 1.62.825a3.505 3.505 0 0 1-1.62 2.7l-32.25 18.69c-.9.51-1.635.15-1.635-.825a3.483 3.483 0 0 1 1.635-2.64Z"/><path fill="#fff" d="m135.67 215.879 32.25-18.75c.9-.525 1.62-.15 1.62.825a3.505 3.505 0 0 1-1.62 2.7l-32.25 18.69c-.9.51-1.635.15-1.635-.825a3.483 3.483 0 0 1 1.635-2.64Z" opacity=".6"/><path fill="#38A0ED" d="m174.235 193.483 83.7-47.88c.9-.525 1.635-.15 1.635.825a3.493 3.493 0 0 1-1.635 2.7l-83.7 47.88c-.9.51-1.635.15-1.635-.825a3.492 3.492 0 0 1 1.635-2.7Z"/><path fill="#fff" d="m174.235 193.483 83.7-47.88c.9-.525 1.635-.15 1.635.825a3.493 3.493 0 0 1-1.635 2.7l-83.7 47.88c-.9.51-1.635.15-1.635-.825a3.492 3.492 0 0 1 1.635-2.7Z" opacity=".6"/><path fill="#38A0ED" d="m135.67 226.634 32.22-18.69c.9-.525 1.62-.15 1.62.825a3.488 3.488 0 0 1-1.62 2.7l-32.22 18.69c-.9.51-1.635.15-1.635-.825a3.484 3.484 0 0 1 1.635-2.7Z"/><path fill="#fff" d="m135.67 226.634 32.22-18.69c.9-.525 1.62-.15 1.62.825a3.488 3.488 0 0 1-1.62 2.7l-32.22 18.69c-.9.51-1.635.15-1.635-.825a3.484 3.484 0 0 1 1.635-2.7Z" opacity=".6"/><path fill="#38A0ED" d="m174.235 204.298 83.7-47.88c.9-.525 1.635-.15 1.635.825a3.498 3.498 0 0 1-1.635 2.7l-83.7 47.88c-.9.51-1.635.15-1.635-.825a3.492 3.492 0 0 1 1.635-2.7Z"/><path fill="#fff" d="m174.235 204.298 83.7-47.88c.9-.525 1.635-.15 1.635.825a3.498 3.498 0 0 1-1.635 2.7l-83.7 47.88c-.9.51-1.635.15-1.635-.825a3.492 3.492 0 0 1 1.635-2.7Z" opacity=".6"/><path fill="#F28F8F" d="m184.75 256.378 74.145-42.585c.9-.525 1.635-.15 1.635.825a3.498 3.498 0 0 1-1.635 2.7l-74.145 42.585c-.9.525-1.62.165-1.62-.81a3.52 3.52 0 0 1 1.62-2.715Zm0 10.08 74.145-42.585c.9-.525 1.635-.15 1.635.825a3.498 3.498 0 0 1-1.635 2.7l-74.145 42.6c-.9.51-1.62.15-1.62-.825a3.52 3.52 0 0 1 1.62-2.715Zm0 10.095 74.145-42.585c.9-.525 1.635-.15 1.635.825a3.498 3.498 0 0 1-1.635 2.7l-74.145 42.6c-.9.51-1.62.15-1.62-.825a3.516 3.516 0 0 1 1.62-2.715Z"/><path fill="#38A0ED" d="m184.75 289.964 74.145-42.585c.9-.525 1.635-.15 1.635.825a3.502 3.502 0 0 1-1.635 2.7l-74.145 42.57c-.9.525-1.62.15-1.62-.825a3.462 3.462 0 0 1 1.62-2.685Zm-73.5 42.464 15-8.715c.9-.51 1.635-.15 1.635.825a3.488 3.488 0 0 1-1.635 2.7l-15 8.715c-.885.525-1.62.15-1.62-.825a3.525 3.525 0 0 1 1.62-2.7Z"/><path fill="#fff" d="m111.25 332.428 15-8.715c.9-.51 1.635-.15 1.635.825a3.488 3.488 0 0 1-1.635 2.7l-15 8.715c-.885.525-1.62.15-1.62-.825a3.525 3.525 0 0 1 1.62-2.7Z" opacity=".6"/><path fill="#38A0ED" d="m111.25 341.564 15-8.715c.9-.525 1.635-.15 1.635.825a3.502 3.502 0 0 1-1.635 2.7l-15 8.715c-.885.51-1.62.15-1.62-.825a3.487 3.487 0 0 1 1.62-2.7Z"/><path fill="#fff" d="m111.25 341.564 15-8.715c.9-.525 1.635-.15 1.635.825a3.502 3.502 0 0 1-1.635 2.7l-15 8.715c-.885.51-1.62.15-1.62-.825a3.487 3.487 0 0 1 1.62-2.7Z" opacity=".6"/><path fill="#FFA8A7" d="m184.75 299.158 74.145-42.9c.9-.51 1.635-.15 1.635.825a3.484 3.484 0 0 1-1.635 2.7l-74.145 42.9c-.9.525-1.62.15-1.62-.825a3.46 3.46 0 0 1 1.62-2.7Z"/><path fill="#38A0ED" d="m136.225 393.298 39-22.5c.9-.51 1.62-.15 1.62.825a3.502 3.502 0 0 1-1.62 2.715l-39 22.501c-.9.525-1.62.149-1.62-.826a3.47 3.47 0 0 1 1.62-2.715Zm45.3-26.235 77.37-44.46c.9-.51 1.635-.15 1.635.825a3.514 3.514 0 0 1-1.635 2.715l-77.37 44.46c-.885.51-1.62.15-1.62-.825a3.567 3.567 0 0 1 1.62-2.715Zm-70.275 40.591 15-8.715c.9-.525 1.635-.15 1.635.825a3.502 3.502 0 0 1-1.635 2.7l-15 8.715c-.885.51-1.62.15-1.62-.825a3.487 3.487 0 0 1 1.62-2.7Z"/><path fill="#fff" d="m111.25 407.654 15-8.715c.9-.525 1.635-.15 1.635.825a3.502 3.502 0 0 1-1.635 2.7l-15 8.715c-.885.51-1.62.15-1.62-.825a3.487 3.487 0 0 1 1.62-2.7Z" opacity=".6"/><path fill="#38A0ED" d="m111.25 416.773 15-8.715c.9-.51 1.635-.15 1.635.825a3.488 3.488 0 0 1-1.635 2.7l-15 8.715c-.885.525-1.62.15-1.62-.825a3.525 3.525 0 0 1 1.62-2.7Z"/><path fill="#fff" d="m111.25 416.773 15-8.715c.9-.51 1.635-.15 1.635.825a3.488 3.488 0 0 1-1.635 2.7l-15 8.715c-.885.525-1.62.15-1.62-.825a3.525 3.525 0 0 1 1.62-2.7Z" opacity=".6"/><path fill="#FFA8A7" d="m187.81 372.493 71.085-41.01c.9-.525 1.635-.15 1.635.825a3.486 3.486 0 0 1-1.635 2.7l-71.085 41.01c-.9.525-1.635.15-1.635-.825a3.492 3.492 0 0 1 1.635-2.7Z"/><path fill="#38A0ED" d="m135.67 349.243 123.195-70.95c.9-.51 1.635-.15 1.635.825a3.527 3.527 0 0 1-1.635 2.715l-123.195 70.95c-.9.51-1.635.15-1.635-.825a3.527 3.527 0 0 1 1.635-2.715Zm-24.42 14.025 15-8.715c.9-.525 1.635-.15 1.635.825a3.493 3.493 0 0 1-1.635 2.7l-15 8.715c-.885.525-1.62.15-1.62-.825.04-.545.207-1.073.489-1.542a3.488 3.488 0 0 1 1.131-1.158Z"/><path fill="#fff" d="m111.25 363.268 15-8.715c.9-.525 1.635-.15 1.635.825a3.493 3.493 0 0 1-1.635 2.7l-15 8.715c-.885.525-1.62.15-1.62-.825.04-.545.207-1.073.489-1.542a3.488 3.488 0 0 1 1.131-1.158Z" opacity=".6"/><path fill="#38A0ED" d="m135.67 359.218 123.195-70.95c.9-.51 1.635-.15 1.635.825a3.46 3.46 0 0 1-.494 1.546c-.284.47-.675.865-1.141 1.154l-123.195 70.95c-.9.525-1.635.15-1.635-.825a3.525 3.525 0 0 1 1.635-2.7Zm-24.42 14.161 15-8.715c.9-.525 1.635-.15 1.635.825a3.474 3.474 0 0 1-1.635 2.699l-15 8.716c-.885.525-1.62.15-1.62-.825a3.487 3.487 0 0 1 1.62-2.7Z"/><path fill="#fff" d="m111.25 373.379 15-8.715c.9-.525 1.635-.15 1.635.825a3.474 3.474 0 0 1-1.635 2.699l-15 8.716c-.885.525-1.62.15-1.62-.825a3.487 3.487 0 0 1 1.62-2.7Z" opacity=".6"/><path fill="#F28F8F" d="m135.67 369.359 123.225-70.98c.9-.51 1.635-.15 1.635.825a3.487 3.487 0 0 1-1.635 2.7l-123.225 70.98c-.9.525-1.635.15-1.635-.825a3.506 3.506 0 0 1 .495-1.546 3.503 3.503 0 0 1 1.14-1.154Z"/><path fill="#38A0ED" d="m111.25 383.458 15-8.715c.9-.525 1.635-.15 1.635.825a3.488 3.488 0 0 1-1.635 2.7l-15 8.715c-.885.525-1.62.15-1.62-.825a3.53 3.53 0 0 1 1.62-2.7Z"/><path fill="#fff" d="m111.25 383.458 15-8.715c.9-.525 1.635-.15 1.635.825a3.488 3.488 0 0 1-1.635 2.7l-15 8.715c-.885.525-1.62.15-1.62-.825a3.53 3.53 0 0 1 1.62-2.7Zm-23.49-30.075 8.91-5.115c.885-.51 1.605-.09 1.605.93v3.255a3.55 3.55 0 0 1-1.605 2.79l-8.865 5.115c-.885.51-1.605.105-1.605-.93v-3.255a3.568 3.568 0 0 1 1.56-2.79Zm0 12.96 8.91-5.115c.885-.51 1.605-.09 1.605.93v3.255a3.55 3.55 0 0 1-1.605 2.79l-8.91 5.175c-.885.51-1.605.105-1.605-.93v-3.255a3.595 3.595 0 0 1 1.605-2.85Zm0 13.036 8.91-5.19c.885-.51 1.605-.09 1.605.93v3.255a3.558 3.558 0 0 1-1.605 2.79l-8.865 5.115c-.885.51-1.605.105-1.605-.93v-3.255a3.598 3.598 0 0 1 1.56-2.715Zm0 12.884 8.91-5.115c.885-.51 1.605-.09 1.605.93v3.3a3.552 3.552 0 0 1-1.605 2.745l-8.865 5.115c-.885.51-1.605.105-1.605-.93v-3.255a3.6 3.6 0 0 1 1.56-2.79Z" opacity=".6"/><path fill="#38A0ED" d="m111.25 277.273 15-8.715c.9-.525 1.635-.15 1.635.825a3.498 3.498 0 0 1-1.635 2.7l-15 8.715c-.885.51-1.62.15-1.62-.825.04-.545.207-1.074.489-1.542a3.488 3.488 0 0 1 1.131-1.158Z"/><path fill="#fff" d="m111.25 277.273 15-8.715c.9-.525 1.635-.15 1.635.825a3.498 3.498 0 0 1-1.635 2.7l-15 8.715c-.885.51-1.62.15-1.62-.825.04-.545.207-1.074.489-1.542a3.488 3.488 0 0 1 1.131-1.158Z" opacity=".6"/><path fill="#38A0ED" d="m111.25 298.978 15-8.715c.9-.525 1.635-.15 1.635.825a3.488 3.488 0 0 1-1.635 2.7l-15 8.715c-.885.525-1.62.15-1.62-.825.04-.545.207-1.073.489-1.542a3.488 3.488 0 0 1 1.131-1.158Z"/><path fill="#fff" d="m111.25 298.978 15-8.715c.9-.525 1.635-.15 1.635.825a3.488 3.488 0 0 1-1.635 2.7l-15 8.715c-.885.525-1.62.15-1.62-.825.04-.545.207-1.073.489-1.542a3.488 3.488 0 0 1 1.131-1.158Z" opacity=".6"/><path fill="#38A0ED" d="m111.25 309.073 15-8.715c.9-.525 1.635-.15 1.635.825a3.488 3.488 0 0 1-1.635 2.7l-15 8.715c-.885.525-1.62.15-1.62-.825.04-.545.207-1.073.489-1.542a3.488 3.488 0 0 1 1.131-1.158Z"/><path fill="#fff" d="m111.25 309.073 15-8.715c.9-.525 1.635-.15 1.635.825a3.488 3.488 0 0 1-1.635 2.7l-15 8.715c-.885.525-1.62.15-1.62-.825.04-.545.207-1.073.489-1.542a3.488 3.488 0 0 1 1.131-1.158Z" opacity=".6"/><path fill="#38A0ED" d="m111.25 319.168 15-8.715c.9-.525 1.635-.15 1.635.825a3.488 3.488 0 0 1-1.635 2.7l-15 8.715c-.885.525-1.62.15-1.62-.825a3.525 3.525 0 0 1 1.62-2.7Z"/><path fill="#fff" d="m111.25 319.168 15-8.715c.9-.525 1.635-.15 1.635.825a3.488 3.488 0 0 1-1.635 2.7l-15 8.715c-.885.525-1.62.15-1.62-.825a3.525 3.525 0 0 1 1.62-2.7Zm-23.49-30.075 8.91-5.115c.885-.51 1.605-.09 1.605.93v3.255a3.55 3.55 0 0 1-1.605 2.79l-8.865 5.115c-.885.51-1.605.105-1.605-.93v-3.255a3.6 3.6 0 0 1 1.56-2.79Zm0 12.96 8.91-5.175c.885-.51 1.605-.09 1.605.93v3.255a3.556 3.556 0 0 1-1.605 2.85l-8.865 5.115c-.885.51-1.605.105-1.605-.93v-3.255a3.6 3.6 0 0 1 1.56-2.79Zm0 12.96 8.91-5.115c.885-.51 1.605-.09 1.605.93v3.255a3.55 3.55 0 0 1-1.605 2.79l-8.865 5.115c-.885.51-1.605.105-1.605-.93v-3.18a3.601 3.601 0 0 1 1.56-2.865Zm0 12.96 8.91-5.115c.885-.51 1.605-.09 1.605.93v3.255a3.555 3.555 0 0 1-1.605 2.835l-8.865 5.115c-.885.51-1.605.105-1.605-.93v-3.255a3.597 3.597 0 0 1 1.56-2.835Zm0 89.7 8.91-5.115c.885-.51 1.605-.09 1.605.93v3.255a3.555 3.555 0 0 1-1.605 2.79l-8.865 5.115c-.885.51-1.605.105-1.605-.93v-3.255a3.568 3.568 0 0 1 1.56-2.79Zm0 12.96 8.91-5.115c.885-.51 1.605-.09 1.605.93v3.255a3.55 3.55 0 0 1-1.605 2.79l-8.865 5.115c-.885.51-1.605.105-1.605-.93v-3.3a3.595 3.595 0 0 1 1.56-2.745Zm0-205.754 8.91-5.19c.885-.51 1.605-.09 1.605.93v3.255a3.558 3.558 0 0 1-1.605 2.79l-8.865 5.115c-.885.51-1.605.105-1.605-.93v-3.255a3.598 3.598 0 0 1 1.56-2.715Zm0 12.884 8.91-5.115c.885-.51 1.605-.09 1.605.93v3.3a3.552 3.552 0 0 1-1.605 2.745l-8.865 5.115c-.885.51-1.605.105-1.605-.93v-3.255a3.597 3.597 0 0 1 1.56-2.79Zm0 12.96 8.91-5.115c.885-.51 1.605-.09 1.605.93v3.255a3.559 3.559 0 0 1-1.605 2.79l-8.865 5.115c-.885.51-1.605.105-1.605-.93v-3.255a3.6 3.6 0 0 1 1.56-2.79Zm0 12.96 8.91-5.115c.885-.51 1.605-.09 1.605.93v3.255a3.55 3.55 0 0 1-1.605 2.79l-8.865 5.115c-.885.51-1.605.105-1.605-.93v-3.255a3.6 3.6 0 0 1 1.56-2.79Z" opacity=".6"/><path fill="#37474F" d="m348.055 170.083-67.965 39.255a10.093 10.093 0 0 0-4.575 7.905v102.36c0 2.91 2.055 4.095 4.575 2.64l67.965-39.24a10.078 10.078 0 0 0 4.5-7.905V172.723c.06-2.91-1.98-4.095-4.5-2.64Z"/><path fill="#38A0ED" d="m341.74 247.889-6.255 3.615a4.97 4.97 0 0 0-2.31 3.84c0 1.38 1.035 1.905 2.31 1.17l6.255-3.63a4.93 4.93 0 0 0 2.31-3.825c0-1.38-1.035-1.905-2.31-1.17Z"/><path fill="#fff" d="m341.74 247.889-6.255 3.615a4.97 4.97 0 0 0-2.31 3.84c0 1.38 1.035 1.905 2.31 1.17l6.255-3.63a4.93 4.93 0 0 0 2.31-3.825c0-1.38-1.035-1.905-2.31-1.17Z" opacity=".6"/><path fill="#38A0ED" d="m341.74 183.613-6.255 3.615a4.967 4.967 0 0 0-2.31 3.84c0 1.38 1.035 1.905 2.31 1.17l6.255-3.615a4.961 4.961 0 0 0 2.31-3.84c0-1.38-1.035-1.905-2.31-1.17Z"/><path fill="#fff" d="m341.74 183.613-6.255 3.615a4.967 4.967 0 0 0-2.31 3.84c0 1.38 1.035 1.905 2.31 1.17l6.255-3.615a4.961 4.961 0 0 0 2.31-3.84c0-1.38-1.035-1.905-2.31-1.17Z" opacity=".6"/><path fill="#38A0ED" d="m332.95 201.523-6.255 3.615a4.939 4.939 0 0 0-2.31 3.84c0 1.38 1.035 1.905 2.31 1.17l6.255-3.63a4.925 4.925 0 0 0 1.612-1.636 4.923 4.923 0 0 0 .698-2.189c0-1.395-1.035-1.905-2.31-1.17Z"/><path fill="#fff" d="m332.95 201.523-6.255 3.615a4.939 4.939 0 0 0-2.31 3.84c0 1.38 1.035 1.905 2.31 1.17l6.255-3.63a4.925 4.925 0 0 0 1.612-1.636 4.923 4.923 0 0 0 .698-2.189c0-1.395-1.035-1.905-2.31-1.17Z" opacity=".6"/><path fill="#38A0ED" d="m332.95 214.378-6.255 3.63a4.937 4.937 0 0 0-2.31 3.825c0 1.38 1.035 1.905 2.31 1.17l6.255-3.615a4.97 4.97 0 0 0 2.31-3.84c0-1.425-1.035-1.95-2.31-1.17Z"/><path fill="#fff" d="m332.95 214.378-6.255 3.63a4.937 4.937 0 0 0-2.31 3.825c0 1.38 1.035 1.905 2.31 1.17l6.255-3.615a4.97 4.97 0 0 0 2.31-3.84c0-1.425-1.035-1.95-2.31-1.17Z" opacity=".6"/><path fill="#38A0ED" d="m341.74 222.164-6.255 3.63a4.934 4.934 0 0 0-2.31 3.825c0 1.38 1.035 1.905 2.31 1.17l6.255-3.615a4.964 4.964 0 0 0 2.31-3.84c0-1.38-1.035-1.905-2.31-1.17Z"/><path fill="#fff" d="m341.74 222.164-6.255 3.63a4.934 4.934 0 0 0-2.31 3.825c0 1.38 1.035 1.905 2.31 1.17l6.255-3.615a4.964 4.964 0 0 0 2.31-3.84c0-1.38-1.035-1.905-2.31-1.17Z" opacity=".6"/><path fill="#38A0ED" d="m332.95 240.088-6.255 3.616a4.926 4.926 0 0 0-2.31 3.839c0 1.38 1.035 1.905 2.31 1.17l6.255-3.63a4.915 4.915 0 0 0 1.612-1.636 4.923 4.923 0 0 0 .698-2.189c0-1.38-1.035-1.905-2.31-1.17Z"/><path fill="#fff" d="m332.95 240.088-6.255 3.616a4.926 4.926 0 0 0-2.31 3.839c0 1.38 1.035 1.905 2.31 1.17l6.255-3.63a4.915 4.915 0 0 0 1.612-1.636 4.923 4.923 0 0 0 .698-2.189c0-1.38-1.035-1.905-2.31-1.17Z" opacity=".6"/><path fill="#38A0ED" d="m324.67 193.513-38.265 22.065a4.946 4.946 0 0 0-2.31 3.84c0 1.38 1.035 1.905 2.31 1.17l38.265-22.065a4.961 4.961 0 0 0 2.31-3.84c-.06-1.305-1.095-1.905-2.31-1.17Z"/><path fill="#fff" d="m324.67 193.513-38.265 22.065a4.946 4.946 0 0 0-2.31 3.84c0 1.38 1.035 1.905 2.31 1.17l38.265-22.065a4.961 4.961 0 0 0 2.31-3.84c-.06-1.305-1.095-1.905-2.31-1.17Z" opacity=".8"/><path fill="#38A0ED" d="m324.67 257.788-38.205 22.065a4.928 4.928 0 0 0-2.295 3.825c0 1.38 1.035 1.905 2.31 1.17l38.19-22.065a4.937 4.937 0 0 0 2.31-3.825c-.06-1.395-1.095-1.905-2.31-1.17Z"/><path fill="#fff" d="m324.67 257.788-38.205 22.065a4.928 4.928 0 0 0-2.295 3.825c0 1.38 1.035 1.905 2.31 1.17l38.19-22.065a4.937 4.937 0 0 0 2.31-3.825c-.06-1.395-1.095-1.905-2.31-1.17Z" opacity=".8"/><path fill="#38A0ED" d="m315.82 211.378-29.415 17.025a4.942 4.942 0 0 0-2.31 3.84c0 1.38 1.035 1.905 2.31 1.155l29.415-17.01a4.961 4.961 0 0 0 2.31-3.84c0-1.35-.96-1.875-2.31-1.17Z"/><path fill="#fff" d="m315.82 211.378-29.415 17.025a4.942 4.942 0 0 0-2.31 3.84c0 1.38 1.035 1.905 2.31 1.155l29.415-17.01a4.961 4.961 0 0 0 2.31-3.84c0-1.35-.96-1.875-2.31-1.17Z" opacity=".8"/><path fill="#38A0ED" d="m315.82 224.264-29.415 17.025a4.915 4.915 0 0 0-1.612 1.636 4.923 4.923 0 0 0-.698 2.189c0 1.395 1.035 1.905 2.31 1.17l29.415-17.01a4.973 4.973 0 0 0 2.31-3.84c0-1.38-.96-1.905-2.31-1.17Z"/><path fill="#fff" d="m315.82 224.264-29.415 17.025a4.915 4.915 0 0 0-1.612 1.636 4.923 4.923 0 0 0-.698 2.189c0 1.395 1.035 1.905 2.31 1.17l29.415-17.01a4.973 4.973 0 0 0 2.31-3.84c0-1.38-.96-1.905-2.31-1.17Z" opacity=".8"/><path fill="#38A0ED" d="m324.67 232.078-38.205 22.065a4.928 4.928 0 0 0-1.612 1.637 4.923 4.923 0 0 0-.698 2.188c0 1.395 1.035 1.905 2.31 1.17l38.205-22.065a4.935 4.935 0 0 0 2.31-3.825c-.06-1.38-1.095-1.905-2.31-1.17Z"/><path fill="#fff" d="m324.67 232.078-38.205 22.065a4.928 4.928 0 0 0-1.612 1.637 4.923 4.923 0 0 0-.698 2.188c0 1.395 1.035 1.905 2.31 1.17l38.205-22.065a4.935 4.935 0 0 0 2.31-3.825c-.06-1.38-1.095-1.905-2.31-1.17Z" opacity=".8"/><path fill="#38A0ED" d="m315.82 249.973-29.415 17.025a4.934 4.934 0 0 0-2.31 3.825c0 1.38 1.035 1.905 2.31 1.17l29.415-17.01a4.926 4.926 0 0 0 2.31-3.84c0-1.38-.96-1.905-2.31-1.17Z"/><path fill="#fff" d="m315.82 249.973-29.415 17.025a4.934 4.934 0 0 0-2.31 3.825c0 1.38 1.035 1.905 2.31 1.17l29.415-17.01a4.926 4.926 0 0 0 2.31-3.84c0-1.38-.96-1.905-2.31-1.17Z" opacity=".8"/><path fill="#38A0ED" d="m341.74 273.733-6.255 3.645a4.967 4.967 0 0 0-2.31 3.84c0 1.38 1.035 1.905 2.31 1.17l6.255-3.615a4.961 4.961 0 0 0 2.31-3.84c0-1.41-1.035-1.935-2.31-1.2Z"/><path fill="#fff" d="m341.74 273.733-6.255 3.645a4.967 4.967 0 0 0-2.31 3.84c0 1.38 1.035 1.905 2.31 1.17l6.255-3.615a4.961 4.961 0 0 0 2.31-3.84c0-1.41-1.035-1.935-2.31-1.2Z" opacity=".6"/><path fill="#38A0ED" d="m332.95 265.933-6.255 3.615a4.973 4.973 0 0 0-2.31 3.84c0 1.38 1.035 1.905 2.31 1.17l6.255-3.63a4.915 4.915 0 0 0 1.612-1.636 4.923 4.923 0 0 0 .698-2.189c0-1.38-1.035-1.905-2.31-1.17Z"/><path fill="#fff" d="m332.95 265.933-6.255 3.615a4.973 4.973 0 0 0-2.31 3.84c0 1.38 1.035 1.905 2.31 1.17l6.255-3.63a4.915 4.915 0 0 0 1.612-1.636 4.923 4.923 0 0 0 .698-2.189c0-1.38-1.035-1.905-2.31-1.17Z" opacity=".6"/><path fill="#38A0ED" d="m324.67 283.633-38.205 22.065a4.934 4.934 0 0 0-2.31 3.825c0 1.395 1.035 1.905 2.31 1.17l38.205-22.065a4.934 4.934 0 0 0 2.25-3.75c0-1.5-1.035-1.98-2.25-1.245Z"/><path fill="#fff" d="m324.67 283.633-38.205 22.065a4.934 4.934 0 0 0-2.31 3.825c0 1.395 1.035 1.905 2.31 1.17l38.205-22.065a4.934 4.934 0 0 0 2.25-3.75c0-1.5-1.035-1.98-2.25-1.245Z" opacity=".8"/><path fill="#38A0ED" d="m315.82 275.878-29.415 17.01a4.948 4.948 0 0 0-1.616 1.643 4.95 4.95 0 0 0-.694 2.197c0 1.38 1.035 1.905 2.31 1.155l29.415-17.055a4.935 4.935 0 0 0 2.31-3.825c0-1.395-.96-1.905-2.31-1.125Z"/><path fill="#fff" d="m315.82 275.878-29.415 17.01a4.948 4.948 0 0 0-1.616 1.643 4.95 4.95 0 0 0-.694 2.197c0 1.38 1.035 1.905 2.31 1.155l29.415-17.055a4.935 4.935 0 0 0 2.31-3.825c0-1.395-.96-1.905-2.31-1.125Z" opacity=".8"/><path fill="#37474F" d="m348.055 64.798-67.965 39.24a10.093 10.093 0 0 0-4.575 7.905v78.435c0 2.925 2.055 4.095 4.575 2.64l67.965-39.24a10.078 10.078 0 0 0 4.5-7.905V67.378c.06-2.85-1.98-4.035-4.5-2.58Z"/><path fill="#38A0ED" d="m341.74 142.588-6.255 3.63a4.937 4.937 0 0 0-2.31 3.825c0 1.38 1.035 1.905 2.31 1.17l6.255-3.614a4.973 4.973 0 0 0 2.31-3.841c0-1.38-1.035-1.905-2.31-1.17Z"/><path fill="#fff" d="m341.74 142.588-6.255 3.63a4.937 4.937 0 0 0-2.31 3.825c0 1.38 1.035 1.905 2.31 1.17l6.255-3.614a4.973 4.973 0 0 0 2.31-3.841c0-1.38-1.035-1.905-2.31-1.17Z" opacity=".6"/><path fill="#38A0ED" d="m341.74 78.329-6.255 3.615a4.974 4.974 0 0 0-2.31 3.84c0 1.38 1.035 1.904 2.31 1.17l6.255-3.63a4.93 4.93 0 0 0 2.31-3.825c0-1.38-1.035-1.905-2.31-1.17Z"/><path fill="#fff" d="m341.74 78.329-6.255 3.615a4.974 4.974 0 0 0-2.31 3.84c0 1.38 1.035 1.904 2.31 1.17l6.255-3.63a4.93 4.93 0 0 0 2.31-3.825c0-1.38-1.035-1.905-2.31-1.17Z" opacity=".6"/><path fill="#38A0ED" d="m332.95 96.224-6.255 3.63a4.924 4.924 0 0 0-2.31 3.824c0 1.38 1.035 1.905 2.31 1.17l6.255-3.615a4.955 4.955 0 0 0 2.31-3.855c0-1.365-1.035-1.89-2.31-1.154Z"/><path fill="#fff" d="m332.95 96.224-6.255 3.63a4.924 4.924 0 0 0-2.31 3.824c0 1.38 1.035 1.905 2.31 1.17l6.255-3.615a4.955 4.955 0 0 0 2.31-3.855c0-1.365-1.035-1.89-2.31-1.154Z" opacity=".6"/><path fill="#38A0ED" d="m332.95 109.048-6.255 3.615a4.973 4.973 0 0 0-2.31 3.84c0 1.38 1.035 1.905 2.31 1.17l6.255-3.615a4.97 4.97 0 0 0 2.31-3.84c0-1.38-1.035-1.905-2.31-1.17Z"/><path fill="#fff" d="m332.95 109.048-6.255 3.615a4.973 4.973 0 0 0-2.31 3.84c0 1.38 1.035 1.905 2.31 1.17l6.255-3.615a4.97 4.97 0 0 0 2.31-3.84c0-1.38-1.035-1.905-2.31-1.17Z" opacity=".6"/><path fill="#38A0ED" d="m341.74 116.878-6.255 3.615a4.957 4.957 0 0 0-1.622 1.665 4.955 4.955 0 0 0-.688 2.22c0 1.38 1.035 1.905 2.31 1.17l6.255-3.615a4.98 4.98 0 0 0 2.31-3.84c0-1.425-1.035-1.95-2.31-1.215Z"/><path fill="#fff" d="m341.74 116.878-6.255 3.615a4.957 4.957 0 0 0-1.622 1.665 4.955 4.955 0 0 0-.688 2.22c0 1.38 1.035 1.905 2.31 1.17l6.255-3.615a4.98 4.98 0 0 0 2.31-3.84c0-1.425-1.035-1.95-2.31-1.215Z" opacity=".6"/><path fill="#38A0ED" d="m332.95 134.788-6.255 3.615a4.983 4.983 0 0 0-2.31 3.84c0 1.38 1.035 1.905 2.31 1.17l6.255-3.615a4.97 4.97 0 0 0 2.31-3.84c0-1.38-1.035-1.905-2.31-1.17Z"/><path fill="#fff" d="m332.95 134.788-6.255 3.615a4.983 4.983 0 0 0-2.31 3.84c0 1.38 1.035 1.905 2.31 1.17l6.255-3.615a4.97 4.97 0 0 0 2.31-3.84c0-1.38-1.035-1.905-2.31-1.17Z" opacity=".6"/><path fill="#38A0ED" d="m324.67 88.229-38.265 22.065a4.93 4.93 0 0 0-2.235 3.825c0 1.38 1.035 1.905 2.31 1.17l38.19-22.065a4.94 4.94 0 0 0 2.31-3.825c-.06-1.395-1.095-1.905-2.31-1.17Z"/><path fill="#fff" d="m324.67 88.229-38.265 22.065a4.93 4.93 0 0 0-2.235 3.825c0 1.38 1.035 1.905 2.31 1.17l38.19-22.065a4.94 4.94 0 0 0 2.31-3.825c-.06-1.395-1.095-1.905-2.31-1.17Z" opacity=".8"/><path fill="#38A0ED" d="m324.67 152.488-38.205 22.065a4.963 4.963 0 0 0-2.295 3.825c0 1.38 1.035 1.905 2.31 1.17l38.19-22.05a4.961 4.961 0 0 0 2.31-3.84c-.06-1.38-1.095-1.905-2.31-1.17Z"/><path fill="#fff" d="m324.67 152.488-38.205 22.065a4.963 4.963 0 0 0-2.295 3.825c0 1.38 1.035 1.905 2.31 1.17l38.19-22.05a4.961 4.961 0 0 0 2.31-3.84c-.06-1.38-1.095-1.905-2.31-1.17Z" opacity=".8"/><path fill="#38A0ED" d="m315.82 106.123-29.415 17.01a4.996 4.996 0 0 0-1.57 1.657 4.996 4.996 0 0 0-.665 2.183c0 1.38 1.035 1.905 2.31 1.17l29.34-17.01a4.961 4.961 0 0 0 2.31-3.84c0-1.38-.96-1.905-2.31-1.17Z"/><path fill="#fff" d="m315.82 106.123-29.415 17.01a4.996 4.996 0 0 0-1.57 1.657 4.996 4.996 0 0 0-.665 2.183c0 1.38 1.035 1.905 2.31 1.17l29.34-17.01a4.961 4.961 0 0 0 2.31-3.84c0-1.38-.96-1.905-2.31-1.17Z" opacity=".8"/><path fill="#38A0ED" d="m315.82 118.979-29.415 17.01a4.958 4.958 0 0 0-2.235 3.84c0 1.38 1.035 1.905 2.31 1.17l29.34-17.01a4.98 4.98 0 0 0 2.31-3.84c0-1.38-.96-1.905-2.31-1.17Z"/><path fill="#fff" d="m315.82 118.979-29.415 17.01a4.958 4.958 0 0 0-2.235 3.84c0 1.38 1.035 1.905 2.31 1.17l29.34-17.01a4.98 4.98 0 0 0 2.31-3.84c0-1.38-.96-1.905-2.31-1.17Z" opacity=".8"/><path fill="#38A0ED" d="m324.67 126.778-38.205 22.065a4.967 4.967 0 0 0-2.31 3.84c0 1.38 1.035 1.905 2.31 1.17l38.205-22.065a4.961 4.961 0 0 0 2.31-3.84c-.06-1.38-1.095-1.905-2.31-1.17Z"/><path fill="#fff" d="m324.67 126.778-38.205 22.065a4.967 4.967 0 0 0-2.31 3.84c0 1.38 1.035 1.905 2.31 1.17l38.205-22.065a4.961 4.961 0 0 0 2.31-3.84c-.06-1.38-1.095-1.905-2.31-1.17Z" opacity=".8"/><path fill="#38A0ED" d="m315.82 144.688-29.415 17.01a4.967 4.967 0 0 0-2.31 3.84c0 1.38 1.035 1.905 2.31 1.17l29.415-17.01a4.961 4.961 0 0 0 2.31-3.84c0-1.38-.96-1.905-2.31-1.17Z"/><path fill="#fff" d="m315.82 144.688-29.415 17.01a4.967 4.967 0 0 0-2.31 3.84c0 1.38 1.035 1.905 2.31 1.17l29.415-17.01a4.961 4.961 0 0 0 2.31-3.84c0-1.38-.96-1.905-2.31-1.17Z" opacity=".8"/></g><path fill="#38A0ED" d="m165.94 231.433-55.77 32.115a4.911 4.911 0 0 0-2.235 3.855v76.245a4.857 4.857 0 0 0 2.235 3.825l4.245 2.4a4.992 4.992 0 0 0 4.5 0l55.755-32.13a4.89 4.89 0 0 0 2.22-3.855v-76.23a4.856 4.856 0 0 0-2.22-3.78l-4.245-2.4a4.957 4.957 0 0 0-4.485-.045Z"/><path fill="#000" d="M118.915 349.858a5.13 5.13 0 0 1-4.5 0l-4.245-2.385a4.813 4.813 0 0 1-1.59-1.639 4.821 4.821 0 0 1-.66-2.186v-76.245c.037-.803.28-1.583.705-2.265l8.67 5.01a4.505 4.505 0 0 0-.66 2.19v76.23c.045 1.305 1.035 2.055 2.28 1.29Z" opacity=".2"/><path fill="#fff" d="M176.86 237.253c-.18-1.125-1.095-1.5-2.205-.885l-55.74 32.115a4.515 4.515 0 0 0-1.5 1.665l-8.745-5.01a4.342 4.342 0 0 1 1.5-1.59l55.74-32.115a4.995 4.995 0 0 1 4.5 0l4.26 2.445a4.91 4.91 0 0 1 2.19 3.375Z" opacity=".5"/><path fill="#38A0ED" d="m174.67 236.369-55.755 32.115a4.902 4.902 0 0 0-2.235 3.855v76.23c0 1.425 1.005 1.995 2.235 1.29l55.755-32.115a4.893 4.893 0 0 0 2.22-3.855v-76.23c-.015-1.425-1.005-1.995-2.22-1.29Z"/><path fill="#fff" d="M120.37 308.083a3.865 3.865 0 0 1 .24-1.395c.204-.449.445-.88.72-1.29l13.14-21.255.21-.255.15-.105a.373.373 0 0 1 .495 0 .889.889 0 0 1 .195.645v8.205a3.518 3.518 0 0 1-.375 1.71c-.25.47-.475.845-.675 1.125l-5.745 8.91 5.745 2.25c.238.073.466.179.675.315.255.165.375.57.375 1.245v8.19c.003.302-.064.6-.195.87a1.23 1.23 0 0 1-.495.585h-.15a.465.465 0 0 1-.21 0l-13.14-6a1.716 1.716 0 0 1-.72-.48 1.82 1.82 0 0 1-.24-1.095v-2.175Zm28.665-36.045c.114-.457.28-.9.495-1.32.208-.434.543-.794.96-1.035l4.395-2.535a.39.39 0 0 1 .51 0 .859.859 0 0 1 .21.66c.019.165.019.331 0 .495l-11.115 47.355a6.993 6.993 0 0 1-.45 1.29 2.52 2.52 0 0 1-.99 1.065l-4.38 2.52a.386.386 0 0 1-.255.095.386.386 0 0 1-.255-.095.873.873 0 0 1-.225-.66 2.275 2.275 0 0 1 0-.495l11.1-47.34Zm24.135 7.666c.008.471-.074.939-.24 1.38-.204.449-.445.88-.72 1.29l-13.14 21.255a1.4 1.4 0 0 1-.225.255l-.135.12c-.21.105-.375.105-.495 0a.86.86 0 0 1-.195-.645v-8.19a3.414 3.414 0 0 1 .375-1.695c.255-.45.48-.81.675-1.095l5.745-8.895-5.745-2.19a2.408 2.408 0 0 1-.675-.345c-.255-.18-.375-.6-.375-1.275v-8.295a1.983 1.983 0 0 1 .195-.87 1.21 1.21 0 0 1 .495-.585h.36l13.14 6.075c.274.102.52.266.72.48.191.331.274.714.24 1.095v2.13Z"/><path fill="#38A0ED" d="M164.664 397.83a1.04 1.04 0 0 0-1.14.15l-2.31 1.65-.48 1.5a2.723 2.723 0 0 0 .765 2.61c.406.403.782.834 1.125 1.29a1.62 1.62 0 0 0 2.25.39l5.4-3.87a1.095 1.095 0 0 1 1.125-.165l-6.735-3.555Zm-7.71 20.64c-.96-4.5-3.915-6.585-7.605-6.135.382.831.674 1.701.87 2.595 1.5 7.08-2.595 17.355-9.165 22.965a13.575 13.575 0 0 1-6.975 3.465c2.415 4.695 8.055 4.92 13.725.075 6.57-5.55 10.665-15.825 9.15-22.965Zm-1.11-30.435a1.374 1.374 0 0 0-.435-.165l-4.215-.78a2.283 2.283 0 0 0-2.325 1.2l-3.63 7.68a3.546 3.546 0 0 1-.84 1.035 3.4 3.4 0 0 1-.645.48l1.395 4.035a1.508 1.508 0 0 0 .832.834 1.5 1.5 0 0 0 1.178-.024 21.035 21.035 0 0 1 2.535-.945 3.99 3.99 0 0 0 1.5-.84c.351-.285.642-.637.855-1.035l3.615-7.65a2.27 2.27 0 0 1 2.325-1.2l4.23.78c.145.029.286.074.42.135l-6.795-3.54Zm-8.85 73.035a1.24 1.24 0 0 1-.42-.63l-1.59-4.635a1.409 1.409 0 0 0-2.01-.81c-.825.378-1.677.694-2.55.945a3.4 3.4 0 0 0-.795.375l.21.6c.091.296.296.545.57.69l6.585 3.465Zm-10.77-68.385a.856.856 0 0 0-.465-.105 1.096 1.096 0 0 0-.75.33l-6.075 5.16a1.762 1.762 0 0 0-.225.24 1.931 1.931 0 0 0-.165.195c-.211.312-.382.65-.51 1.005v.255a2.717 2.717 0 0 0-.135 1.005l.615 6a4.674 4.674 0 0 1-.855 2.91 51.925 51.925 0 0 0-2.745 3.975 3.31 3.31 0 0 1-1.35 1.11 2.293 2.293 0 0 1-.54.195c-.084.008-.17.008-.255 0h-4.815a1.11 1.11 0 0 0-.3.075 1.534 1.534 0 0 0-.315.135 2.568 2.568 0 0 0-1.185 1.23l-3.435 8.64a1.595 1.595 0 0 0 .72 2.01l4.5 2.4c.157.364.204.765.135 1.155a39.152 39.152 0 0 0-.54 4.065 4.977 4.977 0 0 1-1.23 2.805l-5.295 5.265c-.092.089-.173.19-.24.3a1.503 1.503 0 0 0-.195.375 3.18 3.18 0 0 0-.33 2.04l1.29 6a1.231 1.231 0 0 0 .51.81l6.615 3.705a1.144 1.144 0 0 1-.495-.78l-1.29-6a2.847 2.847 0 0 1 0-1.17c.104-.601.38-1.159.795-1.605l5.28-5.265a5.144 5.144 0 0 0 1.245-2.805c.109-1.364.289-2.72.54-4.065a2.04 2.04 0 0 0-1.2-2.205l-3.315-1.245a1.619 1.619 0 0 1-.93-2.115l3.525-8.745a2.39 2.39 0 0 1 .615-.84 2.493 2.493 0 0 1 1.65-.675h4.035c.401.004.798-.089 1.155-.27a3.174 3.174 0 0 0 1.335-1.125 54.776 54.776 0 0 1 2.745-3.96 4.6 4.6 0 0 0 .855-3l-.6-5.925a2.502 2.502 0 0 1 .105-1.035c.149-.645.489-1.23.975-1.68l6-5.175a1.092 1.092 0 0 1 1.23-.225l-6.69-3.375Zm-6.78 63.585a2.788 2.788 0 0 0-.765-2.61 10.252 10.252 0 0 1-1.125-1.275 1.602 1.602 0 0 0-2.25-.42l-3.075 2.205-2.115 6.3a1.4 1.4 0 0 0 .63 1.68l6.765 3.54a1.383 1.383 0 0 1-.63-1.68l2.565-7.74Z"/><path fill="#000" d="M164.664 397.83a1.04 1.04 0 0 0-1.14.15l-2.31 1.65-.48 1.5a2.723 2.723 0 0 0 .765 2.61c.406.403.782.834 1.125 1.29a1.62 1.62 0 0 0 2.25.39l5.4-3.87a1.095 1.095 0 0 1 1.125-.165l-6.735-3.555Zm-7.71 20.64c-.96-4.5-3.915-6.585-7.605-6.135.382.831.674 1.701.87 2.595 1.5 7.08-2.595 17.355-9.165 22.965a13.575 13.575 0 0 1-6.975 3.465c2.415 4.695 8.055 4.92 13.725.075 6.57-5.55 10.665-15.825 9.15-22.965Zm-1.11-30.435a1.374 1.374 0 0 0-.435-.165l-4.215-.78a2.283 2.283 0 0 0-2.325 1.2l-3.63 7.68a3.546 3.546 0 0 1-.84 1.035 3.4 3.4 0 0 1-.645.48l1.395 4.035a1.508 1.508 0 0 0 .832.834 1.5 1.5 0 0 0 1.178-.024 21.035 21.035 0 0 1 2.535-.945 3.99 3.99 0 0 0 1.5-.84c.351-.285.642-.637.855-1.035l3.615-7.65a2.27 2.27 0 0 1 2.325-1.2l4.23.78c.145.029.286.074.42.135l-6.795-3.54Zm-8.85 73.035a1.24 1.24 0 0 1-.42-.63l-1.59-4.635a1.409 1.409 0 0 0-2.01-.81c-.825.378-1.677.694-2.55.945a3.4 3.4 0 0 0-.795.375l.21.6c.091.296.296.545.57.69l6.585 3.465Zm-10.77-68.385a.856.856 0 0 0-.465-.105 1.096 1.096 0 0 0-.75.33l-6.075 5.16a1.762 1.762 0 0 0-.225.24 1.931 1.931 0 0 0-.165.195c-.211.312-.382.65-.51 1.005v.255a2.717 2.717 0 0 0-.135 1.005l.615 6a4.674 4.674 0 0 1-.855 2.91 51.925 51.925 0 0 0-2.745 3.975 3.31 3.31 0 0 1-1.35 1.11 2.293 2.293 0 0 1-.54.195c-.084.008-.17.008-.255 0h-4.815a1.11 1.11 0 0 0-.3.075 1.534 1.534 0 0 0-.315.135 2.568 2.568 0 0 0-1.185 1.23l-3.435 8.64a1.595 1.595 0 0 0 .72 2.01l4.5 2.4c.157.364.204.765.135 1.155a39.152 39.152 0 0 0-.54 4.065 4.977 4.977 0 0 1-1.23 2.805l-5.295 5.265c-.092.089-.173.19-.24.3a1.503 1.503 0 0 0-.195.375 3.18 3.18 0 0 0-.33 2.04l1.29 6a1.231 1.231 0 0 0 .51.81l6.615 3.705a1.144 1.144 0 0 1-.495-.78l-1.29-6a2.847 2.847 0 0 1 0-1.17c.104-.601.38-1.159.795-1.605l5.28-5.265a5.144 5.144 0 0 0 1.245-2.805c.109-1.364.289-2.72.54-4.065a2.04 2.04 0 0 0-1.2-2.205l-3.315-1.245a1.619 1.619 0 0 1-.93-2.115l3.525-8.745a2.39 2.39 0 0 1 .615-.84 2.493 2.493 0 0 1 1.65-.675h4.035c.401.004.798-.089 1.155-.27a3.174 3.174 0 0 0 1.335-1.125 54.776 54.776 0 0 1 2.745-3.96 4.6 4.6 0 0 0 .855-3l-.6-5.925a2.502 2.502 0 0 1 .105-1.035c.149-.645.489-1.23.975-1.68l6-5.175a1.092 1.092 0 0 1 1.23-.225l-6.69-3.375Zm-6.78 63.585a2.788 2.788 0 0 0-.765-2.61 10.252 10.252 0 0 1-1.125-1.275 1.602 1.602 0 0 0-2.25-.42l-3.075 2.205-2.115 6.3a1.4 1.4 0 0 0 .63 1.68l6.765 3.54a1.383 1.383 0 0 1-.63-1.68l2.565-7.74Z" opacity=".3"/><path fill="#38A0ED" d="m122.98 441.15-5.28 5.265a3.127 3.127 0 0 0-.795 1.605l-6.735-3.525a4.05 4.05 0 0 1 .3-.885c.047-.134.113-.26.195-.375.067-.11.147-.211.24-.3l5.295-5.265 6.78 3.48Zm7.29-22.89a2.505 2.505 0 0 1-1.155.27h-4.035a2.486 2.486 0 0 0-1.65.675l-6.735-3.54c.171-.155.363-.287.57-.39.099-.057.205-.102.315-.135.096-.039.197-.065.3-.075h5.07l.525-.21 6.795 3.405Zm41.175-16.905a1.045 1.045 0 0 0-1.125.18l-5.4 3.87a1.62 1.62 0 0 1-2.25-.42 10.299 10.299 0 0 0-1.14-1.275 2.763 2.763 0 0 1-.75-2.625l.48-1.5 2.31-1.665a1.036 1.036 0 0 1 1.14-.15l6.735 3.585Zm-8.865-9.735a1.96 1.96 0 0 0-.42-.135l-4.215-.78a2.263 2.263 0 0 0-2.325 1.2l-3.675 7.65a3.43 3.43 0 0 1-.855 1.035l-6.645-3.54c.343-.289.628-.64.84-1.035l3.63-7.65a2.276 2.276 0 0 1 2.325-1.2l4.215.78c.153.03.3.086.435.165l6.69 3.51Zm-19.635 4.59a1.094 1.094 0 0 0-1.23.225l-6 5.175a3.3 3.3 0 0 0-.975 1.68l-6.795-3.525v-.255c.127-.355.298-.693.51-1.005.05-.069.106-.134.165-.195.067-.087.142-.168.225-.24l6.165-5.1c.198-.203.467-.321.75-.33a.848.848 0 0 1 .465.105l6.72 3.465Z"/><path fill="#000" d="m122.98 441.15-5.28 5.265a3.127 3.127 0 0 0-.795 1.605l-6.735-3.525a4.05 4.05 0 0 1 .3-.885c.047-.134.113-.26.195-.375.067-.11.147-.211.24-.3l5.295-5.265 6.78 3.48Zm7.29-22.89a2.505 2.505 0 0 1-1.155.27h-4.035a2.486 2.486 0 0 0-1.65.675l-6.735-3.54c.171-.155.363-.287.57-.39.099-.057.205-.102.315-.135.096-.039.197-.065.3-.075h5.07l.525-.21 6.795 3.405Zm41.175-16.905a1.045 1.045 0 0 0-1.125.18l-5.4 3.87a1.62 1.62 0 0 1-2.25-.42 10.299 10.299 0 0 0-1.14-1.275 2.763 2.763 0 0 1-.75-2.625l.48-1.5 2.31-1.665a1.036 1.036 0 0 1 1.14-.15l6.735 3.585Zm-8.865-9.735a1.96 1.96 0 0 0-.42-.135l-4.215-.78a2.263 2.263 0 0 0-2.325 1.2l-3.675 7.65a3.43 3.43 0 0 1-.855 1.035l-6.645-3.54c.343-.289.628-.64.84-1.035l3.63-7.65a2.276 2.276 0 0 1 2.325-1.2l4.215.78c.153.03.3.086.435.165l6.69 3.51Zm-19.635 4.59a1.094 1.094 0 0 0-1.23.225l-6 5.175a3.3 3.3 0 0 0-.975 1.68l-6.795-3.525v-.255c.127-.355.298-.693.51-1.005.05-.069.106-.134.165-.195.067-.087.142-.168.225-.24l6.165-5.1c.198-.203.467-.321.75-.33a.848.848 0 0 1 .465.105l6.72 3.465Z" opacity=".2"/><path fill="#38A0ED" d="m173.23 408.18-1.275-6a.99.99 0 0 0-1.68-.645l-5.4 3.87a1.62 1.62 0 0 1-2.25-.42 10.171 10.171 0 0 0-1.125-1.275 2.763 2.763 0 0 1-.765-2.61l2.52-7.77a1.387 1.387 0 0 0-.105-1.199 1.378 1.378 0 0 0-1.005-.661l-4.2-.765a2.298 2.298 0 0 0-2.325 1.2l-3.675 7.635a4.127 4.127 0 0 1-2.31 1.89c-.867.254-1.714.569-2.535.945a1.498 1.498 0 0 1-1.182.018 1.503 1.503 0 0 1-.828-.843l-1.605-4.62a1.048 1.048 0 0 0-1.305-.783 1.05 1.05 0 0 0-.48.288l-6 5.175a3.487 3.487 0 0 0-1.08 2.7l.615 6a4.745 4.745 0 0 1-.87 3 49.134 49.134 0 0 0-2.745 3.975 3.207 3.207 0 0 1-2.49 1.38h-4.035a2.569 2.569 0 0 0-2.25 1.5l-3.45 8.64a1.594 1.594 0 0 0 .022 1.246 1.621 1.621 0 0 0 .908.854l3.3 1.26a2.023 2.023 0 0 1 1.215 2.19 39.436 39.436 0 0 0-.54 4.08 5.048 5.048 0 0 1-1.245 2.805l-5.34 5.325a3.374 3.374 0 0 0-.825 2.76l1.29 6a.988.988 0 0 0 1.188.907 1 1 0 0 0 .492-.262l5.4-3.87a1.594 1.594 0 0 1 1.787-.02c.177.116.329.265.448.44.348.452.729.878 1.14 1.275a2.715 2.715 0 0 1 .75 2.61l-2.505 7.755a1.377 1.377 0 0 0-.079.61 1.39 1.39 0 0 0 1.189 1.25l4.215.765a2.233 2.233 0 0 0 2.31-1.185l3.63-7.65a4.154 4.154 0 0 1 2.295-1.98c.867-.259 1.714-.58 2.535-.96a1.508 1.508 0 0 1 2.01.825l1.605 4.635a1.043 1.043 0 0 0 .744.783 1.054 1.054 0 0 0 1.041-.288l6-5.175a3.54 3.54 0 0 0 1.08-2.715l-.615-6a4.8 4.8 0 0 1 .855-2.91 45.931 45.931 0 0 0 2.76-3.975 3.266 3.266 0 0 1 2.49-1.395h4.035a2.594 2.594 0 0 0 2.25-1.5l3.45-8.64a1.61 1.61 0 0 0-.39-1.765 1.627 1.627 0 0 0-.54-.335l-3.315-1.26a2.042 2.042 0 0 1-1.2-2.205c.251-1.345.432-2.701.54-4.065a4.99 4.99 0 0 1 1.245-2.805l5.4-5.25c.336-.374.583-.819.723-1.303.141-.483.17-.991.087-1.487Zm-25.425 33.315c-6.57 5.61-13.125 4.425-14.64-2.655-1.515-7.08 2.58-17.355 9.15-22.965 6.57-5.61 13.125-4.425 14.64 2.655 1.515 7.08-2.58 17.355-9.15 22.965ZM241.81 394.8a1.322 1.322 0 0 0-1.395.09l-2.91 1.8-.675 1.71a3.265 3.265 0 0 0 .69 3.195c.463.51.885 1.057 1.26 1.635a1.936 1.936 0 0 0 2.655.66l6.795-4.215a1.308 1.308 0 0 1 1.365-.105l-7.785-4.77Zm-10.95 24.24c-.795-5.43-4.155-8.235-8.64-7.98.409 1.021.691 2.089.84 3.18 1.245 8.625-4.5 20.64-12.87 26.835a16.503 16.503 0 0 1-8.67 3.6c2.52 5.82 9.285 6.555 16.5 1.2 8.325-6.195 14.085-18.21 12.84-26.835Zm1.14-36.645a1.504 1.504 0 0 0-.51-.225l-4.995-1.2a2.713 2.713 0 0 0-2.895 1.245l-4.98 8.895a4.225 4.225 0 0 1-1.095 1.17 5.341 5.341 0 0 1-.825.51l1.335 4.965a1.746 1.746 0 0 0 .915 1.113 1.742 1.742 0 0 0 1.44.042 22.789 22.789 0 0 1 3.12-.945 5.158 5.158 0 0 0 1.83-.885c.44-.318.813-.721 1.095-1.185l5.01-8.925a2.785 2.785 0 0 1 2.895-1.245l5.01 1.275c.174.045.341.116.495.21L232 382.395Zm-16.5 86.91a1.29 1.29 0 0 1-.45-.78l-1.5-5.685a1.714 1.714 0 0 0-1.618-1.296 1.705 1.705 0 0 0-.722.141 21.34 21.34 0 0 1-3.135.945 3.41 3.41 0 0 0-.975.375l.195.735c.092.363.316.679.63.885l7.575 4.68Zm-7.395-82.995a.989.989 0 0 0-.54-.165 1.497 1.497 0 0 0-.93.33l-7.71 5.715a1.287 1.287 0 0 0-.3.27 2.795 2.795 0 0 0-.21.225 4.724 4.724 0 0 0-.69 1.17l-.105.285c-.143.389-.219.8-.225 1.215l.255 7.185a5.736 5.736 0 0 1-1.275 3.435 55.77 55.77 0 0 0-3.615 4.5 3.827 3.827 0 0 1-1.71 1.23 2.714 2.714 0 0 1-.66.18h-.315a2.108 2.108 0 0 1-.435 0l-4.845-.375h-.15a1.696 1.696 0 0 0-.39 0 1.446 1.446 0 0 0-.36 0l-.39.15a4.283 4.283 0 0 0-.72.42c-.33.261-.6.588-.795.96l-4.83 10.095a1.933 1.933 0 0 0 .69 2.475l5.295 3.24c.17.45.202.941.09 1.41a43.872 43.872 0 0 0-.975 4.845 6.113 6.113 0 0 1-1.815 3.48l-6.78 5.895c-.125.1-.236.216-.33.345a1.677 1.677 0 0 0-.285.435 3.941 3.941 0 0 0-.57 2.415l1.08 7.32a1.39 1.39 0 0 0 .555 1.005l7.77 4.77a1.383 1.383 0 0 1-.525-.975l-1.05-7.32a3.442 3.442 0 0 1 .105-1.395 4.02 4.02 0 0 1 1.095-1.875l6.765-5.88h.09a6.17 6.17 0 0 0 1.725-3.255c.187-1.616.473-3.219.855-4.8a2.441 2.441 0 0 0-1.275-2.745l-3.87-1.77a1.94 1.94 0 0 1-1.018-1.108 1.954 1.954 0 0 1 .073-1.502l4.83-10.095c.191-.383.468-.717.81-.975a3 3 0 0 1 2.025-.66l4.845.36c.482.035.966-.048 1.41-.24a3.76 3.76 0 0 0 1.695-1.23c1.14-1.5 2.355-3.09 3.615-4.5a5.643 5.643 0 0 0 1.275-3.435l-.255-7.185c-.01-.421.067-.84.225-1.23a4 4 0 0 1 1.305-1.935l7.695-5.715a1.291 1.291 0 0 1 1.5-.18l-7.725-4.815Zm-13.38 75.825a3.33 3.33 0 0 0-.78-3.165 11.413 11.413 0 0 1-1.245-1.635 1.952 1.952 0 0 0-2.67-.675l-3.855 2.31-3 7.5c-.16.359-.185.764-.072 1.141.112.377.356.701.687.914l7.83 4.815a1.694 1.694 0 0 1-.615-2.085l3.72-9.12Z"/><path fill="#000" d="M241.81 394.8a1.322 1.322 0 0 0-1.395.09l-2.91 1.8-.675 1.71a3.265 3.265 0 0 0 .69 3.195c.463.51.885 1.057 1.26 1.635a1.936 1.936 0 0 0 2.655.66l6.795-4.215a1.308 1.308 0 0 1 1.365-.105l-7.785-4.77Zm-10.95 24.24c-.795-5.43-4.155-8.235-8.64-7.98.409 1.021.691 2.089.84 3.18 1.245 8.625-4.5 20.64-12.87 26.835a16.503 16.503 0 0 1-8.67 3.6c2.52 5.82 9.285 6.555 16.5 1.2 8.325-6.195 14.085-18.21 12.84-26.835Zm1.14-36.645a1.504 1.504 0 0 0-.51-.225l-4.995-1.2a2.713 2.713 0 0 0-2.895 1.245l-4.98 8.895a4.225 4.225 0 0 1-1.095 1.17 5.341 5.341 0 0 1-.825.51l1.335 4.965a1.746 1.746 0 0 0 .915 1.113 1.742 1.742 0 0 0 1.44.042 22.789 22.789 0 0 1 3.12-.945 5.158 5.158 0 0 0 1.83-.885c.44-.318.813-.721 1.095-1.185l5.01-8.925a2.785 2.785 0 0 1 2.895-1.245l5.01 1.275c.174.045.341.116.495.21L232 382.395Zm-16.5 86.91a1.29 1.29 0 0 1-.45-.78l-1.5-5.685a1.714 1.714 0 0 0-1.618-1.296 1.705 1.705 0 0 0-.722.141 21.34 21.34 0 0 1-3.135.945 3.41 3.41 0 0 0-.975.375l.195.735c.092.363.316.679.63.885l7.575 4.68Zm-7.395-82.995a.989.989 0 0 0-.54-.165 1.497 1.497 0 0 0-.93.33l-7.71 5.715a1.287 1.287 0 0 0-.3.27 2.795 2.795 0 0 0-.21.225 4.724 4.724 0 0 0-.69 1.17l-.105.285c-.143.389-.219.8-.225 1.215l.255 7.185a5.736 5.736 0 0 1-1.275 3.435 55.77 55.77 0 0 0-3.615 4.5 3.827 3.827 0 0 1-1.71 1.23 2.714 2.714 0 0 1-.66.18h-.315a2.108 2.108 0 0 1-.435 0l-4.845-.375h-.15a1.696 1.696 0 0 0-.39 0 1.446 1.446 0 0 0-.36 0l-.39.15a4.283 4.283 0 0 0-.72.42c-.33.261-.6.588-.795.96l-4.83 10.095a1.933 1.933 0 0 0 .69 2.475l5.295 3.24c.17.45.202.941.09 1.41a43.872 43.872 0 0 0-.975 4.845 6.113 6.113 0 0 1-1.815 3.48l-6.78 5.895c-.125.1-.236.216-.33.345a1.677 1.677 0 0 0-.285.435 3.941 3.941 0 0 0-.57 2.415l1.08 7.32a1.39 1.39 0 0 0 .555 1.005l7.77 4.77a1.383 1.383 0 0 1-.525-.975l-1.05-7.32a3.442 3.442 0 0 1 .105-1.395 4.02 4.02 0 0 1 1.095-1.875l6.765-5.88h.09a6.17 6.17 0 0 0 1.725-3.255c.187-1.616.473-3.219.855-4.8a2.441 2.441 0 0 0-1.275-2.745l-3.87-1.77a1.94 1.94 0 0 1-1.018-1.108 1.954 1.954 0 0 1 .073-1.502l4.83-10.095c.191-.383.468-.717.81-.975a3 3 0 0 1 2.025-.66l4.845.36c.482.035.966-.048 1.41-.24a3.76 3.76 0 0 0 1.695-1.23c1.14-1.5 2.355-3.09 3.615-4.5a5.643 5.643 0 0 0 1.275-3.435l-.255-7.185c-.01-.421.067-.84.225-1.23a4 4 0 0 1 1.305-1.935l7.695-5.715a1.291 1.291 0 0 1 1.5-.18l-7.725-4.815Zm-13.38 75.825a3.33 3.33 0 0 0-.78-3.165 11.413 11.413 0 0 1-1.245-1.635 1.952 1.952 0 0 0-2.67-.675l-3.855 2.31-3 7.5c-.16.359-.185.764-.072 1.141.112.377.356.701.687.914l7.83 4.815a1.694 1.694 0 0 1-.615-2.085l3.72-9.12Z" opacity=".3"/><path fill="#38A0ED" d="m188.215 443.445-6.765 5.88a4.02 4.02 0 0 0-1.095 1.875l-7.785-4.785c.099-.36.24-.707.42-1.035.072-.159.168-.306.285-.435.094-.129.205-.245.33-.345l6.84-5.955 7.77 4.8Zm10.62-26.91a3.006 3.006 0 0 1-1.41.24l-4.845-.36a3 3 0 0 0-2.025.66l-7.815-4.785c.226-.163.467-.304.72-.42l.39-.15c.119-.015.24-.015.36 0 .129-.015.26-.015.39 0h.12l4.845.375c.144.015.29.015.435 0h.315c.218-.053.433-.119.645-.195l7.875 4.635Zm50.76-16.95a1.276 1.276 0 0 0-1.365.12l-6.795 4.215a1.927 1.927 0 0 1-1.471.207 1.937 1.937 0 0 1-1.184-.897 13.57 13.57 0 0 0-1.26-1.635 3.255 3.255 0 0 1-.69-3.195l.675-1.68 2.91-1.815a1.293 1.293 0 0 1 1.395-.09l7.785 4.77ZM239.8 387.18a1.831 1.831 0 0 0-.495-.21l-5.01-1.275a2.79 2.79 0 0 0-2.85 1.275l-4.965 8.895a4.074 4.074 0 0 1-1.095 1.185l-7.815-4.8a4.21 4.21 0 0 0 1.095-1.17l4.98-8.895a2.713 2.713 0 0 1 2.895-1.245l4.995 1.275c.182.042.355.119.51.225l7.755 4.74Zm-23.91 3.915a1.291 1.291 0 0 0-1.5.18l-7.695 5.715a4 4 0 0 0-1.305 1.935l-7.815-4.785.105-.285c.172-.421.405-.815.69-1.17.066-.079.136-.154.21-.225.085-.105.186-.196.3-.27l7.71-5.715c.264-.212.591-.328.93-.33.192.001.38.059.54.165l7.83 4.785Z"/><path fill="#000" d="m188.215 443.445-6.765 5.88a4.02 4.02 0 0 0-1.095 1.875l-7.785-4.785c.099-.36.24-.707.42-1.035.072-.159.168-.306.285-.435.094-.129.205-.245.33-.345l6.84-5.955 7.77 4.8Zm10.62-26.91a3.006 3.006 0 0 1-1.41.24l-4.845-.36a3 3 0 0 0-2.025.66l-7.815-4.785c.226-.163.467-.304.72-.42l.39-.15c.119-.015.24-.015.36 0 .129-.015.26-.015.39 0h.12l4.845.375c.144.015.29.015.435 0h.315c.218-.053.433-.119.645-.195l7.875 4.635Zm50.76-16.95a1.276 1.276 0 0 0-1.365.12l-6.795 4.215a1.927 1.927 0 0 1-1.471.207 1.937 1.937 0 0 1-1.184-.897 13.57 13.57 0 0 0-1.26-1.635 3.255 3.255 0 0 1-.69-3.195l.675-1.68 2.91-1.815a1.293 1.293 0 0 1 1.395-.09l7.785 4.77ZM239.8 387.18a1.831 1.831 0 0 0-.495-.21l-5.01-1.275a2.79 2.79 0 0 0-2.85 1.275l-4.965 8.895a4.074 4.074 0 0 1-1.095 1.185l-7.815-4.8a4.21 4.21 0 0 0 1.095-1.17l4.98-8.895a2.713 2.713 0 0 1 2.895-1.245l4.995 1.275c.182.042.355.119.51.225l7.755 4.74Zm-23.91 3.915a1.291 1.291 0 0 0-1.5.18l-7.695 5.715a4 4 0 0 0-1.305 1.935l-7.815-4.785.105-.285c.172-.421.405-.815.69-1.17.066-.079.136-.154.21-.225.085-.105.186-.196.3-.27l7.71-5.715c.264-.212.591-.328.93-.33.192.001.38.059.54.165l7.83 4.785Z" opacity=".2"/><path fill="#38A0ED" d="m251.26 407.97-1.065-7.32a1.202 1.202 0 0 0-1.965-.915l-6.795 4.2a1.928 1.928 0 0 1-1.469.219 1.912 1.912 0 0 1-1.186-.894 13.62 13.62 0 0 0-1.26-1.62 3.315 3.315 0 0 1-.69-3.21l3.645-9.105a1.687 1.687 0 0 0-.502-2.011 1.684 1.684 0 0 0-.668-.314l-5.01-1.26a2.703 2.703 0 0 0-2.85 1.23l-4.98 8.88a4.94 4.94 0 0 1-2.91 2.07 22.358 22.358 0 0 0-3.135.945 1.711 1.711 0 0 1-2.34-1.155l-1.5-5.7a1.257 1.257 0 0 0-.839-1.001 1.251 1.251 0 0 0-1.276.281l-7.695 5.715a4.263 4.263 0 0 0-1.5 3.165l.255 7.185a5.657 5.657 0 0 1-1.26 3.435c-1.275 1.5-2.49 3-3.63 4.5a3.952 3.952 0 0 1-3.105 1.5l-4.845-.375a3.1 3.1 0 0 0-2.835 1.635l-4.905 10.08a1.92 1.92 0 0 0-.079 1.504 1.93 1.93 0 0 0 1.024 1.106l3.87 1.785a2.396 2.396 0 0 1 1.26 2.73 47.758 47.758 0 0 0-.96 4.86 6.17 6.17 0 0 1-1.725 3.255l-6.855 6a3.985 3.985 0 0 0-1.2 3.255l1.05 7.32a1.206 1.206 0 0 0 .693 1.078 1.2 1.2 0 0 0 1.272-.163l6.795-4.215a1.952 1.952 0 0 1 2.655.675c.359.578.76 1.13 1.2 1.65a3.3 3.3 0 0 1 .705 3.195l-3.66 9.12a1.674 1.674 0 0 0 .512 2.014c.198.152.428.258.673.311l4.995 1.26a2.73 2.73 0 0 0 2.895-1.245l4.965-8.88a4.96 4.96 0 0 1 3-2.07c1.058-.253 2.1-.568 3.12-.945a1.721 1.721 0 0 1 2.022.495c.157.193.271.418.333.66l1.5 5.685a1.248 1.248 0 0 0 1.501 1.056c.226-.05.433-.161.599-.321l7.71-5.715a4.247 4.247 0 0 0 1.5-3.165l-.255-7.185a5.637 5.637 0 0 1 1.275-3.435c1.275-1.5 2.475-3 3.615-4.5a3.95 3.95 0 0 1 3.12-1.5l4.83.375a3.135 3.135 0 0 0 1.649-.416 3.13 3.13 0 0 0 1.186-1.219l4.83-10.095a1.94 1.94 0 0 0-.31-2.159 1.943 1.943 0 0 0-.62-.451l-3.87-1.77a2.43 2.43 0 0 1-1.275-2.745c.417-1.595.742-3.213.975-4.845a6.103 6.103 0 0 1 1.725-3.27l6.84-6a4.06 4.06 0 0 0 1.23-3.24Zm-33.315 37.905c-8.355 6.195-16.125 4.245-17.37-4.38-1.245-8.625 4.5-20.64 12.87-26.835s16.11-4.245 17.355 4.38c1.245 8.625-4.455 20.64-12.855 26.835Z"/><path fill="#455A64" d="M438.241 151.565v137.73a6.317 6.317 0 0 1-2.865 4.965l-79.125 45.645c-.281.183-.61.277-.945.27-.12.015-.24.015-.36 0h-.24l-.255-.135a2.312 2.312 0 0 1-.75-.96 3.471 3.471 0 0 1-.3-1.5v-137.1a6.318 6.318 0 0 1 2.85-4.95l79.155-45.615a2.121 2.121 0 0 1 1.935-.24l.24.135a.76.76 0 0 1 .195.18l.075.105a.556.556 0 0 1 .105.15c.07.118.126.244.165.375a.646.646 0 0 1 0 .24c.008.09.008.181 0 .27.053.141.093.287.12.435Z"/><path fill="#38A0ED" d="M437.311 149.675a2.114 2.114 0 0 0-1.935.24l-79.125 45.63a6.318 6.318 0 0 0-2.85 4.95v9.345l-7.35-4.23v-9.3a6.295 6.295 0 0 1 2.85-4.935l79.14-45.615a1.982 1.982 0 0 1 2.07-.165c.525.315 6.585 3.765 7.2 4.08Z"/><path fill="#38A0ED" d="M438.241 151.55c0-1.8-1.29-2.535-2.865-1.62l-79.125 45.615a6.327 6.327 0 0 0-2.85 4.95v9.36l84.84-48.9v-9.405Z"/><path fill="#fff" d="m435.406 149.915-79.14 45.63a5.738 5.738 0 0 0-2.025 2.115l-7.335-4.2a5.733 5.733 0 0 1 1.995-2.1l79.125-45.6a1.982 1.982 0 0 1 2.07-.165c.51.315 6.585 3.75 7.185 4.08a2.086 2.086 0 0 0-1.875.24Z" opacity=".5"/><path fill="#000" d="M346.051 205.61v-9.3c.041-1.008.34-1.99.87-2.85l7.335 4.185a5.664 5.664 0 0 0-.855 2.835v9.36l-7.35-4.23Z" opacity=".15"/><path fill="#455A64" d="M422.011 161.6a4.28 4.28 0 0 0-1.605 3.42c0 1.365.735 2.07 1.62 1.5a4.225 4.225 0 0 0 1.62-3.42c-.015-1.32-.735-2.055-1.635-1.5Zm5.895-3.375a4.274 4.274 0 0 0-1.62 3.42c0 1.38.72 2.07 1.62 1.5a4.28 4.28 0 0 0 1.5-3.36c0-1.38-.69-2.07-1.5-1.56Zm5.745-3.36a4.242 4.242 0 0 0-1.62 3.42c0 1.38.72 2.07 1.62 1.5a4.303 4.303 0 0 0 1.605-3.42c0-1.32-.72-2.01-1.605-1.5Z"/><path fill="#37474F" d="m354.406 339.92-.36-.21-6.84-3.93a2.486 2.486 0 0 1-.87-.975 3.516 3.516 0 0 1-.33-1.5v-127.71l7.35 4.23V337.52a3.457 3.457 0 0 0 .3 1.5c.177.354.433.663.75.9Z"/><path fill="#38A0ED" d="M360.556 217.475c0-.19.052-.377.15-.54l2.07-4.305.105-.135a.12.12 0 0 1 .165 0 .27.27 0 0 1 0 .21v1.5c.018.15.018.301 0 .45a2.244 2.244 0 0 1-.15.39l-.99 2.205 1.095 1.005a.465.465 0 0 1 .15.225 1.16 1.16 0 0 1 0 .39v1.5a.722.722 0 0 1 0 .3.435.435 0 0 1-.165.195.158.158 0 0 1-.105 0l-2.07-1.89a.42.42 0 0 1-.15-.375l-.105-1.125Zm7.605-10.8c.039-.143.089-.284.15-.42a.833.833 0 0 1 .315-.33l.78-.45a.133.133 0 0 1 .082-.028c.03 0 .059.01.083.028a.273.273 0 0 1 0 .21.758.758 0 0 1 0 .165l-3.525 15.195a1.829 1.829 0 0 1-.15.42.701.701 0 0 1-.315.345l-.75.435a.123.123 0 0 1-.075.027.119.119 0 0 1-.075-.027.235.235 0 0 1-.075-.21.65.65 0 0 1 0-.165l3.555-15.195Zm5.52 4.291a1.206 1.206 0 0 1-.15.54l-2.085 4.305a.273.273 0 0 1-.09.12.133.133 0 0 1-.082.028.138.138 0 0 1-.083-.028.273.273 0 0 1 0-.21v-1.5a1.783 1.783 0 0 1 0-.45 1.86 1.86 0 0 1 .15-.39l1.095-2.28-1.095-1.005a.544.544 0 0 1-.15-.225 1.215 1.215 0 0 1 0-.39v-1.5a.653.653 0 0 1 0-.285.442.442 0 0 1 .165-.195.1.1 0 0 1 .09 0l2.085 1.905a.457.457 0 0 1 .15.375v1.185Zm5.775-.991a.15.15 0 0 1 .195 0 .369.369 0 0 1 .09.27v1.59a.803.803 0 0 1-.09.36.54.54 0 0 1-.195.24l-.99.57a.15.15 0 0 1-.195 0 .322.322 0 0 1-.075-.255v-1.62a.751.751 0 0 1 .075-.345.597.597 0 0 1 .135-.24l1.05-.57Zm3.285-1.905a.151.151 0 0 1 .195 0 .362.362 0 0 1 .09.27v1.605a.73.73 0 0 1-.09.345.605.605 0 0 1-.195.255l-.99.57a.151.151 0 0 1-.195 0 .369.369 0 0 1-.09-.27v-1.605a.793.793 0 0 1 .09-.36.539.539 0 0 1 .195-.24l.99-.57Zm3.27-1.889a.163.163 0 0 1 .21 0 .386.386 0 0 1 .075.255v1.59a1.039 1.039 0 0 1-.075.36.62.62 0 0 1-.21.255l-.975.555a.166.166 0 0 1-.21 0 .372.372 0 0 1 0-.255v-1.59a1.036 1.036 0 0 1 0-.36.568.568 0 0 1 .21-.24l.975-.57Zm-24.585 22.889 48-27.75c.57-.315 1.035-.09 1.035.525a2.22 2.22 0 0 1-1.035 1.71l-48 27.75c-.57.315-1.02.09-1.02-.525a2.205 2.205 0 0 1 1.02-1.71Z"/><path fill="#F28F8F" d="m376.906 246.875 48-27.75c.57-.315 1.035-.09 1.035.525a2.224 2.224 0 0 1-1.035 1.71l-48 27.75c-.57.315-1.02.09-1.02-.525a2.205 2.205 0 0 1 1.02-1.71Zm0 17.805 23.01-13.275c.57-.315 1.02-.09 1.02.525a2.205 2.205 0 0 1-1.02 1.71l-23.01 13.275c-.57.315-1.02.09-1.02-.525a2.205 2.205 0 0 1 1.02-1.71Z"/><path fill="#38A0ED" d="m413.476 199.025 19.14-11.1c.57-.315 1.035-.09 1.035.525a2.22 2.22 0 0 1-1.035 1.71l-19.14 11.085c-.57.33-1.035.105-1.035-.51a2.22 2.22 0 0 1 1.035-1.71Zm-52.05 127.965 48-27.75c.57-.33 1.035-.09 1.035.525a2.22 2.22 0 0 1-1.035 1.71l-48 27.735c-.57.33-1.02.105-1.02-.51a2.205 2.205 0 0 1 1.02-1.71Zm52.05-30.045 19.14-11.1c.57-.33 1.035-.09 1.035.525a2.22 2.22 0 0 1-1.035 1.71l-19.14 11.085c-.57.33-1.035.105-1.035-.51a2.22 2.22 0 0 1 1.035-1.71Zm0-26.655 19.14-11.1c.57-.33 1.035-.09 1.035.525a2.158 2.158 0 0 1-1.035 1.695l-19.14 11.1c-.57.33-1.035.09-1.035-.525a2.187 2.187 0 0 1 1.035-1.695Zm0 8.896 19.14-11.1c.57-.315 1.035-.09 1.035.525a2.22 2.22 0 0 1-1.035 1.71l-19.14 11.085c-.57.33-1.035.105-1.035-.51a2.22 2.22 0 0 1 1.035-1.71Zm-16.335.494 10.755-6.21c.57-.33 1.035-.09 1.035.525a2.22 2.22 0 0 1-1.035 1.71l-10.755 6.21c-.57.33-1.02.09-1.02-.525a2.205 2.205 0 0 1 1.02-1.71Zm-35.715-41.685 28.035-16.2c.57-.33 1.035-.09 1.035.525a2.22 2.22 0 0 1-1.035 1.71l-28.035 16.185c-.57.33-1.02.105-1.02-.51a2.205 2.205 0 0 1 1.02-1.71Z"/><path fill="#fff" d="m361.426 237.995 28.035-16.2c.57-.33 1.035-.09 1.035.525a2.22 2.22 0 0 1-1.035 1.71l-28.035 16.185c-.57.33-1.02.105-1.02-.51a2.205 2.205 0 0 1 1.02-1.71Z" opacity=".6"/><path fill="#38A0ED" d="m361.426 246.875 9.48-5.49c.57-.33 1.035-.09 1.035.525a2.195 2.195 0 0 1-1.035 1.635l-9.51 5.505c-.57.33-1.02.09-1.02-.525a2.2 2.2 0 0 1 1.05-1.65Z"/><path fill="#fff" d="m361.426 246.875 9.48-5.49c.57-.33 1.035-.09 1.035.525a2.195 2.195 0 0 1-1.035 1.635l-9.51 5.505c-.57.33-1.02.09-1.02-.525a2.2 2.2 0 0 1 1.05-1.65Z" opacity=".6"/><path fill="#38A0ED" d="m361.426 255.785 9.51-5.505c.57-.315 1.035-.09 1.035.525a2.233 2.233 0 0 1-.321 1c-.185.303-.44.557-.744.74l-9.51 5.49c-.57.33-1.02.105-1.02-.51a2.207 2.207 0 0 1 1.05-1.74Z"/><path fill="#fff" d="m361.426 255.785 9.51-5.505c.57-.315 1.035-.09 1.035.525a2.233 2.233 0 0 1-.321 1c-.185.303-.44.557-.744.74l-9.51 5.49c-.57.33-1.02.105-1.02-.51a2.207 2.207 0 0 1 1.05-1.74Z" opacity=".6"/><path fill="#38A0ED" d="m361.426 264.68 9.51-5.49c.57-.33 1.035-.09 1.035.525a2.195 2.195 0 0 1-1.035 1.695l-9.51 5.505c-.57.33-1.02.09-1.02-.525a2.205 2.205 0 0 1 1.02-1.71Z"/><path fill="#fff" d="m361.426 264.68 9.51-5.49c.57-.33 1.035-.105 1.035.51a2.22 2.22 0 0 1-1.035 1.71l-9.51 5.505c-.57.315-1.02.09-1.02-.525a2.205 2.205 0 0 1 1.02-1.71Z" opacity=".6"/><path fill="#38A0ED" d="m376.906 255.785 28.035-16.2c.57-.33 1.035-.09 1.035.525a2.161 2.161 0 0 1-1.035 1.695l-28.035 16.2c-.57.33-1.02.09-1.02-.525a2.18 2.18 0 0 1 1.02-1.695Zm31.965-18.495 12.18-7.02c.57-.33 1.035-.09 1.035.525a2.158 2.158 0 0 1-1.035 1.695l-12.18 7.02c-.57.33-1.035.09-1.035-.525a2.16 2.16 0 0 1 1.035-1.695Z"/><path fill="#fff" d="m376.906 255.785 28.035-16.2c.57-.33 1.035-.09 1.035.525a2.161 2.161 0 0 1-1.035 1.695l-28.035 16.2c-.57.33-1.02.09-1.02-.525a2.18 2.18 0 0 1 1.02-1.695Zm31.965-18.495 12.18-7.02c.57-.33 1.035-.09 1.035.525a2.158 2.158 0 0 1-1.035 1.695l-12.18 7.02c-.57.33-1.035.09-1.035-.525a2.16 2.16 0 0 1 1.035-1.695Z" opacity=".6"/><path fill="#38A0ED" d="m361.426 273.545 9.51-5.505c.57-.315 1.035-.09 1.035.525a2.22 2.22 0 0 1-1.035 1.71l-9.51 5.49c-.57.33-1.02.105-1.02-.51a2.205 2.205 0 0 1 1.02-1.71Z"/><path fill="#fff" d="m361.426 273.545 9.51-5.505c.57-.315 1.035-.09 1.035.525a2.22 2.22 0 0 1-1.035 1.71l-9.51 5.49c-.57.33-1.02.105-1.02-.51a2.205 2.205 0 0 1 1.02-1.71Z" opacity=".6"/><path fill="#38A0ED" d="m361.426 300.77 9.51-5.505c.57-.33 1.035-.09 1.035.525a2.209 2.209 0 0 1-.318 1.008 2.206 2.206 0 0 1-.747.747l-9.51 5.49c-.57.33-1.02.09-1.02-.525a2.174 2.174 0 0 1 1.05-1.74Z"/><path fill="#fff" d="m361.426 300.77 9.51-5.505c.57-.33 1.035-.09 1.035.525a2.209 2.209 0 0 1-.318 1.008 2.206 2.206 0 0 1-.747.747l-9.51 5.49c-.57.33-1.02.09-1.02-.525a2.174 2.174 0 0 1 1.05-1.74Z" opacity=".6"/><path fill="#38A0ED" d="m361.426 309.666 9.51-5.491c.57-.33 1.035-.105 1.035.51a2.22 2.22 0 0 1-1.035 1.71l-9.51 5.506c-.57.315-1.02.09-1.02-.525a2.205 2.205 0 0 1 1.02-1.71Z"/><path fill="#fff" d="m361.426 309.666 9.51-5.491c.57-.33 1.035-.105 1.035.51a2.22 2.22 0 0 1-1.035 1.71l-9.51 5.49c-.57.33-1.02.106-1.02-.509a2.205 2.205 0 0 1 1.02-1.71Z" opacity=".6"/><path fill="#38A0ED" d="m361.426 318.545 9.51-5.505c.57-.33 1.035-.09 1.035.525a2.22 2.22 0 0 1-1.035 1.71l-9.51 5.49c-.57.33-1.02.09-1.02-.525a2.18 2.18 0 0 1 1.02-1.695Z"/><path fill="#fff" d="m361.426 318.545 9.51-5.505c.57-.33 1.035-.09 1.035.525a2.22 2.22 0 0 1-1.035 1.71l-9.51 5.49c-.57.33-1.02.09-1.02-.525a2.18 2.18 0 0 1 1.02-1.695Z" opacity=".6"/><path fill="#38A0ED" d="m393.406 219.546 12.18-7.02c.57-.33 1.035-.09 1.035.525a2.22 2.22 0 0 1-1.035 1.71l-12.18 6.96c-.57.33-1.035.105-1.035-.51a2.213 2.213 0 0 1 1.035-1.665Z"/><path fill="#fff" d="m393.406 219.546 12.18-7.02c.57-.33 1.035-.09 1.035.525a2.22 2.22 0 0 1-1.035 1.71l-12.18 6.96c-.57.33-1.035.105-1.035-.51a2.213 2.213 0 0 1 1.035-1.665Z" opacity=".6"/><path fill="#FFA8A7" d="m388.411 266.9 28.035-16.2c.57-.33 1.035-.09 1.035.525a2.192 2.192 0 0 1-1.035 1.695l-28.035 16.2c-.57.33-1.02.09-1.02-.525a2.168 2.168 0 0 1 1.02-1.695Zm16.17-.405 28.035-16.2c.57-.33 1.035-.09 1.035.525a2.22 2.22 0 0 1-1.035 1.71l-28.035 16.185c-.555.33-1.02.105-1.02-.51a2.233 2.233 0 0 1 1.02-1.71Zm15.825-18.09 12.18-7.02c.57-.33 1.035-.09 1.035.525a2.19 2.19 0 0 1-1.035 1.695l-12.18 7.02c-.57.33-1.035.09-1.035-.525a2.158 2.158 0 0 1 1.035-1.695Z"/><path fill="#F28F8F" d="m420.406 283.655 12.18-7.005c.57-.33 1.035-.105 1.035.51a2.22 2.22 0 0 1-1.035 1.71l-12.18 7.02c-.57.315-1.035.09-1.035-.525.027-.346.135-.681.314-.978.18-.297.427-.547.721-.732Z"/><path fill="#38A0ED" d="m376.906 237.98 28.035-16.2c.57-.33 1.035-.09 1.035.525a2.22 2.22 0 0 1-1.035 1.71L376.906 240.2c-.57.33-1.02.105-1.02-.51a2.205 2.205 0 0 1 1.02-1.71Z"/><path fill="#fff" d="m376.906 237.98 28.035-16.2c.57-.33 1.035-.09 1.035.525a2.22 2.22 0 0 1-1.035 1.71L376.906 240.2c-.57.33-1.02.105-1.02-.51a2.205 2.205 0 0 1 1.02-1.71Z" opacity=".6"/><path fill="#38A0ED" d="m408.871 219.546 12.18-7.02c.57-.33 1.035-.09 1.035.525a2.213 2.213 0 0 1-1.035 1.71l-12.18 7.005c-.57.33-1.035.105-1.035-.51a2.22 2.22 0 0 1 1.035-1.71Z"/><path fill="#fff" d="m408.871 219.546 12.18-7.02c.57-.33 1.035-.09 1.035.525a2.213 2.213 0 0 1-1.035 1.71l-12.18 7.005c-.57.33-1.035.105-1.035-.51a2.22 2.22 0 0 1 1.035-1.71Z" opacity=".6"/></svg>