<svg xmlns="http://www.w3.org/2000/svg" width="500" height="500" fill="none"><path fill="#FAFAFA" d="M77.66 252.53c-95.18 55-95.17 144 0 199s249.49 55 344.67 0 95.17-144 0-199-249.49-54.96-344.67 0Z"/><path fill="#37474F" d="M24.5 334.05v19.35l139.71 80.8v-19.35L24.5 334.05Z"/><path fill="#455A64" d="m164.21 414.85 261.67-151.09v19.35L164.21 434.2v-19.35Z"/><path fill="#EBEBEB" d="M164.21 407.52 19.57 323.9l265.76-153.46 144.64 83.63-265.76 153.45Z"/><path fill="#E0E0E0" d="M19.57 323.9v10.26l144.64 83.63v-10.27L19.57 323.9Z"/><path fill="#000" d="M19.57 323.9v10.26l144.64 83.63v-10.27L19.57 323.9Z" opacity=".15"/><path fill="#E0E0E0" d="m164.21 417.79 265.76-153.46v-10.26L164.21 407.52v10.27Zm-45.9-55.86a6.178 6.178 0 0 1-3-.76L66.46 333a3.469 3.469 0 0 1 0-6.24l46.7-27a6.43 6.43 0 0 1 6.1 0l48.79 28.17a3.47 3.47 0 0 1 0 6.25l-46.69 27a6.136 6.136 0 0 1-3.05.75Z"/><path fill="#38A0ED" d="M164.71 331.5 120 357.37a4 4 0 0 1-3.58 0l-46.73-27a3.908 3.908 0 0 1-1.77-3.1v-3.91a4.004 4.004 0 0 1 1.81-3.1l44.73-25.88a3.942 3.942 0 0 1 3.57 0l46.74 27a3.9 3.9 0 0 1 1.76 3.1v3.92a3.993 3.993 0 0 1-1.82 3.1Z"/><path fill="#000" d="M69.74 320.28a4.103 4.103 0 0 0-1.81 3.1v3.91a3.873 3.873 0 0 0 1.76 3.1l46.73 27a3.717 3.717 0 0 0 1.87.42v-8a3.633 3.633 0 0 1-1.79-.42l-46.73-27c-.93-.57-1.08-1.5-.03-2.11Z" opacity=".2"/><path fill="#fff" d="M165 321.57c.71.57.63 1.37-.26 1.88l-44.73 25.87a3.591 3.591 0 0 1-1.79.43v8.05a3.522 3.522 0 0 0 1.71-.43l44.73-25.88a4.002 4.002 0 0 0 1.81-3.09v-3.92a3.93 3.93 0 0 0-1.47-2.91Z" opacity=".4"/><path fill="#38A0ED" d="m164.78 323.45-44.73 25.88a3.997 3.997 0 0 1-3.58 0l-29.69-17.15-17-9.84a1.088 1.088 0 0 1-.531-1.662c.131-.185.317-.324.531-.398l44.73-25.88a3.942 3.942 0 0 1 3.57 0l46.74 27a1.096 1.096 0 0 1 .681 1.039 1.097 1.097 0 0 1-.721 1.011Z"/><path fill="#fff" d="M95 333.49a1.388 1.388 0 0 1-.67-.61 1.49 1.49 0 0 1 0-.68l1.06-11.59a.35.35 0 0 1 .08-.15l.1-.08a.999.999 0 0 1 .61-.1c.243.018.478.09.69.21l5.7 3.29c.47.27.71.53.72.77.028.196.028.394 0 .59l-.75 4.91 8.46-.46h1a2.82 2.82 0 0 1 1.34.42l5.71 3.29c.169.083.3.226.37.4a.311.311 0 0 1-.19.35l-.13.06h-.26l-20.07.61a7.264 7.264 0 0 1-1.18 0 2.941 2.941 0 0 1-1.07-.38l-1.52-.85Zm.7-15.95a2.049 2.049 0 0 1-.37-.15.692.692 0 0 1-.33-.39.301.301 0 0 1 .18-.36l3.46-2c.347-.203.75-.29 1.15-.25.363.02.722.083 1.07.19l37.41 11.29c.127.041.25.091.37.15a.708.708 0 0 1 .37.42.3.3 0 0 1-.18.36l-3.54 2.05a2 2 0 0 1-1.1.25 5.594 5.594 0 0 1-1.12-.19L95.7 317.54Zm43.18-7.69c.281.126.513.34.66.61.069.22.086.453.05.68l-1.06 11.59a.347.347 0 0 1-.08.15l-.1.08a.999.999 0 0 1-.61.1 1.68 1.68 0 0 1-.69-.21l-5.7-3.29c-.47-.27-.71-.53-.73-.78a1.887 1.887 0 0 1 0-.6l.78-4.89-8.49.44h-1a2.68 2.68 0 0 1-1.32-.41l-5.71-3.29a.765.765 0 0 1-.37-.4.311.311 0 0 1 .19-.35l.14-.06c.085-.023.172-.04.26-.05l20.06-.61a7.388 7.388 0 0 1 1.19 0c.374.059.734.188 1.06.38l1.47.91Z"/><path fill="#38A0ED" d="m69.652 239.92-4.486-2.562a.418.418 0 0 0-.207-.051.568.568 0 0 0-.252.062l-3.05 1.374a1.33 1.33 0 0 1 .09-.74l3.52-7.099a.792.792 0 0 0-.314-1.032l-3.818-2.204-4.441-2.551a.8.8 0 0 0-1.054.247l-4.385 6.6a1.423 1.423 0 0 1-.56.443l-.337-3.365a.52.52 0 0 0-.225-.403l-4.485-2.569a.386.386 0 0 0-.18-.044.6.6 0 0 0-.297.089l-5.932 3.426a1.603 1.603 0 0 0-.713 1.122l-.594 6.594c-.067.467-.283.9-.617 1.233a34.873 34.873 0 0 0-3.263 3.488 1.126 1.126 0 0 1-1.166.331l-3.808-1.329a.929.929 0 0 0-1.07.393l-4.391 7.558a.92.92 0 0 0 .19 1.122l3.056 2.635a1.124 1.124 0 0 1 .297 1.172 35.556 35.556 0 0 0-1.373 4.604 2.24 2.24 0 0 1-.757 1.149l-5.422 3.813a1.593 1.593 0 0 0-.606 1.166v6.869a.473.473 0 0 0 .213.438l4.486 2.562a.498.498 0 0 0 .46 0l3.05-1.374a1.3 1.3 0 0 1-.095.74l-3.516 7.099a.797.797 0 0 0 .308 1.032l5.366 3.084 2.91 1.682a.797.797 0 0 0 1.05-.247l4.373-6.605c.143-.196.337-.349.56-.443l.337 3.365a.497.497 0 0 0 .224.403l4.486 2.563a.476.476 0 0 0 .488-.034l5.932-3.426a1.587 1.587 0 0 0 .707-1.121l.594-6.6c.071-.466.287-.898.617-1.234a35.571 35.571 0 0 0 3.297-3.487 1.119 1.119 0 0 1 1.167-.331l3.807 1.329a.927.927 0 0 0 1.07-.398l4.363-7.553a.933.933 0 0 0-.19-1.122l-3.056-2.635a1.125 1.125 0 0 1-.298-1.178 35.41 35.41 0 0 0 1.374-4.598 2.24 2.24 0 0 1 .757-1.121l5.422-3.813a1.613 1.613 0 0 0 .606-1.167v-6.908a.489.489 0 0 0-.219-.443Zm-27.29 26.164a8.881 8.881 0 0 1-4.71 1.362 9.137 9.137 0 0 1-1.01-4.485c0-6.393 4.486-14.164 10.02-17.383a8.86 8.86 0 0 1 4.722-1.357 9.155 9.155 0 0 1 1.004 4.486c0 6.409-4.492 14.181-10.026 17.377Z"/><path fill="#fff" d="m69.652 239.92-4.486-2.562a.418.418 0 0 0-.207-.051.568.568 0 0 0-.252.062l-3.05 1.374a1.33 1.33 0 0 1 .09-.74l3.52-7.099a.792.792 0 0 0-.314-1.032l-3.818-2.204-4.441-2.551a.8.8 0 0 0-1.054.247l-4.385 6.6a1.423 1.423 0 0 1-.56.443l-.337-3.365a.52.52 0 0 0-.225-.403l-4.485-2.569a.386.386 0 0 0-.18-.044.6.6 0 0 0-.297.089l-5.932 3.426a1.603 1.603 0 0 0-.713 1.122l-.594 6.594c-.067.467-.283.9-.617 1.233a34.873 34.873 0 0 0-3.263 3.488 1.126 1.126 0 0 1-1.166.331l-3.808-1.329a.929.929 0 0 0-1.07.393l-4.391 7.558a.92.92 0 0 0 .19 1.122l3.056 2.635a1.124 1.124 0 0 1 .297 1.172 35.556 35.556 0 0 0-1.373 4.604 2.24 2.24 0 0 1-.757 1.149l-5.422 3.813a1.593 1.593 0 0 0-.606 1.166v6.869a.473.473 0 0 0 .213.438l4.486 2.562a.498.498 0 0 0 .46 0l3.05-1.374a1.3 1.3 0 0 1-.095.74l-3.516 7.099a.797.797 0 0 0 .308 1.032l5.366 3.084 2.91 1.682a.797.797 0 0 0 1.05-.247l4.373-6.605c.143-.196.337-.349.56-.443l.337 3.365a.497.497 0 0 0 .224.403l4.486 2.563a.476.476 0 0 0 .488-.034l5.932-3.426a1.587 1.587 0 0 0 .707-1.121l.594-6.6c.071-.466.287-.898.617-1.234a35.571 35.571 0 0 0 3.297-3.487 1.119 1.119 0 0 1 1.167-.331l3.807 1.329a.927.927 0 0 0 1.07-.398l4.363-7.553a.933.933 0 0 0-.19-1.122l-3.056-2.635a1.125 1.125 0 0 1-.298-1.178 35.41 35.41 0 0 0 1.374-4.598 2.24 2.24 0 0 1 .757-1.121l5.422-3.813a1.613 1.613 0 0 0 .606-1.167v-6.908a.489.489 0 0 0-.219-.443Zm-27.29 26.164a8.881 8.881 0 0 1-4.71 1.362 9.137 9.137 0 0 1-1.01-4.485c0-6.393 4.486-14.164 10.02-17.383a8.86 8.86 0 0 1 4.722-1.357 9.155 9.155 0 0 1 1.004 4.486c0 6.409-4.492 14.181-10.026 17.377Z" opacity=".4"/><path fill="#000" d="M30.295 272.465a.619.619 0 0 0-.608-.472.633.633 0 0 0-.267.062l-2.243 1.004c.04.253.005.512-.1.746l-3.522 7.093a.807.807 0 0 0 .314 1.037l5.36 3.084-.896-.527a.782.782 0 0 1-.314-1.031l3.52-7.094a1.455 1.455 0 0 0-.083-1.284c-.49-.823-.88-1.702-1.161-2.618Zm12.863 13.233a.561.561 0 0 1-.18-.381l-.56-5.759a.619.619 0 0 0-.516-.575.624.624 0 0 0-.275.014c-.938.209-1.898.307-2.86.292a1.34 1.34 0 0 0-.56.123l.336 3.365a.49.49 0 0 0 .23.398l4.385 2.523Z" opacity=".1"/><path fill="#38A0ED" d="M56.694 225.106a.793.793 0 0 0-1.049.247l-4.39 6.599c-.079.11-.178.203-.292.275l4.486 2.568a1.12 1.12 0 0 0 .292-.291l4.379-6.594a.816.816 0 0 1 .964-.292l-4.39-2.512Zm8.49 12.246a.524.524 0 0 0-.46 0l-3.05 1.38c.02.197.081.388.179.56a11.78 11.78 0 0 1 1.121 2.49c.02.042.037.085.05.129a.72.72 0 0 0 .157.275l.073.067c.052.042.11.075.174.095a.619.619 0 0 0 .325 0 .42.42 0 0 0 .146-.045l5.282-2.383a.638.638 0 0 1 .135-.045.341.341 0 0 1 .18 0 .304.304 0 0 1 .15.051l-4.463-2.574Zm-19.542-11.276a.478.478 0 0 0-.477.045l-5.932 3.426c-.265.172-.473.42-.594.712l4.457 2.563a1.54 1.54 0 0 1 .595-.713l5.932-3.431a.503.503 0 0 1 .454-.056l-4.435-2.546Zm-20.186 33.083c-.11.169-.248.317-.41.437l-5.422 3.819c-.146.11-.268.25-.359.409l4.436 2.591c.09-.161.215-.301.364-.41l5.422-3.813c.165-.122.307-.272.421-.443l-4.452-2.59Zm3.297-18.235a.934.934 0 0 0-.763.443l-4.379 7.559a.945.945 0 0 0-.095.56l4.486 2.568a.88.88 0 0 1 .1-.56l4.335-7.564a.934.934 0 0 1 .706-.438l-4.39-2.568Z"/><path fill="#fff" d="M56.694 225.106a.793.793 0 0 0-1.049.247l-4.39 6.599c-.079.11-.178.203-.292.275l4.486 2.568a1.12 1.12 0 0 0 .292-.291l4.379-6.594a.816.816 0 0 1 .964-.292l-4.39-2.512Zm8.49 12.246a.524.524 0 0 0-.46 0l-3.05 1.38c.02.197.081.388.179.56a11.78 11.78 0 0 1 1.121 2.49c.02.042.037.085.05.129a.72.72 0 0 0 .157.275l.073.067c.052.042.11.075.174.095a.619.619 0 0 0 .325 0 .42.42 0 0 0 .146-.045l5.282-2.383a.638.638 0 0 1 .135-.045.341.341 0 0 1 .18 0 .304.304 0 0 1 .15.051l-4.463-2.574Zm-19.542-11.276a.478.478 0 0 0-.477.045l-5.932 3.426c-.265.172-.473.42-.594.712l4.457 2.563a1.54 1.54 0 0 1 .595-.713l5.932-3.431a.503.503 0 0 1 .454-.056l-4.435-2.546Zm-20.186 33.083c-.11.169-.248.317-.41.437l-5.422 3.819c-.146.11-.268.25-.359.409l4.436 2.591c.09-.161.215-.301.364-.41l5.422-3.813c.165-.122.307-.272.421-.443l-4.452-2.59Zm3.297-18.235a.934.934 0 0 0-.763.443l-4.379 7.559a.945.945 0 0 0-.095.56l4.486 2.568a.88.88 0 0 1 .1-.56l4.335-7.564a.934.934 0 0 1 .706-.438l-4.39-2.568Z" opacity=".8"/><path fill="#38A0ED" d="M69.86 247.215v-6.852a.444.444 0 0 0-.673-.437l-5.282 2.377a.619.619 0 0 1-.535.006.63.63 0 0 1-.345-.409 11.52 11.52 0 0 0-1.178-2.619 1.465 1.465 0 0 1-.078-1.278l3.52-7.099a.803.803 0 0 0-.313-1.032l-3.819-2.209a.813.813 0 0 0-1.054.246l-4.385 6.6a1.441 1.441 0 0 1-1.121.561 11.91 11.91 0 0 0-2.854.292.623.623 0 0 1-.79-.561l-.562-5.764a.443.443 0 0 0-.712-.371l-5.983 3.438a1.587 1.587 0 0 0-.706 1.121l-.595 6.6a2.24 2.24 0 0 1-.616 1.233 36.281 36.281 0 0 0-3.298 3.488 1.125 1.125 0 0 1-1.166.331l-3.824-1.34a.927.927 0 0 0-1.07.398l-4.347 7.553a.936.936 0 0 0 .191 1.121l3.056 2.63a1.125 1.125 0 0 1 .297 1.178 35.486 35.486 0 0 0-1.373 4.598 2.242 2.242 0 0 1-.758 1.149l-5.422 3.813a1.61 1.61 0 0 0-.605 1.167v6.852a.443.443 0 0 0 .678.437l5.277-2.383a.623.623 0 0 1 .537-.004.63.63 0 0 1 .343.413c.287.917.682 1.796 1.177 2.619a1.469 1.469 0 0 1 .085 1.278l-3.522 7.105a.79.79 0 0 0 .309 1.031l3.824 2.204a.795.795 0 0 0 1.048-.241l4.385-6.583a1.48 1.48 0 0 1 1.122-.561c.961.023 1.922-.073 2.86-.286a.623.623 0 0 1 .79.561l.56 5.764a.444.444 0 0 0 .718.365l5.933-3.421a1.585 1.585 0 0 0 .706-1.121l.595-6.6c.068-.467.284-.899.617-1.233a36.269 36.269 0 0 0 3.297-3.488 1.126 1.126 0 0 1 1.166-.331l3.807 1.329a.938.938 0 0 0 1.071-.398l4.357-7.553a.928.928 0 0 0-.19-1.122l-3.012-2.652a1.122 1.122 0 0 1-.291-1.177 35.43 35.43 0 0 0 1.368-4.598c.13-.445.397-.837.763-1.122l5.416-3.813a1.6 1.6 0 0 0 .606-1.2Zm-23.197 21.538c-5.535 3.196-10.026.605-10.026-5.787 0-6.392 4.486-14.164 10.026-17.382 5.54-3.219 10.02-.606 10.02 5.786 0 6.393-4.486 14.187-10.02 17.383Z"/><path fill="#fff" d="m69.187 239.926-5.277 2.377a.622.622 0 0 1-.536.004.632.632 0 0 1-.344-.413 12.046 12.046 0 0 0-1.177-2.619 1.469 1.469 0 0 1-.084-1.278l3.52-7.099a.791.791 0 0 0-.313-1.032l-3.819-2.203a.796.796 0 0 0-1.048.241l-4.39 6.605a1.44 1.44 0 0 1-1.122.561 11.654 11.654 0 0 0-2.86.286.623.623 0 0 1-.79-.561l-.561-5.764a.443.443 0 0 0-.718-.365l-5.932 3.421a1.586 1.586 0 0 0-.707 1.121l-.594 6.6a2.2 2.2 0 0 1-.617 1.234 36.127 36.127 0 0 0-3.337 3.504 1.126 1.126 0 0 1-1.166.331l-3.824-1.34a.938.938 0 0 0-1.071.398l-4.346 7.553a.935.935 0 0 0 .191 1.121l3.062 2.63a1.122 1.122 0 0 1 .291 1.178 35.432 35.432 0 0 0-1.368 4.598 2.199 2.199 0 0 1-.763 1.149l-5.416 3.819a1.576 1.576 0 0 0-.606 1.166v6.847a.444.444 0 0 0 .673.437l5.282-2.378a.633.633 0 0 1 .754.161.63.63 0 0 1 .127.243 11.54 11.54 0 0 0 1.177 2.619 1.46 1.46 0 0 1 .078 1.278l-3.52 7.105a.8.8 0 0 0 .313 1.031l3.819 2.21a.813.813 0 0 0 1.054-.247l4.385-6.583a1.461 1.461 0 0 1 1.121-.561 11.86 11.86 0 0 0 2.854-.291.61.61 0 0 1 .53.091.626.626 0 0 1 .26.469l.562 5.765a.442.442 0 0 0 .712.37l5.932-3.426a1.61 1.61 0 0 0 .707-1.122l.594-6.6c.071-.465.287-.897.617-1.233a35.47 35.47 0 0 0 3.297-3.488 1.122 1.122 0 0 1 1.166-.331l3.808 1.329a.927.927 0 0 0 1.07-.398l4.363-7.553a.93.93 0 0 0-.19-1.121l-3.057-2.636a1.12 1.12 0 0 1-.297-1.177c.561-1.5 1.02-3.036 1.374-4.598.131-.443.395-.835.757-1.122l5.422-3.813a1.6 1.6 0 0 0 .606-1.166v-6.897a.444.444 0 0 0-.628-.437Zm-22.524 28.832c-5.535 3.196-10.02.606-10.02-5.786 0-6.393 4.485-14.164 10.02-17.383 5.534-3.218 10.025-.605 10.025 5.787 0 6.392-4.491 14.186-10.026 17.382Z" opacity=".65"/><path fill="#38A0ED" d="M102.618 240.509a2.721 2.721 0 0 1 .728-1.48l2.995-2.753a1.838 1.838 0 0 0 .504-1.475l-.56-3.269a.597.597 0 0 0-.286-.449l-3.538-2.052a.565.565 0 0 0-.617.056l-1.296.88 1.24-3.364a.742.742 0 0 0-.342-.931l-3.55-2.052a.916.916 0 0 0-.23-.095l-2.243-.505a1.208 1.208 0 0 0-1.273.594l-2.119 4.038a2.08 2.08 0 0 1-.847.779l-.095-.32a.656.656 0 0 0-.286-.392l-3.56-2.052a.558.558 0 0 0-.668.089l-3.364 2.658a1.884 1.884 0 0 0-.645 1.43l.202 3.219a2.518 2.518 0 0 1-.522 1.553 25.752 25.752 0 0 0-1.57 2.074 1.76 1.76 0 0 1-1.374.701l-2.175-.112a1.402 1.402 0 0 0-1.245.768l-2.041 4.582a.862.862 0 0 0 .348 1.121l2.388 1.357c.083.197.103.414.056.622-.164.722-.29 1.452-.375 2.187a2.744 2.744 0 0 1-.73 1.481l-2.994 2.753a1.793 1.793 0 0 0-.504 1.474l.56 3.264a.634.634 0 0 0 .27.443l3.566 2.058a.565.565 0 0 0 .617-.062l1.306-.858-1.245 3.364a.748.748 0 0 0 .303.914l3.567 2.058a.806.806 0 0 0 .246.112l2.243.505a1.232 1.232 0 0 0 1.279-.594l2.12-4.037c.202-.336.496-.608.846-.786l.095.326a.64.64 0 0 0 .292.392l3.532 2.036h.04a.594.594 0 0 0 .644-.101L95.676 260a1.89 1.89 0 0 0 .645-1.436l-.202-3.213c0-.561.185-1.107.527-1.553a24.55 24.55 0 0 0 1.57-2.08 1.755 1.755 0 0 1 1.374-.695l2.17.106a1.395 1.395 0 0 0 1.261-.74l2.041-4.581a.86.86 0 0 0-.454-1.155l-1.755-.752a1.074 1.074 0 0 1-.6-1.205c.151-.74.28-1.469.365-2.187Zm-18.033 9.936c-.662-3.846 1.771-9.297 5.433-12.173a7.35 7.35 0 0 1 3.847-1.722c.203.453.346.93.426 1.419.661 3.847-1.772 9.297-5.434 12.173a7.376 7.376 0 0 1-3.835 1.694 5.371 5.371 0 0 1-.438-1.391Z"/><path fill="#fff" d="M102.618 240.509a2.721 2.721 0 0 1 .728-1.48l2.995-2.753a1.838 1.838 0 0 0 .504-1.475l-.56-3.269a.597.597 0 0 0-.286-.449l-3.538-2.052a.565.565 0 0 0-.617.056l-1.296.88 1.24-3.364a.742.742 0 0 0-.342-.931l-3.55-2.052a.916.916 0 0 0-.23-.095l-2.243-.505a1.208 1.208 0 0 0-1.273.594l-2.119 4.038a2.08 2.08 0 0 1-.847.779l-.095-.32a.656.656 0 0 0-.286-.392l-3.56-2.052a.558.558 0 0 0-.668.089l-3.364 2.658a1.884 1.884 0 0 0-.645 1.43l.202 3.219a2.518 2.518 0 0 1-.522 1.553 25.752 25.752 0 0 0-1.57 2.074 1.76 1.76 0 0 1-1.374.701l-2.175-.112a1.402 1.402 0 0 0-1.245.768l-2.041 4.582a.862.862 0 0 0 .348 1.121l2.388 1.357c.083.197.103.414.056.622-.164.722-.29 1.452-.375 2.187a2.744 2.744 0 0 1-.73 1.481l-2.994 2.753a1.793 1.793 0 0 0-.504 1.474l.56 3.264a.634.634 0 0 0 .27.443l3.566 2.058a.565.565 0 0 0 .617-.062l1.306-.858-1.245 3.364a.748.748 0 0 0 .303.914l3.567 2.058a.806.806 0 0 0 .246.112l2.243.505a1.232 1.232 0 0 0 1.279-.594l2.12-4.037c.202-.336.496-.608.846-.786l.095.326a.64.64 0 0 0 .292.392l3.532 2.036h.04a.594.594 0 0 0 .644-.101L95.676 260a1.89 1.89 0 0 0 .645-1.436l-.202-3.213c0-.561.185-1.107.527-1.553a24.55 24.55 0 0 0 1.57-2.08 1.755 1.755 0 0 1 1.374-.695l2.17.106a1.395 1.395 0 0 0 1.261-.74l2.041-4.581a.86.86 0 0 0-.454-1.155l-1.755-.752a1.074 1.074 0 0 1-.6-1.205c.151-.74.28-1.469.365-2.187Zm-18.033 9.936c-.662-3.846 1.771-9.297 5.433-12.173a7.35 7.35 0 0 1 3.847-1.722c.203.453.346.93.426 1.419.661 3.847-1.772 9.297-5.434 12.173a7.376 7.376 0 0 1-3.835 1.694 5.371 5.371 0 0 1-.438-1.391Z" opacity=".4"/><path fill="#000" d="M81.231 257.622a.858.858 0 0 0-.542-.388.848.848 0 0 0-.34-.009.849.849 0 0 0-.318.123l-1.71 1.121-1.24 3.364a.748.748 0 0 0 .298.914l3.527 2.03a.744.744 0 0 1-.27-.891l1.532-4.133a1.494 1.494 0 0 0-.348-1.418 5.572 5.572 0 0 1-.589-.713Zm10.402 5.148a.658.658 0 0 1-.286-.393l-.763-2.528a.766.766 0 0 0-1.065-.488c-.452.186-.917.34-1.39.459-.154.04-.301.101-.438.18l.095.331a.681.681 0 0 0 .297.387l3.55 2.052Z" opacity=".1"/><path fill="#38A0ED" d="M79.908 237.257a1.435 1.435 0 0 1-.622.129l-2.176-.129a1.346 1.346 0 0 0-.897.325l3.555 2.052c.252-.21.569-.327.897-.33l2.181.106c.212.009.423-.032.617-.118l-3.555-2.035Zm7.329-11.596a.564.564 0 0 0-.662.095l-3.364 2.653a1.873 1.873 0 0 0-.561.886l3.55 2.029c.093-.344.289-.653.56-.885l3.364-2.653a.562.562 0 0 1 .673-.089l-3.56-2.036ZM75.49 249.419l-2.956 2.72c-.23.234-.39.53-.46.852l3.55 2.041c.075-.318.236-.609.466-.841l2.96-2.714-3.56-2.058Zm22.429-25.793a.558.558 0 0 0-.236-.09l-2.243-.51a1.23 1.23 0 0 0-1.273.594l-2.12 4.037a1.889 1.889 0 0 1-.481.561l3.555 2.052c.194-.155.358-.345.482-.56l2.12-4.043a1.211 1.211 0 0 1 1.278-.589l2.243.505c.078.022.155.05.23.084l-3.555-2.041Zm4.541 5.433a.56.56 0 0 0-.616.056l-1.296.852-.286.757a1.48 1.48 0 0 0 .354 1.43c.204.223.392.461.56.712a1.123 1.123 0 0 0 .286.275.928.928 0 0 0 .303.118c.13.036.268.036.398 0a.514.514 0 0 0 .213-.095l2.995-1.969a.92.92 0 0 1 .224-.106.433.433 0 0 1 .252 0 .566.566 0 0 1 .135.039l-3.522-2.069Z"/><path fill="#fff" d="M79.908 237.257a1.435 1.435 0 0 1-.622.129l-2.176-.129a1.346 1.346 0 0 0-.897.325l3.555 2.052c.252-.21.569-.327.897-.33l2.181.106c.212.009.423-.032.617-.118l-3.555-2.035Zm7.329-11.596a.564.564 0 0 0-.662.095l-3.364 2.653a1.873 1.873 0 0 0-.561.886l3.55 2.029c.093-.344.289-.653.56-.885l3.364-2.653a.562.562 0 0 1 .673-.089l-3.56-2.036ZM75.49 249.419l-2.956 2.72c-.23.234-.39.53-.46.852l3.55 2.041c.075-.318.236-.609.466-.841l2.96-2.714-3.56-2.058Zm22.429-25.793a.558.558 0 0 0-.236-.09l-2.243-.51a1.23 1.23 0 0 0-1.273.594l-2.12 4.037a1.889 1.889 0 0 1-.481.561l3.555 2.052c.194-.155.358-.345.482-.56l2.12-4.043a1.211 1.211 0 0 1 1.278-.589l2.243.505c.078.022.155.05.23.084l-3.555-2.041Zm4.541 5.433a.56.56 0 0 0-.616.056l-1.296.852-.286.757a1.48 1.48 0 0 0 .354 1.43c.204.223.392.461.56.712a1.123 1.123 0 0 0 .286.275.928.928 0 0 0 .303.118c.13.036.268.036.398 0a.514.514 0 0 0 .213-.095l2.995-1.969a.92.92 0 0 1 .224-.106.433.433 0 0 1 .252 0 .566.566 0 0 1 .135.039l-3.522-2.069Z" opacity=".8"/><path fill="#38A0ED" d="m106.845 234.801-.56-3.269a.562.562 0 0 0-.892-.387l-2.989 1.974a.877.877 0 0 1-.657.114.88.88 0 0 1-.542-.389 6.12 6.12 0 0 0-.561-.712 1.489 1.489 0 0 1-.353-1.425l1.497-4.104a.752.752 0 0 0-.561-1.026l-2.243-.505a1.214 1.214 0 0 0-1.278.595l-2.12 4.037a2.242 2.242 0 0 1-1.284.964c-.467.111-.925.251-1.374.421a.765.765 0 0 1-.645.003.775.775 0 0 1-.42-.491l-.763-2.529a.558.558 0 0 0-.383-.444.564.564 0 0 0-.57.141l-3.364 2.658a1.868 1.868 0 0 0-.64 1.43l.202 3.219c0 .561-.185 1.107-.527 1.553a25.805 25.805 0 0 0-1.57 2.074 1.752 1.752 0 0 1-1.413.718l-2.17-.112a1.398 1.398 0 0 0-1.245.751l-2.04 4.582a.866.866 0 0 0 .17.961.86.86 0 0 0 .283.194l1.755.751a1.078 1.078 0 0 1 .6 1.206 22.035 22.035 0 0 0-.375 2.186 2.743 2.743 0 0 1-.73 1.481l-2.977 2.77a1.837 1.837 0 0 0-.504 1.474l.56 3.264a.558.558 0 0 0 .622.494.566.566 0 0 0 .27-.107l2.977-1.968a.847.847 0 0 1 .318-.123.864.864 0 0 1 .883.397c.168.251.356.489.56.712a1.497 1.497 0 0 1 .353 1.425l-1.525 4.127a.747.747 0 0 0 .255.896.76.76 0 0 0 .306.13l2.243.504a1.225 1.225 0 0 0 1.278-.594l2.12-4.037c.291-.472.75-.816 1.284-.965.471-.122.934-.276 1.385-.459a.765.765 0 0 1 1.065.487l.763 2.529a.563.563 0 0 0 .384.444.554.554 0 0 0 .57-.141l3.364-2.658a1.882 1.882 0 0 0 .684-1.458l-.202-3.213c0-.561.185-1.107.527-1.553a24.552 24.552 0 0 0 1.57-2.08 1.754 1.754 0 0 1 1.374-.695l2.17.106a1.395 1.395 0 0 0 1.261-.74l2.041-4.581a.868.868 0 0 0 .018-.674.861.861 0 0 0-.472-.481l-1.755-.752a1.074 1.074 0 0 1-.6-1.205c.163-.74.292-1.469.376-2.187a2.723 2.723 0 0 1 .729-1.48l2.994-2.754a1.824 1.824 0 0 0 .493-1.474Zm-14.433 17.382c-3.661 2.882-7.166 2.097-7.85-1.749-.684-3.847 1.772-9.297 5.434-12.174 3.661-2.876 7.166-2.097 7.85 1.75.684 3.847-1.772 9.308-5.434 12.185v-.012Z"/><path fill="#fff" d="m106.845 234.801-.56-3.269a.562.562 0 0 0-.892-.387l-2.989 1.974a.877.877 0 0 1-.657.114.88.88 0 0 1-.542-.389 6.12 6.12 0 0 0-.561-.712 1.489 1.489 0 0 1-.353-1.425l1.497-4.104a.752.752 0 0 0-.561-1.026l-2.243-.505a1.214 1.214 0 0 0-1.278.595l-2.12 4.037a2.242 2.242 0 0 1-1.284.964c-.467.111-.925.251-1.374.421a.765.765 0 0 1-.645.003.775.775 0 0 1-.42-.491l-.763-2.529a.558.558 0 0 0-.383-.444.564.564 0 0 0-.57.141l-3.364 2.658a1.868 1.868 0 0 0-.64 1.43l.202 3.219c0 .561-.185 1.107-.527 1.553a25.805 25.805 0 0 0-1.57 2.074 1.752 1.752 0 0 1-1.413.718l-2.17-.112a1.398 1.398 0 0 0-1.245.751l-2.04 4.582a.866.866 0 0 0 .17.961.86.86 0 0 0 .283.194l1.755.751a1.078 1.078 0 0 1 .6 1.206 22.035 22.035 0 0 0-.375 2.186 2.743 2.743 0 0 1-.73 1.481l-2.977 2.77a1.837 1.837 0 0 0-.504 1.474l.56 3.264a.558.558 0 0 0 .622.494.566.566 0 0 0 .27-.107l2.977-1.968a.847.847 0 0 1 .318-.123.864.864 0 0 1 .883.397c.168.251.356.489.56.712a1.497 1.497 0 0 1 .353 1.425l-1.525 4.127a.747.747 0 0 0 .255.896.76.76 0 0 0 .306.13l2.243.504a1.225 1.225 0 0 0 1.278-.594l2.12-4.037c.291-.472.75-.816 1.284-.965.471-.122.934-.276 1.385-.459a.765.765 0 0 1 1.065.487l.763 2.529a.563.563 0 0 0 .384.444.554.554 0 0 0 .57-.141l3.364-2.658a1.882 1.882 0 0 0 .684-1.458l-.202-3.213c0-.561.185-1.107.527-1.553a24.552 24.552 0 0 0 1.57-2.08 1.754 1.754 0 0 1 1.374-.695l2.17.106a1.395 1.395 0 0 0 1.261-.74l2.041-4.581a.868.868 0 0 0 .018-.674.861.861 0 0 0-.472-.481l-1.755-.752a1.074 1.074 0 0 1-.6-1.205c.163-.74.292-1.469.376-2.187a2.723 2.723 0 0 1 .729-1.48l2.994-2.754a1.824 1.824 0 0 0 .493-1.474Zm-14.433 17.382c-3.661 2.882-7.166 2.097-7.85-1.749-.684-3.847 1.772-9.297 5.434-12.174 3.661-2.876 7.166-2.097 7.85 1.75.684 3.847-1.772 9.308-5.434 12.185v-.012Z" opacity=".65"/><path fill="#E0E0E0" d="M287.27 215.54c11.184 0 20.25-5.234 20.25-11.69 0-6.456-9.066-11.69-20.25-11.69s-20.25 5.234-20.25 11.69c0 6.456 9.066 11.69 20.25 11.69Z"/><path fill="#38A0ED" d="M273.48 168c7.73-2.94 20.1-3.08 27.63-.3 7.53 2.78 7.58 7.4.11 10.34-7.47 2.94-19.83 3.08-27.62.31-7.79-2.77-7.84-7.43-.12-10.35Z"/><path fill="#000" d="M273.48 168c7.73-2.94 20.1-3.08 27.63-.3 7.53 2.78 7.58 7.4.11 10.34-7.47 2.94-19.83 3.08-27.62.31-7.79-2.77-7.84-7.43-.12-10.35Z" opacity=".3"/><path fill="#FAFAFA" d="M266.63 154.86h41.29l-4.22 48.24c-.18 2-1.73 3.93-4.69 5.44-6.31 3.22-16.7 3.22-23.23 0-3.06-1.51-4.66-3.46-4.85-5.44l-4.3-48.24Z"/><path fill="#E6E6E6" d="M267.55 155.71H307l-4.07 46.56-.07.77c-.16 1.76-1.66 3.45-4.23 4.76a25.282 25.282 0 0 1-11.15 2.32c-3.9.076-7.767-.72-11.32-2.33-2.66-1.31-4.22-3-4.39-4.76l-.1-.65-4.08-46.71m-.92-.85 4.22 48.29c.19 2 1.79 3.93 4.85 5.44a27.247 27.247 0 0 0 11.7 2.41 26.1 26.1 0 0 0 11.56-2.37c3-1.51 4.51-3.46 4.69-5.44l4.22-48.24h-41.29l.05-.09Z"/><path fill="#38A0ED" d="m265.57 158.92-.75-8.25h5.24a18 18 0 0 1 2-1.08c8.62-4.11 22.37-4.11 30.7 0a16.73 16.73 0 0 1 1.89 1.08h5.11l-.75 8.25c0 2.69-2.08 5.38-6.25 7.44-8.33 4.1-22.08 4.1-30.7 0-4.34-2.06-6.49-4.75-6.49-7.44Z"/><path fill="#000" d="m265.57 158.92-.75-8.25h5.24a18 18 0 0 1 2-1.08c8.62-4.11 22.37-4.11 30.7 0a16.73 16.73 0 0 1 1.89 1.08h5.11l-.75 8.25c0 2.69-2.08 5.38-6.25 7.44-8.33 4.1-22.08 4.1-30.7 0-4.34-2.06-6.49-4.75-6.49-7.44Z" opacity=".2"/><path fill="#38A0ED" d="M271.51 143c8.92-4.25 23.13-4.25 31.75 0 8.62 4.25 8.62 11.13 0 15.37-8.62 4.24-22.83 4.25-31.75 0-8.92-4.25-8.91-11.15 0-15.37Zm35.27 29.89v1.4l-1.24 16.13c0 1.1-.74 2.19-2.18 3.17l-.39.25c-.737.422-1.506.786-2.3 1.09a37.313 37.313 0 0 1-12.39 2.16h-1.98a37.925 37.925 0 0 1-11.72-1.87 15.257 15.257 0 0 1-3-1.38c-.13-.09-.26-.16-.38-.25-1.44-1-2.17-2.07-2.19-3.17l-1.24-16.13-.05-.7a.272.272 0 0 0 0 .09c.31 1.71 2.25 3.37 5.83 4.65a42.194 42.194 0 0 0 13.66 2 40.61 40.61 0 0 0 14-2.3c3.68-1.46 5.53-3.3 5.57-5.14Z"/><path fill="#fff" d="M306.78 172.89v1.4l-1.24 16.13c0 1.1-.74 2.19-2.18 3.17l-.39.25c-.737.422-1.506.786-2.3 1.09a37.313 37.313 0 0 1-12.39 2.16h-1.98a37.925 37.925 0 0 1-11.72-1.87 15.257 15.257 0 0 1-3-1.38c-.13-.09-.26-.16-.38-.25-1.44-1-2.17-2.07-2.19-3.17l-1.24-16.13-.05-.7a.272.272 0 0 0 0 .09c.31 1.71 2.25 3.37 5.83 4.65a42.194 42.194 0 0 0 13.66 2 40.61 40.61 0 0 0 14-2.3c3.68-1.46 5.53-3.3 5.57-5.14Z" opacity=".35"/><path fill="#37474F" d="M293.71 191.15a24.634 24.634 0 0 0 1.52-2.93 8.64 8.64 0 0 1 4.46-4 .56.56 0 0 1 .7.25c1 2 .43 4.78-1.57 6.82s-4.74 2.68-6.74 1.77c-.11 0-.14-.27-.05-.33a5.629 5.629 0 0 0 1.68-1.58Zm4.89-7.48a9.63 9.63 0 0 0-2.82 1.78 8.778 8.778 0 0 0-2 2.83 8.373 8.373 0 0 1-2.54 3.45.559.559 0 0 1-.78-.11c-1.35-2-.86-5.06 1.3-7.27s4.91-2.71 6.93-1.67a.55.55 0 0 1-.09.99Z"/><path fill="#38A0ED" d="m269.09 149 1.35-6.74 11.31-.12A40.417 40.417 0 0 1 293 142l11-.12 1.5 6.71c.74 2.44-.92 5-5 6.94-7 3.29-18.63 3.41-26 .29-4.34-1.82-6.12-4.4-5.41-6.82Z"/><path fill="#000" d="m269.09 149 1.35-6.74 11.31-.12A40.417 40.417 0 0 1 293 142l11-.12 1.5 6.71c.74 2.44-.92 5-5 6.94-7 3.29-18.63 3.41-26 .29-4.34-1.82-6.12-4.4-5.41-6.82Z" opacity=".2"/><path fill="#38A0ED" d="M275.3 137.87c6.67-2.87 17.34-3 23.85-.27 6.51 2.73 6.55 7.24.11 10.11-6.44 2.87-17.12 3-23.85.26s-6.77-7.24-.11-10.1Z"/><path fill="#38A0ED" d="M272.66 143c.142.402.404.751.75 1a10.383 10.383 0 0 0 2.76 1.57 30.865 30.865 0 0 0 11.24 1.81c3.765.032 7.5-.664 11-2.05a9.419 9.419 0 0 0 2.64-1.63c.325-.255.562-.604.68-1 0-.19-.59-1.36-3.38-2.52a29.395 29.395 0 0 0-11.05-1.81 30.688 30.688 0 0 0-11.19 2.06c-2.76 1.11-3.44 2.29-3.45 2.57Z"/><path fill="#000" d="M272.66 143c.142.402.404.751.75 1a10.383 10.383 0 0 0 2.76 1.57 30.865 30.865 0 0 0 11.24 1.81c3.765.032 7.5-.664 11-2.05a9.419 9.419 0 0 0 2.64-1.63c.325-.255.562-.604.68-1 0-.19-.59-1.36-3.38-2.52a29.395 29.395 0 0 0-11.05-1.81 30.688 30.688 0 0 0-11.19 2.06c-2.76 1.11-3.44 2.29-3.45 2.57Z" opacity=".5"/><path fill="#38A0ED" d="M273.41 143.9a10.383 10.383 0 0 0 2.76 1.57 30.887 30.887 0 0 0 11.24 1.81c3.765.032 7.5-.664 11-2.05a9.442 9.442 0 0 0 2.64-1.63 9.503 9.503 0 0 0-2.67-1.58 29.3 29.3 0 0 0-11.06-1.8 30.26 30.26 0 0 0-11.19 2.06c-.985.395-1.903.942-2.72 1.62Z"/><path fill="#000" d="M273.41 143.9a10.383 10.383 0 0 0 2.76 1.57 30.887 30.887 0 0 0 11.24 1.81c3.765.032 7.5-.664 11-2.05a9.442 9.442 0 0 0 2.64-1.63 9.503 9.503 0 0 0-2.67-1.58 29.3 29.3 0 0 0-11.06-1.8 30.26 30.26 0 0 0-11.19 2.06c-.985.395-1.903.942-2.72 1.62Z" opacity=".2"/><path fill="#000" d="M280.12 144c-1-.62-2.17-.87-2.65-.55-.48.32-.08 1.09.9 1.72.98.63 2.17.88 2.65.55.48-.33.08-1.1-.9-1.72Z" opacity=".5"/><path fill="#E0E0E0" d="m110.29 281 82.06 47.36a7.484 7.484 0 0 0 6.74 0l122.1-70.5c1.86-1.08 1.86-2.82 0-3.89l-82.06-47.36a7.484 7.484 0 0 0-6.74 0l-122.1 70.5c-1.86 1.05-1.86 2.8 0 3.89Z"/><path fill="#38A0ED" d="M116.82 277.69c0 1.9 1.42 3.12 3.18 4.14l72.07 41.6a7.004 7.004 0 0 0 6.36 0l116.26-67.12c1.76-1 3.18-2.32 3.18-4.22s-1.42-3.09-3.18-4.1l-72.06-41.61a7.077 7.077 0 0 0-6.37 0L120 273.5c-1.76 1.02-3.18 2.28-3.18 4.19Z"/><path fill="#fff" d="M116.82 277.69c0 1.9 1.42 3.12 3.18 4.14l72.07 41.6a7.004 7.004 0 0 0 6.36 0l116.26-67.12c1.76-1 3.18-2.32 3.18-4.22s-1.42-3.09-3.18-4.1l-72.06-41.61a7.077 7.077 0 0 0-6.37 0L120 273.5c-1.76 1.02-3.18 2.28-3.18 4.19Z" opacity=".4"/><path fill="#38A0ED" d="m120 277.18 72.07 41.6a7.004 7.004 0 0 0 6.36 0l116.26-67.12c1.76-1 1.76-2.66 0-3.67l-72.06-41.61a7.074 7.074 0 0 0-6.37 0L120 273.5c-1.76 1.02-1.76 2.66 0 3.68Z"/><path fill="#fff" d="m120 277.18 72.07 41.6a7.004 7.004 0 0 0 6.36 0l116.26-67.12c1.76-1 1.76-2.66 0-3.67l-72.06-41.61a7.074 7.074 0 0 0-6.37 0L120 273.5c-1.76 1.02-1.76 2.66 0 3.68Z" opacity=".85"/><path fill="#38A0ED" d="M195.25 319.55v4.64a6.451 6.451 0 0 1-3.18-.76L120 281.83c-1.75-1-3.18-2.24-3.18-4.14 0-1.9 1.28-3 2.93-4.05-1.36 1-1.39 2.59.25 3.54l72.07 41.61a6.558 6.558 0 0 0 3.18.76ZM129.84 274l106.83-61.68a3.304 3.304 0 0 1 3 0l3.89 2.18a.919.919 0 0 1 0 1.74L136.71 278a3.298 3.298 0 0 1-3 0l-3.87-2.18a.91.91 0 0 1 0-1.82Z"/><path fill="#fff" d="m129.84 274 106.83-61.68a3.304 3.304 0 0 1 3 0l3.89 2.18a.919.919 0 0 1 0 1.74L136.71 278a3.298 3.298 0 0 1-3 0l-3.87-2.18a.91.91 0 0 1 0-1.82Z" opacity=".7"/><path fill="#38A0ED" d="m140.33 280.23 106.83-61.68a3 3 0 0 1 2.74-.15l27.81 16c.69.4.57 1.11-.26 1.59l-106.71 61.6a3.096 3.096 0 0 1-2.74.15l-27.93-16c-.69-.32-.57-1.03.26-1.51Z"/><path fill="#fff" d="m140.33 280.23 106.83-61.68a3 3 0 0 1 2.74-.15l27.81 16c.69.4.57 1.11-.26 1.59l-106.71 61.6a3.096 3.096 0 0 1-2.74.15l-27.93-16c-.69-.32-.57-1.03.26-1.51Z" opacity=".4"/><path fill="#FAFAFA" d="m232.9 244.46 3.34-1.94c.15-.08.16-.2 0-.28l-3.2-1.84a.514.514 0 0 0-.48 0l-3.35 1.93c-.14.09-.15.21 0 .28l3.2 1.85a.537.537 0 0 0 .49 0Zm-4.9-6.69-3.35 1.93c-.14.09-.15.21 0 .29l3.2 1.84a.537.537 0 0 0 .49 0l3.34-1.93c.15-.09.16-.21 0-.28l-3.2-1.85a.514.514 0 0 0-.48 0ZM217.21 244l-5.66 3.27c-.14.08-.16.21 0 .28l3.2 1.85a.56.56 0 0 0 .49 0l5.66-3.27c.14-.08.15-.2 0-.28l-3.2-1.85a.525.525 0 0 0-.49 0Zm5.92-3.41-3.35 1.93c-.14.08-.15.21 0 .28l3.2 1.85a.56.56 0 0 0 .49 0l3.34-1.93c.15-.08.16-.21 0-.28l-3.2-1.85a.507.507 0 0 0-.48.01v-.01ZM210 248.17l-3.34 1.93c-.14.09-.15.21 0 .28l3.2 1.85a.56.56 0 0 0 .49 0l3.34-1.94c.14-.08.16-.2 0-.28l-3.2-1.84a.525.525 0 0 0-.49 0Zm-4.88 2.83-3.35 1.93c-.14.08-.15.2 0 .28l3.2 1.84a.537.537 0 0 0 .49 0l3.34-1.93c.15-.09.16-.21 0-.28l-3.2-1.84a.514.514 0 0 0-.48 0Zm12.54 7.53 3.34-1.93c.15-.08.16-.2 0-.28l-3.2-1.85a.542.542 0 0 0-.48 0l-3.32 1.95c-.14.08-.15.21 0 .28l3.2 1.85a.528.528 0 0 0 .46-.02Zm-4.89 2.83 3.35-1.93c.14-.09.15-.21 0-.29l-3.2-1.84a.514.514 0 0 0-.48 0l-3.35 1.94c-.14.08-.15.2 0 .28l3.2 1.84a.527.527 0 0 0 .48 0Zm-4.89 2.82 3.35-1.93c.14-.08.15-.21 0-.28l-3.2-1.85a.525.525 0 0 0-.49 0l-3.35 1.93c-.14.08-.15.21 0 .28l3.2 1.85a.536.536 0 0 0 .49 0ZM203 267l3.35-1.93c.14-.08.15-.21 0-.28l-3.2-1.85a.561.561 0 0 0-.49 0l-3.34 1.93c-.15.08-.16.21 0 .28l3.2 1.85a.542.542 0 0 0 .48 0Zm25-19.72 3.35-1.93c.14-.08.15-.21 0-.28l-3.21-1.85a.514.514 0 0 0-.48 0l-3.35 1.93c-.14.08-.15.2 0 .28l3.2 1.85a.536.536 0 0 0 .49 0Zm-5.46 8.43 7.46-4.31c.14-.08.15-.2 0-.28l-7.77-4.48a.525.525 0 0 0-.49 0l-3.86 2.23c-.14.08-.15.21 0 .28l4.12 2.38c.12.07.11.2 0 .28l-3.09 1.78c-.14.08-.15.21 0 .28l3.2 1.85a.555.555 0 0 0 .44-.01h-.01Zm-22.32-1.89-3.35 1.93c-.14.08-.15.21 0 .28l3.2 1.85a.56.56 0 0 0 .49 0l3.34-1.93c.15-.08.16-.21 0-.28l-3.2-1.85a.547.547 0 0 0-.47 0h-.01Zm-4.89 2.82-3.33 1.93c-.14.08-.15.21 0 .28l3.2 1.85a.537.537 0 0 0 .49 0l3.35-1.93c.14-.08.15-.21 0-.28l-3.2-1.85a.543.543 0 0 0-.5 0h-.01Zm-27.05 30.14a.542.542 0 0 0 .48 0l3.35-1.93c.14-.08.15-.21 0-.28l-3.2-1.85a.542.542 0 0 0-.48 0l-3.35 1.93c-.14.08-.15.21 0 .28l3.2 1.85Zm-12.06-7.56-3.35 1.93c-.14.08-.15.21 0 .28l3.2 1.85a.537.537 0 0 0 .49 0l3.35-1.93c.14-.08.15-.21 0-.28l-3.2-1.85a.542.542 0 0 0-.48 0h-.01Zm6.2 5.66a.514.514 0 0 0 .48 0l3.35-1.93c.14-.08.15-.21 0-.28l-3.2-1.85a.561.561 0 0 0-.49 0l-3.34 1.93c-.15.08-.16.21 0 .28l3.2 1.85Zm13.49 3 3.34-1.93c.14-.08.16-.21 0-.28l-3.2-1.85a.561.561 0 0 0-.49 0l-3.34 1.93c-.14.08-.16.21 0 .28l3.2 1.85a.536.536 0 0 0 .5.03l-.01-.03Zm-5.38 2.84a.537.537 0 0 0 .49 0l3.34-1.94c.14-.08.16-.2 0-.28l-3.2-1.84a.525.525 0 0 0-.49 0l-3.34 1.93c-.14.09-.16.21 0 .29l3.2 1.84Zm-9.42-14.35-3.35 1.93c-.14.08-.15.21 0 .28l3.2 1.85a.56.56 0 0 0 .49 0l3.34-1.93c.15-.08.16-.21 0-.28l-3.2-1.85a.54.54 0 0 0-.47.03l-.01-.03Zm24.44-14.11-3.34 1.93c-.15.08-.16.2 0 .28l3.2 1.84a.514.514 0 0 0 .48 0l3.35-1.93c.14-.08.15-.21 0-.28l-3.2-1.85a.525.525 0 0 0-.48.04l-.01-.03ZM166 273.58l-3.35 1.93c-.14.08-.15.2 0 .28l3.2 1.85a.56.56 0 0 0 .49 0l3.34-1.93c.15-.08.16-.21 0-.28l-3.2-1.85a.514.514 0 0 0-.48 0Zm24.44-14.12-3.35 1.93c-.14.09-.15.21 0 .28l3.2 1.85a.514.514 0 0 0 .48 0l3.35-1.94c.14-.08.15-.2 0-.28l-3.2-1.84a.53.53 0 0 0-.47 0h-.01Zm-9.78 5.65-3.33 1.89c-.15.08-.16.21 0 .28l3.2 1.85a.542.542 0 0 0 .48 0l3.35-1.93c.14-.08.15-.21 0-.28l-3.2-1.85a.56.56 0 0 0-.49.04h-.01Zm-4.89 2.82-3.34 1.93c-.14.08-.16.21 0 .28l3.2 1.85a.537.537 0 0 0 .49 0l3.34-1.93c.14-.08.16-.21 0-.28l-3.2-1.85a.554.554 0 0 0-.48 0h-.01Zm-4.89 2.82-3.34 1.93c-.14.09-.16.21 0 .29l3.2 1.84a.537.537 0 0 0 .49 0l3.34-1.94c.14-.08.16-.2 0-.28l-3.2-1.84a.528.528 0 0 0-.48 0h-.01Zm22.33 1.9 3.34-1.93c.14-.09.16-.21 0-.28l-3.2-1.85a.525.525 0 0 0-.49 0l-3.34 1.94c-.14.08-.16.2 0 .28l3.2 1.84a.533.533 0 0 0 .5 0h-.01Zm45.6-41.12-3.34 1.94c-.14.08-.16.2 0 .28l3.2 1.84a.537.537 0 0 0 .49 0l3.34-1.93c.14-.09.16-.21 0-.28l-3.2-1.85a.528.528 0 0 0-.48 0h-.01Zm-5.9 3.47-3.35 1.93c-.14.08-.15.21 0 .28l3.2 1.85a.537.537 0 0 0 .49 0l3.34-1.93c.14-.08.16-.2 0-.28l-3.2-1.85a.542.542 0 0 0-.48 0Zm10.8-6.24-3.34 1.93c-.14.09-.16.21 0 .28l3.2 1.85a.514.514 0 0 0 .48 0l3.35-1.93c.14-.08.15-.2 0-.28l-3.2-1.84a.537.537 0 0 0-.49-.06v.05Zm-27 25.1 3.34-1.93c.15-.08.16-.2 0-.28l-3.2-1.84a.514.514 0 0 0-.48 0L213 251.7c-.14.09-.15.21 0 .28l3.2 1.85a.54.54 0 0 0 .49-.02l.02.05Zm32.4-27.94a.561.561 0 0 0-.49 0l-3.34 1.93c-.15.08-.16.21 0 .28l3.2 1.85a.542.542 0 0 0 .48 0l3.35-1.93c.14-.08.15-.21 0-.28l-3.2-1.85Zm-51 43.95 3.35-1.93c.14-.08.15-.2 0-.28l-3.2-1.84a.525.525 0 0 0-.49 0l-3.34 1.93c-.15.08-.16.21 0 .28l3.2 1.85a.512.512 0 0 0 .47-.06l.01.05Zm60-34.61 3.34-1.93c.14-.08.16-.21 0-.28l-3.2-1.85a.561.561 0 0 0-.49 0l-3.34 1.93c-.14.08-.16.21 0 .28l3.2 1.85a.552.552 0 0 0 .44-.05l.05.05Zm-9.46.18 3.34-1.93c.14-.08.16-.2 0-.28l-3.2-1.85a.561.561 0 0 0-.49 0l-3.34 1.93c-.14.08-.16.21 0 .28l3.2 1.85a.522.522 0 0 0 .44-.05l.05.05Zm5.06-6.88a.561.561 0 0 0-.49 0l-3.34 1.93c-.14.08-.16.21 0 .28l3.2 1.85a.542.542 0 0 0 .48 0l3.35-1.93c.14-.08.15-.21 0-.28l-3.2-1.85Zm1-.59 7.77 4.49a.542.542 0 0 0 .48 0l3.35-1.93c.14-.08.15-.21 0-.28l-7.77-4.49a.525.525 0 0 0-.49 0l-3.34 1.93c-.14.03-.15.16-.02.23l.02.05Zm-11.3 6.25-3.34 1.94c-.14.08-.16.2 0 .28l3.2 1.84a.537.537 0 0 0 .49 0l3.34-1.93c.14-.09.16-.21 0-.29l-3.2-1.84a.53.53 0 0 0-.51-.05l.02.05Zm-36.81 21.2-3.34 1.93c-.15.08-.16.21 0 .28l3.2 1.85a.542.542 0 0 0 .48 0l3.35-1.93c.14-.08.15-.21 0-.28l-3.2-1.85a.561.561 0 0 0-.49 0Zm46.08-17.37a.537.537 0 0 0 .49 0l3.34-1.93c.14-.08.16-.21 0-.28l-3.2-1.85a.542.542 0 0 0-.48 0l-3.35 1.93c-.14.08-.15.21 0 .28l3.2 1.85Zm-41.19 14.54-3.35 1.94c-.14.08-.15.2 0 .28l3.2 1.84a.514.514 0 0 0 .48 0l3.35-1.93c.14-.09.15-.21 0-.28l-3.2-1.85a.542.542 0 0 0-.48 0ZM173.17 284a.537.537 0 0 0 .49 0l3.34-2c.14-.09.15-.21 0-.28l-3.2-1.85a.542.542 0 0 0-.48 0l-3.32 1.96c-.14.08-.15.2 0 .28l3.17 1.89Zm-5.68-6-3.35 1.93c-.14.08-.15.21 0 .28l3.2 1.85a.542.542 0 0 0 .48 0l3.35-1.93c.14-.08.15-.21 0-.28L168 278a.565.565 0 0 0-.51 0Zm11.06 3.11 3.34-1.93c.15-.08.16-.2 0-.28l-3.2-1.84a.514.514 0 0 0-.48 0l-3.32 1.94c-.14.09-.15.21 0 .28l3.2 1.85a.528.528 0 0 0 .46-.02Zm4.89-2.82 3.34-1.93c.14-.08.16-.21 0-.28l-3.2-1.85a.577.577 0 0 0-.49 0l-3.34 1.93c-.14.08-.16.21 0 .28l3.2 1.85a.56.56 0 0 0 .49 0Zm4.89-2.82 3.34-1.93c.14-.08.16-.21 0-.28l-3.2-1.85a.525.525 0 0 0-.49 0l-3.34 1.93c-.14.08-.16.21 0 .28l3.2 1.85a.56.56 0 0 0 .49 0Zm-16-.29-3.33 1.93c-.14.08-.15.2 0 .28l3.2 1.84a.537.537 0 0 0 .49 0l3.35-1.93c.14-.09.15-.21 0-.28l-3.2-1.85a.499.499 0 0 0-.46.01h-.05Zm4.89-2.83-3.35 1.93c-.14.09-.15.21 0 .28l3.2 1.85a.56.56 0 0 0 .49 0l3.34-1.94c.15-.08.16-.2 0-.28l-3.2-1.84a.515.515 0 0 0-.43 0h-.05Zm19.55-11.29-3.29 1.94c-.14.09-.16.21 0 .28l3.2 1.85a.514.514 0 0 0 .48 0l3.35-1.93c.14-.08.15-.2 0-.28l-3.2-1.84a.527.527 0 0 0-.49-.02h-.05Zm-4.89 2.82-3.34 1.94c-.14.08-.16.2 0 .28l3.2 1.84a.537.537 0 0 0 .49 0l3.34-1.93c.14-.09.16-.21 0-.28l-3.2-1.85a.555.555 0 0 0-.44 0h-.05Zm9.78-5.64-3.34 1.93c-.15.08-.16.21 0 .28l3.2 1.85a.542.542 0 0 0 .48 0l3.35-1.93c.14-.08.15-.21 0-.28l-3.2-1.85a.555.555 0 0 0-.44 0h-.05Zm-19.55 11.29-3.35 1.93c-.14.08-.15.21 0 .28l3.2 1.85a.537.537 0 0 0 .49 0l3.34-1.93c.15-.08.16-.21 0-.28l-3.2-1.85a.531.531 0 0 0-.43 0h-.05Zm4.88-2.82-3.34 1.93c-.14.08-.16.21 0 .28l3.2 1.85a.56.56 0 0 0 .49 0l3.34-1.93c.14-.08.16-.21 0-.28l-3.2-1.85a.554.554 0 0 0-.48 0h-.01Zm-6.24 18.38 3.35-1.93c.14-.08.15-.21 0-.28L181 281a.561.561 0 0 0-.49 0l-3.36 2c-.14.08-.16.21 0 .28l3.2 1.85a.54.54 0 0 0 .45-.04h-.05ZM155 283.87l-3.18-1.87a.514.514 0 0 0-.48 0l-3.34 2c-.14.09-.15.21 0 .29l3.2 1.84a.514.514 0 0 0 .48 0l3.35-1.93c.11-.13.12-.2-.03-.33Zm6.37 1.6-3.2-1.84a.525.525 0 0 0-.49 0l-5.14 3c-.15.09-.16.21 0 .28l3.2 1.85a.542.542 0 0 0 .48 0l5.15-3c.14-.09.15-.21.03-.29h-.03Zm-11.15-5.24-3.2-1.85a.561.561 0 0 0-.49 0l-4.11 2.38c-.15.08-.16.21 0 .28l3.2 1.85a.542.542 0 0 0 .48 0l4.12-2.37c.14-.1.15-.22.03-.29h-.03Zm3.15-1.83a.537.537 0 0 0 .49 0l3.35-1.94c.14-.08.15-.2 0-.28l-3.2-1.84a.514.514 0 0 0-.48 0l-3.35 1.93c-.14.09-.15.21 0 .29l3.19 1.84Zm13.86 9-3.2-1.85a.561.561 0 0 0-.49 0l-6.43 3.71c-.14.09-.16.21 0 .28l3.2 1.85a.542.542 0 0 0 .48 0l6.44-3.72c.14-.1.15-.23.03-.3l-.03.03Zm2.25 4-3.2-1.85a.514.514 0 0 0-.48 0l-4.12 2.37c-.14.08-.16.21 0 .28l3.2 1.85a.537.537 0 0 0 .49 0l4.11-2.37c.14-.13.16-.26.03-.33l-.03.05Zm20.24-33.93a.56.56 0 0 0 .49 0l3.34-1.93c.15-.08.16-.21 0-.28l-3.2-1.85a.542.542 0 0 0-.48 0l-3.35 1.93c-.14.08-.15.21 0 .28l3.2 1.85Zm-9.72 5.59a.514.514 0 0 0 .48 0l3.35-1.94c.14-.08.15-.2 0-.28l-3.2-1.84a.525.525 0 0 0-.49 0l-3.35 1.93c-.14.09-.15.21 0 .28l3.21 1.85Zm-21.69 12.52a.537.537 0 0 0 .49 0l3.34-1.93c.15-.08.16-.2 0-.28L159 271.5a.542.542 0 0 0-.48 0l-3.35 1.93c-.14.08-.15.21 0 .28l3.14 1.87Zm26.57-15.34a.537.537 0 0 0 .49 0l3.35-1.93c.14-.08.15-.21 0-.28l-3.2-1.85a.542.542 0 0 0-.48 0l-3.35 1.93c-.14.08-.15.21 0 .28l3.19 1.85Zm-9.77 5.65a.542.542 0 0 0 .48 0l3.35-1.93c.14-.08.15-.21 0-.28l-3.2-1.85a.525.525 0 0 0-.49 0l-3.34 1.93c-.15.08-.16.2 0 .28l3.2 1.85Zm-3.18 25.65a.542.542 0 0 0-.48 0l-5.15 3c-.14.08-.15.21 0 .28l3.2 1.85a.537.537 0 0 0 .49 0l5.14-3c.15-.08.16-.21 0-.28l-3.2-1.85Zm-3.84-21.6a.56.56 0 0 0 .49 0l3.32-1.94c.14-.08.16-.21 0-.28l-3.2-1.85a.525.525 0 0 0-.49 0l-3.34 1.93c-.14.08-.16.2 0 .28l3.22 1.86Zm-4.89 2.82a.56.56 0 0 0 .49 0l3.34-1.93c.15-.08.16-.21 0-.28l-3.2-1.85a.542.542 0 0 0-.48 0l-3.35 1.93c-.14.08-.15.21 0 .28l3.2 1.85Zm99.3-33.51a.542.542 0 0 0-.48 0l-8.26 4.75c-.14.09-.15.21 0 .28l3.2 1.85a.514.514 0 0 0 .48 0l8.24-4.75c.14-.08.15-.21 0-.28l-3.18-1.85Zm-10.8 6.24a.561.561 0 0 0-.49 0l-3.34 1.93c-.15.08-.16.21 0 .28l3.2 1.85a.542.542 0 0 0 .48 0l3.35-1.93c.14-.08.15-.21 0-.28l-3.2-1.85Zm-66 36.78 3.35-1.93c.14-.08.15-.21 0-.28l-3.2-1.85a.525.525 0 0 0-.49 0l-3.36 1.95c-.15.08-.16.2 0 .28l3.2 1.85a.538.538 0 0 0 .49-.02h.01Zm56.21-31.13a.525.525 0 0 0-.49 0l-3.34 1.94c-.14.08-.16.2 0 .28l3.2 1.84a.537.537 0 0 0 .49 0l3.34-1.93c.14-.09.16-.21 0-.28l-3.2-1.85Zm25.47-14.71a.514.514 0 0 0-.48 0l-3.35 1.93c-.14.08-.15.21 0 .28l3.2 1.85a.56.56 0 0 0 .49 0l3.34-1.93c.15-.08.16-.21 0-.28l-3.2-1.85Zm8.09-1-7.78-4.43a.561.561 0 0 0-.49 0l-3.34 1.94c-.14.08-.16.2 0 .28l7.77 4.48a.537.537 0 0 0 .49 0l3.34-1.93c.12-.12.13-.24 0-.31l.01-.03Zm-51.83 26.23a.514.514 0 0 0-.48 0l-4.16 2.42c-.14.08-.16.21 0 .28l3.2 1.85a.56.56 0 0 0 .49 0l4.11-2.38c.14-.08.16-.2 0-.28l-3.16-1.89Zm12.36-7.11a.542.542 0 0 0-.48 0l-5.15 3c-.14.08-.16.21 0 .28l3.2 1.85a.537.537 0 0 0 .49 0l5.14-3c.15-.08.16-.21 0-.28l-3.2-1.85Zm-23.67 13.67a.561.561 0 0 0-.49 0l-27.53 15.89c-.14.09-.15.21 0 .28l3.2 1.85a.537.537 0 0 0 .49 0l27.53-15.89c.14-.08.16-.21 0-.28l-3.2-1.85ZM183.23 285a.542.542 0 0 0-.48 0l-4.12 2.38c-.14.08-.15.21 0 .28l3.2 1.85a.537.537 0 0 0 .49 0l4.12-2.37c.14-.09.15-.21 0-.28l-3.21-1.86ZM218 265a.561.561 0 0 0-.49 0l-4.11 2.38c-.14.08-.16.2 0 .28l3.2 1.84a.514.514 0 0 0 .48 0l4.12-2.38c.14-.08.16-.21 0-.28L218 265Zm-40.4 23.33a.514.514 0 0 0-.48 0l-4.12 2.34c-.14.08-.15.21 0 .28l3.2 1.85a.56.56 0 0 0 .49 0l4.11-2.38c.15-.08.16-.2 0-.28l-3.2-1.81Zm51.72-29.86a.514.514 0 0 0-.48 0l-4.12 2.38c-.14.08-.16.21 0 .28l3.2 1.85a.56.56 0 0 0 .49 0l4.11-2.38c.15-.08.16-.2 0-.28l-3.2-1.85Zm17.5-10.11a.561.561 0 0 0-.49 0l-3.33 1.9c-.14.08-.16.21 0 .28l3.2 1.85a.514.514 0 0 0 .48 0l3.35-1.93c.14-.08.15-.2 0-.28l-3.21-1.82Zm11-7.64 3.34-1.93c.15-.08.16-.21 0-.28l-3.2-1.85a.542.542 0 0 0-.48 0l-3.35 1.93c-.14.08-.15.21 0 .28l3.2 1.85a.562.562 0 0 0 .41-.05l.08.05Zm-20 1 3.34-1.93c.15-.08.16-.21 0-.28l-3.2-1.85a.542.542 0 0 0-.48 0l-3.35 1.93c-.14.08-.15.21 0 .28l3.2 1.85a.54.54 0 0 0 .24.009.542.542 0 0 0 .22-.099l.03.09Zm-13 18.06 9.78-5.65c.14-.08.16-.2 0-.28l-3.2-1.85a.561.561 0 0 0-.49 0l-9.77 5.65c-.15.08-.16.2 0 .28l3.2 1.84a.513.513 0 0 0 .46-.08l.02.09Zm27.56-16.18a.537.537 0 0 0 .49 0l3.35-1.94c.14-.08.15-.2 0-.28l-3.2-1.84a.514.514 0 0 0-.48 0l-3.35 1.93c-.14.09-.15.21 0 .28l3.19 1.85Zm-4.08-2.65 3.34-1.94c.15-.08.16-.2 0-.28l-3.2-1.84a.514.514 0 0 0-.48 0l-3.35 1.93c-.14.09-.15.21 0 .28l3.2 1.85a.525.525 0 0 0 .47-.09l.02.09Zm-28.37 21.65 3.35-1.93c.14-.08.15-.21 0-.28l-3.2-1.85a.561.561 0 0 0-.49 0l-3.34 1.93c-.14.08-.16.21 0 .28l3.2 1.85a.54.54 0 0 0 .46-.09l.02.09Zm21.65-12.76a.514.514 0 0 0 .48 0l3.35-1.93c.14-.08.15-.2 0-.28l-3.2-1.84a.525.525 0 0 0-.49 0l-3.34 1.93c-.15.09-.16.21 0 .28l3.2 1.84Zm-46.09 26.87 3.35-1.93c.14-.08.15-.21 0-.28l-3.2-1.85a.542.542 0 0 0-.48 0l-3.35 1.93c-.14.08-.15.21 0 .28l3.21 1.85a.51.51 0 0 0 .45-.09l.02.09Zm4.89-2.82 3.34-1.93c.15-.08.16-.21 0-.28l-3.2-1.85a.542.542 0 0 0-.48 0l-3.35 1.93c-.14.08-.15.21 0 .28l3.2 1.85a.563.563 0 0 0 .47-.09l.02.09Zm-9.78 5.65 3.35-1.94c.14-.08.15-.2 0-.28l-3.2-1.84a.537.537 0 0 0-.49 0l-3.35 1.93c-.14.09-.15.21 0 .28l3.2 1.85a.505.505 0 0 0 .47-.09l.02.09Zm19.56-11.29 3.34-1.94c.14-.08.16-.2 0-.28l-3.2-1.84a.525.525 0 0 0-.49 0l-3.33 1.81c-.14.09-.15.21 0 .28l3.2 1.85a.532.532 0 0 0 .46.03l.02.09Zm-4.91 2.75 3.34-1.93c.15-.08.16-.21 0-.28l-3.2-1.85a.514.514 0 0 0-.48 0l-3.35 1.93c-.14.08-.15.2 0 .28l3.2 1.84a.532.532 0 0 0 .49.01Zm9.78-5.65 3.34-1.93c.14-.08.16-.21 0-.28l-3.2-1.85a.561.561 0 0 0-.49 0l-3.34 1.93c-.14.08-.16.21 0 .28l3.2 1.85a.528.528 0 0 0 .46-.02l.03.02Zm26.67-39.26a.56.56 0 0 0 .49 0l3.35-1.93c.14-.08.15-.21 0-.28l-.85-.49a.514.514 0 0 0-.48 0l-3.35 1.94c-.14.08-.15.2 0 .28l.84.48Zm-24.29 15.38a.514.514 0 0 0 .48 0l3.35-1.94c.14-.08.15-.2 0-.28l-3.2-1.84a.525.525 0 0 0-.49 0l-3.35 1.93c-.14.09-.15.21 0 .28l3.21 1.85Zm9.77-5.64a.56.56 0 0 0 .49 0l3.34-1.93c.15-.08.16-.21 0-.28l-3.2-1.85a.542.542 0 0 0-.48 0l-3.33 1.91c-.14.08-.15.21 0 .28l3.18 1.87Zm-15.74 9.09a.542.542 0 0 0 .48 0l3.35-1.93c.14-.08.15-.21 0-.28l-3.2-1.85a.561.561 0 0 0-.49 0l-3.35 1.93c-.14.08-.15.21 0 .28l3.21 1.85Zm10.85-6.27a.537.537 0 0 0 .49 0l3.35-1.93c.14-.08.15-.21 0-.28l-3.2-1.85a.542.542 0 0 0-.48 0l-3.35 1.93c-.14.08-.15.21 0 .28l3.19 1.85Zm-20.63 11.91a.514.514 0 0 0 .48 0l3.35-1.93c.14-.09.15-.21 0-.28l-3.2-1.85a.561.561 0 0 0-.49 0l-3.34 1.94c-.15.08-.16.2 0 .28l3.2 1.84Zm4.89-2.82a.514.514 0 0 0 .48 0l3.35-1.93c.14-.08.15-.2 0-.28l-3.2-1.84a.525.525 0 0 0-.49 0l-3.34 1.93c-.15.09-.16.21 0 .28l3.2 1.84Zm25.38-16a.514.514 0 0 0 .48 0l3.35-1.94c.14-.08.15-.2 0-.28l-.86-.49a.542.542 0 0 0-.48 0l-3.35 1.93c-.14.08-.15.21 0 .28l.86.5Zm14.66-8.47a.537.537 0 0 0 .49 0l3.34-1.93c.15-.09.16-.21 0-.28l-.85-.5a.542.542 0 0 0-.48 0l-3.35 1.93c-.14.08-.15.21 0 .28l.85.5Zm6.73 3.89a.542.542 0 0 0 .48 0l3.35-1.93c.14-.08.15-.21 0-.28l-3.2-1.85a.525.525 0 0 0-.49 0l-3.32 1.9c-.14.08-.15.21 0 .28l3.18 1.88Zm9.31 10.72 3.34-1.93c.14-.08.16-.21 0-.28l-3.2-1.85a.542.542 0 0 0-.48 0l-3.29 1.92c-.14.08-.15.21 0 .28l3.2 1.85a.57.57 0 0 0 .43-.02v.03Zm-25.81-9a.514.514 0 0 0 .48 0l3.35-1.93c.14-.08.15-.21 0-.28l-.86-.49a.514.514 0 0 0-.48 0l-3.31 1.94c-.14.08-.15.21 0 .28l.82.48Zm-40 24.48a.56.56 0 0 0 .49 0l3.34-1.93c.14-.08.16-.21 0-.28l-3.2-1.85a.561.561 0 0 0-.49 0l-3.34 1.93c-.14.08-.16.21 0 .28l3.2 1.85Z"/><path fill="#38A0ED" d="m210.77 281.19.73.42 19.32 11.15 34.35-19.84.72-.41-20.05-11.57-35.07 20.25Z"/><path fill="#38A0ED" d="m264.73 273.18-18.89-10.9-33.9 19.58 18.88 10.9 33.91-19.58Z"/><path fill="#fff" d="m264.73 273.18-18.89-10.9-33.9 19.58 18.88 10.9 33.91-19.58Z" opacity=".4"/><path fill="#38A0ED" d="M115.44 274c-1.4-.64-1.78-1.75-1.91-3.7l-6.25-91.4a6.343 6.343 0 0 1 2.94-5.37l116.26-67.13c1.76-1 3.05-1.57 4.67-.46s1.66 1.72 1.79 3.68l6.25 91.38a6.362 6.362 0 0 1-2.94 5.38L120 273.51c-1.77 1.01-2.76 1.31-4.56.49Z"/><path fill="#fff" d="M115.44 274c-1.4-.64-1.78-1.75-1.91-3.7l-6.25-91.4a6.343 6.343 0 0 1 2.94-5.37l116.26-67.13c1.76-1 3.05-1.57 4.67-.46s1.66 1.72 1.79 3.68l6.25 91.38a6.362 6.362 0 0 1-2.94 5.38L120 273.51c-1.77 1.01-2.76 1.31-4.56.49Z" opacity=".7"/><path fill="#38A0ED" d="M232.94 109.61c-.13-2-1.67-2.71-3.42-1.69L113.26 175a6 6 0 0 0-2.18 2.34l-3-1.53a6.166 6.166 0 0 1 2.18-2.34l116.22-67.07c1.76-1 3.05-1.58 4.67-.46s1.66 1.72 1.79 3.67Z"/><path fill="#fff" d="M232.94 109.61c-.13-2-1.67-2.71-3.42-1.69L113.26 175a6 6 0 0 0-2.18 2.34l-3-1.53a6.166 6.166 0 0 1 2.18-2.34l116.22-67.07c1.76-1 3.05-1.58 4.67-.46s1.66 1.72 1.79 3.67Z" opacity=".4"/><path fill="#38A0ED" d="M119.75 273.64a4 4 0 0 1-4.31.35c-1.31-.55-1.78-1.75-1.91-3.7l-6.25-91.4a5.717 5.717 0 0 1 .77-3l3 1.52a5.664 5.664 0 0 0-.76 3l6.24 91.4c-.024.386.06.77.243 1.11a2.068 2.068 0 0 0 1.899 1.079 2.062 2.062 0 0 0 1.078-.359Zm-4.47-95.11L227.16 114c1.05-.61 2-.15 2.05 1l5.79 85.24a3.823 3.823 0 0 1-.464 1.842 3.819 3.819 0 0 1-1.296 1.388L121.4 268c-1.06.61-2 .15-2.06-1l-5.83-85.26a3.797 3.797 0 0 1 1.77-3.21Z"/><path fill="#fff" d="M115.28 178.53a3.798 3.798 0 0 0-1.77 3.23l5.74 83.84 110.6-63.84a3.796 3.796 0 0 0 1.76-3.22l-5.73-83.84-110.6 63.83Z"/><path fill="#455A64" d="M239.26 122.5a.605.605 0 0 0 0-.19 1.049 1.049 0 0 0-.22-.45.275.275 0 0 0-.08-.11.283.283 0 0 0-.07-.08l-.16-.13a1.245 1.245 0 0 0-.2-.1 1.727 1.727 0 0 0-1.52.21l-110.15 63.29c-1.21.69-2.12 2.35-2 4.69l5.4 79.23-.06-1v.46a1.506 1.506 0 0 0 .9 1.25l.11.06.12.06.2.05c.096.01.194.01.29 0 .26-.007.515-.079.74-.21h.06l2.09-1.2 107.93-62.14a4.318 4.318 0 0 0 2-3.69l-5.43-79.73c.022-.089.038-.179.05-.27Z"/><path fill="#38A0ED" d="M238.46 121.39a1.727 1.727 0 0 0-1.52.21l-110.08 63.34a4.336 4.336 0 0 0-2 3.69l.28 4.08-3-1.51-.28-4a4.332 4.332 0 0 1 2-3.68l110.09-63.34a1.649 1.649 0 0 1 1.64-.16c.41.18 2.41 1.14 2.87 1.37Z"/><path fill="#38A0ED" d="M239.29 122.75c-.1-1.33-1.15-1.84-2.35-1.15l-110.08 63.34a4.353 4.353 0 0 0-2 3.69l.29 4.08 114.45-65.85-.31-4.11Z"/><path fill="#fff" d="m236.94 121.6-110.08 63.34a4.155 4.155 0 0 0-1.49 1.59l-3-1.49a4.002 4.002 0 0 1 1.47-1.56l110.09-63.34a1.682 1.682 0 0 1 1.64-.16c.42.22 2.37 1.17 2.87 1.4a1.74 1.74 0 0 0-1.5.22Z" opacity=".2"/><path fill="#000" d="m122.1 191.21-.27-4.05a3.909 3.909 0 0 1 .55-2.12l3 1.49a3.887 3.887 0 0 0-.53 2.1l.28 4.08-3.03-1.5Z" opacity=".15"/><path fill="#fff" d="M230.64 127.26a1.996 1.996 0 0 0-.75 1.71c.05.68.46 1 .92.75a2.003 2.003 0 0 0 .74-1.71c-.04-.68-.45-1.01-.91-.75Zm2.99-1.73a1.996 1.996 0 0 0-.75 1.71c.05.68.46 1 .92.75a1.921 1.921 0 0 0 .74-1.71c-.04-.68-.45-1.01-.91-.75Zm2.99-1.73a2.004 2.004 0 0 0-.75 1.71c0 .68.46 1 .92.75a2.004 2.004 0 0 0 .75-1.71c-.05-.68-.46-1.01-.92-.75Z"/><path fill="#263238" d="m131.17 269.59-.12-.06-2.48-1.24a2.35 2.35 0 0 1-1.3-1.6v-.31l-5.17-75.18 3 1.51 5.16 75.62a1.422 1.422 0 0 0 .79 1.18h.07l.05.08Z"/><g opacity=".5"><path fill="#fff" d="m134.51 235.91 3-1.72c.3-.17.56 0 .58.29l.07 1.05a1.085 1.085 0 0 1-.5.92l-3 1.72c-.3.17-.56 0-.58-.29l-.07-1a1.082 1.082 0 0 1 .5-.97Zm.28 4.2 3-1.72c.3-.18.56 0 .59.28l.07 1.06a1.072 1.072 0 0 1-.5.91l-3 1.72c-.3.18-.56 0-.58-.29l-.08-1a1.065 1.065 0 0 1 .5-.96Zm.29 4.19 3-1.72c.3-.17.56 0 .58.29l.07 1c.001.183-.044.364-.131.525-.088.16-.215.297-.369.395l-3 1.72a.349.349 0 0 1-.536-.091.345.345 0 0 1-.044-.199l-.07-1.06a1.068 1.068 0 0 1 .5-.86Zm.29 4.19 3-1.72c.3-.17.56 0 .58.29l.07 1.06a1.072 1.072 0 0 1-.5.91l-3 1.72c-.3.17-.56 0-.58-.29l-.07-1.05a1.082 1.082 0 0 1 .5-.92Zm-2.28-33.38 3-1.72c.3-.18.56 0 .58.28l.07 1.06a1 1 0 0 1-.5.91l-3 1.72c-.3.18-.56 0-.58-.29l-.07-1a1.065 1.065 0 0 1 .5-.96Zm.29 4.19 3-1.72a.349.349 0 0 1 .536.091c.034.06.049.13.044.199l.07 1a1.093 1.093 0 0 1-.5.92l-3 1.72c-.3.17-.56 0-.58-.29l-.08-1.06c.009-.174.061-.343.149-.493.089-.149.213-.275.361-.367Zm.28 4.2 3-1.73c.3-.17.56 0 .58.29l.08 1.06a1.105 1.105 0 0 1-.5.91l-3 1.72a.357.357 0 0 1-.539-.092.354.354 0 0 1-.051-.198l-.07-1.05a1.075 1.075 0 0 1 .5-.91Zm.34 4.19 3-1.72c.3-.17.56 0 .58.29l.07 1.05a1.098 1.098 0 0 1-.5.92l-3 1.72c-.3.17-.56 0-.58-.29l-.07-1.06a.996.996 0 0 1 .5-.91Zm1.93 29.03 3-1.72c.3-.18.56-.05.58.29l.07 1a1.072 1.072 0 0 1-.5.91l-3 1.72c-.3.18-.56 0-.58-.28l-.07-1.06a1.003 1.003 0 0 1 .5-.86Zm.28 4.19 3-1.72a.358.358 0 0 1 .539.092c.036.06.054.129.051.198l.07 1a1.085 1.085 0 0 1-.5.92l-3 1.72a.366.366 0 0 1-.389.047.36.36 0 0 1-.201-.337l-.07-1.05a1.083 1.083 0 0 1 .5-.87Zm-4.54-66.61 3-1.72c.3-.17.56 0 .58.29l.07 1a1.07 1.07 0 0 1-.5.92l-3 1.72a.349.349 0 0 1-.388.05.357.357 0 0 1-.148-.14.357.357 0 0 1-.044-.2l-.07-1.06a1.066 1.066 0 0 1 .5-.86Zm.33 4.2 3-1.73c.3-.17.56 0 .58.29l.07 1.06a1.072 1.072 0 0 1-.5.91l-3 1.72c-.3.17-.56.05-.58-.29l-.07-1.05a.996.996 0 0 1 .5-.91Zm.24 4.19 3-1.72c.3-.17.56 0 .58.29l.08 1.05a1.098 1.098 0 0 1-.5.92l-3 1.72a.362.362 0 0 1-.389.046.35.35 0 0 1-.15-.138.354.354 0 0 1-.051-.198l-.07-1.06a1.075 1.075 0 0 1 .5-.91Zm.29 4.19 3-1.72c.3-.17.56 0 .58.29l.07 1.06a1 1 0 0 1-.5.91l-3 1.72c-.3.17-.56 0-.58-.29l-.07-1a1.098 1.098 0 0 1 .5-.97Z" opacity=".6"/><path fill="#37474F" d="m235.38 170.35-21.6 12.47a2.895 2.895 0 0 0-1.34 2.45l2.13 31.3c.06.89.76 1.24 1.56.78l21.6-12.48a2.87 2.87 0 0 0 1.35-2.45l-2.14-31.3c-.06-.89-.76-1.23-1.56-.77Z"/><path fill="#38A0ED" d="m234.92 194.18-2 1.15a1.434 1.434 0 0 0-.68 1.19c0 .42.38.57.79.34l2-1.15a1.434 1.434 0 0 0 .68-1.19c-.03-.42-.38-.52-.79-.34Z"/><path fill="#fff" d="m234.92 194.18-2 1.15a1.434 1.434 0 0 0-.68 1.19c0 .42.38.57.79.34l2-1.15a1.434 1.434 0 0 0 .68-1.19c-.03-.42-.38-.52-.79-.34Z" opacity=".6"/><path fill="#38A0ED" d="m233.58 174.53-2 1.15a1.412 1.412 0 0 0-.68 1.19c0 .42.38.57.79.34l2-1.15a1.442 1.442 0 0 0 .68-1.19c-.03-.42-.37-.58-.79-.34Z"/><path fill="#fff" d="m233.58 174.53-2 1.15a1.412 1.412 0 0 0-.68 1.19c0 .42.38.57.79.34l2-1.15a1.442 1.442 0 0 0 .68-1.19c-.03-.42-.37-.58-.79-.34Z" opacity=".6"/><path fill="#38A0ED" d="m231.05 180.06-2 1.15a1.431 1.431 0 0 0-.69 1.19c0 .42.38.58.79.34l2-1.15a1.412 1.412 0 0 0 .68-1.19c-.02-.4-.37-.57-.78-.34Z"/><path fill="#fff" d="m231.05 180.06-2 1.15a1.431 1.431 0 0 0-.69 1.19c0 .42.38.58.79.34l2-1.15a1.412 1.412 0 0 0 .68-1.19c-.02-.4-.37-.57-.78-.34Z" opacity=".6"/><path fill="#38A0ED" d="m231.32 184-2 1.15a1.442 1.442 0 0 0-.68 1.19c0 .42.38.58.79.34l2-1.15a1.412 1.412 0 0 0 .68-1.19c-.03-.44-.38-.59-.79-.34Z"/><path fill="#fff" d="m231.32 184-2 1.15a1.442 1.442 0 0 0-.68 1.19c0 .42.38.58.79.34l2-1.15a1.412 1.412 0 0 0 .68-1.19c-.03-.44-.38-.59-.79-.34Z" opacity=".6"/><path fill="#38A0ED" d="m234.39 186.32-2 1.15a1.39 1.39 0 0 0-.68 1.19c0 .42.38.57.78.34l2-1.15a1.419 1.419 0 0 0 .68-1.19c-.03-.43-.38-.58-.78-.34Z"/><path fill="#fff" d="m234.39 186.32-2 1.15a1.39 1.39 0 0 0-.68 1.19c0 .42.38.57.78.34l2-1.15a1.419 1.419 0 0 0 .68-1.19c-.03-.43-.38-.58-.78-.34Z" opacity=".6"/><path fill="#38A0ED" d="m231.86 191.85-2 1.16a1.387 1.387 0 0 0-.68 1.18c0 .43.38.58.78.35l2-1.15a1.425 1.425 0 0 0 .68-1.19c-.02-.43-.38-.58-.78-.35Z"/><path fill="#fff" d="m231.86 191.85-2 1.16a1.387 1.387 0 0 0-.68 1.18c0 .43.38.58.78.35l2-1.15a1.425 1.425 0 0 0 .68-1.19c-.02-.43-.38-.58-.78-.35Z" opacity=".6"/><path fill="#38A0ED" d="m228.14 177.67-12.15 7a1.409 1.409 0 0 0-.68 1.18c0 .43.38.58.79.35l12.14-7a1.396 1.396 0 0 0 .68-1.19c-.03-.42-.38-.57-.78-.34Z"/><path fill="#fff" d="m228.14 177.67-12.15 7a1.409 1.409 0 0 0-.68 1.18c0 .43.38.58.79.35l12.14-7a1.396 1.396 0 0 0 .68-1.19c-.03-.42-.38-.57-.78-.34Z" opacity=".8"/><path fill="#38A0ED" d="m229.48 197.33-12.15 7a1.412 1.412 0 0 0-.68 1.19c0 .42.38.57.79.34l12.14-7a1.42 1.42 0 0 0 .68-1.19c-.03-.43-.38-.58-.78-.34Z"/><path fill="#fff" d="m229.48 197.33-12.15 7a1.412 1.412 0 0 0-.68 1.19c0 .42.38.57.79.34l12.14-7a1.42 1.42 0 0 0 .68-1.19c-.03-.43-.38-.58-.78-.34Z" opacity=".8"/><path fill="#38A0ED" d="m225.61 183.21-9.35 5.41a1.387 1.387 0 0 0-.68 1.18c0 .43.38.58.78.35l9.35-5.41a1.46 1.46 0 0 0 .69-1.19c-.03-.42-.4-.55-.79-.34Z"/><path fill="#fff" d="m225.61 183.21-9.35 5.41a1.387 1.387 0 0 0-.68 1.18c0 .43.38.58.78.35l9.35-5.41a1.46 1.46 0 0 0 .69-1.19c-.03-.42-.4-.55-.79-.34Z" opacity=".8"/><path fill="#38A0ED" d="m225.88 187.14-9.35 5.41a1.39 1.39 0 0 0-.68 1.19c0 .42.38.57.78.34l9.35-5.41a1.428 1.428 0 0 0 .68-1.19c-.03-.42-.38-.58-.78-.34Z"/><path fill="#fff" d="m225.88 187.14-9.35 5.41a1.39 1.39 0 0 0-.68 1.19c0 .42.38.57.78.34l9.35-5.41a1.428 1.428 0 0 0 .68-1.19c-.03-.42-.38-.58-.78-.34Z" opacity=".8"/><path fill="#38A0ED" d="m228.94 189.46-12.14 7a1.423 1.423 0 0 0-.69 1.19c0 .42.39.57.79.34L229 191a1.398 1.398 0 0 0 .69-1.18c.01-.44-.34-.59-.75-.36Z"/><path fill="#fff" d="m228.94 189.46-12.14 7a1.423 1.423 0 0 0-.69 1.19c0 .42.39.57.79.34L229 191a1.398 1.398 0 0 0 .69-1.18c.01-.44-.34-.59-.75-.36Z" opacity=".8"/><path fill="#38A0ED" d="m226.41 195-9.35 5.41a1.412 1.412 0 0 0-.68 1.19c0 .42.38.57.79.34l9.35-5.41a1.434 1.434 0 0 0 .68-1.19c-.03-.42-.38-.57-.79-.34Z"/><path fill="#fff" d="m226.41 195-9.35 5.41a1.412 1.412 0 0 0-.68 1.19c0 .42.38.57.79.34l9.35-5.41a1.434 1.434 0 0 0 .68-1.19c-.03-.42-.38-.57-.79-.34Z" opacity=".8"/><path fill="#38A0ED" d="m235.46 202.08-2 1.15a1.442 1.442 0 0 0-.68 1.19c0 .42.38.58.79.34l2-1.15a1.399 1.399 0 0 0 .69-1.19c-.04-.42-.39-.57-.8-.34Z"/><path fill="#fff" d="m235.46 202.08-2 1.15a1.442 1.442 0 0 0-.68 1.19c0 .42.38.58.79.34l2-1.15a1.399 1.399 0 0 0 .69-1.19c-.04-.42-.39-.57-.8-.34Z" opacity=".6"/><path fill="#38A0ED" d="m232.4 199.76-2 1.15a1.399 1.399 0 0 0-.68 1.19c0 .42.38.57.78.34l2-1.15a1.407 1.407 0 0 0 .68-1.19c-.03-.42-.38-.58-.78-.34Z"/><path fill="#fff" d="m232.4 199.76-2 1.15a1.399 1.399 0 0 0-.68 1.19c0 .42.38.57.78.34l2-1.15a1.407 1.407 0 0 0 .68-1.19c-.03-.42-.38-.58-.78-.34Z" opacity=".6"/><path fill="#38A0ED" d="m230 205.23-12.15 7a1.442 1.442 0 0 0-.68 1.19c0 .42.38.58.79.34l12.14-7a1.407 1.407 0 0 0 .68-1.19c-.01-.42-.36-.57-.78-.34Z"/><path fill="#fff" d="m230 205.23-12.15 7a1.442 1.442 0 0 0-.68 1.19c0 .42.38.58.79.34l12.14-7a1.407 1.407 0 0 0 .68-1.19c-.01-.42-.36-.57-.78-.34Z" opacity=".8"/><path fill="#38A0ED" d="m227 202.9-9.35 5.41a1.434 1.434 0 0 0-.68 1.19c0 .42.38.57.79.34l9.35-5.41a1.409 1.409 0 0 0 .68-1.18c-.08-.43-.43-.58-.79-.35Z"/><path fill="#fff" d="m227 202.9-9.35 5.41a1.434 1.434 0 0 0-.68 1.19c0 .42.38.57.79.34l9.35-5.41a1.409 1.409 0 0 0 .68-1.18c-.08-.43-.43-.58-.79-.35Z" opacity=".8"/><path fill="#37474F" d="m233.18 138.15-21.6 12.47a2.898 2.898 0 0 0-1.34 2.45l1.64 24c.06.89.76 1.24 1.56.78L235 165.37a2.895 2.895 0 0 0 1.34-2.45l-1.63-24c-.03-.92-.71-1.23-1.53-.77Z"/><path fill="#38A0ED" d="m232.73 162-2 1.15a1.42 1.42 0 0 0-.68 1.19c0 .43.38.58.78.34l2-1.15a1.387 1.387 0 0 0 .68-1.18c-.03-.45-.38-.6-.78-.35Z"/><path fill="#fff" d="m232.73 162-2 1.15a1.42 1.42 0 0 0-.68 1.19c0 .43.38.58.78.34l2-1.15a1.387 1.387 0 0 0 .68-1.18c-.03-.45-.38-.6-.78-.35Z" opacity=".6"/><path fill="#38A0ED" d="m231.39 142.33-2 1.15a1.42 1.42 0 0 0-.68 1.19c0 .42.38.58.78.34l2-1.15a1.396 1.396 0 0 0 .68-1.19c-.03-.42-.38-.57-.78-.34Z"/><path fill="#fff" d="m231.39 142.33-2 1.15a1.42 1.42 0 0 0-.68 1.19c0 .42.38.58.78.34l2-1.15a1.396 1.396 0 0 0 .68-1.19c-.03-.42-.38-.57-.78-.34Z" opacity=".6"/><path fill="#38A0ED" d="m228.86 147.87-2 1.15a1.39 1.39 0 0 0-.68 1.19c0 .42.38.57.78.34l2-1.15a1.425 1.425 0 0 0 .68-1.19c-.02-.42-.38-.58-.78-.34Z"/><path fill="#fff" d="m228.86 147.87-2 1.15a1.39 1.39 0 0 0-.68 1.19c0 .42.38.57.78.34l2-1.15a1.425 1.425 0 0 0 .68-1.19c-.02-.42-.38-.58-.78-.34Z" opacity=".6"/><path fill="#38A0ED" d="m229.13 151.79-2 1.15a1.39 1.39 0 0 0-.68 1.19c0 .42.38.57.78.34l2-1.15a1.417 1.417 0 0 0 .68-1.19c-.03-.42-.38-.58-.78-.34Z"/><path fill="#fff" d="m229.13 151.79-2 1.15a1.39 1.39 0 0 0-.68 1.19c0 .42.38.57.78.34l2-1.15a1.417 1.417 0 0 0 .68-1.19c-.03-.42-.38-.58-.78-.34Z" opacity=".6"/><path fill="#38A0ED" d="m232.19 154.12-2 1.15a1.442 1.442 0 0 0-.68 1.19c0 .42.38.58.79.34l2-1.15a1.434 1.434 0 0 0 .69-1.19c.01-.46-.39-.57-.8-.34Z"/><path fill="#fff" d="m232.19 154.12-2 1.15a1.442 1.442 0 0 0-.68 1.19c0 .42.38.58.79.34l2-1.15a1.434 1.434 0 0 0 .69-1.19c.01-.46-.39-.57-.8-.34Z" opacity=".6"/><path fill="#38A0ED" d="m229.66 159.66-2 1.15A1.428 1.428 0 0 0 227 162c0 .42.38.57.79.34l2-1.15a1.434 1.434 0 0 0 .68-1.19c-.05-.42-.4-.57-.81-.34Z"/><path fill="#fff" d="m229.66 159.66-2 1.15A1.428 1.428 0 0 0 227 162c0 .42.38.57.79.34l2-1.15a1.434 1.434 0 0 0 .68-1.19c-.05-.42-.4-.57-.81-.34Z" opacity=".6"/><path fill="#38A0ED" d="m225.94 145.48-12.14 7a1.434 1.434 0 0 0-.69 1.19c0 .42.39.57.79.34L226 147a1.43 1.43 0 0 0 .69-1.19c.01-.41-.34-.57-.75-.33Z"/><path fill="#fff" d="m225.94 145.48-12.14 7a1.434 1.434 0 0 0-.69 1.19c0 .42.39.57.79.34L226 147a1.43 1.43 0 0 0 .69-1.19c.01-.41-.34-.57-.75-.33Z" opacity=".8"/><path fill="#38A0ED" d="m227.28 165.13-12.14 7a1.442 1.442 0 0 0-.69 1.19c0 .42.39.58.79.34l12.15-7a1.434 1.434 0 0 0 .68-1.19c-.07-.42-.38-.57-.79-.34Z"/><path fill="#fff" d="m227.28 165.13-12.14 7a1.442 1.442 0 0 0-.69 1.19c0 .42.39.58.79.34l12.15-7a1.434 1.434 0 0 0 .68-1.19c-.07-.42-.38-.57-.79-.34Z" opacity=".8"/><path fill="#38A0ED" d="m223.41 151-9.35 5.41a1.434 1.434 0 0 0-.68 1.19c0 .42.38.57.79.34l9.35-5.41a1.412 1.412 0 0 0 .68-1.19c-.03-.41-.38-.56-.79-.34Z"/><path fill="#fff" d="m223.41 151-9.35 5.41a1.434 1.434 0 0 0-.68 1.19c0 .42.38.57.79.34l9.35-5.41a1.412 1.412 0 0 0 .68-1.19c-.03-.41-.38-.56-.79-.34Z" opacity=".8"/><path fill="#38A0ED" d="m223.68 154.94-9.35 5.41a1.442 1.442 0 0 0-.68 1.19c0 .42.38.58.79.34l9.35-5.41a1.412 1.412 0 0 0 .68-1.19c-.03-.42-.38-.57-.79-.34Z"/><path fill="#fff" d="m223.68 154.94-9.35 5.41a1.442 1.442 0 0 0-.68 1.19c0 .42.38.58.79.34l9.35-5.41a1.412 1.412 0 0 0 .68-1.19c-.03-.42-.38-.57-.79-.34Z" opacity=".8"/><path fill="#38A0ED" d="m226.74 157.27-12.14 7a1.42 1.42 0 0 0-.68 1.19c0 .42.38.58.78.34l12.15-7a1.426 1.426 0 0 0 .68-1.19c-.03-.42-.38-.61-.79-.34Z"/><path fill="#fff" d="m226.74 157.27-12.14 7a1.42 1.42 0 0 0-.68 1.19c0 .42.38.58.78.34l12.15-7a1.426 1.426 0 0 0 .68-1.19c-.03-.42-.38-.61-.79-.34Z" opacity=".8"/><path fill="#38A0ED" d="m224.22 162.81-9.35 5.4a1.419 1.419 0 0 0-.68 1.19c0 .42.38.58.78.34l9.35-5.4a1.42 1.42 0 0 0 .68-1.19c0-.43-.38-.58-.78-.34Z"/><path fill="#fff" d="m224.22 162.81-9.35 5.4a1.419 1.419 0 0 0-.68 1.19c0 .42.38.58.78.34l9.35-5.4a1.42 1.42 0 0 0 .68-1.19c0-.43-.38-.58-.78-.34Z" opacity=".8"/></g><path fill="#38A0ED" d="m139.65 190.32 21.63-12.49c.3-.17.56-.06.58.26a1.005 1.005 0 0 1-.5.88l-21.63 12.49c-.31.18-.57.06-.59-.25a1.068 1.068 0 0 1 .51-.89Zm.92 13.8 63.66-36.7c.3-.18.56-.06.58.25a1.004 1.004 0 0 1-.5.89l-63.66 36.7c-.31.17-.57.06-.59-.26a.994.994 0 0 1 .51-.88Zm22.83-27.52 40.22-23.14c.31-.17.57-.06.59.25a1.068 1.068 0 0 1-.51.89l-40.22 23.15c-.3.17-.57.06-.59-.26a1.084 1.084 0 0 1 .51-.89Zm-23.53 17 10.95-6.33c.31-.18.57-.06.59.25a1.068 1.068 0 0 1-.51.89l-11 6.33c-.3.17-.57.06-.59-.25a1.053 1.053 0 0 1 .56-.89Z"/><path fill="#fff" d="m139.87 193.6 10.95-6.33c.31-.18.57-.06.59.25a1.068 1.068 0 0 1-.51.89l-11 6.33c-.3.17-.57.06-.59-.25a1.053 1.053 0 0 1 .56-.89Z" opacity=".6"/><path fill="#38A0ED" d="m140.09 196.86 6.58-3.79c.3-.17.57-.06.59.26a1.067 1.067 0 0 1-.51.88l-6.58 3.79c-.3.18-.56.06-.58-.25a1.004 1.004 0 0 1 .5-.89Z"/><path fill="#fff" d="m140.09 196.86 6.58-3.79c.3-.17.57-.06.59.26a1.067 1.067 0 0 1-.51.88l-6.58 3.79c-.3.18-.56.06-.58-.25a1.004 1.004 0 0 1 .5-.89Z" opacity=".6"/><path fill="#38A0ED" d="m153 186 38.11-21.95c.3-.17.56-.06.58.26a1.003 1.003 0 0 1-.51.88l-38.11 22c-.3.18-.56.07-.58-.25a1.06 1.06 0 0 1 .126-.54 1.06 1.06 0 0 1 .384-.4Z"/><path fill="#fff" d="m153 186 38.11-21.95c.3-.17.56-.06.58.26a1.003 1.003 0 0 1-.51.88l-38.11 22c-.3.18-.56.07-.58-.25a1.06 1.06 0 0 1 .126-.54 1.06 1.06 0 0 1 .384-.4Z" opacity=".6"/><path fill="#FFA8A7" d="m146.87 211.6 58.27-33.67c.3-.17.56-.06.59.26a1.096 1.096 0 0 1-.51.89L147 212.74c-.3.17-.56.06-.58-.25a.992.992 0 0 1 .45-.89Zm-.22-3.26 58.27-33.68c.3-.18.56-.06.58.25a1.05 1.05 0 0 1-.51.89l-58.26 33.68c-.3.18-.56.06-.59-.25a1.068 1.068 0 0 1 .51-.89Z"/><path fill="#38A0ED" d="m148.43 192.07 10.84-6.29c.3-.17.56-.06.58.26a1.003 1.003 0 0 1-.51.88l-10.83 6.29c-.3.18-.57.06-.59-.25a1.068 1.068 0 0 1 .51-.89Z"/><path fill="#fff" d="m148.43 192.07 10.84-6.29c.3-.17.56-.06.58.26a1.003 1.003 0 0 1-.51.88l-10.83 6.29c-.3.18-.57.06-.59-.25a1.068 1.068 0 0 1 .51-.89Z" opacity=".6"/><path fill="#38A0ED" d="m161.39 184.56 42.36-24.27c.31-.17.57-.06.59.25a1.068 1.068 0 0 1-.51.89l-42.36 24.27c-.31.17-.57.06-.59-.26a1.055 1.055 0 0 1 .51-.88Z"/><path fill="#fff" d="m161.39 184.56 42.36-24.27c.31-.17.57-.06.59.25a1.068 1.068 0 0 1-.51.89l-42.36 24.27c-.31.17-.57.06-.59-.26a1.055 1.055 0 0 1 .51-.88Z" opacity=".6"/><path fill="#38A0ED" d="m140.31 200.3 19.19-11c.31-.17.57-.06.59.26a1.068 1.068 0 0 1-.51.89l-19.2 11c-.3.18-.56.07-.58-.25a1.05 1.05 0 0 1 .51-.9Z"/><path fill="#fff" d="m140.31 200.3 19.19-11c.31-.17.57-.06.59.26a1.068 1.068 0 0 1-.51.89l-19.2 11c-.3.18-.56.07-.58-.25a1.05 1.05 0 0 1 .51-.9Z" opacity=".6"/><path fill="#38A0ED" d="M161.63 188.06 204 163.79c.3-.17.57-.06.59.26a1.067 1.067 0 0 1-.51.88l-42.37 24.27c-.31.17-.57.06-.59-.26a1.055 1.055 0 0 1 .51-.88Z"/><path fill="#fff" d="M161.63 188.06 204 163.79c.3-.17.57-.06.59.26a1.067 1.067 0 0 1-.51.88l-42.37 24.27c-.31.17-.57.06-.59-.26a1.055 1.055 0 0 1 .51-.88Z" opacity=".6"/><path fill="#F28F8F" d="m147.1 214.9 58.27-33.59c.3-.17.56-.06.59.26a1.1 1.1 0 0 1-.51.89L147.18 216c-.3.18-.57.06-.59-.25a1.051 1.051 0 0 1 .51-.85Zm.22 3.27 58.27-33.59c.3-.17.57-.06.59.26a1.067 1.067 0 0 1-.51.88l-58.27 33.59c-.3.17-.56.06-.59-.26a1.055 1.055 0 0 1 .51-.88Zm.23 3.26 58.27-33.58c.3-.18.56-.06.58.25a1.009 1.009 0 0 1-.51.89l-58.27 33.59c-.3.17-.56.06-.58-.26a1.065 1.065 0 0 1 .51-.89Z"/><path fill="#38A0ED" d="m147.84 225.77 58.27-33.58c.3-.17.57-.06.59.26a1.067 1.067 0 0 1-.51.88l-58.27 33.58c-.3.18-.57.06-.59-.25a1.073 1.073 0 0 1 .51-.89Zm-5.59 3.23 2.53-1.46c.31-.18.57-.06.59.25a1.068 1.068 0 0 1-.51.89l-2.53 1.46c-.31.17-.57.06-.59-.26a1.055 1.055 0 0 1 .51-.88Z"/><path fill="#fff" d="m142.25 229 2.53-1.46c.31-.18.57-.06.59.25a1.068 1.068 0 0 1-.51.89l-2.53 1.46c-.31.17-.57.06-.59-.26a1.055 1.055 0 0 1 .51-.88Z" opacity=".6"/><path fill="#38A0ED" d="m141 211.1 2.54-1.45c.3-.18.56-.06.58.25a.999.999 0 0 1-.51.89l-2.53 1.46c-.3.17-.57.06-.59-.26a1.084 1.084 0 0 1 .51-.89Z"/><path fill="#fff" d="m141 211.1 2.54-1.45c.3-.18.56-.06.58.25a.999.999 0 0 1-.51.89l-2.53 1.46c-.3.17-.57.06-.59-.26a1.084 1.084 0 0 1 .51-.89Z" opacity=".6"/><path fill="#38A0ED" d="m141.51 218.13 2.54-1.46c.3-.17.56-.06.58.26a1.068 1.068 0 0 1-.51.89l-2.53 1.45c-.3.18-.57.06-.59-.25a1.068 1.068 0 0 1 .51-.89Z"/><path fill="#fff" d="m141.51 218.13 2.54-1.46c.3-.17.56-.06.58.26a1.068 1.068 0 0 1-.51.89l-2.53 1.45c-.3.18-.57.06-.59-.25a1.068 1.068 0 0 1 .51-.89Z" opacity=".6"/><path fill="#38A0ED" d="m141.73 221.4 2.54-1.46c.3-.17.56-.06.59.26a1.055 1.055 0 0 1-.51.88l-2.54 1.46c-.3.17-.56.06-.59-.26a1.055 1.055 0 0 1 .51-.88Z"/><path fill="#fff" d="m141.73 221.4 2.54-1.46c.3-.17.56-.06.59.26a1.055 1.055 0 0 1-.51.88l-2.54 1.46c-.3.17-.56.06-.59-.26a1.055 1.055 0 0 1 .51-.88Z" opacity=".6"/><path fill="#38A0ED" d="m142 224.66 2.53-1.45c.3-.18.57-.06.59.25a1.068 1.068 0 0 1-.51.89l-2.61 1.46c-.3.17-.56.06-.58-.26a1.059 1.059 0 0 1 .58-.89Z"/><path fill="#fff" d="m142 224.66 2.53-1.45c.3-.18.57-.06.59.25a1.068 1.068 0 0 1-.51.89l-2.61 1.46c-.3.17-.56.06-.58-.26a1.059 1.059 0 0 1 .58-.89Z" opacity=".6"/><path fill="#38A0ED" d="m142.45 231.91 2.54-1.46c.3-.17.56-.06.58.26a1.068 1.068 0 0 1-.51.89l-2.53 1.45c-.3.18-.57.06-.59-.25a1.068 1.068 0 0 1 .51-.89Z"/><path fill="#fff" d="m142.45 231.91 2.54-1.46c.3-.17.56-.06.58.26a1.068 1.068 0 0 1-.51.89l-2.53 1.45c-.3.18-.57.06-.59-.25a1.068 1.068 0 0 1 .51-.89Z" opacity=".6"/><path fill="#FFA8A7" d="m148 228.75 58.27-33.69c.3-.17.56-.06.58.26a1.068 1.068 0 0 1-.51.89l-58.26 33.68c-.3.17-.56.06-.58-.26a.994.994 0 0 1 .5-.88Z"/><path fill="#38A0ED" d="m149.77 250 15.66-9c.3-.17.56-.06.58.26a1.068 1.068 0 0 1-.51.89l-15.65 9c-.3.17-.56.06-.58-.26a1.004 1.004 0 0 1 .5-.89Zm-5.86 3.3 2.53-1.46c.31-.17.57-.06.59.26a1.067 1.067 0 0 1-.51.88l-2.52 1.46c-.31.18-.57.06-.59-.25a1.056 1.056 0 0 1 .5-.89Z"/><path fill="#fff" d="m143.91 253.3 2.53-1.46c.31-.17.57-.06.59.26a1.067 1.067 0 0 1-.51.88l-2.52 1.46c-.31.18-.57.06-.59-.25a1.056 1.056 0 0 1 .5-.89Z" opacity=".6"/><path fill="#38A0ED" d="m144.11 256.25 2.54-1.45c.3-.18.56-.06.58.25a1.057 1.057 0 0 1-.51.89l-2.53 1.45c-.3.18-.57.06-.59-.25a1.073 1.073 0 0 1 .51-.89Z"/><path fill="#fff" d="m144.11 256.25 2.54-1.45c.3-.18.56-.06.58.25a1.057 1.057 0 0 1-.51.89l-2.53 1.45c-.3.18-.57.06-.59-.25a1.073 1.073 0 0 1 .51-.89Z" opacity=".6"/><path fill="#FFA8A7" d="m150 252.77 57.77-33.34c.31-.17.57-.06.59.26a1.056 1.056 0 0 1-.51.88L150 253.91c-.3.18-.56.06-.58-.25a.997.997 0 0 1 .58-.89Z"/><path fill="#38A0ED" d="m148.62 235.69 58.17-33.49c.31-.18.57-.06.59.25a1.063 1.063 0 0 1-.142.51 1.063 1.063 0 0 1-.368.38l-58.17 33.5c-.31.17-.57.06-.59-.26a1.084 1.084 0 0 1 .51-.89Zm-5.69 3.25 2.53-1.46c.31-.18.57-.06.59.25a.996.996 0 0 1-.51.89l-2.54 1.46c-.31.17-.57.06-.59-.26a1.054 1.054 0 0 1 .52-.88Z"/><path fill="#fff" d="m142.93 238.94 2.53-1.46c.31-.18.57-.06.59.25a.996.996 0 0 1-.51.89l-2.54 1.46c-.31.17-.57.06-.59-.26a1.054 1.054 0 0 1 .52-.88Z" opacity=".6"/><path fill="#38A0ED" d="m148.84 238.92 58.16-33.5c.31-.17.57-.06.59.26a1.067 1.067 0 0 1-.51.88l-58.17 33.5c-.31.18-.57.06-.59-.25a1.075 1.075 0 0 1 .52-.89Zm-5.69 3.28 2.54-1.45c.3-.18.56-.06.58.25a1.004 1.004 0 0 1-.5.89l-2.54 1.45c-.3.18-.57.07-.59-.25a1.073 1.073 0 0 1 .51-.89Z"/><path fill="#fff" d="m143.15 242.2 2.54-1.45c.3-.18.56-.06.58.25a1.004 1.004 0 0 1-.5.89l-2.54 1.45c-.3.18-.57.07-.59-.25a1.073 1.073 0 0 1 .51-.89Z" opacity=".6"/><path fill="#F28F8F" d="m149.06 242.2 58.18-33.5c.3-.17.56-.06.58.26a1.048 1.048 0 0 1-.5.89l-58.18 33.49c-.3.18-.57.06-.59-.25a1.062 1.062 0 0 1 .51-.89Z"/><path fill="#38A0ED" d="m143.37 245.47 2.54-1.46c.3-.17.57-.06.59.26a1.1 1.1 0 0 1-.51.89l-2.54 1.45c-.3.18-.56.06-.58-.25a1.004 1.004 0 0 1 .5-.89Z"/><path fill="#fff" d="m143.37 245.47 2.54-1.46c.3-.17.57-.06.59.26a1.1 1.1 0 0 1-.51.89l-2.54 1.45c-.3.18-.56.06-.58-.25a1.004 1.004 0 0 1 .5-.89Z" opacity=".6"/><path fill="#FFBDA7" d="M324.43 285.54s-13.42-8.13-20.66-12.23c-5.76-3.26-10.92-7.26-16.49-7.26-6.18 0-10.34-1.8-14.58-4.23-3.47-2-5.72-3.17-8.79-5a67.303 67.303 0 0 1-8.43-5.39c-1.64-1.37-6.25-4.72-7-6.82-.75-2.1 2.19-3.82 5.58-3 3.39.82 8 4.19 11.9 4.93 3.9.74 5.18.81 5.45-1.78.27-2.59-2.4-7-4.1-8.73-1.7-1.73-5.57-4-8.53-5.23-2.96-1.23-7.92-3.69-7.92-3.69a60.727 60.727 0 0 1-6.49-2c-2.29-.93-4.13-2.67-4-5.28-2.36-2.31-1-4.58.5-4.51 1.5.07 7.91 1.22 12.4 2.13 4.49.91 10.72 2.6 12.88 3.26 2.16.66 9.13 4.3 13.15 6.29 4.02 1.99 4.45 2.65 5.61 3.91 1 1.07 4.94 5.4 9.2 9.65 4.61 4.61 6.91 6.16 10.47 7.31 5.44 1.75 26.44 9.58 32.44 10.43 3.98 6.33-3.77 22.7-12.59 27.24Z"/><path fill="#F0997A" d="M251.34 227.4a31.941 31.941 0 0 0-4.74 3c-1.73 1.41.88 4.63 6.56 3.66a59.507 59.507 0 0 0 8.38-1.91l-10.2-4.75Zm-10.94-7.48c.07-1.4 1.5-2 3.85-1.5s11.33 2.66 14.47 3.39a30.135 30.135 0 0 1 9.18 3.78c3.86 2.21 11.09 7.47 11.09 7.47a49.99 49.99 0 0 0-7.4-6.13c-4.81-3.34-6.65-4.59-11.62-5.85-4.97-1.26-14.38-3.46-16.31-3.77-1.93-.31-3.66.39-3.26 2.61Z"/><path fill="#37474F" d="M410.56 235.42c16.72-2.47 32.18 2.1 36.55 20.08 3.23 13.22-15.66 53.79-25.45 77.9 0 0-37.87-1.54-41.11-29.54l30.01-68.44Z"/><path fill="#F0997A" d="M340.43 174.66s-12.69 15.31-11.78 16.7c.91 1.39 8 4.63 8 4.63l3.78-21.33Z"/><path fill="#FFBDA7" d="M348.55 147.28c-6.72 2.3-9 8-10.28 19-.52 4.63 1.52 11.76 0 16.58-4.41 13.47-1.59 36.35 2 40.64 2.45 2.9 18.16 7.64 25.91 6.39 9.71-1.56 31.18-8.5 42.58-22.11 13.4-16 18.7-39 7-49.76-16.53-15.17-60.03-13.2-67.21-10.74Z"/><path fill="#FFBDA7" d="m403.19 230.24-.71-12.4-38.48 6.78.84 8.61c.47 4.83.85 9.82-2.34 11.69-5.73 3.35-15.19 8.54-21.56 12.42 0 0 27.82 3.39 48.77-.07 20.95-3.46 18-21.55 18-21.55-1.05.04-4.24.44-4.52-5.48Z"/><path fill="#F0997A" d="M341 224.1c3.12 2.23 12.31 6.15 23.61 6.14l-.55-5.62a56.99 56.99 0 0 1-13.58 1.23 28.485 28.485 0 0 1-9.48-1.75Z"/><path fill="#433B30" d="M335.75 149.78a9.6 9.6 0 0 0-1.91 5 8.496 8.496 0 0 0 3.88 7.83 7.35 7.35 0 0 0 8.55-.75 9.412 9.412 0 0 0 2.22 8.68c2.22 2.19 6.07 2.73 8.52.81-.76 1.6-1.4 3.81 0 4.91a3.01 3.01 0 0 0 1.21.53 6.547 6.547 0 0 0 3.79-.25 6.011 6.011 0 0 0-1.451 2.459 6.01 6.01 0 0 0-.149 2.851c.16.62 3.22 4.48 3.39 4 0 0 3.92-10.79 13.11-8.5 9.19 2.29 9.36 14.4 2.74 21.1-6.62 6.7-11.78 3.42-11.86 3.37 0 1.94-.22 12.38 8.37 18.41 5.27 3.69 19.12 4.49 26.43.11 2.69-4.82 7.21-11 10.7-16.38 11.68-18.09 15.51-29.23 13.48-39.42-1.38-7-4.48-10.92-9.73-12.24-.29-6.6-1.24-11.69-8.34-17.78-11.14-9.58-24-10.41-34-10-3.44.15-6.9.76-10.31.28-2.94-.42-5.73-1.63-8.66-2.16-2.93-.53-6.29-.18-8.32 2-2.03 2.18-2.14 5.87-1.36 8.9-2.42.091-4.78.778-6.87 2a8.129 8.129 0 0 0-3.91 5.77 5.7 5.7 0 0 0 3.25 5.88 10.478 10.478 0 0 0-2.77 2.59Z"/><path fill="#F0F0F0" d="M430.76 356.89c-4.32 22-7.3 35.22-6.36 57.12l-64.53 38.21-37.09-21.9c.1-38.58.57-40.6-.66-80.21-1.81-57.91 5.65-86 19-96.15 13-5.77 14.75-6.74 21.37-9 3 1.44 10.73 3.81 23.26 2.76 15.54-1.32 22-9.88 21.92-12 0 0 1.37-.16 2.85-.31 2.41.47 6.91 2.31 11.39 4.71 3.78 2.05 13 5.78 16.61 23.29 7.83 37.91-3.4 71.25-7.76 93.48Z"/><path fill="#E0E0E0" d="M410.51 236.48a49.648 49.648 0 0 1 10.94 4.57l.81.43c4.2 2.18 12 6.25 15.28 22.15 6.36 31-.19 59.44-5 80.23-1.05 4.57-2.05 8.88-2.82 12.83-.29 1.46-.57 2.88-.84 4.27-3.83 19.38-6.38 32.26-5.57 52.47L359.87 451l-36-21.29c0-8.81.06-15.59.1-21.59.12-19.65.17-27.78-.77-58.05-1.66-53.24 4.4-84.39 18.54-95.21l7-3.13a147.87 147.87 0 0 1 13.78-5.7c2 .88 7.66 2.94 17.25 2.94 2 0 4.06-.08 6.15-.26 8.61-.73 14.19-3.61 17.35-5.89 3.16-2.28 4.82-4.53 5.36-6.15l1.92-.2m.05-1.06c-1.48.15-2.85.31-2.85.31.11 2.07-6.38 10.63-21.92 12-2.16.18-4.18.26-6.06.26-9 0-14.72-1.83-17.2-3-6.62 2.3-8.37 3.27-21.37 9-13.39 10.15-20.85 38.24-19 96.15 1.23 39.61.76 41.63.66 80.21l37.09 21.9L424.4 414c-.94-21.9 2-35.09 6.36-57.12 4.36-22.23 15.59-55.57 7.8-93.47-3.56-17.5-12.83-21.23-16.56-23.28-4.48-2.4-9-4.24-11.39-4.71l-.01-.01Z"/><path fill="#FFBDA7" d="M261.72 315c-14.66-9.41-25.31-18-27.43-21.54-2.39-4-5.1-12.61-6.51-19.05a27.465 27.465 0 0 0-3.74-10 37.19 37.19 0 0 0-5-6.66c-.75-.7-3.34 1-3.23 3.95.11 2.95 1.92 5.31 2.26 7.3.34 1.99-1.12 7.33-1.12 7.33s-4.1-4.13-8-7.55a35.673 35.673 0 0 0-10-6.79c-4-1.9-6.79-3.07-7.71-3.4-.92-.33-6.22-2-8.8-2.46-2.58-.46-2.59 2-1.24 3.85 1.35 1.85 9.14 5.54 9.14 5.54s-4.23-1-6-1.61c-1.598-.589-3.3-.84-5-.74-2.46 0-5.29-.08-7.2.07-2.9.24-2.33 3.91.73 5.35 3.06 1.44 7.92 2.09 9.67 2.67a49.665 49.665 0 0 1 7.79 3.83c1 .78 5.92 5 6.13 5.52.21.52-2.41-.92-6.39-2.78-3.98-1.86-9.74-4.67-11.4-5.25a99.828 99.828 0 0 0-10.32-2.58c-2.11-.29-2.46 2.64-.82 5.22 1.64 2.58 7.73 4.2 9.74 5.27 2.01 1.07 7.66 4.42 10.73 6.31 3.07 1.89 5.14 3.38 4.81 4.48-.33 1.1-2.8.74-6.38.14s-8-1.73-10.84-2.45c-2.84-.72-6.73-2-7.86-.63s-.5 3.85 2 4.95 7.19 2.47 10.33 3.46c3.14.99 8.74 2.33 10.77 3a19.764 19.764 0 0 1 7.2 4.94c2 2.21 6.12 8.26 11.34 11.27s9.42 4.16 13.23 8.28c3.68 4 15.58 18 15.58 18a47.881 47.881 0 0 0 14.64-9.24 28.66 28.66 0 0 0 8.9-18Z"/><path fill="#F0997A" d="M219.68 275.82a24.817 24.817 0 0 1-1.56-5.48 38.976 38.976 0 0 1-1.15 6 41.428 41.428 0 0 1 5.12 7c-.09-2.6-1.36-5.22-2.41-7.52Zm-29.24-10.29c2 .825 3.891 1.893 5.63 3.18 1.81 1.36 8.46 6.51 8.46 6.51a41.264 41.264 0 0 0-4-4 25.733 25.733 0 0 0-5.75-4.11 35.605 35.605 0 0 0-4.34-1.58Z"/><path fill="#FFBDA7" d="M276 325s14.33-20.08 27.19-38.79a88.547 88.547 0 0 1 37.58-30.66c20 17.51-.35 65.08-.35 65.08-12.95 14.67-33 38.62-39.15 45.48-11.49 12.79-19.59 18.17-34 5.81a195.067 195.067 0 0 1-22.83-22.59c-9.55-10.85-19.44-22.75-19.44-22.75l20.38-22.95L276 325Z"/><path fill="#F0997A" d="M276 325c-5.15 6-7.88 12.65-6.24 23.46-4.35-6.73-4.63-17.49 2.77-25.85L276 325Z"/><path fill="#37474F" d="M341.16 254c-14.48 6.37-23.68 8.93-38.94 31.68-10.68 15.93-24.29 35.26-24.29 35.26s-.13 8.59 12.7 20.63 22.8 12.55 22.8 12.55l27.57-32.6s24.59-46.99.16-67.52Z"/><path fill="#38A0ED" d="M464.09 245.62c-1-.66-5-3.42-6.08-4.12-3.54-2.35-8.65-2.12-14.47 1.24l-52.22 30.09c-11.71 6.75-21.92 23.59-22.81 37.62L359.56 452l6.12 3.54 94.68-55.36L469.23 260c.44-7-1.55-12-5.14-14.38Z"/><path fill="#000" d="M464.09 245.62c-1-.66-5-3.42-6.08-4.12-3.54-2.35-8.65-2.12-14.47 1.24l-52.22 30.09c-11.71 6.75-21.92 23.59-22.81 37.62L359.56 452l6.12 3.54 94.68-55.36L469.23 260c.44-7-1.55-12-5.14-14.38Z" opacity=".2"/><path fill="#38A0ED" d="m463.64 348.48 5.59-88.48c.44-7.05-1.55-12.05-5.14-14.42-1-.66-5-3.42-6.08-4.12-3.54-2.35-8.65-2.12-14.47 1.24l-52.22 30.09c-6 3.44-11.55 9.52-15.71 16.5l88.03 59.19Z"/><path fill="#fff" d="m463.64 348.48 5.59-88.48c.44-7.05-1.55-12.05-5.14-14.42-1-.66-5-3.42-6.08-4.12-3.54-2.35-8.65-2.12-14.47 1.24l-52.22 30.09c-6 3.44-11.55 9.52-15.71 16.5l88.03 59.19Z" opacity=".2"/><path fill="#455A64" d="M464.08 245.63c-3.54-2.35-8.63-2.13-14.45 1.23L397.41 277c-11.71 6.75-21.92 23.59-22.81 37.62l-8.92 141 8.41 4.85 94.63-54.62 8.86-140.18c.44-6.92-1.48-11.85-4.93-14.27-1.45-1.05-7.14-4.82-8.57-5.77Z"/><path fill="#37474F" d="M381.71 293.43c-4 6.71-6.68 14.26-7.11 21.14l-8.92 141 8.41 4.85 94.63-54.62 3.28-51.7-90.29-60.67Z" opacity=".3"/><path fill="#263238" d="M374.09 460.43 383 320.15c.89-14 11.1-30.87 22.82-37.61l52.18-30.1c11.71-6.74 20.49-.84 19.6 13.19l-8.86 140.18-94.65 54.62Z"/><path fill="#38A0ED" d="m300.8 391.85 74.89 43.25-28.58 16.5-85.76-49.5 17.73-10.24a21.698 21.698 0 0 1 21.72-.01Z"/><path fill="#fff" d="m300.8 391.85 74.89 43.25-28.58 16.5-85.76-49.5 17.73-10.24a21.698 21.698 0 0 1 21.72-.01Z" opacity=".2"/><path fill="#38A0ED" d="M261.36 409.77v-7.67l85.75 49.5v7.68l-85.75-49.51Z"/><path fill="#000" d="M261.36 409.77v-7.67l85.75 49.5v7.68l-85.75-49.51Z" opacity=".3"/><path fill="#38A0ED" d="m375.69 435.1-.51 7.97-28.07 16.21v-7.68l28.58-16.5Z"/><path fill="#000" d="m375.69 435.1-.51 7.97-28.07 16.21v-7.68l28.58-16.5Z" opacity=".15"/><path fill="#D7ECFB" d="M71.86 122.059c0-21.655 15.255-48.08 34.009-58.908 8.753-5.054 16.742-6.188 23.088-2.894l1.224.706 12.485 7.686 12.705-22.489.09-.16c6.421-11.11 14.956-20.116 24.031-25.356 9.846-5.683 18.371-6.176 24.589-2.018l.353.224 9.069 5.269-.528 9.59h-.006a39.37 39.37 0 0 1 .534 6.572c0 21.653-15.257 48.078-34.009 58.905-9.084 5.245-17.625 6.091-24.047 2.384l-.088-.052-12.693-7.814-13.23 23.419-.249.426c-6.333 10.545-14.614 19.12-23.317 24.144-5.028 2.903-9.798 4.381-14.095 4.592l-1.596 2.588-7.047-4.149c-.952-.44-1.392-.658-2.243-1.275l-.475-.326h.001c-5.317-3.863-8.554-11.099-8.554-21.066l-.002.002Zm94.266-38.968c3.573 2.057 8.318 1.584 13.366-1.33 10.432-6.023 18.918-20.721 18.918-32.766 0-12.045-8.486-16.946-18.918-10.924-5.045 2.913-9.79 7.92-13.361 14.096l-12.963 22.948 12.958 7.977Zm-60.257 41.177c4.809-2.777 9.384-7.505 12.899-13.317l13.395-23.71-13.323-8.201c-3.523-1.804-8.126-1.258-12.971 1.538-10.432 6.023-18.918 20.723-18.918 32.768 0 12.045 8.486 16.944 18.918 10.922Z"/><path fill="#B9DEF9" d="M115.216 68.6c8.755-5.053 17.07-6.023 23.417-2.728l.225.128 13.155 8.098 12.705-22.488.09-.16c6.421-11.113 14.956-20.117 24.031-25.357 18.754-10.827 34.01-2.018 34.01 19.637s-15.258 48.078-34.01 58.906c-9.083 5.244-17.625 6.091-24.047 2.383l-.087-.052-12.694-7.814-13.23 23.419-.248.426c-6.332 10.545-14.615 19.12-23.317 24.145-18.753 10.826-34.01 2.018-34.01-19.635 0-21.653 15.257-48.08 34.01-58.907Zm60.257 19.94c3.573 2.056 8.318 1.583 13.366-1.331 10.432-6.023 18.918-20.722 18.918-32.766 0-12.045-8.487-16.946-18.918-10.924-5.045 2.913-9.79 7.919-13.361 14.096l-12.963 22.947 12.958 7.977Zm-60.257 41.176c4.809-2.777 9.384-7.505 12.899-13.318l13.395-23.71-13.323-8.2c-3.523-1.804-8.126-1.258-12.971 1.538-10.432 6.023-18.918 20.723-18.918 32.768 0 12.044 8.486 16.944 18.918 10.922Z"/><path fill="#88C6F4" d="m202.706 72.2-9.275-5.577 1.487-2.983 1.991-5.25 1.159-5.461.342-4.87-.342-3.632-1.345-3.467 3.393.365 2.932 1.435 2.497 2.72 1.434 3.212.713 3.98.065 3.907-.835 4.77-.989 3.497-1.658 4.098-1.569 3.256Zm-37.988-20.592L155.461 46l-12.795 22.648 9.347 5.45 12.705-22.49Zm-36.604 64.79-9.346-5.448 13.395-23.71 9.347 5.449-13.396 23.709ZM86.95 102.419l-9.436-5.285-2.537 6.709-1.884 7.016-1.234 7.503.107 6.716.914 5.936 1.568 4.555 1.524 2.804 3.073 3.626 1.843 1.451 8.612 4.929-3.435-3.051-1.937-3.6-1.334-3.27-1.169-5.044-.413-6.571.647-7.383 1.522-7.023 2.187-6.67 1.383-3.348Zm76.014-22.588 12.96 7.978-.901 1.463-12.959-7.978.9-1.463Z"/></svg>