<svg xmlns="http://www.w3.org/2000/svg" width="500" height="500" fill="none"><path fill="#F5F5F5" d="M91.43 411.5c87.58 43.87 229.56 43.87 317.14 0 87.58-43.87 87.57-115 0-158.87-87.57-43.87-229.56-43.87-317.14 0-87.58 43.87-87.57 115 0 158.87Z" opacity=".7"/><path fill="#E0E0E0" d="m401.86 261.19-35.13-20.28v-75.33l35.13 20.29v75.32Z"/><path fill="#EBEBEB" d="m401.86 185.87 50.18-28.98v75.33l-50.18 28.97v-75.32Z"/><path fill="#F5F5F5" d="m452.04 156.89-50.18 28.98-35.13-20.29 50.18-28.97 35.13 20.28Z"/><path fill="#E6E6E6" d="m406.87 188.76 40.15-23.18.92.54v27.9L407.8 217.2l-.93-.54v-27.9Z"/><path fill="#E6E6E6" d="m423.53 184.94 6.83-3.94c.89-.51 1.6-.28 1.6.52a3.187 3.187 0 0 1-1.6 2.37l-6.83 4c-.88.51-1.6.27-1.6-.53a3.206 3.206 0 0 1 1.6-2.42Z"/><path fill="#E0E0E0" d="m405.95 224.07 40.15-23.18-.01 27.9.93.53-40.15 23.18-.92-.53v-27.9Z"/><path fill="#F5F5F5" d="m406.87 224.6 40.15-23.18v27.9l-40.15 23.18v-27.9Z"/><path fill="#E6E6E6" d="m422.61 220.24 6.83-3.94c.88-.51 1.6-.28 1.6.52a3.231 3.231 0 0 1-1.6 2.38l-6.83 3.94c-.89.51-1.61.28-1.61-.52a3.23 3.23 0 0 1 1.61-2.38Z"/><path fill="#E0E0E0" d="m406.87 188.76 40.15-23.18v27.91l-40.15 23.17v-27.9Z"/><path fill="#E6E6E6" d="m467.09 179.37-21.97-12.69v24.58l21.97 12.69v-24.58Z"/><path fill="#EBEBEB" d="M421.93 220.63v-34.77l8.61-4.99 1.42 2.1 25.1-14.49v31.87l-35.13 20.28Z"/><path fill="#FAFAFA" d="m421.93 220.63 2.51-30.42 35.12-20.28-2.5 30.42-35.13 20.28Z"/><path fill="#E6E6E6" d="m426.95 202.55-19.16-11.06v24.58l19.15 11.06.01-24.58Z"/><path fill="#F5F5F5" d="m426.95 200.35 40.14-23.18v27.9l-40.15 23.18.01-27.9Z"/><path fill="#E6E6E6" d="m442.68 196 6.83-3.94c.88-.51 1.6-.28 1.6.52a3.231 3.231 0 0 1-1.6 2.38l-6.83 3.94c-.89.51-1.6.28-1.6-.52a3.226 3.226 0 0 1 1.6-2.38Z"/><path fill="#E0E0E0" d="m426.95 200.35-1.34-.77v27.9l1.34.77v-27.9Z"/><path fill="#F0F0F0" d="m425.61 199.58 40.14-23.18 1.34.77-40.14 23.18-1.34-.77Z"/><path fill="#263238" d="M71.54 199.13v173.79l177.87-102.7V112.23l-132.26 76.36-4.57-13.16-41.04 23.7Z"/><path fill="#fff" d="m71.54 372.92 9.12-158 177.87-102.69-9.12 157.99-177.87 102.7Z"/><path fill="#37474F" d="m71.54 372.92 13.68-155.36 177.87-102.7-13.68 155.36-177.87 102.7Z"/><path fill="#38A0ED" d="M119.06 232.89v173.79l177.88-102.7V145.99l-132.27 76.36-4.56-13.16-41.05 23.7Z"/><path fill="#000" d="M119.06 232.89v173.79l177.88-102.7V145.99l-132.27 76.36-4.56-13.16-41.05 23.7Z" opacity=".1"/><path fill="#EBEBEB" d="M183.66 346a4.191 4.191 0 0 1-1.85-3.33V125.84a4.325 4.325 0 0 1 2-3.4l136.12-78.61a3.691 3.691 0 0 1 5.65 3.26V263.9a4.347 4.347 0 0 1-2 3.4l-136.11 78.6a4.194 4.194 0 0 1-3.81.1Z"/><path fill="#EBEBEB" d="m185.5 130 55.29-36.18-3.68-2.12-53.33 30.79a4.325 4.325 0 0 0-2 3.4v2l3.72 2.11Z"/><path fill="#E0E0E0" d="m203.93 136.34-21.54-12.44a4.007 4.007 0 0 0-.58 1.94v216.8a3.696 3.696 0 0 0 1.843 3.331 3.693 3.693 0 0 0 3.807-.071l16.47-9.5V136.34Z"/><path fill="#E6E6E6" d="m187.47 345.9 136.14-78.6a4.344 4.344 0 0 0 2-3.4V47.09c0-1.25-.88-1.76-2-1.13l-136.15 78.6a4.367 4.367 0 0 0-2 3.41v216.8c.04 1.23.92 1.76 2.01 1.13Z"/><path fill="#F5F5F5" d="m196.8 178 32.69-18.87c2.17-1.25 3.93-.36 3.93 2a8.407 8.407 0 0 1-3.93 6.52l-32.69 18.91c-2.17 1.25-3.93.36-3.93-2a8.449 8.449 0 0 1 3.93-6.56Z"/><path fill="#FAFAFA" d="m194.44 212.55 4.23-2.44c.87-.5 1.57-.1 1.57.9v4.89a3.459 3.459 0 0 1-1.57 2.72l-4.23 2.44c-.86.5-1.57.1-1.57-.91v-4.88a3.493 3.493 0 0 1 1.57-2.72Z"/><path fill="#F5F5F5" d="m205.9 208.07 25.56-14.76c1.08-.63 2-.18 2 1a4.195 4.195 0 0 1-2 3.26l-25.56 14.75c-1.09.63-2 .18-2-1a4.177 4.177 0 0 1 2-3.25Z"/><path fill="#FAFAFA" d="m194.44 229.58 4.23-2.45c.87-.5 1.57-.09 1.57.91v4.89a3.459 3.459 0 0 1-1.57 2.72l-4.23 2.44c-.86.5-1.57.09-1.57-.91v-4.88a3.493 3.493 0 0 1 1.57-2.72Z"/><path fill="#F5F5F5" d="m205.9 225.09 25.56-14.75c1.08-.63 2-.19 2 1a4.215 4.215 0 0 1-2 3.26l-25.56 14.75c-1.09.63-2 .18-2-1a4.23 4.23 0 0 1 .609-1.87 4.23 4.23 0 0 1 1.391-1.39Z"/><path fill="#FAFAFA" d="m194.44 246.6 4.23-2.44c.87-.5 1.57-.1 1.57.91V250a3.459 3.459 0 0 1-1.57 2.72l-4.23 2.44c-.86.51-1.57.1-1.57-.9v-4.89a3.484 3.484 0 0 1 1.57-2.77Z"/><path fill="#F5F5F5" d="m205.9 242.12 25.56-14.76c1.08-.63 2-.18 2 1a4.237 4.237 0 0 1-2 3.27l-25.56 14.74c-1.09.63-2 .19-2-1a4.179 4.179 0 0 1 2-3.25Z"/><path fill="#FAFAFA" d="m194.44 263.67 4.23-2.44c.87-.5 1.57-.09 1.57.91V267a3.459 3.459 0 0 1-1.57 2.72l-4.23 2.44c-.86.51-1.57.1-1.57-.9v-4.89a3.492 3.492 0 0 1 1.57-2.7Z"/><path fill="#F5F5F5" d="m205.9 259.19 25.56-14.76c1.08-.63 2-.18 2 1a4.237 4.237 0 0 1-2 3.27l-25.56 14.74c-1.09.63-2 .19-2-1a4.206 4.206 0 0 1 2-3.25Zm-11.06 40.08 18.16-10.5c1.08-.63 2-.18 2 1a4.203 4.203 0 0 1-2 3.26l-18.19 10.51c-1.09.62-2 .18-2-1a4.224 4.224 0 0 1 2.03-3.27Z"/><path fill="#F0F0F0" d="m194.84 307.78 36.62-21.14c1.08-.63 2-.18 2 1a4.237 4.237 0 0 1-2 3.27L194.84 312c-1.09.63-2 .18-2-1a4.218 4.218 0 0 1 2-3.22Z"/><path fill="#FAFAFA" d="M194.84 307.78 220.4 293c1.08-.62 2-.18 2 1a4.22 4.22 0 0 1-2 3.26L194.84 312c-1.09.63-2 .18-2-1a4.222 4.222 0 0 1 2-3.22Z"/><path fill="#F5F5F5" d="M194.84 316.29 213 305.78c1.08-.62 2-.18 2 1a4.237 4.237 0 0 1-2 3.26l-18.19 10.5c-1.09.63-2 .18-2-1a4.184 4.184 0 0 1 2.03-3.25Zm0-34.04 18.16-10.5c1.08-.62 2-.18 2 1a4.237 4.237 0 0 1-2 3.26l-18.19 10.5c-1.09.63-2 .18-2-1a4.219 4.219 0 0 1 2.03-3.26Z"/><path fill="#F0F0F0" d="m194.84 290.77 36.62-21.15c1.08-.62 2-.18 2 1a4.237 4.237 0 0 1-2 3.26L194.84 295c-1.09.63-2 .18-2-1a4.179 4.179 0 0 1 2-3.23Z"/><path fill="#FAFAFA" d="m194.84 290.77 13-7.5c1.09-.63 2-.18 2 1a4.219 4.219 0 0 1-2 3.27l-13 7.49c-1.09.63-2 .18-2-1a4.18 4.18 0 0 1 2-3.26Z"/><path fill="#F0F0F0" d="m194.84 324.8 36.62-21.14c1.08-.63 2-.18 2 1a4.203 4.203 0 0 1-2 3.26l-36.62 21.15c-1.09.62-2 .18-2-1a4.213 4.213 0 0 1 2-3.27Z"/><path fill="#FAFAFA" d="m194.84 324.8 32.93-19c1.09-.62 2-.18 2 1a4.248 4.248 0 0 1-2 3.26l-32.93 19c-1.09.62-2 .18-2-1a4.215 4.215 0 0 1 2-3.26Z"/><path fill="#F5F5F5" d="m323.61 46-82.82 47.77v221.34l82.82-47.81a4.344 4.344 0 0 0 2-3.4V47.09c-.03-1.25-.91-1.76-2-1.09Z"/><path fill="#EBEBEB" d="M240.79 102.29v17.02l-7.37 8.52h7.37v17.02l77.41-44.69V57.59l-77.41 44.7Z"/><path fill="#FAFAFA" d="m250.92 102.88 31.36-18.11c1.52-.87 2.75-.16 2.75 1.59a6.08 6.08 0 0 1-2.75 4.77l-31.36 18.1c-1.52.88-2.75.17-2.75-1.58a6.082 6.082 0 0 1 2.75-4.77Zm-1.77 13.74 60.7-35.05c.54-.31 1-.09 1 .5a2.102 2.102 0 0 1-1 1.63l-60.7 35.05c-.54.31-1 .09-1-.5a2.1 2.1 0 0 1 1-1.63Zm0 6.38 60.7-35c.54-.32 1-.09 1 .49a2.132 2.132 0 0 1-1 1.64l-60.7 35c-.54.31-1 .09-1-.5a2.125 2.125 0 0 1 1-1.63Zm0 6.39 60.7-35c.54-.31 1-.09 1 .5a2.102 2.102 0 0 1-1 1.63l-60.7 35.05c-.54.31-1 .09-1-.5a2.099 2.099 0 0 1 1-1.68Z"/><path fill="#fff" d="m251.43 147.24 4.23-2.44c.87-.5 1.58-.1 1.58.91v4.88a3.484 3.484 0 0 1-1.58 2.72l-4.23 2.44c-.86.5-1.57.1-1.57-.9V150a3.495 3.495 0 0 1 1.57-2.76Z"/><path fill="#E0E0E0" d="M262.89 142.76 288.45 128c1.08-.63 2-.18 2 1a4.237 4.237 0 0 1-2 3.27L262.89 147c-1.09.63-2 .19-2-1a4.175 4.175 0 0 1 2-3.24Zm-12.04 19.73 64.38-37.18c.55-.32 1-.09 1 .49a2.08 2.08 0 0 1-1 1.63l-64.38 37.19c-.55.31-1 .09-1-.5a2.08 2.08 0 0 1 1-1.63Zm0 6.38 64.38-37.18c.55-.31 1-.09 1 .5a2.08 2.08 0 0 1-1 1.63L250.85 171c-.55.31-1 .09-1-.5a2.111 2.111 0 0 1 1-1.63Zm0 6.39 64.38-37.18c.55-.32 1-.1 1 .49a2.08 2.08 0 0 1-1 1.63l-64.38 37.18c-.55.32-1 .1-1-.49a2.08 2.08 0 0 1 1-1.63Zm0 6.4 64.38-37.18c.55-.32 1-.09 1 .5a2.111 2.111 0 0 1-1 1.63l-64.38 37.18c-.55.31-1 .09-1-.5a2.08 2.08 0 0 1 1-1.63Z"/><path fill="#fff" d="m251.43 194.06 4.23-2.44c.87-.5 1.58-.09 1.58.91v4.88a3.484 3.484 0 0 1-1.58 2.72l-4.23 2.45c-.86.5-1.57.09-1.57-.91v-4.88a3.494 3.494 0 0 1 1.57-2.73Z"/><path fill="#E0E0E0" d="m262.89 189.58 25.56-14.76c1.08-.62 2-.18 2 1a4.237 4.237 0 0 1-2 3.26l-25.56 14.76c-1.09.62-2 .18-2-1a4.215 4.215 0 0 1 2-3.26Zm-12.04 19.73 64.38-37.18c.55-.31 1-.09 1 .5a2.111 2.111 0 0 1-1 1.63l-64.38 37.18c-.55.31-1 .09-1-.5a2.08 2.08 0 0 1 1-1.63Zm0 6.38 64.38-37.18c.55-.31 1-.09 1 .5a2.08 2.08 0 0 1-1 1.63l-64.38 37.18c-.55.32-1 .09-1-.49a2.12 2.12 0 0 1 1-1.64Zm0 6.39 64.38-37.18c.55-.32 1-.09 1 .49a2.12 2.12 0 0 1-1 1.64l-64.38 37.18c-.55.31-1 .09-1-.5a2.08 2.08 0 0 1 1-1.63Zm0 6.4 64.38-37.18c.55-.31 1-.09 1 .5a2.08 2.08 0 0 1-1 1.63l-64.38 37.18c-.55.31-1 .09-1-.5a2.111 2.111 0 0 1 1-1.63Z"/><path fill="#fff" d="m257.46 237.82 4.22-2.44c.87-.51 1.58-.1 1.58.9v4.89a3.484 3.484 0 0 1-1.58 2.72l-4.22 2.44c-.87.5-1.58.1-1.58-.91v-4.88a3.484 3.484 0 0 1 1.58-2.72Z"/><path fill="#E0E0E0" d="m250.85 254.41 17.45-10.08c.54-.31 1-.09 1 .5a2.1 2.1 0 0 1-1 1.63l-17.45 10.07c-.55.32-1 .09-1-.49a2.08 2.08 0 0 1 1-1.63Z"/><path fill="#fff" d="m280.93 224.26 4.22-2.44c.87-.51 1.58-.1 1.58.9v4.89a3.484 3.484 0 0 1-1.58 2.72l-4.22 2.44c-.87.5-1.58.09-1.58-.91V227a3.473 3.473 0 0 1 1.58-2.74Z"/><path fill="#E0E0E0" d="m274.32 240.84 17.45-10.07c.54-.31 1-.09 1 .5a2.1 2.1 0 0 1-1 1.63L274.32 243c-.55.32-1 .09-1-.49a2.121 2.121 0 0 1 1-1.67Z"/><path fill="#fff" d="m304.4 210.7 4.22-2.45c.87-.5 1.58-.09 1.58.91V214a3.476 3.476 0 0 1-1.58 2.73l-4.22 2.44c-.87.5-1.58.09-1.58-.91v-4.88a3.475 3.475 0 0 1 1.58-2.68Z"/><path fill="#E0E0E0" d="m297.78 227.28 17.45-10.07c.55-.31 1-.09 1 .5a2.08 2.08 0 0 1-1 1.63l-17.45 10.07c-.54.32-1 .09-1-.5a2.125 2.125 0 0 1 1-1.63Zm-46.93 31.28 17.45-10.07c.54-.31 1-.09 1 .5a2.125 2.125 0 0 1-1 1.63l-17.45 10.07c-.55.31-1 .09-1-.5a2.1 2.1 0 0 1 1-1.63ZM274.32 245l17.45-10.07c.54-.32 1-.09 1 .49a2.13 2.13 0 0 1-1 1.64l-17.45 10.07c-.55.31-1 .09-1-.5a2.08 2.08 0 0 1 1-1.63Zm23.46-13.56 17.45-10.07c.55-.32 1-.09 1 .49a2.12 2.12 0 0 1-1 1.64l-17.45 10.07c-.54.31-1 .09-1-.5a2.1 2.1 0 0 1 1-1.63Zm-46.93 31.28 17.45-10.08c.54-.31 1-.09 1 .5a2.1 2.1 0 0 1-1 1.63l-17.45 10.08c-.55.31-1 .09-1-.5a2.08 2.08 0 0 1 1-1.63Zm23.47-13.56 17.45-10.08c.54-.31 1-.09 1 .5a2.1 2.1 0 0 1-1 1.63l-17.45 10.08c-.55.31-1 .09-1-.5a2.08 2.08 0 0 1 1-1.63Zm23.46-13.56 17.45-10.08c.55-.31 1-.09 1 .5a2.08 2.08 0 0 1-1 1.63l-17.45 10.07c-.54.32-1 .1-1-.49a2.1 2.1 0 0 1 1-1.63Z"/><path fill="#fff" d="m257.46 272.77 4.22-2.44c.87-.5 1.58-.09 1.58.91v4.88a3.484 3.484 0 0 1-1.58 2.72l-4.22 2.44c-.87.51-1.58.1-1.58-.9v-4.89a3.484 3.484 0 0 1 1.58-2.72Z"/><path fill="#E0E0E0" d="m250.85 289.36 17.45-10.07c.54-.32 1-.09 1 .49a2.1 2.1 0 0 1-1 1.63l-17.45 10.08c-.55.31-1 .09-1-.5a2.08 2.08 0 0 1 1-1.63Z"/><path fill="#fff" d="m280.93 259.21 4.22-2.44c.87-.5 1.58-.1 1.58.91v4.88a3.484 3.484 0 0 1-1.58 2.72l-4.22 2.44c-.87.51-1.58.1-1.58-.9v-4.89a3.484 3.484 0 0 1 1.58-2.72Z"/><path fill="#E0E0E0" d="m274.32 275.8 17.45-10.07c.54-.32 1-.1 1 .49a2.1 2.1 0 0 1-1 1.63l-17.45 10.08c-.55.31-1 .09-1-.5a2.08 2.08 0 0 1 1-1.63Z"/><path fill="#fff" d="m304.4 245.65 4.22-2.44c.87-.5 1.58-.1 1.58.91V249a3.484 3.484 0 0 1-1.58 2.72l-4.22 2.44c-.87.5-1.58.1-1.58-.9v-4.89a3.484 3.484 0 0 1 1.58-2.72Z"/><path fill="#E0E0E0" d="m297.78 262.24 17.45-10.08c.55-.31 1-.09 1 .5a2.08 2.08 0 0 1-1 1.63l-17.45 10.08c-.54.31-1 .09-1-.5a2.1 2.1 0 0 1 1-1.63Zm-46.93 31.28 17.45-10.08c.54-.31 1-.09 1 .5a2.104 2.104 0 0 1-1 1.63l-17.45 10.07c-.55.32-1 .09-1-.49a2.08 2.08 0 0 1 1-1.63ZM274.32 280l17.45-10.07c.54-.31 1-.09 1 .5a2.104 2.104 0 0 1-1 1.63l-17.45 10.07c-.55.32-1 .09-1-.49a2.12 2.12 0 0 1 1-1.64Zm23.46-13.61 17.45-10.07c.55-.31 1-.09 1 .5a2.08 2.08 0 0 1-1 1.63l-17.45 10.07c-.54.32-1 .09-1-.49a2.13 2.13 0 0 1 1-1.64Zm-46.93 31.28 17.45-10.07c.54-.31 1-.09 1 .5a2.125 2.125 0 0 1-1 1.63l-17.45 10.07c-.55.31-1 .09-1-.5a2.111 2.111 0 0 1 1-1.63Zm23.47-13.56L291.77 274c.54-.31 1-.09 1 .5a2.125 2.125 0 0 1-1 1.63l-17.45 10.07c-.55.31-1 .09-1-.5a2.082 2.082 0 0 1 1-1.59Zm23.46-13.56 17.45-10.07c.55-.32 1-.09 1 .49a2.12 2.12 0 0 1-1 1.64l-17.45 10.07c-.54.31-1 .09-1-.5a2.1 2.1 0 0 1 1-1.63Z"/><path fill="#FAFAFA" d="M211.3 119.37c10.21-5.89 18.48-1.12 18.48 10.67s-8.27 26.1-18.48 32c-10.21 5.9-18.47 1.12-18.47-10.66 0-11.78 8.27-26.12 18.47-32.01Z"/><path fill="#E0E0E0" d="M211.3 128.64c3.31-1.91 6-.36 6 3.46a13.243 13.243 0 0 1-6 10.38c-3.31 1.91-6 .36-6-3.46a13.237 13.237 0 0 1 6-10.38ZM223 149c0-6.28-4.41-8.82-9.85-5.68l-3.4 2c-5.44 3.14-9.85 10.78-9.85 17.06v1.69c3.15 1 7.1.47 11.41-2A36.424 36.424 0 0 0 223 150.48V149Z"/><path fill="#F5F5F5" d="m200.37 192.38 25.56-14.76c1.08-.63 2-.18 2 1a4.203 4.203 0 0 1-2 3.26l-25.56 14.76c-1.09.63-2 .18-2-1a4.18 4.18 0 0 1 2-3.26Z"/><path fill="#38A0ED" d="m119.07 406.68 32.49-140.72 177.87-102.69-32.49 140.71-177.87 102.7Z"/><path fill="#000" d="M208.43 355.08V233.13l120.53-69.25-32.02 140.1-88.51 51.1Z" opacity=".1"/><path fill="#E0E0E0" d="m239.08 372.79-30.65-17.71 57.08-32.71-26.43 50.42Z"/><path fill="#EBEBEB" d="M239.08 372.79a4.217 4.217 0 0 1-1.84-3.33V152.65a4.37 4.37 0 0 1 .593-1.939 4.369 4.369 0 0 1 1.407-1.461l136.11-78.61a3.69 3.69 0 0 1 5.65 3.27v216.8a4.343 4.343 0 0 1-2 3.4l-136.11 78.61a4.226 4.226 0 0 1-3.81.07Z"/><path fill="#455A64" d="m240.92 156.77 55.3-36.18-3.69-2.13-53.33 30.79c-.577.37-1.059.87-1.407 1.461a4.37 4.37 0 0 0-.593 1.939v2l3.72 2.12Z"/><path fill="#263238" d="m259.35 163.15-21.54-12.43a4 4 0 0 0-.57 1.93v216.81a3.686 3.686 0 0 0 1.843 3.331 3.69 3.69 0 0 0 3.807-.071l16.46-9.51V163.15Z"/><path fill="#37474F" d="M242.89 372.72 379 294.11a4.331 4.331 0 0 0 1.408-1.46 4.331 4.331 0 0 0 .592-1.94V73.91c0-1.26-.88-1.76-2-1.14l-136.11 78.61a4.319 4.319 0 0 0-2 3.4v216.8c.03 1.26.91 1.76 2 1.14Z"/><path fill="#E0E0E0" d="M252.22 204.86 284.91 186c2.17-1.25 3.93-.36 3.93 2a8.447 8.447 0 0 1-3.93 6.53l-32.69 18.87c-2.17 1.25-3.93.36-3.93-2a8.405 8.405 0 0 1 3.93-6.54Z"/><path fill="#38A0ED" d="m249.87 239.36 4.23-2.44c.86-.5 1.57-.09 1.57.91v4.88a3.505 3.505 0 0 1-1.57 2.73l-4.23 2.44c-.87.5-1.57.09-1.57-.91v-4.88a3.466 3.466 0 0 1 1.57-2.73Z"/><path fill="#E0E0E0" d="m261.32 234.88 25.56-14.76c1.08-.62 2-.18 2 1a4.237 4.237 0 0 1-2 3.26l-25.56 14.76c-1.09.62-2 .18-2-1a4.22 4.22 0 0 1 2-3.26Z"/><path fill="#38A0ED" d="m249.87 256.39 4.23-2.39c.86-.5 1.57-.1 1.57.91v4.88a3.489 3.489 0 0 1-1.57 2.72l-4.23 2.44c-.87.5-1.57.1-1.57-.9v-4.89a3.462 3.462 0 0 1 1.57-2.77Z"/><path fill="#E0E0E0" d="m261.32 251.91 25.56-14.76c1.08-.63 2-.18 2 1a4.237 4.237 0 0 1-2 3.27l-25.56 14.75c-1.09.63-2 .19-2-1a4.18 4.18 0 0 1 2-3.26Z"/><path fill="#38A0ED" d="m249.87 273.42 4.23-2.42c.86-.5 1.57-.09 1.57.91v4.88a3.486 3.486 0 0 1-1.57 2.73l-4.23 2.44c-.87.5-1.57.09-1.57-.91v-4.88a3.461 3.461 0 0 1 1.57-2.75Z"/><path fill="#E0E0E0" d="m261.32 268.93 25.56-14.76c1.08-.62 2-.18 2 1a4.22 4.22 0 0 1-2 3.26l-25.56 14.76c-1.09.63-2 .18-2-1a4.22 4.22 0 0 1 2-3.26Z"/><path fill="#38A0ED" d="m249.87 290.49 4.23-2.49c.86-.5 1.57-.09 1.57.91v4.89a3.489 3.489 0 0 1-1.57 2.72l-4.23 2.48c-.87.5-1.57.09-1.57-.91v-4.88a3.46 3.46 0 0 1 1.57-2.72Z"/><path fill="#E0E0E0" d="m261.32 286 25.56-14.75c1.08-.63 2-.19 2 1a4.22 4.22 0 0 1-2 3.26l-25.56 14.76c-1.09.63-2 .18-2-1 .052-.664.26-1.307.607-1.875A4.232 4.232 0 0 1 261.32 286Zm-11.06 40.08 18.19-10.5c1.08-.62 2-.18 2 1a4.225 4.225 0 0 1-2 3.26l-18.19 10.5c-1.08.63-2 .18-2-1a4.23 4.23 0 0 1 2-3.26Z"/><path fill="#FAFAFA" d="m250.26 334.6 36.62-21.15c1.08-.62 2-.18 2 1a4.225 4.225 0 0 1-2 3.26l-36.62 21.14c-1.08.63-2 .18-2-1a4.195 4.195 0 0 1 2-3.25Z"/><path fill="#38A0ED" d="m250.26 334.6 25.56-14.76c1.09-.63 2-.18 2 1a4.213 4.213 0 0 1-2 3.27l-25.56 14.75c-1.08.63-2 .18-2-1a4.195 4.195 0 0 1 2-3.26Z"/><path fill="#E0E0E0" d="m250.26 343.1 18.19-10.5c1.08-.63 2-.18 2 1a4.237 4.237 0 0 1-2 3.27l-18.19 10.5c-1.08.62-2 .18-2-1a4.229 4.229 0 0 1 2-3.27Zm0-34.03 18.19-10.5c1.08-.63 2-.18 2 1a4.203 4.203 0 0 1-2 3.26l-18.19 10.5c-1.08.63-2 .19-2-1a4.204 4.204 0 0 1 2-3.26Z"/><path fill="#FAFAFA" d="m250.26 317.58 36.62-21.14c1.08-.63 2-.18 2 1a4.195 4.195 0 0 1-2 3.26l-36.62 21.15c-1.08.62-2 .18-2-1a4.237 4.237 0 0 1 2-3.27Z"/><path fill="#38A0ED" d="m250.26 317.58 13-7.5c1.08-.62 2-.18 2 1a4.225 4.225 0 0 1-2 3.26l-13 7.5c-1.08.62-2 .18-2-1a4.23 4.23 0 0 1 2-3.26Z"/><path fill="#FAFAFA" d="m250.26 351.61 36.62-21.14c1.08-.63 2-.18 2 1a4.225 4.225 0 0 1-2 3.26l-36.62 21.14c-1.08.63-2 .18-2-1a4.225 4.225 0 0 1 2-3.26Z"/><path fill="#38A0ED" d="m250.26 351.61 32.93-19c1.09-.63 2-.18 2 1a4.213 4.213 0 0 1-2 3.27l-32.93 19c-1.08.63-2 .18-2-1a4.229 4.229 0 0 1 2-3.27Z"/><path fill="#FAFAFA" d="m379 72.77-82.81 47.82v221.34L379 294.11a4.344 4.344 0 0 0 2-3.4V73.91c0-1.26-.88-1.76-2-1.14Z"/><path fill="#38A0ED" d="M296.22 129.1v17.03l-7.38 8.51h7.37l.01 17.03 77.41-44.7V84.41l-77.41 44.69Z"/><path fill="#FAFAFA" d="m306.34 129.69 31.36-18.1c1.52-.88 2.75-.17 2.75 1.59a6.07 6.07 0 0 1-2.75 4.82l-31.36 18.11c-1.52.88-2.75.17-2.75-1.59a6.083 6.083 0 0 1 2.75-4.83Zm-1.77 13.74 60.7-35c.55-.32 1-.09 1 .49a2.106 2.106 0 0 1-1 1.64l-60.7 35c-.54.31-1 .09-1-.5a2.13 2.13 0 0 1 1-1.63Zm0 6.39 60.7-35c.55-.31 1-.09 1 .5a2.062 2.062 0 0 1-1 1.63l-60.7 35c-.54.31-1 .09-1-.5a2.1 2.1 0 0 1 1-1.63Zm0 6.38 60.7-35c.55-.32 1-.09 1 .49a2.062 2.062 0 0 1-1 1.63l-60.7 35.05c-.54.31-1 .09-1-.5a2.13 2.13 0 0 1 1-1.67Z"/><path fill="#38A0ED" d="m306.86 174.06 4.23-2.45c.86-.5 1.57-.09 1.57.91v4.88a3.486 3.486 0 0 1-1.57 2.73l-4.23 2.44c-.87.5-1.57.09-1.57-.91v-4.88a3.46 3.46 0 0 1 1.57-2.72Z"/><path fill="#455A64" d="m318.31 169.57 25.56-14.76c1.09-.62 2-.18 2 1a4.203 4.203 0 0 1-2 3.26l-25.56 14.76c-1.09.62-2 .18-2-1a4.22 4.22 0 0 1 2-3.26Zm-12.04 19.73 64.39-37.18c.54-.31 1-.09 1 .5a2.1 2.1 0 0 1-1 1.63l-64.39 37.18c-.54.31-1 .09-1-.5.028-.331.133-.65.307-.933.173-.284.411-.522.693-.697Zm0 6.39 64.39-37.18c.54-.32 1-.1 1 .49a2.1 2.1 0 0 1-1 1.63l-64.39 37.18c-.54.32-1 .1-1-.49a2.1 2.1 0 0 1 1-1.63Zm0 6.38 64.39-37.18c.54-.31 1-.09 1 .5a2.125 2.125 0 0 1-1 1.63l-64.39 37.18c-.54.31-1 .09-1-.5a2.1 2.1 0 0 1 1-1.63Zm0 6.4 64.39-37.18c.54-.31 1-.09 1 .5a2.104 2.104 0 0 1-1 1.63l-64.39 37.18c-.54.32-1 .09-1-.49a2.13 2.13 0 0 1 1-1.64Z"/><path fill="#38A0ED" d="m306.86 220.88 4.23-2.44c.86-.5 1.57-.1 1.57.9v4.89a3.489 3.489 0 0 1-1.57 2.72l-4.23 2.44c-.87.5-1.57.1-1.57-.91v-4.88a3.46 3.46 0 0 1 1.57-2.72Z"/><path fill="#455A64" d="m318.31 216.39 25.56-14.75c1.09-.63 2-.18 2 1a4.166 4.166 0 0 1-2 3.26l-25.56 14.76c-1.09.63-2 .18-2-1 .052-.664.26-1.307.607-1.875a4.232 4.232 0 0 1 1.393-1.395Zm-12.04 19.73 64.39-37.18c.54-.31 1-.09 1 .5a2.104 2.104 0 0 1-1 1.63l-64.39 37.18c-.54.32-1 .09-1-.49a2.134 2.134 0 0 1 1-1.64Zm0 6.39 64.39-37.18c.54-.32 1-.09 1 .49a2.13 2.13 0 0 1-1 1.64l-64.39 37.18c-.54.31-1 .09-1-.5a2.1 2.1 0 0 1 1-1.63Zm0 6.38 64.39-37.18c.54-.31 1-.09 1 .5a2.104 2.104 0 0 1-1 1.63L306.27 251c-.54.32-1 .09-1-.5a2.134 2.134 0 0 1 1-1.61Zm0 6.41 64.39-37.18c.54-.32 1-.1 1 .49a2.104 2.104 0 0 1-1 1.63l-64.39 37.18c-.54.32-1 .1-1-.49a2.1 2.1 0 0 1 1-1.63Z"/><path fill="#38A0ED" d="m312.88 264.63 4.23-2.44c.87-.5 1.57-.09 1.57.91v4.9a3.46 3.46 0 0 1-1.57 2.72l-4.23 2.45c-.87.5-1.57.09-1.57-.91v-4.89a3.468 3.468 0 0 1 1.57-2.74Z"/><path fill="#455A64" d="m306.27 281.22 17.45-10.07c.54-.32 1-.09 1 .49a2.104 2.104 0 0 1-1 1.63l-17.45 10.08c-.54.31-1 .09-1-.5a2.1 2.1 0 0 1 1-1.63Z"/><path fill="#38A0ED" d="m336.35 251.07 4.23-2.44c.87-.5 1.57-.1 1.57.91v4.88a3.46 3.46 0 0 1-1.57 2.72l-4.23 2.44c-.87.51-1.57.1-1.57-.9v-4.89a3.46 3.46 0 0 1 1.57-2.72Z"/><path fill="#455A64" d="m329.74 267.66 17.45-10.07c.54-.32 1-.09 1 .49a2.104 2.104 0 0 1-1 1.63l-17.45 10.08c-.54.31-1 .09-1-.5a2.1 2.1 0 0 1 1-1.63Z"/><path fill="#38A0ED" d="m359.82 237.51 4.23-2.44c.87-.5 1.57-.1 1.57.91v4.88a3.46 3.46 0 0 1-1.57 2.72l-4.23 2.42c-.87.5-1.57.1-1.57-.9v-4.89a3.458 3.458 0 0 1 1.57-2.7Z"/><path fill="#455A64" d="m353.21 254.1 17.45-10.1c.54-.32 1-.1 1 .49a2.1 2.1 0 0 1-1 1.63l-17.45 10.08c-.54.31-1 .09-1-.5a2.107 2.107 0 0 1 1-1.6Zm-46.94 31.28 17.45-10.08c.54-.31 1-.09 1 .5a2.104 2.104 0 0 1-1 1.63l-17.45 10.07c-.54.32-1 .1-1-.49a2.1 2.1 0 0 1 1-1.63Zm23.47-13.56 17.45-10.08c.54-.31 1-.09 1 .5a2.104 2.104 0 0 1-1 1.63l-17.45 10.07c-.54.32-1 .09-1-.49a2.1 2.1 0 0 1 1-1.63Zm23.47-13.57 17.45-10.07c.54-.31 1-.09 1 .5a2.104 2.104 0 0 1-1 1.63l-17.45 10.07c-.54.32-1 .09-1-.49a2.134 2.134 0 0 1 1-1.64Zm-46.94 31.28 17.45-10.07c.54-.31 1-.09 1 .5a2.125 2.125 0 0 1-1 1.63l-17.45 10.07c-.54.31-1 .09-1-.5a2.127 2.127 0 0 1 1-1.63ZM329.74 276l17.45-10.07c.54-.31 1-.09 1 .5a2.125 2.125 0 0 1-1 1.63l-17.45 10.04c-.54.31-1 .09-1-.5a2.123 2.123 0 0 1 1-1.6Zm23.47-13.59 17.45-10.07c.54-.32 1-.09 1 .49a2.13 2.13 0 0 1-1 1.64l-17.45 10.07c-.54.31-1 .09-1-.5a2.1 2.1 0 0 1 1-1.63Z"/><path fill="#38A0ED" d="m312.88 299.59 4.23-2.45c.87-.5 1.57-.09 1.57.91v4.89a3.46 3.46 0 0 1-1.57 2.72l-4.23 2.44c-.87.5-1.57.09-1.57-.91v-4.88a3.46 3.46 0 0 1 1.57-2.72Z"/><path fill="#455A64" d="m306.27 316.17 17.45-10.07c.54-.31 1-.09 1 .5a2.104 2.104 0 0 1-1 1.63l-17.45 10.07c-.54.32-1 .09-1-.49a2.134 2.134 0 0 1 1-1.64Z"/><path fill="#38A0ED" d="m336.35 286 4.23-2.45c.87-.5 1.57-.09 1.57.91v4.88a3.486 3.486 0 0 1-.457 1.554 3.48 3.48 0 0 1-1.113 1.176l-4.23 2.44c-.87.5-1.57.09-1.57-.91v-4.88a3.46 3.46 0 0 1 1.57-2.72Z"/><path fill="#455A64" d="m329.74 302.61 17.45-10.07c.54-.31 1-.09 1 .5a2.111 2.111 0 0 1-1 1.63l-17.45 10.07c-.54.31-1 .09-1-.5a2.127 2.127 0 0 1 1-1.63Z"/><path fill="#38A0ED" d="m359.82 272.46 4.23-2.44c.87-.5 1.57-.09 1.57.91v4.88a3.48 3.48 0 0 1-1.57 2.73l-4.23 2.46c-.87.5-1.57.09-1.57-.91v-4.88a3.484 3.484 0 0 1 1.57-2.75Z"/><path fill="#455A64" d="M353.21 289.05 370.66 279c.54-.31 1-.09 1 .5a2.125 2.125 0 0 1-1 1.63l-17.45 10.07c-.54.31-1 .09-1-.5.025-.334.129-.658.302-.945.174-.286.413-.528.698-.705Zm-46.94 31.28 17.45-10.07c.54-.32 1-.09 1 .49a2.13 2.13 0 0 1-1 1.64l-17.45 10.07c-.54.31-1 .09-1-.5a2.1 2.1 0 0 1 1-1.63Zm23.47-13.56 17.45-10.07c.54-.32 1-.09 1 .49a2.104 2.104 0 0 1-1 1.63l-17.45 10.08c-.54.31-1 .09-1-.5a2.1 2.1 0 0 1 1-1.63Zm23.47-13.56 17.45-10.07c.54-.32 1-.09 1 .49a2.104 2.104 0 0 1-1 1.63l-17.45 10.08c-.54.31-1 .09-1-.5a2.1 2.1 0 0 1 1-1.63Zm-46.94 31.28 17.45-10.08c.54-.31 1-.09 1 .5a2.096 2.096 0 0 1-1 1.63l-17.45 10.08c-.54.31-1 .09-1-.5a2.1 2.1 0 0 1 1-1.63Zm23.47-13.56 17.45-10.08c.54-.31 1-.09 1 .5a2.104 2.104 0 0 1-1 1.63l-17.45 10.07c-.54.32-1 .1-1-.49a2.1 2.1 0 0 1 1-1.63Zm23.47-13.56 17.45-10.08c.54-.31 1-.09 1 .5a2.096 2.096 0 0 1-1 1.63l-17.45 10.07c-.54.32-1 .09-1-.49a2.1 2.1 0 0 1 1-1.63Z"/><path fill="#E0E0E0" d="M266.73 146.18c10.2-5.89 18.47-1.11 18.47 10.67s-8.27 26.11-18.47 32c-10.2 5.89-18.48 1.11-18.48-10.67s8.27-26.11 18.48-32Z"/><path fill="#FAFAFA" d="M266.73 155.46c3.31-1.92 6-.37 6 3.46a13.237 13.237 0 0 1-6 10.38c-3.31 1.91-6 .36-6-3.46a13.237 13.237 0 0 1 6-10.38Zm11.68 20.38c0-6.28-4.41-8.83-9.85-5.69l-3.4 2c-5.44 3.14-9.84 10.78-9.84 17.06v1.69c3.14 1 7.1.48 11.41-2a36.34 36.34 0 0 0 11.68-11.56v-1.5Z"/><path fill="#E0E0E0" d="m255.79 219.19 25.56-14.76c1.08-.62 2-.18 2 1a4.237 4.237 0 0 1-2 3.26l-25.56 14.76c-1.09.62-2 .18-2-1a4.22 4.22 0 0 1 2-3.26Z"/></svg>