<svg xmlns="http://www.w3.org/2000/svg" width="500" height="500" fill="none"><path fill="#FAFAFA" d="M251.23 488.63c127.815 0 231.43-64.153 231.43-143.29 0-79.137-103.615-143.29-231.43-143.29-127.815 0-231.43 64.153-231.43 143.29 0 79.137 103.615 143.29 231.43 143.29Z"/><path fill="#E6E6E6" d="M152.22 457.65c44.332 0 80.27-20.747 80.27-46.34 0-25.593-35.938-46.34-80.27-46.34-44.332 0-80.27 20.747-80.27 46.34 0 25.593 35.938 46.34 80.27 46.34Z"/><path fill="#38A0ED" d="m37.55 327.72 7.31 4.22L56.89 325V123.92l8.02-4.63-13.76-17.37-7.31-4.22-14.31 33.58 7.31 4.22.71-.41v192.63Z"/><path fill="#fff" d="m37.55 327.72 7.31 4.22L56.89 325V123.92l8.02-4.63-13.76-17.37-7.31-4.22-14.31 33.58 7.31 4.22.71-.41v192.63Z" opacity=".7"/><path fill="#38A0ED" d="M44.86 331.94 56.89 325V123.92l8.02-4.63-13.76-17.37-14.31 33.58 8.02-4.63v201.07Z"/><path fill="#fff" d="M44.86 331.94 56.89 325V123.92l8.02-4.63-13.76-17.37-14.31 33.58 8.02-4.63v201.07Z" opacity=".5"/><path fill="#38A0ED" d="m37.55 327.72 7.31 4.22V130.87l-7.31 4.22v192.63Z"/><path fill="#fff" d="m37.55 327.72 7.31 4.22V130.87l-7.31 4.22v192.63Z" opacity=".3"/><path fill="#E0E0E0" d="m77.87 306.56 5.47 3.17 9.02-5.21V186.58l6.01-3.47-10.31-14.72-5.48-3.17-10.72 26.87 5.47 3.16.54-.3v111.61Z"/><path fill="#F5F5F5" d="m77.33 195.25 10.73-26.86-5.48-3.17-10.72 26.87 5.47 3.16Z"/><path fill="#EBEBEB" d="m83.34 309.73 9.02-5.21V186.58l6.01-3.47-10.31-14.72-10.73 26.86 6.01-3.47v117.95Z"/><path fill="#455A64" d="m355.8 435.09-40.54-61.78 24.06-13.89 40.53 61.78-24.05 13.89Z"/><path fill="#37474F" d="m315.26 373.31-40.06-23.14 24.05-13.89 40.07 23.14-24.06 13.89Z"/><path fill="#455A64" d="m299.27 336.28-32.75-49.83 9.64-5.56-36.63-10.34-6.67 35.34 9.61-5.55 32.74 49.83 24.06-13.89Z"/><path fill="#FFBDA7" d="M114.83 401.57a5.607 5.607 0 0 0 .36-3.59 21.455 21.455 0 0 0-2-5c-2.94-6.42-2.61-13.25-.9-20.1.76-3.05 3.87-4.49 6.49-6.08 5.33-3.23 14.13-8.66 14.13-8.66l-12.77-19.3c-8.26 9-18.53 19.29-18.53 19.29l-1.51 1.56c-.36.43-.56.94-.88 1.36-.47.536-.986 1.031-1.54 1.48l-3.07 2.93a7.744 7.744 0 0 0-2.23 2.93c-.75 2.19.54 4.48 1.25 6.69 1.14 3.59.72 7.45.81 11.22a14.65 14.65 0 0 0 .34 3 13.15 13.15 0 0 0 2.73 5 29.635 29.635 0 0 0 10.11 8c1.308.605 2.76.83 4.19.65a4.148 4.148 0 0 0 3.02-1.38Z"/><path fill="#263238" d="M90.74 367.69c-.617.942-1.036 2-1.23 3.11-.27 1.14 2.29 5.63 2.48 7.89.19 2.26 0 3 0 5.92 0 3.24-1 6.6 4 13a24.402 24.402 0 0 0 15.2 9.19c2.591.368 5.232.089 7.69-.81a1.932 1.932 0 0 0 .58-2.39c-1.46-2.17-28.72-35.91-28.72-35.91Z"/><path fill="#455A64" d="M113.94 370.46c.17.79-.38 1.72-.84 3.41a19.391 19.391 0 0 0-.32 7.26c.37 2.28.87 4.54 1.45 6.77a9.87 9.87 0 0 0 3 5.33 10.999 10.999 0 0 1 3 3.79c1.15 2.5.37 6.42-1.75 7.4-2.12.98-6.47 1.18-8.83.56a28.284 28.284 0 0 1-7.36-3.35c-4.31-2.61-8.88-9.62-9.08-13.5-.2-3.88.5-6.74.21-9.68-.29-2.94-3.24-7.91-2.64-10.76.48-1.91 2.61-3.93 3.44-4.59a34.989 34.989 0 0 0 4.38-4c1-1.16 2-1.5 3.08-1l-1.51 1.56c-1 3.58-.85 4.32-.7 5.91.19 2.11.91 3 1.22 4.66.75-2.36.74-4.28 2.39-4.69.91-.23 1.86-.28 4.91 1s5.79 3.22 5.95 3.92Z"/><path fill="#37474F" d="M118.26 394.23a1.292 1.292 0 0 1-1.2.27 3.059 3.059 0 0 1-1.73-1.34 10.53 10.53 0 0 1-.78-3s-1-1.12-4.63-1.12a22.872 22.872 0 0 0-6.22.69s.24 1.51.25 2.1c0 1.39-.47 2.82-1.58 3.19-2 .66-5-1.57-6.05-2.88a15.267 15.267 0 0 1-2.58-5.69 16.76 16.76 0 0 1-.49-2.6 39.542 39.542 0 0 0-.08 4.29c.2 3.88 4.77 10.89 9.08 13.5a28.251 28.251 0 0 0 7.36 3.35c2.36.62 6.63.48 8.83-.56s2.9-4.9 1.75-7.4a10.128 10.128 0 0 0-1.93-2.8Z"/><path fill="#37474F" d="M113.92 390a3.29 3.29 0 0 0 1.83 1.67.072.072 0 0 0 0-.05 11.462 11.462 0 0 1-1.53-3.69c-.58-2.23-1.08-4.49-1.45-6.77a18.964 18.964 0 0 1-.16-4.11c-.34.42-.25 1.29-.27 1.79A45.726 45.726 0 0 0 113 387a9.601 9.601 0 0 0 .92 3Zm-16.4-25.26c-.071-1.661.09-3.324.48-4.94l.6-.66c1-1.16 2-1.5 3.08-1l-1.51 1.56a14.997 14.997 0 0 0-.29 5.23c.35 2.39.5 3.69.81 5.34.74 5.46.3 7.54 1.56 12.48s3.41 7.77 2.84 8.29c-.57.52-2.12.5-3.81-3.2s-2.45-10.71-2.42-14.18c.03-3.47-1.09-5.42-1.34-8.92Z"/><path fill="#263238" d="M104.22 390.38a.442.442 0 0 0 .3 0 12.163 12.163 0 0 1 9.38.08.518.518 0 0 0 .65-.3.524.524 0 0 0-.31-.65 13.09 13.09 0 0 0-10-.09.508.508 0 0 0-.32.64.488.488 0 0 0 .3.32Zm-1.6-4.38c.094.03.196.03.29 0a13.595 13.595 0 0 1 10 .47.507.507 0 0 0 .67-.3.521.521 0 0 0-.3-.67 14.58 14.58 0 0 0-10.61-.5.519.519 0 0 0 0 1h-.05Zm-1.39-4.67a.58.58 0 0 0 .32 0 15.443 15.443 0 0 1 11.08 1.36.57.57 0 0 0 .49-1 16.534 16.534 0 0 0-11.79-1.45.566.566 0 0 0-.364.242.57.57 0 0 0 .264.848Zm-.23-4.16c.101.03.209.03.31 0 3.67-.86 7.529-.306 10.81 1.55a.569.569 0 0 0 .451.065.55.55 0 0 0 .35-.292.56.56 0 0 0-.311-.773 16.145 16.145 0 0 0-11.5-1.65.566.566 0 0 0-.457.494.557.557 0 0 0 .347.576v.03Zm-.28-3.88a.65.65 0 0 0 .31 0c4-.7 7.07-.06 11.25 2a.561.561 0 0 0 .756-.676.556.556 0 0 0-.256-.324c-4.39-2.2-7.67-2.87-11.94-2.14a.558.558 0 0 0-.463.49.558.558 0 0 0 .343.58v.07Z"/><path fill="#455A64" d="M195.64 240.56s-2 19.51-1.48 25.58c.73 8.15.8 11 1.22 19.25 1.42 27.56 2.06 33.27-3.9 39.65-4.35 4.67-13.74 10.13-18.4 12.45-18.33 9.11-52.36 29.05-52.36 29.05s-4.08.16-8.93-6.22c-4.54-6-3.6-9.36-3.6-9.36s7.85-9.81 19.26-23.86c11.41-14.05 23.94-19 23.94-19l-9-66.93 53.25-.61Z"/><path fill="#37474F" d="m144.79 258.79 6.6 49.31s-9.34 3.76-19.16 13.67c4.8 11.26 9.57 22.57 9.57 22.57a72.309 72.309 0 0 0-.35 10.29c10.51-5.95 22.87-12.78 31.63-17.14.89-.44 2-1 3.12-1.64-.11-5.67-.72-13.08-1.73-22.27-1.2-10.93-3-30.15-3-30.15 15.41-8.13 14.57-15.31 15.41-22.62l-42.11-2 .02-.02Z"/><path fill="#FFBDA7" d="M187.34 432.26s-8.41-5-9.22-19.23c-.81-14.23-1.27-30.94-1.27-30.94l-26.51.42 9.75 34 .72 2.38s-2.41 13.24 8 14.47c5.32.64 18.53-1.1 18.53-1.1Z"/><path fill="#263238" d="M157.94 432a8.998 8.998 0 0 0 1 3.47c.51 1.15 5.64 3.35 7.28 5.17 1.64 1.82 1.9 2.6 3.82 5.12 2.12 2.79 3.43 6.34 12 8.58s14.15.82 17.76-1.09a9.273 9.273 0 0 0 3.13-3.06s1-4.85-1.73-5.7c-2.73-.85-43.26-12.49-43.26-12.49Z"/><path fill="#455A64" d="M179.71 419.23c.66.57.79 1.73 1.5 3.48a20.991 20.991 0 0 0 4.45 6.46c9.87 9.36 16.66 10.78 17.48 17.46.3 2.44-2.57 5.93-13.17 7-5.41.57-13.91-2.48-16.61-5.7-2.7-3.22-4-6.12-6.13-8.46-2.13-2.34-7.95-4.7-9.29-7.53-.83-2-.32-5.09 0-6.2a36.891 36.891 0 0 0 1.18-6.26c.07-1.62-.24-2.76 1-3l.75 2.46c1.5 3.7 2.08 4.27 3.25 5.54 1.53 1.69 2.74 2 4.09 3.22-.9-2.53-2.16-4.17-1-5.6.63-.79 1.41-1.44 4.86-2.36 3.45-.92 7.04-1.01 7.64-.51Z"/><path fill="#37474F" d="M190 453.66c-5.41.57-13.91-2.48-16.61-5.71a35.346 35.346 0 0 1-2.39-3.35c.2.19.39.4.57.56.39.34.79.67 1.21 1a12.005 12.005 0 0 0 5.48 2.64c1.81.24 6.27 1 7.54-.89.71-1 .23-2.62-.72-3.78-.4-.49-1.59-1.64-1.59-1.64a19.896 19.896 0 0 1 5.1-3.69c3.55-1.62 3.89-1.26 3.89-1.26a8.583 8.583 0 0 0 2.37 1.6 6.64 6.64 0 0 0 2.71.57 4.347 4.347 0 0 0 1-.23c2.53 1.74 4.53 3.49 4.71 7.15-.05 2.45-2.63 5.91-13.27 7.03Z"/><path fill="#37474F" d="M182.87 425.75a4.71 4.71 0 0 0 .91 1.69 49.224 49.224 0 0 0 5.92 6.59 6.91 6.91 0 0 1 1.84 2.79c.047.455.141.904.28 1.34a.778.778 0 0 0 .8.55A1.466 1.466 0 0 0 194 438c.12-.398.12-.822 0-1.22-.05-.27-.11-.53-.18-.79a86.215 86.215 0 0 1-8.18-6.79 19.578 19.578 0 0 1-2.77-3.45Zm-21.02-.75a19.85 19.85 0 0 1-2.85-4.54c0-.35.08-.68.09-1 .07-1.62-.24-2.76 1-3l.75 2.46a16.26 16.26 0 0 0 3.16 4.78c1.85 1.83 2.83 2.84 4.18 4.07 4.19 4.21 5.17 6.29 9.47 9.72 4.3 3.43 8 4.46 7.85 5.28-.15.82-1.49 1.81-5.36-.27s-9.09-7.61-11.33-10.62c-2.24-3.01-4.46-4.02-6.96-6.88Z"/><path fill="#263238" d="M183.22 442.56a.508.508 0 0 0 .29-.13c3-2.55 5-3.58 9.39-3.78a.56.56 0 0 0 .52-.57.538.538 0 0 0-.57-.52c-4.66.21-6.89 1.33-10 4.05a.54.54 0 0 0 .42.95h-.05Zm-3.15-2.84c.104-.022.2-.07.28-.14a14.63 14.63 0 0 1 9.88-4.28.549.549 0 0 0 .51-.61.567.567 0 0 0-.61-.51 15.74 15.74 0 0 0-10.52 4.57.56.56 0 0 0-.05.79.582.582 0 0 0 .51.18Zm-3.77-2.8a.648.648 0 0 0 .31-.15 16.622 16.622 0 0 1 11-4.93.625.625 0 0 0 .508-.676.625.625 0 0 0-.638-.554c-5.38.58-8.19 2-11.7 5.25a.62.62 0 0 0 0 .87.62.62 0 0 0 .52.19Zm-3.17-3.45a.572.572 0 0 0 .3-.15 16.211 16.211 0 0 1 10.79-4.73.607.607 0 0 0 .57-.421c.026-.081.035-.165.026-.249a.613.613 0 0 0-.24-.427.602.602 0 0 0-.476-.113 17.44 17.44 0 0 0-11.48 5 .622.622 0 0 0 0 .86.603.603 0 0 0 .51.23Zm-3.13-3.61a.524.524 0 0 0 .3-.14c3.35-2.86 6.53-4 11.57-4.31a.627.627 0 0 0 .56-.65.618.618 0 0 0-.65-.56c-5.29.38-8.71 1.57-12.26 4.6a.601.601 0 0 0 .48 1.06Z"/><path fill="#455A64" d="M192.82 240.56s3.8 12.64-2 22.83c-7.67 13.45-19.25 16.88-23.53 17.79 0 0 4.52 33.87 6.16 45.86 1 7.67 1.8 15.91 3.08 41.16.81 16.1 1.9 38.51 1.9 38.51s-3 3.45-11 3.88c-7.47.41-9.89-1.25-9.89-1.25s-11.12-32.91-12.86-45.82a93.377 93.377 0 0 1-.32-18.44c0-5.56-16.21-38.46-19-53.92-2.79-15.46-2.1-27.36 3.73-49.84l63.73-.76Z"/><path fill="#FFBDA7" d="M208 80.72c1.24-2.75 4-8.45 4-12.35 0-4.73-2.09-4.25-2.09-4.25.85-3.92-1-5.43-1.93-5.44a7.993 7.993 0 0 0-.12-3c-.38-1.37-2.12-1.07-3.43.22-1.05 1-1.62 4-1.62 4s.46-3.18-.87-3.41c-1.33-.23-2.85.54-3.7 3-.58 1.63-.7 4.21-3.38 9.92-2.68 5.71-2.39 4.62-3.3.85-.91-3.77-2.39-5.14-4.2-5.08-1.47 0-.66 4.53-.79 8.64a24.392 24.392 0 0 0 1.5 10c1.38 4.29 3.59 5.54 4.39 8 1.83 5.74 9.31 36.44 9.31 36.44s-1.49 4.45-5.31 13.93c-2.46 6.12-6 16.92-10.69 19.77-4.24 16 4.77 32.62 13.18 35.19 1.06-2.35 11.64-27.91 20.29-51.74 1.4-3.85 4-12.58 4.12-15.69.12-3.11-1.05-6.18-2.25-9.58-1.3-3.73-11-23.6-13-29.57a14.372 14.372 0 0 1-.05-9.89"/><path fill="#E0E0E0" d="M193.6 97.67c7 2.75 14.46-2.23 15.48-4.33 0 0 8.66 17.1 11.65 24.4 3.59 8.79 4 10.69 1.42 19.82-3.25 11.52-24 63.44-24 63.44-15.66-11.76-19-32.49-12.11-39.55 0 0 2.24-2.26 5.79-9.59s9.56-23.59 9.56-23.59l-7.79-30.6Z"/><path fill="#F0997A" d="M194.8 69.43a44.107 44.107 0 0 0 1.93-4.43 38.439 38.439 0 0 0 1.36-4.68c.39-1.5 1.23-3.13 2.76-3.52a2.27 2.27 0 0 1 1.1 0 1.074 1.074 0 0 1 .57.82c.13.778.13 1.572 0 2.35a.202.202 0 0 0 .003.077.19.19 0 0 0 .167.143.21.21 0 0 0 .31-.19c.185-.929.463-1.837.83-2.71a3.621 3.621 0 0 1 1.81-2c.8-.44 1.86-.38 2 .55.212.908.249 1.848.11 2.77a.25.25 0 0 0 .006.094.246.246 0 0 0 .204.176 1.77 1.77 0 0 1 1.15.73c.311.397.53.858.64 1.35a7.174 7.174 0 0 1-.05 3.09.212.212 0 0 0 .002.075.193.193 0 0 0 .158.145h.08c.62-.09 1.21.53 1.44 1.21.244.702.382 1.437.41 2.18a13.394 13.394 0 0 1-.56 4.48 62.95 62.95 0 0 1-3.23 8.58 54.977 54.977 0 0 0 3.48-8.48 14 14 0 0 0 .62-4.56 7.51 7.51 0 0 0-.41-2.3 1.868 1.868 0 0 0-1.86-1.45l.23.23a7.503 7.503 0 0 0 .08-3.27 4 4 0 0 0-.7-1.53 2.176 2.176 0 0 0-1.5-.91l.23.27a7.99 7.99 0 0 0-.09-3 1.403 1.403 0 0 0-1.13-1.15 2.501 2.501 0 0 0-1.54.31 3.998 3.998 0 0 0-2 2.2 13.903 13.903 0 0 0-.83 2.81l.42.11a6.981 6.981 0 0 0-.08-2.5 1.373 1.373 0 0 0-.8-1.06 2.49 2.49 0 0 0-1.3 0c-1.74.49-2.56 2.25-3 3.78-.44 1.53-.74 3.16-1.25 4.7a47.014 47.014 0 0 1-1.77 4.51Z"/><path fill="#F0997A" d="M209.79 63.88a3.562 3.562 0 0 0-2.18 2.49 7.878 7.878 0 0 0-.28 1.62 7.63 7.63 0 0 1-.42 1.52 49.875 49.875 0 0 1-2.77 5.82 51.108 51.108 0 0 0 3-5.73c.223-.5.391-1.023.5-1.56a7.522 7.522 0 0 1 .32-1.55 3.147 3.147 0 0 1 2-2.13l-.17-.48Zm-1.86-5.45a2.056 2.056 0 0 0-1.77 1.23 7.845 7.845 0 0 0-.71 1.94 28.34 28.34 0 0 1-1 3.89 38.682 38.682 0 0 1-1.45 3.75l-1.75 3.63 1.86-3.58a34.552 34.552 0 0 0 1.56-3.72 27.67 27.67 0 0 0 1.12-3.88 7.154 7.154 0 0 1 .72-1.81 1.605 1.605 0 0 1 1.37-1l.05-.45Zm-5.41 1.44c-.61 1.78-1.32 3.53-2.06 5.27-.74 1.74-1.51 3.46-2.41 5.12 1-1.62 1.81-3.32 2.64-5 .83-1.68 1.6-3.43 2.3-5.2l-.47-.19ZM191.5 70.28c.59 2.44.68 3.75 1.4 2.83-1.32 2.28-2.21 2.76-2.05 1.46.191-1.272.311-2.554.36-3.84a9.458 9.458 0 0 0-.57-3c.369.82.657 1.674.86 2.55Zm3.68 7.61a7.87 7.87 0 0 1 5.16-.09c.11 0 0 .21-.11.19-2.33-.32-5.17.15-6.72 2.09-.429.582-.81 1.197-1.14 1.84-.09.17-.27.35-.43.26-.16-.09-.1-.22-.09-.34a4.594 4.594 0 0 1 3.33-3.95Z"/><path fill="#F0F0F0" d="M164.77 165.06c-11 .94-17.21 4.26-20.8 2.2-5.44-3.14-7.88 1.32-7.88 1.32s-7.66 13.22-4.57 29.36c1.38 7.17 1.12 20.54.71 24-1.42 12-3.43 18.38-5.85 29.2 0 0 4.05 11.56 35.38 13.58C182 266 194.53 259 194.53 259s3.89-41 4.41-55.92a64.847 64.847 0 0 0-13.13-41c-.11-.12-.36-.07-.36-.07-6.52 2.92-10.71 2.2-20.68 3.05Z"/><path fill="#FFBDA7" d="M134.68 91.57c-.93-2.87-3-8.83-2.62-12.7.52-4.7 2.53-4 2.53-4-.43-4 1.62-5.28 2.5-5.2a8.007 8.007 0 0 1 .44-2.94c.52-1.32 2.22-.84 3.39.58.93 1.14 1.17 4.18 1.17 4.18s-.12-3.21 1.23-3.29c1.35-.08 2.78.83 3.37 3.34.4 1.68.25 4.25 2.3 10.22 2.05 5.97 1.89 4.85 3.19 1.2 1.3-3.65 2.92-4.86 4.72-4.61 1.45.2.17 4.57-.14 8.68a24.209 24.209 0 0 1-2.56 9.76c-1.82 4.12-4.15 5.13-5.21 7.53-2.44 5.5-13.49 32.68-13.49 32.68s2.68 11.24 5.81 21c1.66 5.13 3.3 6.88 5.55 10 2.51 16.4-6.18 32.15-14.82 33.81-.8-2.45-10-32-14.64-48.11-1.13-3.94-3.69-11.84-3.48-15 .21-3.16 2-6 3.55-9.27 1.7-3.56 13.42-22.29 16.11-28a14.379 14.379 0 0 0 1.1-9.83"/><path fill="#F0997A" d="M149 81.75a46.62 46.62 0 0 1-1.45-4.65 41.088 41.088 0 0 1-.85-4.8c-.22-1.53-.88-3.24-2.37-3.8a2.28 2.28 0 0 0-1.09-.11c-.32.06-.52.41-.65.76a6.899 6.899 0 0 0-.29 2.32.222.222 0 0 1-.06.143.222.222 0 0 1-.14.067.2.2 0 0 1-.2-.18 13.73 13.73 0 0 0-.53-2.79 3.608 3.608 0 0 0-1.6-2.14c-.74-.53-1.81-.58-2 .33a7.513 7.513 0 0 0-.4 2.75.226.226 0 0 1-.064.17.226.226 0 0 1-.166.07 1.742 1.742 0 0 0-1.22.6c-.351.364-.618.8-.78 1.28a6.991 6.991 0 0 0-.29 3.07.187.187 0 0 1-.099.188.187.187 0 0 1-.071.022h-.08c-.62-.16-1.27.4-1.56 1a7.328 7.328 0 0 0-.65 2.13 13.683 13.683 0 0 0 .08 4.51 62.204 62.204 0 0 0 2.28 8.85 53.737 53.737 0 0 1-2.55-8.8 13.726 13.726 0 0 1-.13-4.61 7.457 7.457 0 0 1 .65-2.24 1.871 1.871 0 0 1 2-1.24l-.25.2a7.526 7.526 0 0 1 .27-3.26 3.877 3.877 0 0 1 .86-1.44 2.192 2.192 0 0 1 1.58-.75l-.25.25a7.995 7.995 0 0 1 .4-3 1.423 1.423 0 0 1 1.25-1 2.46 2.46 0 0 1 1.5.47 4.097 4.097 0 0 1 1.76 2.4c.268.944.442 1.912.52 2.89h-.4a7.207 7.207 0 0 1 .34-2.47 1.413 1.413 0 0 1 .92-1c.435-.07.881-.022 1.29.14 1.68.67 2.31 2.51 2.53 4.07.22 1.56.4 3.22.74 4.8.324 1.62.731 3.222 1.22 4.8Z"/><path fill="#F0997A" d="M134.68 74.63a3.555 3.555 0 0 1 1.9 2.71 7.57 7.57 0 0 1 .1 1.64c.034.527.121 1.05.26 1.56a50.884 50.884 0 0 0 2.13 6.07 50.439 50.439 0 0 1-2.37-6 8.581 8.581 0 0 1-.33-1.61 7.262 7.262 0 0 0-.15-1.57 3.183 3.183 0 0 0-1.72-2.33l.18-.47Zm2.43-5.22a2 2 0 0 1 1.62 1.41c.258.64.426 1.313.5 2a27.68 27.68 0 0 0 .57 4c.263 1.31.597 2.606 1 3.88l1.35 3.8-1.47-3.76a37.052 37.052 0 0 1-1.15-3.86 28.537 28.537 0 0 1-.7-4 7.017 7.017 0 0 0-.52-1.88 1.604 1.604 0 0 0-1.26-1.09l.06-.5Zm5.22 2.01c.42 1.83.94 3.65 1.49 5.46s1.13 3.6 1.85 5.35c-.8-1.72-1.45-3.5-2.09-5.28-.64-1.78-1.23-3.58-1.73-5.41l.48-.12ZM152.18 83c-.84 2.36-1.08 3.65-1.69 2.66 1.07 2.41 1.9 3 1.88 1.67a35.829 35.829 0 0 1 0-3.85 9.033 9.033 0 0 1 .89-2.91 12.69 12.69 0 0 0-1.08 2.43Zm-4.47 7.12a8 8 0 0 0-5.12-.64c-.12 0 0 .21.09.21 2.35-.08 5.12.7 6.46 2.79.369.638.68 1.307.93 2 .08.17.23.38.4.3.17-.08.13-.21.13-.33a4.58 4.58 0 0 0-2.89-4.33Z"/><path fill="#E0E0E0" d="M132.72 102.29c2.49 5.29 9.3 9.39 13.06 9.61l-9 25.66s2.4 9 4.05 15.55c1.8 7.08 4.4 14 7.32 14.79 0 0 5.08 17.42.27 27.9-7.15 15.61-15.87 17.39-15.87 17.39s-7.55-25.57-12.47-42.39c-4.92-16.82-6.39-22.94-7.33-29.65-.54-3.9.57-7.89 5-15.15 4.43-7.26 14.97-23.71 14.97-23.71Z"/><path fill="#433B30" d="M171.156 108.061c-8.205-1.094-16.411 2.735-20.787 9.847-4.376.547-6.291 4.376-6.565 8.752-.273 14.77 12.309 20.787 14.77 27.352l28.173-28.993c0-5.197-1.915-15.591-15.864-16.958h.273Z"/><path fill="#433B30" d="m144.625 116.266 6.018 1.368c-.547 1.641-2.188 2.735-3.83 2.188-1.641-.547-2.461-1.915-2.188-3.556Z"/><path fill="#433B30" d="m149.001 112.163 1.641 5.744c-1.641.547-3.282-.547-3.829-2.188-.547-1.641.547-3.282 2.188-3.556Z"/><path fill="#FFBDA7" d="M165.686 120.916c0 1.094-.547 1.915-1.094 2.735-1.094 1.641-3.008 2.462-3.829 4.103-.821 1.641 0 3.282 0 5.197 0 1.094-.547 2.188-1.368 3.009-2.461 1.914-4.102-1.915-5.743-2.736-2.189-1.367-5.197-.82-6.565 1.641 0 .274-.273.548-.547 1.095-1.094 3.829.274 8.205 3.829 10.393 1.915 1.094 4.65.821 6.018-1.094 0 0 0 17.505 1.094 21.557S173.5 176 177 181c4-9 4.003-12.417.995-14.879v-9.648c1.641 0 3.829-.547 5.744-1.367 4.376-1.641 6.017-5.471 6.837-10.394.821-6.017-.82-11.761-1.641-16.685 0-3.282-1.094-6.564-2.461-9.573-1.915-3.008-5.197-1.641-8.479-2.461-3.83-1.094-7.932-.821-11.488 1.094 0 0-.274 0-.274.273v3.283l-.547.273Z"/><path fill="#F0997A" d="m175.806 128.301 2.735 11.761 5.744-3.008-8.479-8.753Z"/><path fill="#B16668" d="m172.798 143.071 6.564 1.368c-.273 1.641-2.188 3.008-3.829 2.461-1.915-.547-3.009-2.188-2.462-4.102l-.273.273Z"/><path fill="#F28F8F" d="M175.26 147.174h.273c0-1.641-1.367-3.009-3.009-3.009 0 1.368 1.094 2.462 2.462 3.009h.274Z"/><path fill="#263238" d="m170.336 126.113-4.103 2.461c-.82-1.094-.273-2.461.821-3.282 1.094-.821 2.461-.273 3.282.821Zm-1.641 6.565c0 1.094 1.094 1.914 2.188 1.641 1.094 0 1.914-1.094 1.914-1.915 0-.82-1.094-1.914-1.914-1.914h-.274c-1.094 0-1.914 1.094-1.641 2.188h-.273Zm13.949-1.915c0 1.094 1.368 1.641 2.462 1.367.82 0 1.641-1.094 1.367-1.914 0-1.094-1.094-1.915-2.188-1.641-1.094 0-1.914 1.094-1.641 2.188Z"/><path fill="#F0997A" d="M177.721 156.2c-3.282 0-6.565 0-9.847-.821-3.556-.547-6.291-2.735-7.932-6.017.274 2.188 1.641 4.376 3.282 5.744 4.65 3.556 14.223 3.009 14.223 3.009v-2.189l.274.274Z"/><path fill="#433B30" d="M166.507 120.369c.273 0 .547 0 .82.274.547.273 1.094.82 1.641 1.367 1.915 2.189 4.377 3.83 7.112 4.377 1.641.273 3.282 0 4.923-.274-1.367 0-2.461-1.094-3.008-2.461 2.188 1.094 4.649 1.641 6.838.82 1.094-.273 1.914-1.094 2.461-2.188.547-1.094.547-2.188-.273-3.282 1.094.82 1.914 1.641 2.461 3.008 1.368-1.914 1.368-4.102.274-6.291-1.094-1.914-2.462-3.555-4.65-4.649 1.641-1.094 2.188-3.283 1.368-5.197h-.274c-2.735 2.188-6.291 1.094-9.3 0-3.829-1.094-7.658-1.641-11.761-1.368-6.291.547-16.411 4.924-15.59 12.856 2.735 0 5.47 0 7.932.82.82.274 1.641 1.094 2.735 1.368 1.094.547 2.462.82 3.829.82h2.462Z"/><path fill="#E0E0E0" d="M178.16 181.72a62.574 62.574 0 0 0-4.26-5.12c-1.35-1.27-6.21-2.93-11-6.18-4.79-3.25-6-6.38-6-6.38l.19-2.34s-.49-.43-1.27 1.22c-1.21 2.57-4.41 4.39-4.41 4.39a19.399 19.399 0 0 0 5.76 10.16 35.92 35.92 0 0 0 12.72 7.38 31.52 31.52 0 0 1 2.76-5.37c1.53-1.78 4.02.71 5.51 2.24Z"/><path fill="#E0E0E0" d="M177.16 181.72s.55-3.95.71-6.24a31.39 31.39 0 0 0-.56-7.9l.51-5.67s1.94 1.8 2.73 2.44c.473.39.975.744 1.5 1.06 0 0 1.55 2.05 2.3 6.7a31.488 31.488 0 0 1-.17 10.48s-2.75-5-3.93-5.59c-1.18-.59-1.82 2.23-3.09 4.72Z"/><path fill="#38A0ED" d="m220.39 39.12.1 14.93-15.81 9.25-.02-15.1 15.73-9.08Z"/><path fill="#000" d="m220.39 39.12.1 14.93-15.81 9.25-.02-15.1 15.73-9.08Z" opacity=".2"/><path fill="#38A0ED" d="m444.93 434.35-120-182.47 39.27-22.67 120 182.47-39.27 22.67Z"/><path fill="#fff" d="m444.93 434.35-120-182.47 39.27-22.67 120 182.47-39.27 22.67Z" opacity=".2"/><path fill="#38A0ED" d="m324.93 251.88-65.41-37.79 39.28-22.68 65.4 37.8-39.27 22.67Z"/><path fill="#38A0ED" d="M298.82 191.41 204.66 48.2l15.73-9.08-59.8-16.87-10.9 57.68 15.69-9.06 94.17 143.22 39.27-22.68Z"/><path fill="#fff" d="M298.82 191.41 204.66 48.2l15.73-9.08-59.8-16.87-10.9 57.68 15.69-9.06 94.17 143.22 39.27-22.68Z" opacity=".2"/><path fill="#38A0ED" d="M149.69 79.93v15.12l11.7-6.75 89.31 135.81 66.43 38.35 104.24 158.29 23.56 13.6-120-182.47-65.41-37.79-94.14-143.22-15.69 9.06Z"/><path fill="#000" d="M149.69 79.93v15.12l11.7-6.75 89.31 135.81 66.43 38.35 104.24 158.29 23.56 13.6-120-182.47-65.41-37.79-94.14-143.22-15.69 9.06Z" opacity=".2"/><path fill="#000" d="m161.39 88.3 3.99-17.43-15.69 9.06v15.12l11.7-6.75Z" opacity=".2"/><path fill="#38A0ED" d="m354.84 101.81 61.85 35.71-30.93-56.81-30.92 21.1Z" opacity=".5"/><path fill="#38A0ED" d="m354.84 127.78 61.85 35.71-30.93-56.81-30.92 21.1Z" opacity=".3"/><path fill="#38A0ED" d="m354.84 153.75 61.85 35.71-30.93-56.81-30.92 21.1Z" opacity=".1"/></svg>