<svg xmlns="http://www.w3.org/2000/svg" width="500" height="500" fill="none"><path fill="#F5F5F5" d="M90 443.85C1.59 399.5 1.59 327.6 90 283.25c88.41-44.35 231.68-44.35 320.06 0s88.38 116.25 0 160.6c-88.38 44.35-231.7 44.35-320.06 0Z"/><path fill="#E6E6E6" d="M369.43 418.1c33.783 0 61.17-15.813 61.17-35.32 0-19.507-27.387-35.32-61.17-35.32s-61.17 15.813-61.17 35.32c0 19.507 27.387 35.32 61.17 35.32Zm-87.34-52.66c6.63 3.82 6.63 10 0 13.84s-17.36 3.83-24 0c-6.64-3.83-6.62-10 0-13.84s17.38-3.83 24 0Z"/><path fill="#E0E0E0" d="M76.7 181.63v16.17l38.76-22.38v22.38l33.38-19.28v-16.17l-16.69 9.64v-6.21l77.52-44.75v6.21l-16.7 9.63.01 38.55 16.69-9.64v6.21l-16.7 9.64.01 19.27-5.38 3.1v-64.02l-33.38 19.27v22.38l-44.14 25.48v-22.38L76.7 204v150.44l33.38-19.28v-44.75l19.38-11.19v-16.17l-33.38 19.27v41.65l-5.38 3.11v-67.13l5.38-3.11v19.28l38.76-22.38v28.58l-19.38 11.19v38.55l16.69-9.64v6.21l-60.82 35.12V178.53l60.82-35.12v6.21L76.7 181.63Z"/><path fill="#E0E0E0" d="m231.73 271.13-63.51 36.67v-22.37l-36.07 20.82v-6.2l16.69-9.64v-60.92l-38.76 22.37v-22.37L90.7 240.67v-25.48l5.38-3.1v19.27l72.14-41.65v-19.27l5.38-3.1v64.02l33.38-19.27v-19.27l5.37-3.11v70.24l-22.06 12.74v-6.21l16.69-9.64V218.3l-38.76 22.37v-44.75l-52.76 30.46v16.17l38.76-22.37v67.13l14-8.09v-22.38l22.07-12.74v6.21l-16.69 9.64v38.54l52.76-30.46V139.98l-16.69 9.63v-6.2l16.69-9.64V95.22l-55.45 32.02v-6.21l60.82-35.12v185.22Z"/><path fill="#38A0ED" d="m133.71 144.31-60.83 35.12v185.22l7.12 4.12 60.82-35.12v-6.21l-7.13-4.12-9.56 5.52v-30.31l19.38-11.19v-28.58l-7.13-4.12-31.61 18.26v-11l-7.13-4.12-5.38 3.11V328l7.14 4.12 5.37-3.11v-41.67L131 272.19v7.93l-19.38 11.19v44.75l-26.23 15.16V209l26.25-15.15V208l7.14 4.12 44.13-25.48v-22.37l26.25-15.15v55.78l7.13 4.12 5.38-3.1v-19.27l16.69-9.65v-6.2l-7.14-4.12-9.55 5.52v-30.31l16.69-9.63v-6.21l-7.14-4.12-77.51 44.75v6.21l7.13 4.12 9.56-5.52v7.93l-26.25 15.16v-14.14l-7.15-4.12-31.61 18.26v-7.93l55.45-32v-6.2l-7.13-4.14Z"/><path fill="#38A0ED" d="m240.43 90.93-7.14-4.12-60.82 35.12v6.21l7.13 4.12 48.32-27.9v30.31l-16.7 9.64v6.2l7.14 4.12 9.56-5.51v119.81l-45.63 26.34V265l16.71-9.67v-6.21l-7.15-4.12-22.07 12.74v22.38l-6.87 4v-58.9l-7.13-4.12-31.63 18.26v-7.96l45.63-26.34v36.51l7.13 4.12 31.63-18.26v30.31l-16.69 9.64v6.21l7.13 4.12L221.05 265v-70.27l-7.14-4.12-5.37 3.11V213l-26.25 15.15v-55.8l-7.14-4.11-5.37 3.1v19.27l-65 37.53v-11L97.64 213l-5.38 3.1v25.48l7.14 4.12 12.24-7.07v14.14l7.14 4.12 31.62-18.26v52.69L133.71 301v6.2l7.13 4.12 28.94-16.7v14.08l7.13 4.12 63.52-36.67V90.93Z"/><path fill="#000" d="m140.84 148.43-7.13-4.12-60.83 35.12 7.14 4.11 60.82-35.11Zm38.76-22.38-7.13-4.12 60.82-35.12 7.14 4.12-60.83 35.12Zm-55.45 54.39-7.13-4.12-31.63 18.26v8.24l38.76-22.38Zm26.25-1.02 7.13 4.12-33.38 19.28v-8.24l26.25-15.16Zm67.96-53.37-7.14-4.12-77.51 44.76 7.13 4.11 77.52-44.75Zm0 22.38 16.69-9.64-7.13-4.12-16.7 9.64 7.14 4.12Zm0 22.37-7.14-4.12-9.52 5.47-.03 8.29 16.69-9.64Zm-41.45 4.66-7.13-4.12 5.37-3.1 7.14 4.11-5.38 3.11Zm-7.13 15.15-65.01 37.53v8.24l72.14-41.65-7.13-4.12Zm-65.01 26.5-5.37 3.1-7.14-4.12 5.38-3.1 7.13 4.12Zm-5.37 47.86 5.37-3.11-7.13-4.12-5.38 3.11 7.14 4.12Zm19.38 75.21-7.14-4.12-26.25 15.16v8.23l33.39-19.27Zm22.06-12.74-7.13-4.12-9.56 5.52v8.24l16.69-9.64Zm-9.82-47.32 7.14 4.12-19.38 11.19-7.14-4.12 19.38-11.19Zm12.51-21.36-38.76 22.38v-8.24l31.63-18.26 7.13 4.12Zm-19.38-11.19 38.76-22.38-7.13-4.12-31.63 18.26v8.24Zm9.56 53.37 16.69-9.63 7.13 4.12-16.69 9.63-7.13-4.12Zm36.07-20.82 7.13 4.12-14 8.08v-8.24l6.87-3.96Zm0-22.38L191.85 245l7.13 4.12-22.07 12.74-7.13-4.12Zm12.51 45.77 52.76-30.46-7.13-4.12-45.63 26.34v8.24Zm33.38-41.65-16.69 9.64-7.13-4.12 16.69-9.64 7.13 4.12Zm0-44.75-33.38 19.27v-8.24l26.25-15.15 7.13 4.12Z" opacity=".1"/><path fill="#000" d="M80.02 368.76V183.54l-7.14-4.11v185.22l7.14 4.11Zm99.58-236.5v-6.21l-7.13-4.12v6.21l7.13 4.12Zm-22.07 51.28v-16.17l-7.13 4.12v7.93l7.13 4.12Zm-16.69-6.53v-6.21l-7.13-4.11v6.2l7.13 4.12Zm94.21-38.22-7.13-4.12v-30.31l7.13-4.12v38.55Zm-16.69 15.84v-6.2l-7.14-4.12v6.2l7.14 4.12Zm-22.07 54.39-7.13-4.11v-55.79l7.13-4.12v64.02Zm-19.38-14.29v-19.27l-7.13-4.12v19.27l7.13 4.12ZM99.4 245.69v-25.48l-7.14-4.12v25.48l7.14 4.12Zm77.51-44.75-7.13 4.12v36.51l7.13 4.12v-44.75Zm-58.13 11.19v-22.38l-7.14 4.12v14.14l7.14 4.12ZM99.4 332.1v-67.13l-7.14-4.12v67.13l7.14 4.12Zm19.38 8.08v-44.75l-7.14-4.12v44.75l7.14 4.12Zm19.38-55.94v-16.17l-7.14 4.12v7.93l7.14 4.12Zm-19.38-27.36V234.5l-7.14 4.12v14.14l7.14 4.12Zm31.62-18.26 7.13-4.12v60.93l-7.13-4.12v-52.69Zm-9.56 72.65-7.13-4.12v-6.21l7.13 4.12v6.21Zm36.07-27.03v-22.38l-7.13-4.12v22.38l7.13 4.12Zm0 28.58v-22.37l-7.13 4.12v14.13l7.13 4.12Zm58.14-39.77V145l-7.13 4.12v119.81l7.13 4.12Zm-36.07 4.66v-6.21l-7.13-4.12v6.21l7.13 4.12Zm16.69-15.85v-38.55l-7.13 4.13v30.3l7.13 4.12Zm0-44.75v-19.27l-7.13-4.12v19.27l7.13 4.12Z" opacity=".2"/><path fill="#38A0ED" d="M85.39 186.65v16.17l38.76-22.38v22.38l33.38-19.28v-16.17l-16.69 9.64v-6.21l77.52-44.75v6.21l-16.69 9.63v38.55l16.69-9.64v6.21l-16.69 9.64v19.27l-5.38 3.1V145l-33.38 19.27v22.38l-44.13 25.48v-22.38l-33.39 19.27v150.43l33.39-19.27v-44.75l19.38-11.19v-16.17l-33.39 19.27v41.65l-5.37 3.11v-67.13l5.37-3.11v19.28l38.76-22.38v28.58l-19.38 11.19v38.55l16.69-9.64v6.21l-60.82 35.11V183.54l60.82-35.11v6.2l-55.45 32.02Z"/><path fill="#38A0ED" d="m240.43 276.15-63.52 36.67v-22.37l-36.07 20.82v-6.21l16.69-9.63V234.5l-38.75 22.38V234.5L99.4 245.69v-25.48l5.37-3.1v19.27l72.14-41.65v-19.27l5.38-3.11v64.03l33.38-19.27v-19.27l5.38-3.11v70.23l-22.07 12.75v-6.21l16.69-9.64v-38.55l-38.76 22.38v-44.75l-52.76 30.46v16.17l38.76-22.38v67.13l14-8.08v-22.38l22.07-12.74v6.21l-16.69 9.64v38.54l52.76-30.46V145l-16.69 9.63v-6.2l16.69-9.64v-38.55l-55.45 32.02v-6.21l60.83-35.12v185.22Z"/><path fill="#455A64" d="M156.52 326c-.313 0-.613-.124-.834-.346a1.176 1.176 0 0 1-.346-.834v-5.89a1.172 1.172 0 0 1 .346-.834 1.161 1.161 0 0 1 .834-.346 1.181 1.181 0 0 1 .831.346 1.168 1.168 0 0 1 .339.834v5.89a1.182 1.182 0 0 1-.339.834 1.173 1.173 0 0 1-.831.346Zm0-12.69c-.313 0-.613-.124-.834-.346a1.176 1.176 0 0 1-.346-.834v-3.85l-3.34 1.93a1.179 1.179 0 0 1-1.61-.43 1.163 1.163 0 0 1-.122-.895 1.183 1.183 0 0 1 .552-.715l5.1-2.95a1.177 1.177 0 0 1 1.171-.005 1.179 1.179 0 0 1 .599 1.005v5.89a1.17 1.17 0 0 1-1.17 1.2ZM139 317.55a1.155 1.155 0 0 1-1-.59 1.17 1.17 0 0 1 .43-1.61l6.22-3.59a1.181 1.181 0 0 1 1.573 1.298 1.183 1.183 0 0 1-.393.702l-6.23 3.59a1.096 1.096 0 0 1-.6.2Zm-11.35 6.54a1.26 1.26 0 0 1-.59-.16 1.188 1.188 0 0 1-.58-1V317a1.187 1.187 0 0 1 .303-.904 1.183 1.183 0 0 1 1.744 0 1.187 1.187 0 0 1 .303.904v3.85l3.34-1.93c.134-.077.281-.126.434-.145a1.155 1.155 0 0 1 .867.238c.121.095.223.213.299.347a1.17 1.17 0 0 1 .121.89 1.157 1.157 0 0 1-.551.71l-5.1 2.95a1.21 1.21 0 0 1-.59.18Zm0-16.71a1.167 1.167 0 0 1-1.17-1.17v-5.89a1.188 1.188 0 0 1 .58-1l5.11-2.95a1.182 1.182 0 0 1 1.41.517 1.177 1.177 0 0 1-.24 1.483l-4.51 2.63v5.21a1.174 1.174 0 0 1-.729 1.084 1.182 1.182 0 0 1-.451.086Zm13.4-13.62a1.18 1.18 0 0 1-.59-2.2L145 289v-5.21a1.187 1.187 0 0 1 .303-.904 1.183 1.183 0 0 1 1.744 0 1.187 1.187 0 0 1 .303.904v5.89a1.19 1.19 0 0 1-.163.578 1.19 1.19 0 0 1-.427.422l-5.1 2.94a1.139 1.139 0 0 1-.61.14Zm5.1-19.76a1.177 1.177 0 0 1-.831-.346 1.168 1.168 0 0 1-.339-.834V262a1.187 1.187 0 0 1 .303-.904 1.183 1.183 0 0 1 1.744 0 1.187 1.187 0 0 1 .303.904v10.89a1.182 1.182 0 0 1-1.18 1.11Zm0-21.74a1.167 1.167 0 0 1-1.17-1.17v-3.85l-3.34 1.92a1.185 1.185 0 0 1-.962.271 1.19 1.19 0 0 1-.826-.564 1.19 1.19 0 0 1 .177-1.429c.122-.123.269-.218.431-.278l5.1-2.94a1.185 1.185 0 0 1 1.608.422c.103.175.159.374.162.578v5.89a1.167 1.167 0 0 1-1.18 1.15Zm-23.68 7.79a1.18 1.18 0 0 1-.59-2.2l9.29-5.36a1.17 1.17 0 0 1 1.61.43 1.19 1.19 0 0 1-.43 1.61l-9.3 5.36a1.1 1.1 0 0 1-.58.16Zm-14.4 8.31a1.18 1.18 0 0 1-1.18-1.16v-5.89c0-.313.124-.613.346-.834a1.176 1.176 0 0 1 1.668 0c.222.221.346.521.346.834v3.85l3.33-1.92a1.185 1.185 0 0 1 .962-.271c.171.028.333.093.476.19a1.195 1.195 0 0 1 .508.862 1.186 1.186 0 0 1-.335.942 1.186 1.186 0 0 1-.431.277l-5.1 2.94a1.144 1.144 0 0 1-.59.18Zm0-16.8c-.313 0-.613-.124-.834-.346a1.176 1.176 0 0 1-.346-.834v-3.85l-3.33 1.93a1.185 1.185 0 0 1-.962.271 1.19 1.19 0 0 1-.826-.564 1.186 1.186 0 0 1 .178-1.43c.121-.122.268-.217.43-.277l5.1-2.95a1.177 1.177 0 0 1 1.171-.006 1.182 1.182 0 0 1 .599 1.006v5.89a1.178 1.178 0 0 1-1.18 1.16ZM88.42 257c-.206 0-.409-.051-.59-.15a1.186 1.186 0 0 1-.59-1V250a1.178 1.178 0 0 1 2.014-.834c.222.221.346.521.346.834v3.85l3.33-1.93a1.181 1.181 0 0 1 1.788.293 1.185 1.185 0 0 1-.178 1.43 1.193 1.193 0 0 1-.43.277l-5.1 3c-.187.075-.39.102-.59.08Zm0-16.87a1.17 1.17 0 0 1-1.18-1.13v-11a1.178 1.178 0 0 1 2.014-.834c.222.221.346.521.346.834v11a1.17 1.17 0 0 1-1.18 1.13Zm0-21.98a1.18 1.18 0 0 1-1.18-1.15v-5.89a1.19 1.19 0 0 1 .59-1l5.1-2.94a1.181 1.181 0 0 1 1.788.293 1.185 1.185 0 0 1-.178 1.43 1.193 1.193 0 0 1-.43.277l-4.51 2.6V217a1.18 1.18 0 0 1-1.18 1.15Zm19.65-11.34a1.191 1.191 0 0 1-.834-.346 1.161 1.161 0 0 1-.346-.834v-3.85l-3.33 1.92a1.185 1.185 0 0 1-.962.271 1.19 1.19 0 0 1-.826-.564 1.186 1.186 0 0 1 .178-1.43c.121-.122.268-.217.43-.277l5.1-2.94a1.177 1.177 0 0 1 1.171-.006 1.182 1.182 0 0 1 .599 1.006v5.89a1.178 1.178 0 0 1-1.18 1.16Zm0 16.48c-.206 0-.409-.051-.59-.15a1.196 1.196 0 0 1-.59-1v-5.89c0-.313.124-.613.346-.834a1.176 1.176 0 0 1 1.668 0c.222.221.346.521.346.834v3.85l3.33-1.93a1.18 1.18 0 0 1 1.18 2l-5.1 2.95a1.226 1.226 0 0 1-.59.17Zm14.63-8.44a1.205 1.205 0 0 1-1-.59 1.183 1.183 0 0 1 .43-1.61l9.54-5.51c.134-.077.281-.126.434-.145a1.155 1.155 0 0 1 .867.238c.122.095.223.213.299.347a1.17 1.17 0 0 1 .121.89 1.157 1.157 0 0 1-.551.71l-9.53 5.51a1.24 1.24 0 0 1-.61.16Zm19.07-11a1.155 1.155 0 0 1-1-.59 1.17 1.17 0 0 1 .43-1.61l9.53-5.5a1.181 1.181 0 0 1 1.573 1.298 1.183 1.183 0 0 1-.393.702l-9.54 5.5c-.177.12-.386.187-.6.19v.01Zm19.06-11.02a1.168 1.168 0 0 1-1.096-1.623c.101-.24.279-.44.506-.567l4.51-2.61v-5.21c0-.313.124-.613.346-.834a1.176 1.176 0 0 1 1.668 0c.222.221.346.521.346.834v5.89a1.186 1.186 0 0 1-.59 1l-5.1 3a1.265 1.265 0 0 1-.59.12Zm5.1-19.43c-.313 0-.613-.124-.834-.346a1.176 1.176 0 0 1-.346-.834v-5.89a1.186 1.186 0 0 1 .59-1l5.1-2.94a1.185 1.185 0 0 1 .962-.271c.171.028.333.093.476.19a1.195 1.195 0 0 1 .508.862 1.186 1.186 0 0 1-.335.942 1.186 1.186 0 0 1-.431.277l-4.51 2.6v5.21a1.178 1.178 0 0 1-1.18 1.2ZM185.7 162a1.167 1.167 0 0 1-1.17-1.17V157l-3.34 1.92a1.177 1.177 0 0 1-1.446.086 1.183 1.183 0 0 1-.44-1.379 1.182 1.182 0 0 1 .716-.707l5.1-2.94a1.176 1.176 0 0 1 1.163.002 1.178 1.178 0 0 1 .597.998v5.89a1.17 1.17 0 0 1-1.18 1.13Zm0 44.22a1.181 1.181 0 0 1-.831-.346 1.168 1.168 0 0 1-.339-.834V194a1.187 1.187 0 0 1 .303-.904 1.183 1.183 0 0 1 1.744 0 1.184 1.184 0 0 1 .303.904v11a1.187 1.187 0 0 1-.331.86 1.181 1.181 0 0 1-.849.36Zm0-22.12a1.167 1.167 0 0 1-1.17-1.17v-11.06a1.187 1.187 0 0 1 .303-.904 1.183 1.183 0 0 1 1.744 0 1.184 1.184 0 0 1 .303.904v11.06a1.174 1.174 0 0 1-.729 1.084 1.178 1.178 0 0 1-.451.086Zm0 39.07a1.1 1.1 0 0 1-.58-.16 1.17 1.17 0 0 1-.59-1v-5.91a1.18 1.18 0 0 1 2.35 0v3.9l3.34-1.92a1.182 1.182 0 0 1 1.557 1.302c-.044.27-.181.517-.387.698l-5.1 2.94a1.11 1.11 0 0 1-.59.15Zm14.17-8.17a1.18 1.18 0 0 1-.59-2.2l4.51-2.61V205a1.18 1.18 0 0 1 2.35 0v5.89a1.173 1.173 0 0 1-.59 1l-5.1 3c-.18.089-.38.127-.58.11Zm5.13-19.38a1.157 1.157 0 0 1-1.084-.729 1.178 1.178 0 0 1-.086-.451v-5.89a1.173 1.173 0 0 1 .59-1l5.1-2.95a1.177 1.177 0 0 1 1.445-.086 1.175 1.175 0 0 1 .441 1.379 1.174 1.174 0 0 1-.716.707l-4.51 2.6v5.21a1.19 1.19 0 0 1-.335.854c-.11.113-.241.202-.387.263a1.165 1.165 0 0 1-.458.093Zm14.24-14.14a1.168 1.168 0 0 1-1.096-1.623c.101-.24.279-.44.506-.567l4.52-2.61v-5.21a1.187 1.187 0 0 1 .303-.904 1.177 1.177 0 0 1 .872-.384 1.19 1.19 0 0 1 .872.384 1.184 1.184 0 0 1 .303.904v5.89a1.173 1.173 0 0 1-.59 1l-5.1 3c-.184.088-.386.13-.59.12Zm5.1-19.43a1.174 1.174 0 0 1-1.084-.729 1.182 1.182 0 0 1-.086-.451V157l-3.34 2a1.18 1.18 0 0 1-1.18-2l5.11-2.95a1.185 1.185 0 0 1 1.163.001 1.18 1.18 0 0 1 .597.999v5.89a1.182 1.182 0 0 1-1.18 1.11Zm-19.34 5.3a1.1 1.1 0 0 1-.58-.16 1.17 1.17 0 0 1-.59-1v-5.89a1.18 1.18 0 0 1 2.35 0v3.85l3.34-1.92a1.177 1.177 0 0 1 1.446-.086 1.183 1.183 0 0 1 .44 1.379 1.174 1.174 0 0 1-.716.707l-5.1 2.94c-.176.115-.38.177-.59.18Zm0-16.49a1.167 1.167 0 0 1-1.17-1.17v-5.89a1.173 1.173 0 0 1 .59-1l5.1-2.95a1.177 1.177 0 0 1 1.446-.086 1.183 1.183 0 0 1 .44 1.379 1.174 1.174 0 0 1-.716.707l-4.51 2.61v5.21a1.168 1.168 0 0 1-1.18 1.19Zm14.24-14.13a1.18 1.18 0 0 1-.59-2.2l4.52-2.6v-5.21a1.187 1.187 0 0 1 .303-.904 1.183 1.183 0 0 1 1.744 0 1.187 1.187 0 0 1 .303.904v5.89a1.173 1.173 0 0 1-.59 1l-5.1 2.94a1.144 1.144 0 0 1-.59.18Zm5.1-19.11a1.167 1.167 0 0 1-1.17-1.17v-3.85l-3.34 1.92a1.18 1.18 0 0 1-1.18-2l5.11-2.94a1.183 1.183 0 0 1 1.76 1v5.89a1.167 1.167 0 0 1-1.18 1.15Zm-51.2 23.67a1.168 1.168 0 0 1-1.096-1.623c.101-.24.279-.44.506-.567l11.53-6.66a1.181 1.181 0 0 1 1.573 1.298 1.183 1.183 0 0 1-.393.702l-11.53 6.66c-.177.113-.38.178-.59.19ZM196.19 128a1.18 1.18 0 0 1-.59-2.2l11.53-6.66a1.181 1.181 0 0 1 1.573 1.298 1.183 1.183 0 0 1-.393.702l-11.53 6.66c-.174.12-.379.189-.59.2Zm-39.67 22.89c-.206.002-.41-.05-.59-.15a1.17 1.17 0 0 1-.59-1v-5.89a1.187 1.187 0 0 1 .303-.904 1.183 1.183 0 0 1 1.744 0 1.187 1.187 0 0 1 .303.904v3.85l3.33-1.93a1.181 1.181 0 0 1 1.573 1.298 1.183 1.183 0 0 1-.393.702l-5.1 3a1.25 1.25 0 0 1-.58.12Zm0-16.74a1.172 1.172 0 0 1-.834-.346 1.161 1.161 0 0 1-.346-.834v-5.89a1.18 1.18 0 0 1 2.35 0V133a1.167 1.167 0 0 1-1.17 1.15Z"/><path fill="#E0E0E0" d="M150.82 78.84c-5.75 3.33-10.42 12.24-10.42 19.91 0 11 6.83 8.92 6.83 13.36a1.24 1.24 0 0 0 1.05 1.35c1.4.27 3.68-1 5.08-2.93a4.641 4.641 0 0 0 1-2.57c0-4.44 6.83-10.21 6.83-21.24.05-7.67-4.62-11.2-10.37-7.88Zm6 14.71a4.737 4.737 0 0 1-2.4 2.33c-.22.86-.44 1.87-.64 3a61.25 61.25 0 0 0-.86 9.86 1.002 1.002 0 0 1-.42.83c-.23.14-.42 0-.43-.31.033-3.396.344-6.784.93-10.13.18-1.1.4-2.12.63-3-.368.037-.741.01-1.1-.08a3.71 3.71 0 0 1-1.68-.92 19.06 19.06 0 0 1-1.68 2.86c-.336.474-.704.925-1.1 1.35.262.758.473 1.533.63 2.32.594 3.014.892 6.078.89 9.15a.997.997 0 0 1-.44.81c-.24.13-.43 0-.42-.34a47.22 47.22 0 0 0-.86-8.86 15.296 15.296 0 0 0-.65-2.31c-1.05.81-1.9.88-2.39.45a1.998 1.998 0 0 1-.19-2.26 2.189 2.189 0 0 1 1.17-1.33c.68-.21 1.34.33 1.91 1.52.363-.378.697-.782 1-1.21a17.61 17.61 0 0 0 1.6-2.77 3.93 3.93 0 0 1-.63-2.86 2.676 2.676 0 0 1 1.16-1.81c.57-.33 1-.15 1.16.47a7.255 7.255 0 0 1-.63 3.59 3.31 3.31 0 0 0 1.6.91 2.65 2.65 0 0 0 1 .06 8.404 8.404 0 0 1 1.91-3.72c.45-.37.87-.38 1.17 0a2.521 2.521 0 0 1-.22 2.4h-.02Z"/><path fill="#E0E0E0" d="M154.53 109.36v3.53a4.755 4.755 0 0 1-1.09 2.65c-1.44 1.94-3.8 3.3-5.24 3a1.26 1.26 0 0 1-.477-.174 1.285 1.285 0 0 1-.593-1.316v-3.15a1.26 1.26 0 0 0 1.07 1.1c1.44.28 3.8-1.08 5.24-3a4.705 4.705 0 0 0 1.09-2.64Z"/><path fill="#37474F" d="M156 110.26a4.705 4.705 0 0 1-1.09 2.64 7.693 7.693 0 0 1-4.36 3l-2-1.13V118a1.37 1.37 0 0 0 .58 1.31l3.68 2.12c.141.083.298.137.46.16 1.44.28 3.79-1.08 5.23-3a4.755 4.755 0 0 0 1.09-2.65v-3.53l-3.59-2.15Z"/><path fill="#455A64" d="m149.18 119.28 3.68 2.12c.141.083.298.137.46.16.156.016.314.016.47 0l-1.55-1.52v-3.18l-1.69-1-2-1.13V118a1.364 1.364 0 0 0 .63 1.28Zm9.93-40.08c-1.83-1.06-4.21-1-6.82.54-5.75 3.32-10.41 12.24-10.41 19.91 0 11 6.82 8.92 6.82 13.36a1.288 1.288 0 0 0 .59 1.18l3.64 2.1c.142.085.298.142.46.17 1.41.27 3.68-1 5.09-2.93a4.635 4.635 0 0 0 1.05-2.57c0-4.44 6.82-10.21 6.82-21.24 0-4.19-1.39-7.15-3.6-8.42l-3.64-2.1Z"/><path fill="#38A0ED" d="M161.05 95.28a6.43 6.43 0 0 0-1.19 2.42 3.236 3.236 0 0 0 1.38-1.41c.08-.16.33-.72.12-1a.189.189 0 0 0-.24-.067.184.184 0 0 0-.07.057Zm-5.2-1.19a.646.646 0 0 0-.33.5 2.65 2.65 0 0 0 .33 1.69 4.637 4.637 0 0 0 .33-2.07c-.04-.16-.11-.21-.33-.12Zm-5.21 7.2h-.06a.66.66 0 0 0-.24.36.68.68 0 0 0 .12.84c.27.23.76.22 1.37-.19-.46-.82-.9-1.1-1.19-1.01Z"/><path fill="#38A0ED" d="M155.93 81.84c-5.75 3.33-10.41 12.24-10.41 19.91 0 11 6.82 8.92 6.82 13.36a1.237 1.237 0 0 0 1 1.35c1.41.27 3.68-1 5.09-2.93a4.635 4.635 0 0 0 1.05-2.57c0-4.44 6.82-10.21 6.82-21.24.05-7.67-4.61-11.2-10.37-7.88Zm6 14.71a4.777 4.777 0 0 1-2.4 2.33c-.23.86-.45 1.87-.64 3a59.894 59.894 0 0 0-.86 9.86 1.056 1.056 0 0 1-.12.464c-.074.144-.18.269-.31.366-.24.14-.43 0-.43-.31a61.46 61.46 0 0 1 .88-10.17c.19-1.1.4-2.13.64-3-.369.038-.741.01-1.1-.08a3.799 3.799 0 0 1-1.69-.92 18.66 18.66 0 0 1-1.68 2.86c-.33.479-.698.93-1.1 1.35.267.757.481 1.533.64 2.32a46.66 46.66 0 0 1 .88 9.14 1.068 1.068 0 0 1-.43.82c-.24.13-.43 0-.43-.34a46.392 46.392 0 0 0-.86-8.86 15.412 15.412 0 0 0-.64-2.31c-1.05.81-1.9.87-2.4.45a1.998 1.998 0 0 1-.18-2.26 2.164 2.164 0 0 1 1.17-1.33c.68-.21 1.34.33 1.9 1.52.363-.378.698-.782 1-1.21a17.34 17.34 0 0 0 1.61-2.77 3.876 3.876 0 0 1-.63-2.86 2.636 2.636 0 0 1 1.15-1.81c.58-.33 1-.15 1.16.47a7 7 0 0 1-.63 3.59c.441.448.999.764 1.61.91.326.084.666.104 1 .06A8.312 8.312 0 0 1 161 94.1c.45-.37.88-.38 1.17 0a2.527 2.527 0 0 1-.17 2.45h-.07Z"/><path fill="#38A0ED" d="M159.64 112.36v3.53a4.748 4.748 0 0 1-1.09 2.65c-1.44 1.94-3.79 3.3-5.23 3a1.304 1.304 0 0 1-1.061-.983 1.292 1.292 0 0 1-.019-.507v-3.18a1.277 1.277 0 0 0 1.08 1.14c1.44.28 3.79-1.08 5.23-3a4.704 4.704 0 0 0 1.09-2.65Z"/><path fill="#37474F" d="m152.89 116.26-3.6-2.07a1.29 1.29 0 0 1-.59-1.18c0-4.44-6.82-2.33-6.82-13.36a24.006 24.006 0 0 1 1.37-7.65c1.26.73 2.89 1.68 3.64 2.1a24.019 24.019 0 0 0-1.37 7.68c0 11 6.82 8.92 6.82 13.36a1.29 1.29 0 0 0 .129.632c.097.196.242.364.421.488Zm.5.2a1.339 1.339 0 0 1-.46-.17c.144.08.299.138.46.17Z"/><path fill="#F0F0F0" d="M152.83 74c-.49.29-.89 0-.89-.67V66.5a2.137 2.137 0 0 1 .89-1.7c.49-.28.89 0 .89.67v6.82a2.125 2.125 0 0 1-.89 1.71Zm-8.06 7.52c-.43.57-1 .69-1.21.27L141 77.36a1.862 1.862 0 0 1 .32-1.8c.43-.57 1-.69 1.22-.27l2.55 4.43a1.857 1.857 0 0 1-.32 1.8Zm-5.91 11.28c-.24.71-.78 1.21-1.21 1.13l-4.42-.85c-.43-.08-.57-.72-.33-1.43.24-.71.79-1.21 1.21-1.13l4.43.85c.46.08.57.72.32 1.43Zm-2.16 12a2.143 2.143 0 0 1-.88 1.7l-5.12 3c-.49.28-.88 0-.88-.67a2.108 2.108 0 0 1 .88-1.7l5.12-3c.49-.28.88.02.88.67Zm2.16 9.51a1.858 1.858 0 0 1-.32 1.8l-4.43 6c-.42.57-1 .69-1.21.27a1.866 1.866 0 0 1 .33-1.8l4.42-6c.43-.58.97-.7 1.21-.27Zm27.94-16.13c.25-.71.79-1.22 1.21-1.14l4.43.86c.42.08.57.72.32 1.42-.25.7-.78 1.22-1.21 1.14l-4.42-.85c-.43-.09-.57-.73-.33-1.43Zm2.2-12a2.112 2.112 0 0 1 .89-1.7l5.11-3c.49-.28.89 0 .89.67a2.149 2.149 0 0 1-.89 1.7l-5.11 2.95c-.53.33-.89.03-.89-.62Zm-2.2-9.51a1.866 1.866 0 0 1 .33-1.8l4.42-6c.43-.58 1-.7 1.21-.27a1.863 1.863 0 0 1-.32 1.8l-4.43 6c-.42.6-.96.7-1.21.27Zm-5.9-4.46c-.43-.08-.57-.72-.33-1.43l2.56-7.38c.24-.71.78-1.21 1.21-1.13.43.08.57.72.32 1.43l-2.55 7.38c-.25.7-.79 1.21-1.21 1.13Z"/><path fill="#E0E0E0" d="M154.13 361.15a2.072 2.072 0 0 1 2.36-.1 2.916 2.916 0 0 1 1 2.5 7.657 7.657 0 0 1-1 3.62 6.36 6.36 0 0 1-2.32 2.62 2.002 2.002 0 0 1-2.32.06 3.008 3.008 0 0 1-1-2.51 7.69 7.69 0 0 1 1-3.6 6.14 6.14 0 0 1 2.28-2.59Zm-3.62-17.52-5 2.86a19.274 19.274 0 0 1 2.5-9.47 17.661 17.661 0 0 1 6.68-7 7.555 7.555 0 0 1 4.55-1.31 3.996 3.996 0 0 1 3 2.05 8.526 8.526 0 0 1 1.12 4.55 14.651 14.651 0 0 1-.36 3.13 23.027 23.027 0 0 1-1.13 3.61 42.92 42.92 0 0 1-2.18 4.24 41.71 41.71 0 0 0-2.06 4 14.243 14.243 0 0 0-.7 2.59 27.092 27.092 0 0 0-.36 4l-5.13 3v-1.13c.001-2.259.314-4.507.93-6.68a30.532 30.532 0 0 1 3-6.92 43.409 43.409 0 0 0 2.42-4.63c.278-.738.42-1.521.42-2.31a2.21 2.21 0 0 0-1-2.16c-.67-.36-1.58-.21-2.71.45a7.667 7.667 0 0 0-2.86 3 8.668 8.668 0 0 0-1.13 4.13Z"/><path fill="#38A0ED" d="M160 364.08a2.072 2.072 0 0 1 2.36-.1 2.866 2.866 0 0 1 1 2.49 7.76 7.76 0 0 1-1 3.63 6.299 6.299 0 0 1-2.33 2.62 2.002 2.002 0 0 1-2.32.06 3.008 3.008 0 0 1-1-2.51 7.67 7.67 0 0 1 .94-3.6 6.2 6.2 0 0 1 2.35-2.59Z"/><path fill="#455A64" d="m157.9 372.91-3.66-2.11-.2-.13a3 3 0 0 1-1-2.52 7.753 7.753 0 0 1 1-3.6l.13-.25 3.67 2.12-.14.25a7.682 7.682 0 0 0-.94 3.6 3.003 3.003 0 0 0 .95 2.51l.19.13Z"/><path fill="#37474F" d="M162.18 363.88a2.121 2.121 0 0 0-2.21.19 5.93 5.93 0 0 0-2.15 2.34l-3.67-2.12a6.156 6.156 0 0 1 2-2.24l.15-.09a3.004 3.004 0 0 1 1-.39 1.73 1.73 0 0 1 1.21.19l.24.14 3.42 2 .01-.02Z"/><path fill="#38A0ED" d="m156.35 346.56-5 2.86a19.16 19.16 0 0 1 2.5-9.47 17.661 17.661 0 0 1 6.68-7 7.532 7.532 0 0 1 4.54-1.31 3.996 3.996 0 0 1 3 2.05 8.53 8.53 0 0 1 1.13 4.55 14.651 14.651 0 0 1-.36 3.13 23.42 23.42 0 0 1-1.14 3.61 44.647 44.647 0 0 1-2.17 4.24 42.616 42.616 0 0 0-2.07 4c-.31.841-.544 1.708-.7 2.59a27.092 27.092 0 0 0-.36 4l-5.13 3v-1.12c.001-2.259.314-4.507.93-6.68a30.825 30.825 0 0 1 3-6.93 40.025 40.025 0 0 0 2.42-4.62c.278-.738.42-1.521.42-2.31a2.235 2.235 0 0 0-1-2.16c-.68-.36-1.58-.21-2.72.45a7.667 7.667 0 0 0-2.86 3 8.663 8.663 0 0 0-1.11 4.12Z"/><path fill="#455A64" d="M166.53 332.07a3.777 3.777 0 0 0-1.42-.46 7.532 7.532 0 0 0-4.54 1.31 17.661 17.661 0 0 0-6.68 7l-.21.38-3.68-2.08c.06-.13.13-.26.2-.39a17.714 17.714 0 0 1 6.68-7 7.63 7.63 0 0 1 4.55-1.31 3.932 3.932 0 0 1 1.47.49l3.63 2.06Zm-3.23 12.12c-.42.86-1.11 2.13-2.07 3.81a30.825 30.825 0 0 0-3 6.93 25.13 25.13 0 0 0-.93 6.65v1.12l-1.16-.67-2.5-1.44v-1.13c.001-2.259.314-4.507.93-6.68a30.75 30.75 0 0 1 3-6.92c1-1.68 1.65-2.95 2.06-3.81l3.67 2.14Z"/><path fill="#37474F" d="M153.68 340.33a19.164 19.164 0 0 0-2.29 9.09l-3.66-2.11c-.011-3.174.777-6.3 2.29-9.09l3.66 2.11Zm10.39.74a6.456 6.456 0 0 1-.42 2.3 6.58 6.58 0 0 1-.35.82l-3.67-2.11c.16-.34.28-.61.36-.82.231-.619.366-1.27.4-1.93a2.806 2.806 0 0 1 2.67-.42 2.228 2.228 0 0 1 1.01 2.16Z"/><path fill="#455A64" d="M181.25 378.63a16.652 16.652 0 0 0 3.74 3.66 33.98 33.98 0 0 0 4.68 2.88 53.354 53.354 0 0 0 9.84 4.19 22.36 22.36 0 0 0 10.71.7 11.289 11.289 0 0 0 4.74-2.18 7.29 7.29 0 0 0 2.54-4.7c.29-1.78.17-3.66.88-5.36a6.444 6.444 0 0 1 2.77-3c3-1.71 6.45-1.38 9.57-.32 1.88.65 3.68 1.51 5.49 2.33 1.81.82 3.75 1.62 5.66 2.33a58.224 58.224 0 0 0 12.31 3.2c3.73.51 7.8.71 11.33-.79 2.92-1.25 5.48-4.24 5.29-7.56a6.004 6.004 0 0 0-.73-2.58 1.002 1.002 0 0 0-1-.62.625.625 0 0 0-.405.31.62.62 0 0 0-.035.51c.86 3.13-1.22 6.39-4 7.74-3.27 1.58-7.08 1.32-10.58.88a55.009 55.009 0 0 1-11.58-2.9 87.71 87.71 0 0 1-5.43-2.17c-1.79-.78-3.49-1.58-5.29-2.23-3.26-1.17-6.82-1.86-10.18-.67a9.455 9.455 0 0 0-3.72 2.33 7.751 7.751 0 0 0-2 4.41c-.25 1.72-.12 3.54-.78 5.17a6.464 6.464 0 0 1-3.29 3.24c-3.05 1.49-6.68 1.41-10 .84a42.173 42.173 0 0 1-9.52-3.13c-3.21-1.39-6.56-2.77-9.21-5.1a18.189 18.189 0 0 1-1.73-1.67c-.13-.15-.26.16-.18.26h.11Z"/><path fill="#263238" d="M408.84 374.58a11.413 11.413 0 0 1 1.2 5.86c-.1 1.77-1.16 4.06-.68 8.05.48 3.99 1.39 5.25 1.81 8.08a9.906 9.906 0 0 1-1.55 7.5c-1.65 2.68-5.3 4.81-12.5 4.55-5.82-.21-8.16-3.19-8.29-6.61l20.01-27.43Z"/><path fill="#37474F" d="M407.15 366.29c.18.742.297 1.498.35 2.26.22 1.35.62 2.64.94 4 .087.353.167.703.24 1.05.56 2.67 0 5.44 0 8.16a45.473 45.473 0 0 0 1.68 9.51c1.31 5.65 1.52 9.43-3.43 13.35-2.61 2.06-5.46 2.14-8.77 2.23-2.51.06-5.8-.67-7.28-1.77-2.12-1.56-2.09-2.87-2.11-3.37-.19-6 2-13 2.41-19 .171-1.614.208-3.24.11-4.86-.2-2-.9-4-1.11-6a3.366 3.366 0 0 1 .28-2.2 3.52 3.52 0 0 1 1.199-.89 3.518 3.518 0 0 1 1.461-.31c2.64-.35 5.28-.61 7.92-.8a2.419 2.419 0 0 1 1.8.36c.418.554.649 1.226.66 1.92.14.68.64 1.44 1.32 1.32a1.152 1.152 0 0 0 .8-1c.07-.45.26-3.93.24-4.38.04 0 .98-.15 1.29.42Z"/><path fill="#263238" d="M319.72 386.22a4.489 4.489 0 0 0 0 3.3c.42 1 5.34 4 12.15 3.85a28.26 28.26 0 0 0 14.3-4.37c2.66-1.61 5.37-1.82 8.74-1.88 3.37-.06 7.32-1.27 8.47-2.8a8.007 8.007 0 0 0 0-4.54l-43.66 6.44Z"/><path fill="#37474F" d="M344.34 366.11c-.265.483-.502.98-.71 1.49a12.1 12.1 0 0 1-3.74 4.67 38.435 38.435 0 0 1-7.52 4.06c-1.67.74-3.43 1-5.12 1.55a29.098 29.098 0 0 0-5.51 2.42c-2.74 1.69-3.27 6.19-.3 8.09 2.55 1.65 9.38 3.59 16.7 1.84 4-1 8.52-5 13.71-5.18 3.3-.13 9.55-.8 11.77-3.21.82-3.6-.07-4.63-.81-7.69a25.267 25.267 0 0 1-.62-5.27c0-.94.62-3.61-1.34-3.94l-.2 2s-.37.68-2.4 1c-.66.11-1.18 1-1.54 1.77-.27.61-.56 1.38-1.23 1.37a1.24 1.24 0 0 1-1-.8 9.478 9.478 0 0 1-.38-1.31 5.132 5.132 0 0 0-3.08-3 15.445 15.445 0 0 0-3.62-.76c-.93-.14-1.7-.55-2.53.25-.207.19-.385.409-.53.65Z"/><path fill="#38A0ED" d="M396.08 212.18c2.52 24.59 3.52 36.28 6.75 85.34a141.32 141.32 0 0 1 4.92 28.2c.7 11.91 2.39 47.8 2.39 47.8s-9.6 7.88-20.72 4.24c0 0-10.05-52.74-13.56-69.2-3.36-15.8-6.77-35.65-6.77-35.65l-1.58 24.61s.45 9.8.14 24.43c-.17 7.83-3.94 50.19-3.94 50.19s-13.47 6.12-22.56-1.74c0 0-.66-68.69-.79-75.78-.16-8.07 1.23-89.38 1.23-89.38l54.49 6.94Z"/><path fill="#000" d="M396.08 212.18c2.52 24.59 3.52 36.28 6.75 85.34a141.32 141.32 0 0 1 4.92 28.2c.7 11.91 2.39 47.8 2.39 47.8s-9.6 7.88-20.72 4.24c0 0-10.05-52.74-13.56-69.2-3.36-15.8-6.77-35.65-6.77-35.65l-1.58 24.61s.45 9.8.14 24.43c-.17 7.83-3.94 50.19-3.94 50.19s-13.47 6.12-22.56-1.74c0 0-.66-68.69-.79-75.78-.16-8.07 1.23-89.38 1.23-89.38l54.49 6.94Z" opacity=".15"/><path fill="#000" d="m369.09 272.91-6-33.49s-10.64-.93-16.52-6.86c0 0 1.05 5.82 14.42 9.31l5.43 27.94 1.14 27.71 1.53-24.61ZM409.83 367a21.86 21.86 0 0 1-14.77 5.32s9.18-1.36 14.67-7.42l.1 2.1Zm-45.68.14s-9.38 3.28-17.3.78c0 0 6.11 4.11 17.17.73l.13-1.51Z" opacity=".25"/><path fill="#FFBDA7" d="M340 143.4c-4 5.6-15.9 27.88-19 34.47l-20.85-16.67c-1.72-2.19-1.71-6.77-4.66-11.11-3.26-4.8-1.94-9.52-4.28-8.88-1.29.35-2.06 2-2 3.42 0 2.77 1.32 6.25.23 6-1.63-.58-2.85-2.43-5-5.2-.9-1.14-3-5.74-4.17-7.78a1.802 1.802 0 0 0-3.2-.21c-.3.64-.51 2.1-.8 2.71a6.12 6.12 0 0 1-1.24 1.25c-.486.339-.92.747-1.29 1.21-.9 1.39-.06 2.92-.4 4.41-.68 3.06.32 6.17 1.79 8.84.66 1.21 1.3 2.46 2 3.62a26.298 26.298 0 0 0 5.79 6.3c2 1.65 4.34 2.56 6.25 4.31 1.91 1.75 7.36 8.1 11.5 12.6 6.83 7.44 12.85 14.34 15 15.73 5.33 3.46 10.25 4 16.09-2.83 7-8.2 20.07-29.1 20.07-29.1l2.8-28.8s-9.97-1.02-14.63 5.71Z"/><path fill="#263238" d="M355.25 137.66c-6.19-.94-11.42.23-15.29 4.66-3.87 4.43-14.49 26-16.08 28-1.59 2-3 2.74-3.19 4.4a2.658 2.658 0 0 0 .74 2.36c2.9.45 12.06 15.26 8.69 20.28l-1.56 1.36a3.06 3.06 0 0 0 3.92 0c2.11-1.62 4.61-6.38 7.48-10.5s15.29-21.07 15.29-21.07v-29.49Z"/><path fill="#37474F" d="m321.43 177-1.12.27s3.86 4.21 5 12.53c.61 4.58-.08 9.87-1.41 11.12 0 0 1.36.51 3.6-1.06a28.183 28.183 0 0 0 3.45-2.78 15.7 15.7 0 0 0-1.21-11c-2.94-6.15-6.02-8.38-8.31-9.08Z"/><path fill="#E0F2FF" d="m293.84 326.6-22.7 46.26a1.563 1.563 0 0 1-1.608.875 1.562 1.562 0 0 1-1.332-1.255L258 321.66l35.84 4.94Z"/><path fill="#455A64" d="M268.2 372.48a1.562 1.562 0 0 0 2.278 1.078c.289-.157.52-.402.662-.698l4.44-9a8.666 8.666 0 0 1-8.9-1.63l-.66-.59 2.18 10.84Z"/><path fill="#38A0ED" d="m286 106.09-.61 4.73-.76 5.71L258 321.66c3.24 4.81 8.58 7.73 14.21 9 8.56 2 17.82.29 21.6-4.08l26.56-205 1.41-10.91c-1.3 7.02-37.04 2.47-35.78-4.58Z"/><path fill="#fff" d="m286 106.09-.61 4.73-.76 5.71L258 321.66c3.24 4.81 8.58 7.73 14.21 9 8.56 2 17.82.29 21.6-4.08l26.56-205 1.41-10.91c-1.3 7.02-37.04 2.47-35.78-4.58Z" opacity=".5"/><path fill="#EBEBEB" d="m283.57 124.09-1.35 10.57c-.49 3.05 5.78 5.85 13.22 7.5 9.89 2.21 22 1 22.67-3l1-7.78.31-2.79c-.66 4-12.78 5.26-22.67 3.05-7.13-1.59-13.21-4.26-13.21-7.16a.522.522 0 0 1 .03-.39Z"/><path fill="#38A0ED" d="M283.25 126.73c-1.15 7.08 34.71 11.53 35.87 4.45l1.38-10.57c-1.15 7.08-37 2.63-35.86-4.45l-1.39 10.57Z"/><path fill="#EBEBEB" d="m286 106.09-1.37 10.44c-1.19 6.94 33.38 11.53 35.79 5.06.05-.126.087-.257.11-.39l1.3-10.52c-1.35 7.01-37.09 2.46-35.83-4.59Z"/><path fill="#000" d="m320.38 121.59 1.41-10.91c-.59 3.17-8.21 4.62-16.36 3.88L277.36 331.5l-6.22 41.36 22.7-46.26 26.54-205.01Z" opacity=".1"/><path fill="#E0F2FF" d="M327.65 65.5c0-.12.07-.23.08-.35.58-4.59-7-9.33-16.87-10.58-9.87-1.25-18.37 1.44-19 6L286 106.09c-.51 3 5.68 5.83 13.06 7.51 9.87 2.24 22 1.09 22.77-2.92l5.78-44.44c0-.21 0-.4.06-.61l-.02-.13Z"/><path fill="#000" d="m313 54.9-7.56 59.67c8.08.66 15.78-.72 16.36-3.89l5.78-44.44c0-.21 0-.4.06-.61v-.13c0-.12.07-.23.08-.35.55-4.26-5.91-8.63-14.72-10.25Z" opacity=".1"/><path fill="#F0F9FF" d="M327.73 65.15c-.58 4.59-9.08 7.29-19 6s-17.45-6-16.87-10.58c.58-4.58 9.08-7.3 19-6 9.92 1.3 17.45 5.99 16.87 10.58Z"/><path fill="#263238" d="M397.28 216.94s.57 4.44-.16 5.58c-.73 1.14-14.35 4.75-32.06 3s-23.06-6.39-23.68-7.43c-.62-1.04-.51-3.43 0-6.05l55.9 4.9Z"/><path fill="#37474F" d="M340.92 159.73c1-16.33 8.11-22.26 15.4-22.09l19.13-1.28c4.09 1.06 16.87 4.13 22.44 5.8s5.62 14.16 4.33 22.43-4 14.56-4.79 28.47c.22 13.17 3.57 20.11.32 23.6-11.9 7.55-44.05 5.05-56.62-2.52-2.66-1.31.08-11.32-.18-19.42-.44-13.9-.33-29.72-.03-34.99Z"/><path fill="#263238" d="M398.33 142.32c6.72.71 8.23 1.92 10.21 5 1.98 3.08 5.74 15.32 6.44 22-3.94 11.18-19.86 6-19.86 6l3.21-33Z"/><path fill="#433B30" d="M367.554 86.683c7.333-.977 14.665 2.444 18.576 8.8 3.911.488 5.622 3.91 5.866 7.821.244 13.199-10.999 18.576-13.199 24.442l-25.175-25.909c0-4.644 1.711-13.932 14.176-15.154h-.244Z"/><path fill="#433B30" d="m391.263 94.016-5.378 1.222c.489 1.466 1.956 2.444 3.422 1.955 1.467-.489 2.2-1.71 1.956-3.177Z"/><path fill="#433B30" d="m387.352 90.35-1.466 5.132c1.466.49 2.933-.489 3.421-1.955.489-1.467-.488-2.933-1.955-3.177Z"/><path fill="#FFBDA7" d="M372.442 98.171c0 .978.489 1.711.978 2.444.977 1.467 2.688 2.2 3.422 3.667.733 1.466 0 2.933 0 4.644 0 .977.488 1.955 1.222 2.688 2.2 1.711 3.666-1.711 5.133-2.444 1.955-1.222 4.644-.733 5.866 1.466 0 .245.244.489.488.978.978 3.422-.244 7.333-3.421 9.288-1.711.978-4.156.733-5.378-.978 0 0 0 15.643-.977 19.264-.978 3.621-10.266 11.051-16.376 9.829-6.355-1.222-4.644-8.25-1.956-10.45v-8.621c-1.466 0-3.422-.489-5.133-1.222-3.91-1.467-5.377-4.889-6.11-9.288-.733-5.378.733-10.511 1.466-14.91 0-2.933.978-5.866 2.2-8.555 1.711-2.688 4.644-1.466 7.577-2.2 3.422-.977 7.088-.733 10.266.978 0 0 .244 0 .244.245v2.933l.489.244Z"/><path fill="#F0997A" d="m363.399 104.77-2.445 10.511-5.132-2.689 7.577-7.822Z"/><path fill="#B16668" d="m366.087 117.969-5.866 1.222c.244 1.467 1.955 2.689 3.422 2.2 1.711-.489 2.689-1.955 2.2-3.666l.244.244Z"/><path fill="#F28F8F" d="M363.887 121.635h-.244c0-1.466 1.222-2.688 2.688-2.688 0 1.222-.977 2.2-2.199 2.688h-.245Z"/><path fill="#263238" d="m368.287 102.815 3.666 2.2c.734-.978.245-2.2-.733-2.933-.978-.734-2.2-.245-2.933.733Zm1.467 5.866c0 .978-.978 1.711-1.955 1.467-.978 0-1.711-.978-1.711-1.711 0-.733.977-1.711 1.711-1.711h.244c.978 0 1.711.978 1.466 1.955h.245Zm-12.466-1.711c0 .978-1.222 1.467-2.199 1.222-.734 0-1.467-.977-1.223-1.711 0-.977.978-1.711 1.956-1.466.978 0 1.711.978 1.466 1.955Z"/><path fill="#F0997A" d="M361.688 129.701c2.933 0 5.866 0 8.799-.733 3.177-.489 5.622-2.444 7.088-5.377-.244 1.955-1.466 3.911-2.933 5.133-4.155 3.177-12.71 2.688-12.71 2.688v-1.955l-.244.244Z"/><path fill="#433B30" d="M371.709 97.682c-.244 0-.489 0-.733.245-.489.244-.978.733-1.467 1.222-1.711 1.955-3.911 3.422-6.355 3.911-1.466.244-2.933 0-4.399-.245 1.222 0 2.199-.977 2.688-2.2-1.955.978-4.155 1.467-6.11.734-.978-.245-1.711-.978-2.2-1.956-.489-.977-.489-1.955.244-2.933-.977.734-1.71 1.467-2.199 2.689-1.222-1.711-1.222-3.666-.245-5.622.978-1.71 2.2-3.177 4.155-4.155-1.466-.978-1.955-2.933-1.222-4.644h.245c2.444 1.956 5.621.978 8.31 0 3.422-.978 6.844-1.466 10.51-1.222 5.622.489 14.665 4.4 13.932 11.488-2.444 0-4.888 0-7.088.733-.733.244-1.467.978-2.444 1.222-.978.489-2.2.733-3.422.733h-2.2Z"/><path fill="#FFBDA7" d="M397 136.13a24.93 24.93 0 0 1-2.81-9.36c-.22-3.8-2.47-7.66-3.18-9.21-.71-1.55-2.45-4-3.69-6.19-1.24-2.19-1.61-2.84-3.84-3.66-3.07-1.12-5.46-2.08-6.77-1.93-1.31.15-1.42 1-.55 2.26.87 1.26 3.09 2 3.76 2.33.67.33 2.08 1.3 2.08 1.3l2.13 4.86a43.55 43.55 0 0 0-6.21.34c-1.08.35-2.38 2.72-2.21 4.18 0 0-2.05.9-1.67 2.83 0 0-1.38 1.24-.84 2.57a19.667 19.667 0 0 0 2.35 3.83c.51.64 2.88 1.21 2.88 1.21a22.103 22.103 0 0 0 2.93 5c1.47 1.58 2.61 1.7 4 4.69l11.64-5.05Z"/><path fill="#BA6E54" d="M381.77 116.56c-1.08-.73-1.19-1.57-2.38-1.36-1.19.21-1 1.57-1 1.57l3.38-.21Zm-6.08 4.61c.848-.487 1.755-.86 2.7-1.11.89-.25 2.7-.53 2.7-.53a12.46 12.46 0 0 0-3.6.18 9.915 9.915 0 0 0-1.78.51 3.036 3.036 0 0 0 0 .83l-.02.12Zm-.47 1.64a8.534 8.534 0 0 0-1.25.37 3.39 3.39 0 0 0 0 .83c.82-.8 3.48-1.36 3.48-1.36a10.484 10.484 0 0 0-2.23.16Zm3.49 9.41a23.83 23.83 0 0 0-1.7-4.35 1.808 1.808 0 0 0-2.38-.68c-.4.42 1.22.65 1.65.95a15.8 15.8 0 0 1 2.43 4.08Zm6.76-15.57s-.67-1.45-1.92-3.79-1.2-2-2.73-2.64c-1.53-.64-4.41-1.69-5.05-2.79.1.212.217.416.35.61.85 1.26 3.09 2 3.76 2.33.67.33 2.08 1.3 2.08 1.3l2.19 5 1.32-.02Z"/><path fill="#FFBDA7" d="M397 136.13c4.13 7.39 15.58 25.45 17.75 32.19C416.21 173 415 183 412 186.1c-3 3.1-9.4.41-13.93-5.35-3.91-5-6-15.55-8-23.19-2-7.64-4.68-16.33-4.68-16.33l11.61-5.1Z"/><path fill="#BA6E54" d="M397 136.13a34.61 34.61 0 0 1-2.27-5.74 18.632 18.632 0 0 1-.56-3 15.45 15.45 0 0 0-.47-3 28.096 28.096 0 0 0-2.3-5.7 44.25 44.25 0 0 0-3.09-5.33c-.55-.87-1.07-1.78-1.57-2.67a5.197 5.197 0 0 0-2-2.19 25.432 25.432 0 0 0-2.84-1.13c-1-.35-1.94-.71-2.92-1a4.301 4.301 0 0 0-2.88-.16c-.41.2-.37.71-.16 1.15.196.452.486.858.85 1.19a9.633 9.633 0 0 0 2.63 1.47c.945.44 1.846.969 2.69 1.58l2.11 4.86.1.23h-.25a54.31 54.31 0 0 0-5.56.21c-.95 0-1.54.79-2 1.56a4.796 4.796 0 0 0-.72 2.58v.09h-.08c-.516.243-.96.615-1.29 1.08a2.157 2.157 0 0 0-.32 1.6v.07h-.05a2.445 2.445 0 0 0-.89 2.22c.31.808.709 1.58 1.19 2.3.23.37.48.74.73 1.09.25.35.47.75.85.93.773.398 1.592.697 2.44.89v.05c.4.92.83 1.83 1.32 2.71a11.999 11.999 0 0 0 1.7 2.46c.68.74 1.53 1.3 2.21 2.05a9.258 9.258 0 0 1 1.6 2.55 9.714 9.714 0 0 0-1.63-2.52c-.69-.73-1.55-1.27-2.25-2a11.866 11.866 0 0 1-1.76-2.46 29.813 29.813 0 0 1-1.36-2.71l.06.06a11.573 11.573 0 0 1-2.5-.9 3.144 3.144 0 0 1-.91-1c-.26-.36-.51-.73-.74-1.1a11.014 11.014 0 0 1-1.23-2.36 2.705 2.705 0 0 1 .94-2.47v.12a2.41 2.41 0 0 1 .35-1.79 3.616 3.616 0 0 1 1.39-1.18l-.08.14a5.068 5.068 0 0 1 .73-2.75c.237-.418.53-.801.87-1.14.177-.179.388-.322.62-.42a3.86 3.86 0 0 1 .72-.16c1.87-.21 3.74-.21 5.61-.24l-.15.23-2.14-4.85.06.08a16.255 16.255 0 0 0-2.63-1.54 9.74 9.74 0 0 1-2.73-1.55 4 4 0 0 1-.93-1.31 1.873 1.873 0 0 1-.18-.83.928.928 0 0 1 .49-.75 2.589 2.589 0 0 1 1.61-.2 9.643 9.643 0 0 1 1.57.47c1 .3 2 .66 2.93 1 .982.333 1.944.724 2.88 1.17a5.432 5.432 0 0 1 2.1 2.31c.51.9 1 1.79 1.55 2.67a43.74 43.74 0 0 1 3.08 5.36 28.773 28.773 0 0 1 2.27 5.75c.247 1.006.391 2.035.43 3.07a18.37 18.37 0 0 0 .52 3 33.495 33.495 0 0 0 2.24 5.8Z"/><path fill="#37474F" d="M396.09 88.91a2.2 2.2 0 1 1-4.008-1.818 2.2 2.2 0 0 1 4.008 1.818Z"/><path fill="#455A64" d="M391.64 87c-1-1.37-.41-2.61 1.26-2.77a5.84 5.84 0 0 1 4.8 2.2c1 1.37.4 2.61-1.27 2.76a5.809 5.809 0 0 1-4.79-2.19Z"/><path fill="#37474F" d="M391.89 86.27c-1-1.41-.42-2.69 1.31-2.85a6.005 6.005 0 0 1 4.94 2.26c1 1.41.42 2.69-1.31 2.86a6 6 0 0 1-4.94-2.27Z"/><path fill="#455A64" d="M392.16 85.5c-1-1.46-.44-2.78 1.34-3a6.227 6.227 0 0 1 5.1 2.34c1 1.45.43 2.77-1.35 2.94a6.21 6.21 0 0 1-5.09-2.28Z"/><path fill="#37474F" d="M392.43 84.69c-1.07-1.5-.45-2.85 1.39-3a6.401 6.401 0 0 1 5.25 2.4c1.06 1.5.44 2.86-1.39 3a6.406 6.406 0 0 1-5.25-2.4Z"/><path fill="#455A64" d="M392.74 83.86c-1.08-1.53-.45-2.91 1.42-3.09a6.509 6.509 0 0 1 5.36 2.45c1.09 1.53.45 2.92-1.42 3.09a6.51 6.51 0 0 1-5.36-2.45Z"/><path fill="#38A0ED" d="M406.08 61.8a10.477 10.477 0 0 0-11.502 1.876A10.478 10.478 0 0 0 392.19 67c-3.45 7.56 2.21 11.67.82 14.72a1.777 1.777 0 0 0 .34 1.78 5.667 5.667 0 0 0 4.65 2.1 1.8 1.8 0 0 0 1.58-.91c1.39-3 8.21-1.44 11.66-9a10.482 10.482 0 0 0-1.845-11.496 10.468 10.468 0 0 0-3.315-2.394Z"/><path fill="#fff" d="M406.08 61.8a10.477 10.477 0 0 0-11.502 1.876A10.478 10.478 0 0 0 392.19 67c-3.45 7.56 2.21 11.67.82 14.72a1.777 1.777 0 0 0 .34 1.78 5.667 5.667 0 0 0 4.65 2.1 1.8 1.8 0 0 0 1.58-.91c1.39-3 8.21-1.44 11.66-9a10.482 10.482 0 0 0-1.845-11.496 10.468 10.468 0 0 0-3.315-2.394Z" opacity=".6"/><path fill="#38A0ED" d="M394.12 83.32c-.71-1-.3-1.9.92-2a4.272 4.272 0 0 1 3.5 1.6c.71 1 .29 1.9-.93 2a4.25 4.25 0 0 1-3.49-1.6Z"/><path fill="#fff" d="M397.71 83.46a.36.36 0 0 1-.18-.47 25.13 25.13 0 0 1 3.16-5.14c.357-.456.744-.887 1.16-1.29a5.144 5.144 0 0 1-.64-.78 6.307 6.307 0 0 1-.78-1.65 5.902 5.902 0 0 1-1.74.49 5.094 5.094 0 0 1-1 0c-.032.58-.102 1.158-.21 1.73a25.423 25.423 0 0 1-1.83 5.74.36.36 0 0 1-.47.17.37.37 0 0 1-.17-.48 24.635 24.635 0 0 0 1.77-5.57c.109-.568.179-1.143.21-1.72a2.22 2.22 0 0 1-1.56-1.36 1.138 1.138 0 0 1 .47-1.4.931.931 0 0 1 1.05 0 2.679 2.679 0 0 1 .75 2.13c.306.035.614.035.92 0a5.84 5.84 0 0 0 1.68-.49 2.607 2.607 0 0 1 .36-2 1 1 0 0 1 1.73.79 2.592 2.592 0 0 1-1.3 1.6c.156.566.402 1.103.73 1.59.168.256.366.49.59.7a2.735 2.735 0 0 1 2.11-.82.939.939 0 0 1 .71.77 1.149 1.149 0 0 1-.75 1.27 2.249 2.249 0 0 1-2-.29c-.42.401-.811.832-1.17 1.29a25.53 25.53 0 0 0-3.06 5 .359.359 0 0 1-.47.19h-.07Zm-1.24-11.11a.241.241 0 0 0-.24 0 .46.46 0 0 0-.15.56 1.438 1.438 0 0 0 .88.82c-.06-.79-.25-1.24-.45-1.38h-.04Zm6.53 4.17a1.458 1.458 0 0 0 1.2.13c.09 0 .38-.19.32-.47-.06-.28-.11-.21-.18-.23a2 2 0 0 0-1.34.57Zm-1.5-4.72a.221.221 0 0 0-.32.06 1.69 1.69 0 0 0-.24 1.17 1.71 1.71 0 0 0 .73-.94.226.226 0 0 0-.022-.182.225.225 0 0 0-.063-.07.224.224 0 0 0-.085-.038Z"/><path fill="#E0E0E0" d="m407.8 58.2-.18-.05a.691.691 0 0 1-.34-.91l1.46-3.24a.683.683 0 0 1 1.265.036.685.685 0 0 1-.015.524l-1.47 3.25a.67.67 0 0 1-.72.39Zm-7.8-1.26a.692.692 0 0 1-.58-.61l-.36-3.55a.681.681 0 0 1 .61-.75.688.688 0 0 1 .501.15.675.675 0 0 1 .249.46l.36 3.55a.665.665 0 0 1-.149.502.67.67 0 0 1-.461.248.48.48 0 0 1-.17 0Zm-7.35 2.79a.71.71 0 0 1-.45-.27l-2.08-2.9a.666.666 0 0 1-.153-.534.666.666 0 0 1 .303-.466.706.706 0 0 1 .796-.042c.08.05.15.115.204.192l2.08 2.9a.68.68 0 0 1-.66 1.07l-.04.05Zm-4.98 6.11a.642.642 0 0 1-.18-.06l-3.25-1.46a.685.685 0 0 1 .56-1.25l3.26 1.47a.687.687 0 0 1 .346.812.686.686 0 0 1-.736.488Zm24.87 21.48a.654.654 0 0 1-.45-.27l-2.09-2.9a.688.688 0 0 1-.143-.536.682.682 0 0 1 .303-.464.678.678 0 0 1 .95.15l2.09 2.9a.688.688 0 0 1 .143.536.682.682 0 0 1-.303.464.652.652 0 0 1-.5.12Zm6.15-7.53-.18-.05-3.25-1.47a.662.662 0 0 1-.36-.378.657.657 0 0 1 .02-.522.693.693 0 0 1 .377-.363.681.681 0 0 1 .523.013l3.25 1.47a.67.67 0 0 1 .363.377.693.693 0 0 1-.013.523.703.703 0 0 1-.73.4Zm-2-9.24a.687.687 0 0 1-.573-.68.69.69 0 0 1 .573-.68l3.55-.36a.678.678 0 0 1 .75.61.683.683 0 0 1-.354.672.683.683 0 0 1-.256.078l-3.55.36a.538.538 0 0 1-.14 0Zm-2.79-7.37a.687.687 0 0 1-.533-.911.69.69 0 0 1 .233-.319l2.9-2.09a.68.68 0 0 1 .95.16.663.663 0 0 1-.15.95l-2.89 2.09a.69.69 0 0 1-.51.12Z"/><path fill="#38A0ED" d="M403.52 103.8a.46.46 0 0 1-.22-.58l.17-.41a2.312 2.312 0 0 0-1-2.89l-.38-.23a.472.472 0 0 1-.17-.6.45.45 0 0 1 .58-.22l.5.13a2.322 2.322 0 0 0 2.88-1l.23-.38a.451.451 0 0 1 .6-.17.45.45 0 0 1 .22.58l-.17.41a2.332 2.332 0 0 0 .95 2.89l.38.23a.459.459 0 0 1-.41.82l-.41-.17a2.32 2.32 0 0 0-2.89 1l-.23.38a.456.456 0 0 1-.6.17l-.03.04Zm.52-3.67c.313.478.496 1.03.53 1.6a3.308 3.308 0 0 1 1.59-.53 3.187 3.187 0 0 1-.52-1.59 3.254 3.254 0 0 1-1.64.52h.04Zm12.26 2.12a2.941 2.941 0 0 1 .406-5.417 2.939 2.939 0 0 1 2.837 5.021 2.935 2.935 0 0 1-2.137.703 2.943 2.943 0 0 1-1.106-.307Zm2.24-4.43a2 2 0 1 0-1.766 3.589 2 2 0 0 0 1.766-3.59Zm-3.71 12.77a.457.457 0 0 1-.233-.267.456.456 0 0 1 .033-.353l.69-1.36a.448.448 0 0 1 .264-.226.454.454 0 0 1 .546.636l-.69 1.37a.457.457 0 0 1-.61.2Zm-1.23.41-1.37-.69a.464.464 0 0 1-.2-.61.457.457 0 0 1 .267-.233.459.459 0 0 1 .353.033l1.36.69a.453.453 0 0 1-.063.836.455.455 0 0 1-.347-.026Zm-.33 2.67a.474.474 0 0 1-.2-.62l.69-1.36a.47.47 0 0 1 .62-.21.467.467 0 0 1 .2.62l-.69 1.37a.448.448 0 0 1-.268.229.473.473 0 0 1-.352-.029Zm3.41-1.12-1.37-.69a.46.46 0 1 1 .42-.82l1.36.69a.471.471 0 0 1 .21.62.47.47 0 0 1-.62.2Zm-41.34-50.27a.45.45 0 0 1-.57-.25l-.18-.41a2.343 2.343 0 0 0-2.74-1.33l-.43.12a.462.462 0 0 1-.585-.285.455.455 0 0 1 .285-.585l.41-.17a2.342 2.342 0 0 0 1.33-2.74l-.12-.43a.461.461 0 1 1 .87-.3l.17.41a2.33 2.33 0 0 0 2.74 1.32l.43-.11a.46.46 0 0 1 .3.87l-.41.17a2.332 2.332 0 0 0-1.32 2.74l.11.43a.472.472 0 0 1-.29.55Zm-2.28-2.93c.563.11 1.087.365 1.52.74.1-.56.353-1.083.73-1.51a3.2 3.2 0 0 1-1.51-.74 3.202 3.202 0 0 1-.74 1.51Zm.44 14.52a2.939 2.939 0 1 1-1.917-5.557 2.939 2.939 0 0 1 1.917 5.557Zm-1.63-4.69a2.026 2.026 0 0 0-1.245 2.575A2.025 2.025 0 0 0 373.2 73a2.023 2.023 0 0 0-1.33-3.82Zm-11.16-4.3a.46.46 0 0 1-.59-.28l-.5-1.45a.46.46 0 0 1 .28-.58.471.471 0 0 1 .59.28l.5 1.45a.46.46 0 0 1-.28.58Zm-.57 1.17-1.45.5a.447.447 0 0 1-.491-.126.47.47 0 0 1 .191-.745l1.45-.5a.46.46 0 0 1 .3.871Zm1.7 2.09a.46.46 0 0 1-.59-.28l-.5-1.44a.47.47 0 0 1 .018-.353.46.46 0 0 1 .852.043l.5 1.45a.46.46 0 0 1-.018.349.45.45 0 0 1-.262.231Zm1.56-3.22-1.45.5a.46.46 0 0 1-.58-.28.47.47 0 0 1 .28-.59l1.45-.5a.447.447 0 0 1 .491.126.44.44 0 0 1 .089.154.452.452 0 0 1-.017.353.461.461 0 0 1-.263.237Z"/></svg>