<svg xmlns="http://www.w3.org/2000/svg" width="500" height="500" fill="none"><path fill="#F0F0F0" d="M249.525 453c107.433 0 194.525-24.848 194.525-55.5S356.958 342 249.525 342 55 366.848 55 397.5 142.092 453 249.525 453Z"/><path fill="#E0E0E0" d="m182.77 429.8-9.11-5.26c-.74-.43-.74-1.12 0-1.54l65.52-37.83a1.446 1.446 0 0 0 .686-.926 1.456 1.456 0 0 0-.206-1.134 16.002 16.002 0 0 1-2.33-10.82c.87-5.94 5.22-11.44 12.25-15.5 7.59-4.38 17.63-6.8 28.27-6.8s20.68 2.42 28.27 6.8c8 4.63 12.43 10.93 12.43 17.74 0 6.81-4.41 13.12-12.43 17.75-7.58 4.38-17.62 6.79-28.25 6.79a67.003 67.003 0 0 1-12.78-1.21 4.734 4.734 0 0 0-2.84.45l-10.2 5.89c-.875.449-1.872.6-2.84.43l-6.89-1.55a4.51 4.51 0 0 0-2.84.43l-2.07 1.2a3.129 3.129 0 0 0-1.41 2.31l-.23 5.08a3.103 3.103 0 0 1-1.4 2.31l-2.61 1.51a8.267 8.267 0 0 1-2.87.9l-6.09.54a8.517 8.517 0 0 0-2.88.88l-2.51 1.4a2.473 2.473 0 0 0-1.15 2.28l.16 1.21c.036.451-.052.902-.252 1.308a2.506 2.506 0 0 1-.888.992l-7.56 4.37a6.908 6.908 0 0 1-2.88.77h-19.19a6.908 6.908 0 0 1-2.88-.77Zm105.13-65.13a13.295 13.295 0 0 0-6.42 1.5c-1.22.71-1.94 1.56-1.94 2.29s.72 1.58 1.94 2.28a14.424 14.424 0 0 0 12.85 0c1.21-.7 1.94-1.55 1.94-2.28 0-.73-.73-1.58-1.94-2.29a13.37 13.37 0 0 0-6.43-1.5Z"/><path fill="#38A0ED" d="M342.39 90.87a2.08 2.08 0 0 0 0-2.05c-.09-.19-3.17-2.45-3.28-2.53a.497.497 0 0 0-.48-.05l-3.43 1.21-1.17-3a.779.779 0 0 0-.14-.24c-.27-.29-3.16-2.43-3.25-2.5-.44-.36-1.19.22-1.48 1.3l-2.19 8.09a2.4 2.4 0 0 1-.71 1.21l-4.87 3.91c-.77.62-1.08 2.27-.52 2.79l3.54 3.27a1.395 1.395 0 0 1 .27 1.13l-.83 8a1.247 1.247 0 0 0 .33 1.19c.24.16 2.57 2 3.12 2.38l.12.1c.27.14.65 0 1-.47l4.37-6.07c.28-.38.61-.57.88-.51l4.38 1c.69.16 1.51-1.22 1.37-2.33l-.83-7c-.04-.499.053-1 .27-1.45l3.53-7.38Z"/><path fill="#fff" d="M342.39 90.87a2.08 2.08 0 0 0 0-2.05c-.09-.19-3.17-2.45-3.28-2.53a.497.497 0 0 0-.48-.05l-3.43 1.21-1.17-3a.779.779 0 0 0-.14-.24c-.27-.29-3.16-2.43-3.25-2.5-.44-.36-1.19.22-1.48 1.3l-2.19 8.09a2.4 2.4 0 0 1-.71 1.21l-4.87 3.91c-.77.62-1.08 2.27-.52 2.79l3.54 3.27a1.395 1.395 0 0 1 .27 1.13l-.83 8a1.247 1.247 0 0 0 .33 1.19c.24.16 2.57 2 3.12 2.38l.12.1c.27.14.65 0 1-.47l4.37-6.07c.28-.38.61-.57.88-.51l4.38 1c.69.16 1.51-1.22 1.37-2.33l-.83-7c-.04-.499.053-1 .27-1.45l3.53-7.38Z" opacity=".5"/><path fill="#38A0ED" d="M333.78 84.12c-.45-.28-1.15.29-1.43 1.33l-2.19 8.09a3.09 3.09 0 0 1-.38.84L326.54 92c.189-.26.331-.551.42-.86l2.19-8.14c.29-1.08 1.05-1.66 1.48-1.29.08.06 2.58 1.91 3.15 2.41Z"/><path fill="#000" d="M333.78 84.12c-.45-.28-1.15.29-1.43 1.33l-2.19 8.09a3.09 3.09 0 0 1-.38.84L326.54 92c.189-.26.331-.551.42-.86l2.19-8.14c.29-1.08 1.05-1.66 1.48-1.29.08.06 2.58 1.91 3.15 2.41Z" opacity=".1"/><path fill="#38A0ED" d="m334.04 84.47 2.19 5.53a.544.544 0 0 0 .267.355.54.54 0 0 0 .443.035l4.9-1.73c.77-.27 1.08 1 .52 2.18l-3.54 7.36a2.82 2.82 0 0 0-.27 1.45l.83 7c.14 1.11-.68 2.49-1.37 2.33l-4.38-1c-.27-.06-.6.13-.88.51l-4.36 6.1c-.7 1-1.51.52-1.38-.74l.84-8a1.397 1.397 0 0 0-.27-1.13l-3.54-3.27c-.57-.52-.26-2.17.52-2.79l4.89-3.92a2.41 2.41 0 0 0 .72-1.21l2.22-8.08c.3-1.28 1.31-1.86 1.65-.98Z"/><path fill="#38A0ED" d="M327.84 105.42a.999.999 0 0 0-.28-.69l-3.53-3.27a1.478 1.478 0 0 1-.25-1.29l-3.2-2.42a1.48 1.48 0 0 0 .25 1.26l3.54 3.27c.127.128.21.292.24.47.016.14.016.28 0 .42.005.08.005.16 0 .24l-.84 8a1.266 1.266 0 0 0 .34 1.19c.25.16 2.62 2 3.14 2.4a1.309 1.309 0 0 1-.28-1.13l.84-8v-.18c.03-.18.03-.27.03-.27Z"/><path fill="#000" d="M327.84 105.42a.999.999 0 0 0-.28-.69l-3.53-3.27a1.478 1.478 0 0 1-.25-1.29l-3.2-2.42a1.48 1.48 0 0 0 .25 1.26l3.54 3.27c.127.128.21.292.24.47.016.14.016.28 0 .42.005.08.005.16 0 .24l-.84 8a1.266 1.266 0 0 0 .34 1.19c.25.16 2.62 2 3.14 2.4a1.309 1.309 0 0 1-.28-1.13l.84-8v-.18c.03-.18.03-.27.03-.27Z" opacity=".1"/><path fill="#38A0ED" d="M304.92 127.16a1.995 1.995 0 0 0 0-2c-.08-.19-3.16-2.45-3.28-2.53a.478.478 0 0 0-.47-.06l-3.43 1.22-1.17-3a.863.863 0 0 0-.14-.24c-.27-.29-3.16-2.43-3.24-2.5-.44-.36-1.19.22-1.49 1.3l-2.18 8.09a2.325 2.325 0 0 1-.72 1.2l-4.89 3.92c-.78.63-1.09 2.28-.52 2.79l3.54 3.27a1.405 1.405 0 0 1 .27 1.14l-.84 8a1.243 1.243 0 0 0 .34 1.18c.24.17 2.57 2 3.12 2.39a.273.273 0 0 0 .12.09c.27.15.65 0 1-.46l4.38-6.07c.28-.38.61-.57.88-.51l4.38 1c.69.16 1.5-1.22 1.37-2.34l-.83-7a2.71 2.71 0 0 1 .27-1.45l3.53-7.43Z"/><path fill="#fff" d="M304.92 127.16a1.995 1.995 0 0 0 0-2c-.08-.19-3.16-2.45-3.28-2.53a.478.478 0 0 0-.47-.06l-3.43 1.22-1.17-3a.863.863 0 0 0-.14-.24c-.27-.29-3.16-2.43-3.24-2.5-.44-.36-1.19.22-1.49 1.3l-2.18 8.09a2.325 2.325 0 0 1-.72 1.2l-4.89 3.92c-.78.63-1.09 2.28-.52 2.79l3.54 3.27a1.405 1.405 0 0 1 .27 1.14l-.84 8a1.243 1.243 0 0 0 .34 1.18c.24.17 2.57 2 3.12 2.39a.273.273 0 0 0 .12.09c.27.15.65 0 1-.46l4.38-6.07c.28-.38.61-.57.88-.51l4.38 1c.69.16 1.5-1.22 1.37-2.34l-.83-7a2.71 2.71 0 0 1 .27-1.45l3.53-7.43Z" opacity=".5"/><path fill="#38A0ED" d="M296.39 120.41c-.45-.28-1.15.29-1.44 1.33l-2.19 8.09a2.84 2.84 0 0 1-.37.83l-3.25-2.42c.197-.259.34-.555.42-.87l2.2-8.08c.29-1.08 1-1.66 1.48-1.3.02.07 2.52 1.91 3.15 2.42Z"/><path fill="#000" d="M296.39 120.41c-.45-.28-1.15.29-1.44 1.33l-2.19 8.09a2.84 2.84 0 0 1-.37.83l-3.25-2.42c.197-.259.34-.555.42-.87l2.2-8.08c.29-1.08 1-1.66 1.48-1.3.02.07 2.52 1.91 3.15 2.42Z" opacity=".1"/><path fill="#38A0ED" d="m296.6 120.76 2.19 5.56a.539.539 0 0 0 .71.39l4.89-1.71c.78-.28 1.09 1 .53 2.18l-3.53 7.34a2.702 2.702 0 0 0-.27 1.45l.83 7c.13 1.12-.68 2.5-1.37 2.34l-4.38-1c-.27-.06-.6.13-.88.51l-4.38 6.07c-.69 1-1.5.52-1.37-.75l.84-8a1.337 1.337 0 0 0-.28-1.13l-3.54-3.27c-.56-.52-.25-2.17.53-2.79l4.89-3.92c.355-.321.603-.743.71-1.21l2.19-8.09c.34-1.27 1.34-1.85 1.69-.97Z"/><path fill="#38A0ED" d="M290.39 141.71a1.097 1.097 0 0 0-.28-.69l-3.54-3.26a1.505 1.505 0 0 1-.24-1.29l-3.2-2.42a1.426 1.426 0 0 0 .25 1.25l3.54 3.27a.986.986 0 0 1 .24.48c.017.14.017.281 0 .42.005.08.005.16 0 .24l-.84 8c-.049.209-.044.426.014.632.057.207.166.395.316.548.25.17 2.63 2 3.15 2.4a1.263 1.263 0 0 1-.28-1.13l.83-8c.005-.06.005-.12 0-.18.04-.18.04-.27.04-.27Z"/><path fill="#000" d="M290.39 141.71a1.097 1.097 0 0 0-.28-.69l-3.54-3.26a1.505 1.505 0 0 1-.24-1.29l-3.2-2.42a1.426 1.426 0 0 0 .25 1.25l3.54 3.27a.986.986 0 0 1 .24.48c.017.14.017.281 0 .42.005.08.005.16 0 .24l-.84 8c-.049.209-.044.426.014.632.057.207.166.395.316.548.25.17 2.63 2 3.15 2.4a1.263 1.263 0 0 1-.28-1.13l.83-8c.005-.06.005-.12 0-.18.04-.18.04-.27.04-.27Z" opacity=".1"/><path fill="#38A0ED" d="M277.75 180.19a2.05 2.05 0 0 0 0-2.05c-.09-.19-3.17-2.45-3.28-2.54a.527.527 0 0 0-.48 0l-3.43 1.21-1.17-3a.698.698 0 0 0-.14-.24c-.27-.29-3.16-2.43-3.25-2.5-.44-.36-1.19.22-1.48 1.3l-2.13 8.03a2.362 2.362 0 0 1-.71 1.21l-4.9 3.92c-.77.62-1.08 2.27-.52 2.79l3.54 3.27a1.42 1.42 0 0 1 .27 1.14l-.83 8a1.221 1.221 0 0 0 .33 1.18c.24.17 2.57 2 3.12 2.39a.46.46 0 0 0 .12.09c.27.15.65 0 1-.46l4.37-6.07c.28-.38.61-.57.88-.51l4.38 1c.7.16 1.51-1.22 1.37-2.34l-.83-7a2.802 2.802 0 0 1 .27-1.45l3.5-7.37Z"/><path fill="#fff" d="M277.75 180.19a2.05 2.05 0 0 0 0-2.05c-.09-.19-3.17-2.45-3.28-2.54a.527.527 0 0 0-.48 0l-3.43 1.21-1.17-3a.698.698 0 0 0-.14-.24c-.27-.29-3.16-2.43-3.25-2.5-.44-.36-1.19.22-1.48 1.3l-2.13 8.03a2.362 2.362 0 0 1-.71 1.21l-4.9 3.92c-.77.62-1.08 2.27-.52 2.79l3.54 3.27a1.42 1.42 0 0 1 .27 1.14l-.83 8a1.221 1.221 0 0 0 .33 1.18c.24.17 2.57 2 3.12 2.39a.46.46 0 0 0 .12.09c.27.15.65 0 1-.46l4.37-6.07c.28-.38.61-.57.88-.51l4.38 1c.7.16 1.51-1.22 1.37-2.34l-.83-7a2.802 2.802 0 0 1 .27-1.45l3.5-7.37Z" opacity=".5"/><path fill="#38A0ED" d="M269.17 173.44c-.45-.28-1.15.29-1.43 1.33l-2.19 8.09c-.082.295-.21.575-.38.83l-3.24-2.42c.189-.264.331-.558.42-.87l2.19-8.08c.29-1.08 1.05-1.66 1.48-1.3.08.07 2.58 1.91 3.15 2.42Z"/><path fill="#000" d="M269.17 173.44c-.45-.28-1.15.29-1.43 1.33l-2.19 8.09c-.082.295-.21.575-.38.83l-3.24-2.42c.189-.264.331-.558.42-.87l2.19-8.08c.29-1.08 1.05-1.66 1.48-1.3.08.07 2.58 1.91 3.15 2.42Z" opacity=".1"/><path fill="#38A0ED" d="m269.39 173.79 2.19 5.56a.54.54 0 0 0 .71.39l4.9-1.73c.77-.28 1.08 1 .52 2.18l-3.54 7.36a2.802 2.802 0 0 0-.27 1.45l.83 7c.14 1.12-.67 2.5-1.37 2.34l-4.38-1c-.27-.06-.6.13-.88.51l-4.37 6.07c-.7 1-1.51.52-1.38-.75l.84-8a1.395 1.395 0 0 0-.27-1.13l-3.53-3.26c-.57-.52-.26-2.17.52-2.79l4.89-3.92a2.41 2.41 0 0 0 .72-1.21l2.18-8.09c.38-1.29 1.39-1.87 1.69-.98Z"/><path fill="#38A0ED" d="M263.23 194.74a.999.999 0 0 0-.28-.69l-3.56-3.27a1.467 1.467 0 0 1-.25-1.29l-3.2-2.42a1.46 1.46 0 0 0 .25 1.25l3.54 3.27a.88.88 0 0 1 .24.48c.016.14.016.281 0 .42.005.08.005.16 0 .24l-.84 8a1.234 1.234 0 0 0 .34 1.18c.25.17 2.62 2 3.14 2.4a1.313 1.313 0 0 1-.274-.532 1.313 1.313 0 0 1-.006-.598l.84-8V195c.06-.18.06-.26.06-.26Z"/><path fill="#000" d="M263.23 194.74a.999.999 0 0 0-.28-.69l-3.56-3.27a1.467 1.467 0 0 1-.25-1.29l-3.2-2.42a1.46 1.46 0 0 0 .25 1.25l3.54 3.27a.88.88 0 0 1 .24.48c.016.14.016.281 0 .42.005.08.005.16 0 .24l-.84 8a1.234 1.234 0 0 0 .34 1.18c.25.17 2.62 2 3.14 2.4a1.313 1.313 0 0 1-.274-.532 1.313 1.313 0 0 1-.006-.598l.84-8V195c.06-.18.06-.26.06-.26Z" opacity=".1"/><path fill="#38A0ED" d="M268.22 237.09a2.07 2.07 0 0 0 0-2.05c-.09-.19-3.17-2.45-3.28-2.54a.531.531 0 0 0-.48-.05l-3.42 1.21-1.17-3a.888.888 0 0 0-.14-.24c-.27-.29-3.16-2.43-3.24-2.5-.44-.36-1.2.22-1.49 1.3l-2.19 8.08a2.29 2.29 0 0 1-.71 1.21l-4.89 3.92c-.78.62-1.09 2.27-.53 2.79l3.54 3.27a1.372 1.372 0 0 1 .28 1.14l-.84 8a1.276 1.276 0 0 0 .33 1.18c.25.17 2.57 2 3.12 2.39a.46.46 0 0 0 .12.09c.28.15.65 0 1-.46l4.38-6.07c.27-.38.6-.57.88-.51l4.37 1c.7.17 1.51-1.21 1.38-2.33l-.84-7c-.043-.5.054-1.002.28-1.45l3.54-7.38Z"/><path fill="#fff" d="M268.22 237.09a2.07 2.07 0 0 0 0-2.05c-.09-.19-3.17-2.45-3.28-2.54a.531.531 0 0 0-.48-.05l-3.42 1.21-1.17-3a.888.888 0 0 0-.14-.24c-.27-.29-3.16-2.43-3.24-2.5-.44-.36-1.2.22-1.49 1.3l-2.19 8.08a2.29 2.29 0 0 1-.71 1.21l-4.89 3.92c-.78.62-1.09 2.27-.53 2.79l3.54 3.27a1.372 1.372 0 0 1 .28 1.14l-.84 8a1.276 1.276 0 0 0 .33 1.18c.25.17 2.57 2 3.12 2.39a.46.46 0 0 0 .12.09c.28.15.65 0 1-.46l4.38-6.07c.27-.38.6-.57.88-.51l4.37 1c.7.17 1.51-1.21 1.38-2.33l-.84-7c-.043-.5.054-1.002.28-1.45l3.54-7.38Z" opacity=".5"/><path fill="#38A0ED" d="M259.64 230.34c-.45-.28-1.16.29-1.44 1.33l-2.19 8.09a2.628 2.628 0 0 1-.38.83l-3.24-2.43c.195-.257.338-.549.42-.86l2.19-8.08c.3-1.08 1.05-1.66 1.49-1.3.07.08 2.57 1.91 3.15 2.42Z"/><path fill="#000" d="M259.64 230.34c-.45-.28-1.16.29-1.44 1.33l-2.19 8.09a2.628 2.628 0 0 1-.38.83l-3.24-2.43c.195-.257.338-.549.42-.86l2.19-8.08c.3-1.08 1.05-1.66 1.49-1.3.07.08 2.57 1.91 3.15 2.42Z" opacity=".1"/><path fill="#38A0ED" d="m259.9 230.69 2.19 5.56a.54.54 0 0 0 .71.39l4.89-1.73c.78-.28 1.09 1 .53 2.18l-3.54 7.36c-.225.448-.322.95-.28 1.45l.84 7c.13 1.12-.68 2.5-1.38 2.33l-4.37-1c-.28-.06-.61.13-.88.51l-4.38 6.07c-.69 1-1.51.52-1.37-.75l.83-8a1.334 1.334 0 0 0-.037-.562 1.336 1.336 0 0 0-.263-.498l-3.54-3.27c-.56-.52-.25-2.17.53-2.79l4.89-3.92c.352-.324.6-.745.71-1.21l2.19-8.09c.38-1.34 1.38-1.92 1.73-1.03Z"/><path fill="#38A0ED" d="M253.69 251.64c-.01-.256-.109-.5-.28-.69l-3.54-3.26a1.465 1.465 0 0 1-.25-1.29l-3.23-2.4a1.46 1.46 0 0 0 .25 1.25l3.54 3.27c.126.134.213.3.25.48.011.14.011.28 0 .42.005.08.005.16 0 .24l-.84 8a1.276 1.276 0 0 0 .33 1.18c.25.17 2.63 2 3.14 2.4a1.311 1.311 0 0 1-.27-1.13l.83-8c.005-.06.005-.12 0-.18.03-.095.054-.192.07-.29Z"/><path fill="#000" d="M253.69 251.64c-.01-.256-.109-.5-.28-.69l-3.54-3.26a1.465 1.465 0 0 1-.25-1.29l-3.23-2.4a1.46 1.46 0 0 0 .25 1.25l3.54 3.27c.126.134.213.3.25.48.011.14.011.28 0 .42.005.08.005.16 0 .24l-.84 8a1.276 1.276 0 0 0 .33 1.18c.25.17 2.63 2 3.14 2.4a1.311 1.311 0 0 1-.27-1.13l.83-8c.005-.06.005-.12 0-.18.03-.095.054-.192.07-.29Z" opacity=".1"/><path fill="#38A0ED" d="M279.22 280.66a2 2 0 0 0 0-2.05c-.08-.19-3.17-2.45-3.28-2.53a.482.482 0 0 0-.47-.06l-3.43 1.22-1.17-3a.888.888 0 0 0-.14-.24c-.27-.29-3.16-2.43-3.24-2.5-.44-.36-1.19.22-1.49 1.3l-2.18 8.09a2.41 2.41 0 0 1-.72 1.21l-4.89 3.9c-.78.63-1.09 2.28-.52 2.8l3.54 3.26a1.405 1.405 0 0 1 .27 1.14l-.84 8a1.234 1.234 0 0 0 .34 1.18c.24.17 2.57 2 3.12 2.39a.268.268 0 0 0 .12.09c.27.15.65 0 1-.46l4.38-6.07c.28-.38.6-.57.88-.51l4.38 1c.69.16 1.5-1.22 1.37-2.33l-.83-7a2.617 2.617 0 0 1 .27-1.45l3.53-7.38Z"/><path fill="#fff" d="M279.22 280.66a2 2 0 0 0 0-2.05c-.08-.19-3.17-2.45-3.28-2.53a.482.482 0 0 0-.47-.06l-3.43 1.22-1.17-3a.888.888 0 0 0-.14-.24c-.27-.29-3.16-2.43-3.24-2.5-.44-.36-1.19.22-1.49 1.3l-2.18 8.09a2.41 2.41 0 0 1-.72 1.21l-4.89 3.9c-.78.63-1.09 2.28-.52 2.8l3.54 3.26a1.405 1.405 0 0 1 .27 1.14l-.84 8a1.234 1.234 0 0 0 .34 1.18c.24.17 2.57 2 3.12 2.39a.268.268 0 0 0 .12.09c.27.15.65 0 1-.46l4.38-6.07c.28-.38.6-.57.88-.51l4.38 1c.69.16 1.5-1.22 1.37-2.33l-.83-7a2.617 2.617 0 0 1 .27-1.45l3.53-7.38Z" opacity=".5"/><path fill="#38A0ED" d="M270.64 273.91c-.45-.28-1.15.29-1.44 1.33l-2.19 8.09c-.08.297-.205.58-.37.84l-3.25-2.43a2.59 2.59 0 0 0 .42-.87l2.19-8.08c.3-1.08 1.05-1.66 1.49-1.3.07.07 2.57 1.91 3.15 2.42Z"/><path fill="#000" d="M270.64 273.91c-.45-.28-1.15.29-1.44 1.33l-2.19 8.09c-.08.297-.205.58-.37.84l-3.25-2.43a2.59 2.59 0 0 0 .42-.87l2.19-8.08c.3-1.08 1.05-1.66 1.49-1.3.07.07 2.57 1.91 3.15 2.42Z" opacity=".1"/><path fill="#38A0ED" d="m270.9 274.26 2.19 5.56a.539.539 0 0 0 .71.39l4.89-1.73c.78-.28 1.09 1 .53 2.18l-3.54 7.34a2.617 2.617 0 0 0-.27 1.45l.83 7c.13 1.11-.68 2.49-1.37 2.33l-4.38-1c-.28-.06-.6.13-.88.51l-4.38 6.07c-.69 1-1.5.52-1.37-.75l.83-8a1.318 1.318 0 0 0-.27-1.13l-3.54-3.27c-.56-.52-.25-2.17.53-2.79l4.89-3.92c.352-.324.599-.745.71-1.21l2.19-8.09c.35-1.2 1.35-1.82 1.7-.94Z"/><path fill="#38A0ED" d="M264.69 295.21c-.01-.256-.109-.5-.28-.69l-3.54-3.26a1.505 1.505 0 0 1-.24-1.29l-3.24-2.43a1.486 1.486 0 0 0 .26 1.26l3.54 3.26a.986.986 0 0 1 .24.48c.012.14.012.28 0 .42.005.08.005.16 0 .24l-.84 8c-.049.209-.044.426.014.632.057.207.166.395.316.548.25.17 2.63 2 3.15 2.41a1.297 1.297 0 0 1-.28-1.14l.83-8c.005-.06.005-.12 0-.18.08-.17.07-.26.07-.26Z"/><path fill="#000" d="M264.69 295.21c-.01-.256-.109-.5-.28-.69l-3.54-3.26a1.505 1.505 0 0 1-.24-1.29l-3.24-2.43a1.486 1.486 0 0 0 .26 1.26l3.54 3.26a.986.986 0 0 1 .24.48c.012.14.012.28 0 .42.005.08.005.16 0 .24l-.84 8c-.049.209-.044.426.014.632.057.207.166.395.316.548.25.17 2.63 2 3.15 2.41a1.297 1.297 0 0 1-.28-1.14l.83-8c.005-.06.005-.12 0-.18.08-.17.07-.26.07-.26Z" opacity=".1"/><path fill="#38A0ED" d="M307.23 300.71a2.069 2.069 0 0 0 0-2c-.09-.19-3.17-2.45-3.28-2.53a.501.501 0 0 0-.48-.05l-3.42 1.21-1.17-3a1.069 1.069 0 0 0-.14-.24c-.27-.29-3.16-2.43-3.24-2.5-.44-.36-1.2.22-1.49 1.3l-2.19 8.09a2.327 2.327 0 0 1-.71 1.21l-4.89 3.92c-.78.62-1.09 2.27-.53 2.79l3.54 3.27a1.343 1.343 0 0 1 .28 1.13l-.84 8a1.285 1.285 0 0 0 .33 1.19c.25.16 2.57 2 3.13 2.38a.55.55 0 0 0 .11.1c.28.14.65 0 1-.47l4.38-6.07c.27-.38.6-.57.88-.51l4.37 1c.7.16 1.51-1.22 1.38-2.33l-.84-7c-.041-.5.055-1.002.28-1.45l3.54-7.44Z"/><path fill="#fff" d="M307.23 300.71a2.069 2.069 0 0 0 0-2c-.09-.19-3.17-2.45-3.28-2.53a.501.501 0 0 0-.48-.05l-3.42 1.21-1.17-3a1.069 1.069 0 0 0-.14-.24c-.27-.29-3.16-2.43-3.24-2.5-.44-.36-1.2.22-1.49 1.3l-2.19 8.09a2.327 2.327 0 0 1-.71 1.21l-4.89 3.92c-.78.62-1.09 2.27-.53 2.79l3.54 3.27a1.343 1.343 0 0 1 .28 1.13l-.84 8a1.285 1.285 0 0 0 .33 1.19c.25.16 2.57 2 3.13 2.38a.55.55 0 0 0 .11.1c.28.14.65 0 1-.47l4.38-6.07c.27-.38.6-.57.88-.51l4.37 1c.7.16 1.51-1.22 1.38-2.33l-.84-7c-.041-.5.055-1.002.28-1.45l3.54-7.44Z" opacity=".5"/><path fill="#38A0ED" d="M298.65 294c-.45-.28-1.16.29-1.44 1.33l-2.19 8.09a2.796 2.796 0 0 1-.38.84l-3.25-2.47a2.57 2.57 0 0 0 .42-.86l2.19-8.09c.3-1.08 1.05-1.66 1.49-1.29.08.06 2.58 1.91 3.16 2.45Z"/><path fill="#000" d="M298.65 294c-.45-.28-1.16.29-1.44 1.33l-2.19 8.09a2.796 2.796 0 0 1-.38.84l-3.25-2.47a2.57 2.57 0 0 0 .42-.86l2.19-8.09c.3-1.08 1.05-1.66 1.49-1.29.08.06 2.58 1.91 3.16 2.45Z" opacity=".1"/><path fill="#38A0ED" d="m298.91 294.31 2.19 5.56a.54.54 0 0 0 .71.39l4.89-1.73c.78-.27 1.09 1 .53 2.18l-3.54 7.36c-.224.449-.321.95-.28 1.45l.84 7c.13 1.11-.68 2.49-1.38 2.33l-4.37-1c-.28-.06-.61.13-.88.51l-4.38 6.07c-.69 1-1.51.52-1.37-.74l.83-8a1.36 1.36 0 0 0-.27-1.13l-3.54-3.27c-.56-.52-.25-2.17.53-2.79l4.89-3.92c.352-.324.6-.745.71-1.21l2.19-8.09c.35-1.28 1.35-1.85 1.7-.97Z"/><path fill="#38A0ED" d="M292.7 315.26a1.1 1.1 0 0 0-.28-.69l-3.54-3.27a1.481 1.481 0 0 1-.25-1.29l-3.2-2.42a1.48 1.48 0 0 0 .25 1.26l3.54 3.27c.13.127.218.291.25.47.011.14.011.28 0 .42.005.08.005.16 0 .24l-.84 8a1.269 1.269 0 0 0 .33 1.18c.25.17 2.63 2 3.15 2.41a1.28 1.28 0 0 1-.28-1.13l.83-8c.005-.06.005-.12 0-.18.05-.18.04-.27.04-.27Z"/><path fill="#000" d="M292.7 315.26a1.1 1.1 0 0 0-.28-.69l-3.54-3.27a1.481 1.481 0 0 1-.25-1.29l-3.2-2.42a1.48 1.48 0 0 0 .25 1.26l3.54 3.27c.13.127.218.291.25.47.011.14.011.28 0 .42.005.08.005.16 0 .24l-.84 8a1.269 1.269 0 0 0 .33 1.18c.25.17 2.63 2 3.15 2.41a1.28 1.28 0 0 1-.28-1.13l.83-8c.005-.06.005-.12 0-.18.05-.18.04-.27.04-.27Z" opacity=".1"/><path fill="#38A0ED" d="M345.77 291.17a2.05 2.05 0 0 0 0-2.05c-.09-.19-3.17-2.45-3.28-2.53a.503.503 0 0 0-.48 0l-3.43 1.21-1.17-3a.804.804 0 0 0-.14-.24c-.27-.29-3.16-2.43-3.25-2.5-.44-.36-1.19.22-1.48 1.3l-2.15 8.03a2.402 2.402 0 0 1-.71 1.21l-4.9 3.92c-.77.62-1.08 2.27-.52 2.79l3.54 3.27a1.392 1.392 0 0 1 .27 1.13l-.83 8a1.236 1.236 0 0 0 .33 1.19c.24.16 2.57 2 3.12 2.38l.12.09c.27.14.65 0 1-.47l4.37-6.07c.28-.38.61-.57.88-.51l4.38 1c.7.16 1.51-1.22 1.37-2.33l-.83-7c-.04-.499.053-.999.27-1.45l3.52-7.37Z"/><path fill="#fff" d="M345.77 291.17a2.05 2.05 0 0 0 0-2.05c-.09-.19-3.17-2.45-3.28-2.53a.503.503 0 0 0-.48 0l-3.43 1.21-1.17-3a.804.804 0 0 0-.14-.24c-.27-.29-3.16-2.43-3.25-2.5-.44-.36-1.19.22-1.48 1.3l-2.15 8.03a2.402 2.402 0 0 1-.71 1.21l-4.9 3.92c-.77.62-1.08 2.27-.52 2.79l3.54 3.27a1.392 1.392 0 0 1 .27 1.13l-.83 8a1.236 1.236 0 0 0 .33 1.19c.24.16 2.57 2 3.12 2.38l.12.09c.27.14.65 0 1-.47l4.37-6.07c.28-.38.61-.57.88-.51l4.38 1c.7.16 1.51-1.22 1.37-2.33l-.83-7c-.04-.499.053-.999.27-1.45l3.52-7.37Z" opacity=".5"/><path fill="#38A0ED" d="M337.19 284.42c-.45-.28-1.15.29-1.43 1.33l-2.19 8.09a3.047 3.047 0 0 1-.38.84l-3.24-2.43c.189-.26.331-.551.42-.86l2.19-8.09c.29-1.08 1.05-1.66 1.48-1.29.08.06 2.58 1.91 3.15 2.41Z"/><path fill="#000" d="M337.19 284.42c-.45-.28-1.15.29-1.43 1.33l-2.19 8.09a3.047 3.047 0 0 1-.38.84l-3.24-2.43c.189-.26.331-.551.42-.86l2.19-8.09c.29-1.08 1.05-1.66 1.48-1.29.08.06 2.58 1.91 3.15 2.41Z" opacity=".1"/><path fill="#38A0ED" d="m337.45 284.77 2.19 5.56a.539.539 0 0 0 .71.39l4.9-1.73c.77-.27 1.08 1 .52 2.18l-3.54 7.36c-.217.451-.31.951-.27 1.45l.83 7c.14 1.11-.67 2.49-1.37 2.33l-4.38-1c-.27-.06-.6.13-.88.51l-4.37 6.07c-.7 1-1.51.52-1.38-.74l.84-8a1.4 1.4 0 0 0-.27-1.13l-3.54-3.27c-.57-.52-.26-2.17.52-2.79l4.89-3.92a2.41 2.41 0 0 0 .72-1.21l2.18-8.09c.35-1.27 1.36-1.85 1.7-.97Z"/><path fill="#38A0ED" d="M331.25 305.72a.999.999 0 0 0-.28-.69l-3.53-3.27a1.467 1.467 0 0 1-.25-1.29l-3.2-2.42a1.48 1.48 0 0 0 .25 1.26l3.54 3.27c.13.126.215.291.24.47.016.14.016.281 0 .42.005.08.005.16 0 .24l-.84 8a1.262 1.262 0 0 0 .34 1.19c.25.16 2.62 2 3.14 2.4a1.297 1.297 0 0 1-.272-.532 1.3 1.3 0 0 1-.008-.598l.84-8v-.18c.03-.18.03-.27.03-.27Z"/><path fill="#000" d="M331.25 305.72a.999.999 0 0 0-.28-.69l-3.53-3.27a1.467 1.467 0 0 1-.25-1.29l-3.2-2.42a1.48 1.48 0 0 0 .25 1.26l3.54 3.27c.13.126.215.291.24.47.016.14.016.281 0 .42.005.08.005.16 0 .24l-.84 8a1.262 1.262 0 0 0 .34 1.19c.25.16 2.62 2 3.14 2.4a1.297 1.297 0 0 1-.272-.532 1.3 1.3 0 0 1-.008-.598l.84-8v-.18c.03-.18.03-.27.03-.27Z" opacity=".1"/><path fill="#38A0ED" d="M383.21 254.89a2.069 2.069 0 0 0 0-2.06c-.09-.19-3.17-2.45-3.28-2.53a.501.501 0 0 0-.48-.05l-3.42 1.21-1.17-3a.888.888 0 0 0-.14-.24c-.27-.29-3.16-2.43-3.24-2.49-.44-.37-1.2.21-1.49 1.29l-2.19 8.09a2.402 2.402 0 0 1-.71 1.21l-4.89 3.92c-.78.62-1.09 2.27-.53 2.79l3.54 3.27a1.324 1.324 0 0 1 .27 1.13l-.83 8a1.239 1.239 0 0 0 .33 1.18c.25.16 2.57 2 3.12 2.39l.12.09c.28.15.65 0 1-.47l4.38-6.06c.27-.39.6-.58.88-.51l4.37 1c.7.16 1.51-1.21 1.38-2.33l-.84-7c-.04-.499.054-.999.27-1.45l3.55-7.38Z"/><path fill="#fff" d="M383.21 254.89a2.069 2.069 0 0 0 0-2.06c-.09-.19-3.17-2.45-3.28-2.53a.501.501 0 0 0-.48-.05l-3.42 1.21-1.17-3a.888.888 0 0 0-.14-.24c-.27-.29-3.16-2.43-3.24-2.49-.44-.37-1.2.21-1.49 1.29l-2.19 8.09a2.402 2.402 0 0 1-.71 1.21l-4.89 3.92c-.78.62-1.09 2.27-.53 2.79l3.54 3.27a1.324 1.324 0 0 1 .27 1.13l-.83 8a1.239 1.239 0 0 0 .33 1.18c.25.16 2.57 2 3.12 2.39l.12.09c.28.15.65 0 1-.47l4.38-6.06c.27-.39.6-.58.88-.51l4.37 1c.7.16 1.51-1.21 1.38-2.33l-.84-7c-.04-.499.054-.999.27-1.45l3.55-7.38Z" opacity=".5"/><path fill="#38A0ED" d="M374.63 248.13c-.44-.28-1.15.3-1.43 1.34l-2.19 8.08a2.95 2.95 0 0 1-.38.84l-3.24-2.39c.195-.256.338-.549.42-.86l2.19-8.09c.29-1.08 1.05-1.66 1.49-1.29.07.02 2.57 1.87 3.14 2.37Z"/><path fill="#000" d="M374.63 248.13c-.44-.28-1.15.3-1.43 1.34l-2.19 8.08a2.95 2.95 0 0 1-.38.84l-3.24-2.39c.195-.256.338-.549.42-.86l2.19-8.09c.29-1.08 1.05-1.66 1.49-1.29.07.02 2.57 1.87 3.14 2.37Z" opacity=".1"/><path fill="#38A0ED" d="m374.9 248.49 2.18 5.56a.536.536 0 0 0 .494.415.529.529 0 0 0 .226-.035l4.89-1.73c.78-.27 1.09 1 .52 2.19l-3.54 7.35c-.216.451-.31.951-.27 1.45l.84 7c.13 1.12-.68 2.49-1.38 2.33l-4.37-1c-.28-.07-.61.12-.88.51l-4.38 6.06c-.69 1-1.51.53-1.37-.74l.83-8a1.407 1.407 0 0 0-.27-1.14l-3.54-3.27c-.56-.52-.25-2.17.52-2.79l4.9-3.92c.351-.325.598-.746.71-1.21l2.19-8.08c.34-1.26 1.35-1.84 1.7-.95Z"/><path fill="#38A0ED" d="M368.69 269.43a1.099 1.099 0 0 0-.27-.69l-3.54-3.26a1.48 1.48 0 0 1-.25-1.29l-3.2-2.42a1.46 1.46 0 0 0 .25 1.25l3.54 3.27c.13.131.217.299.25.48a2.34 2.34 0 0 1 0 .41c.005.08.005.16 0 .24l-.84 8c-.049.209-.044.426.014.632.057.207.166.395.316.548.25.16 2.63 2 3.14 2.4a1.305 1.305 0 0 1-.27-1.13l.83-8v-.19c.03-.16.03-.25.03-.25Z"/><path fill="#000" d="M368.69 269.43a1.099 1.099 0 0 0-.27-.69l-3.54-3.26a1.48 1.48 0 0 1-.25-1.29l-3.2-2.42a1.46 1.46 0 0 0 .25 1.25l3.54 3.27c.13.131.217.299.25.48a2.34 2.34 0 0 1 0 .41c.005.08.005.16 0 .24l-.84 8c-.049.209-.044.426.014.632.057.207.166.395.316.548.25.16 2.63 2 3.14 2.4a1.305 1.305 0 0 1-.27-1.13l.83-8v-.19c.03-.16.03-.25.03-.25Z" opacity=".1"/><path fill="#38A0ED" d="M410.39 201.86a2.05 2.05 0 0 0 0-2.05c-.09-.2-3.17-2.46-3.28-2.54a.501.501 0 0 0-.48-.05l-3.43 1.21-1.17-3a.683.683 0 0 0-.14-.24c-.27-.28-3.16-2.42-3.25-2.49-.44-.37-1.19.22-1.48 1.29l-2.19 8.09a2.402 2.402 0 0 1-.71 1.21l-4.87 3.91c-.77.62-1.08 2.27-.52 2.79l3.54 3.27a1.397 1.397 0 0 1 .27 1.13l-.83 8a1.217 1.217 0 0 0 .33 1.18c.24.16 2.57 2 3.12 2.39l.12.09c.27.15.65 0 1-.47l4.37-6.06c.28-.39.61-.58.88-.51l4.38 1c.69.16 1.51-1.21 1.37-2.33l-.83-7a2.843 2.843 0 0 1 .27-1.45l3.53-7.37Z"/><path fill="#fff" d="M410.39 201.86a2.05 2.05 0 0 0 0-2.05c-.09-.2-3.17-2.46-3.28-2.54a.501.501 0 0 0-.48-.05l-3.43 1.21-1.17-3a.683.683 0 0 0-.14-.24c-.27-.28-3.16-2.42-3.25-2.49-.44-.37-1.19.22-1.48 1.29l-2.19 8.09a2.402 2.402 0 0 1-.71 1.21l-4.87 3.91c-.77.62-1.08 2.27-.52 2.79l3.54 3.27a1.397 1.397 0 0 1 .27 1.13l-.83 8a1.217 1.217 0 0 0 .33 1.18c.24.16 2.57 2 3.12 2.39l.12.09c.27.15.65 0 1-.47l4.37-6.06c.28-.39.61-.58.88-.51l4.38 1c.69.16 1.51-1.21 1.37-2.33l-.83-7a2.843 2.843 0 0 1 .27-1.45l3.53-7.37Z" opacity=".5"/><path fill="#38A0ED" d="M401.8 195.1c-.45-.28-1.15.3-1.43 1.34l-2.19 8.08a2.95 2.95 0 0 1-.38.84l-3.24-2.43c.191-.259.333-.55.42-.86l2.19-8.09c.29-1.08 1.05-1.66 1.48-1.29.08.06 2.58 1.91 3.15 2.41Z"/><path fill="#000" d="M401.8 195.1c-.45-.28-1.15.3-1.43 1.34l-2.19 8.08a2.95 2.95 0 0 1-.38.84l-3.24-2.43c.191-.259.333-.55.42-.86l2.19-8.09c.29-1.08 1.05-1.66 1.48-1.29.08.06 2.58 1.91 3.15 2.41Z" opacity=".1"/><path fill="#38A0ED" d="m402.06 195.46 2.19 5.56a.532.532 0 0 0 .27.349.532.532 0 0 0 .44.031l4.9-1.73c.77-.27 1.08 1 .52 2.19l-3.54 7.35a2.843 2.843 0 0 0-.27 1.45l.83 7c.14 1.12-.68 2.49-1.37 2.33l-4.38-1c-.27-.07-.6.12-.88.51l-4.38 6.07c-.7 1-1.51.53-1.38-.74l.84-8a1.398 1.398 0 0 0-.27-1.14l-3.54-3.27c-.57-.51-.26-2.16.52-2.79l4.89-3.92c.358-.317.609-.736.72-1.2l2.18-8.09c.36-1.27 1.37-1.85 1.71-.96Z"/><path fill="#38A0ED" d="M395.86 216.41a.999.999 0 0 0-.28-.69l-3.53-3.26a1.465 1.465 0 0 1-.25-1.29l-3.2-2.42a1.46 1.46 0 0 0 .25 1.25l3.54 3.27c.127.132.21.3.24.48.016.136.016.274 0 .41.005.08.005.16 0 .24l-.84 8a1.243 1.243 0 0 0 .34 1.18c.25.16 2.62 2 3.14 2.4a1.299 1.299 0 0 1-.28-1.13l.84-8v-.19c.03-.17.03-.25.03-.25Z"/><path fill="#000" d="M395.86 216.41a.999.999 0 0 0-.28-.69l-3.53-3.26a1.465 1.465 0 0 1-.25-1.29l-3.2-2.42a1.46 1.46 0 0 0 .25 1.25l3.54 3.27c.127.132.21.3.24.48.016.136.016.274 0 .41.005.08.005.16 0 .24l-.84 8a1.243 1.243 0 0 0 .34 1.18c.25.16 2.62 2 3.14 2.4a1.299 1.299 0 0 1-.28-1.13l.84-8v-.19c.03-.17.03-.25.03-.25Z" opacity=".1"/><path fill="#38A0ED" d="M419.92 145a2 2 0 0 0 0-2.05c-.09-.2-3.17-2.46-3.28-2.54a.483.483 0 0 0-.47-.05l-3.43 1.21-1.17-3a.863.863 0 0 0-.14-.24c-.27-.28-3.16-2.42-3.24-2.49-.44-.37-1.19.22-1.49 1.29l-2.18 8.09a2.41 2.41 0 0 1-.72 1.21l-4.89 3.92c-.78.62-1.09 2.27-.52 2.79l3.54 3.27c.124.158.212.341.258.536.047.195.051.397.012.594l-.84 8a1.243 1.243 0 0 0 .34 1.18c.24.16 2.57 2 3.12 2.39a.39.39 0 0 0 .12.09c.27.15.65 0 1-.47l4.38-6.06c.27-.39.6-.58.88-.51l4.38 1c.69.16 1.5-1.21 1.37-2.33l-.84-7c-.04-.5.057-1.001.28-1.45l3.53-7.38Z"/><path fill="#fff" d="M419.92 145a2 2 0 0 0 0-2.05c-.09-.2-3.17-2.46-3.28-2.54a.483.483 0 0 0-.47-.05l-3.43 1.21-1.17-3a.863.863 0 0 0-.14-.24c-.27-.28-3.16-2.42-3.24-2.49-.44-.37-1.19.22-1.49 1.29l-2.18 8.09a2.41 2.41 0 0 1-.72 1.21l-4.89 3.92c-.78.62-1.09 2.27-.52 2.79l3.54 3.27c.124.158.212.341.258.536.047.195.051.397.012.594l-.84 8a1.243 1.243 0 0 0 .34 1.18c.24.16 2.57 2 3.12 2.39a.39.39 0 0 0 .12.09c.27.15.65 0 1-.47l4.38-6.06c.27-.39.6-.58.88-.51l4.38 1c.69.16 1.5-1.21 1.37-2.33l-.84-7c-.04-.5.057-1.001.28-1.45l3.53-7.38Z" opacity=".5"/><path fill="#38A0ED" d="M411.39 138.2c-.45-.28-1.15.3-1.44 1.34l-2.19 8.08a2.68 2.68 0 0 1-.38.84l-3.29-2.46c.195-.256.338-.549.42-.86l2.19-8.09c.3-1.08 1.05-1.66 1.49-1.29.07.09 2.57 1.94 3.2 2.44Z"/><path fill="#000" d="M411.39 138.2c-.45-.28-1.15.3-1.44 1.34l-2.19 8.08a2.68 2.68 0 0 1-.38.84l-3.29-2.46c.195-.256.338-.549.42-.86l2.19-8.09c.3-1.08 1.05-1.66 1.49-1.29.07.09 2.57 1.94 3.2 2.44Z" opacity=".1"/><path fill="#38A0ED" d="m411.6 138.56 2.19 5.56a.539.539 0 0 0 .268.354.52.52 0 0 0 .442.026l4.89-1.73c.78-.27 1.09 1 .53 2.19l-3.53 7.36a2.688 2.688 0 0 0-.28 1.44l.84 7c.13 1.12-.68 2.49-1.37 2.33l-4.38-1c-.28-.07-.61.12-.88.51l-4.38 6.06c-.69 1-1.5.53-1.37-.74l.83-8a1.34 1.34 0 0 0-.27-1.14l-3.54-3.27c-.56-.51-.25-2.16.53-2.79l4.89-3.92c.354-.318.602-.737.71-1.2l2.19-8.09c.34-1.26 1.34-1.84 1.69-.95Z"/><path fill="#38A0ED" d="M405.39 159.51a1.1 1.1 0 0 0-.28-.69l-3.54-3.26a1.507 1.507 0 0 1-.24-1.29l-3.21-2.42a1.463 1.463 0 0 0 .26 1.25l3.54 3.27c.122.135.205.301.24.48.011.137.011.274 0 .41.005.08.005.16 0 .24l-.84 8a1.275 1.275 0 0 0 .33 1.18c.25.16 2.63 2 3.15 2.4a1.273 1.273 0 0 1-.28-1.13l.83-8a1.205 1.205 0 0 0 0-.19c.018-.082.032-.166.04-.25Z"/><path fill="#000" d="M405.39 159.51a1.1 1.1 0 0 0-.28-.69l-3.54-3.26a1.507 1.507 0 0 1-.24-1.29l-3.21-2.42a1.463 1.463 0 0 0 .26 1.25l3.54 3.27c.122.135.205.301.24.48.011.137.011.274 0 .41.005.08.005.16 0 .24l-.84 8a1.275 1.275 0 0 0 .33 1.18c.25.16 2.63 2 3.15 2.4a1.273 1.273 0 0 1-.28-1.13l.83-8a1.205 1.205 0 0 0 0-.19c.018-.082.032-.166.04-.25Z" opacity=".1"/><path fill="#38A0ED" d="M408.91 101.39a2.066 2.066 0 0 0 0-2.06c-.09-.19-3.17-2.45-3.28-2.53a.498.498 0 0 0-.48 0l-3.38 1.2-1.17-3a1.329 1.329 0 0 0-.14-.24c-.27-.29-3.16-2.43-3.24-2.49-.44-.37-1.2.21-1.49 1.29l-2.19 8.09a2.32 2.32 0 0 1-.71 1.21l-4.89 3.92c-.78.62-1.09 2.27-.53 2.79l3.54 3.27a1.352 1.352 0 0 1 .28 1.13l-.84 8a1.276 1.276 0 0 0 .33 1.18c.25.16 2.57 2 3.12 2.39l.12.09c.28.15.65 0 1-.47l4.38-6.07c.27-.38.6-.57.88-.5l4.37 1c.7.16 1.51-1.22 1.38-2.33l-.84-7c-.04-.5.057-1.001.28-1.45l3.5-7.42Z"/><path fill="#fff" d="M408.91 101.39a2.066 2.066 0 0 0 0-2.06c-.09-.19-3.17-2.45-3.28-2.53a.498.498 0 0 0-.48 0l-3.38 1.2-1.17-3a1.329 1.329 0 0 0-.14-.24c-.27-.29-3.16-2.43-3.24-2.49-.44-.37-1.2.21-1.49 1.29l-2.19 8.09a2.32 2.32 0 0 1-.71 1.21l-4.89 3.92c-.78.62-1.09 2.27-.53 2.79l3.54 3.27a1.352 1.352 0 0 1 .28 1.13l-.84 8a1.276 1.276 0 0 0 .33 1.18c.25.16 2.57 2 3.12 2.39l.12.09c.28.15.65 0 1-.47l4.38-6.07c.27-.38.6-.57.88-.5l4.37 1c.7.16 1.51-1.22 1.38-2.33l-.84-7c-.04-.5.057-1.001.28-1.45l3.5-7.42Z" opacity=".5"/><path fill="#38A0ED" d="M400.39 94.63c-.45-.28-1.16.3-1.44 1.34l-2.19 8.08a2.68 2.68 0 0 1-.38.84l-3.24-2.43a2.56 2.56 0 0 0 .42-.86l2.19-8.09c.29-1.08 1.05-1.66 1.49-1.29.02.06 2.52 1.91 3.15 2.41Z"/><path fill="#000" d="M400.39 94.63c-.45-.28-1.16.3-1.44 1.34l-2.19 8.08a2.68 2.68 0 0 1-.38.84l-3.24-2.43a2.56 2.56 0 0 0 .42-.86l2.19-8.09c.29-1.08 1.05-1.66 1.49-1.29.02.06 2.52 1.91 3.15 2.41Z" opacity=".1"/><path fill="#38A0ED" d="m400.6 95 2.18 5.57a.551.551 0 0 0 .274.354.529.529 0 0 0 .22.061.529.529 0 0 0 .226-.035l4.89-1.75c.78-.27 1.09 1 .52 2.19l-3.52 7.35c-.223.449-.32.95-.28 1.45l.84 7c.13 1.11-.68 2.49-1.38 2.33l-4.37-1c-.28-.07-.61.12-.88.5l-4.38 6.07c-.69 1-1.51.53-1.37-.74l.83-8a1.405 1.405 0 0 0-.27-1.14l-3.55-3.21c-.56-.52-.25-2.17.53-2.79l4.89-3.92c.354-.322.602-.744.71-1.21L398.9 96c.35-1.32 1.35-1.9 1.7-1Z"/><path fill="#38A0ED" d="M394.39 115.93c-.01-.256-.109-.5-.28-.69l-3.53-3.24a1.444 1.444 0 0 1-.25-1.28l-3.2-2.43a1.468 1.468 0 0 0 .25 1.26l3.54 3.27a.88.88 0 0 1 .25.48c.011.136.011.274 0 .41.005.08.005.16 0 .24l-.84 8a1.273 1.273 0 0 0 .33 1.19c.25.16 2.63 2 3.14 2.4a1.31 1.31 0 0 1-.27-1.13l.83-8a1.205 1.205 0 0 0 0-.19c.03-.22.03-.29.03-.29Z"/><path fill="#000" d="M394.39 115.93c-.01-.256-.109-.5-.28-.69l-3.53-3.24a1.444 1.444 0 0 1-.25-1.28l-3.2-2.43a1.468 1.468 0 0 0 .25 1.26l3.54 3.27a.88.88 0 0 1 .25.48c.011.136.011.274 0 .41.005.08.005.16 0 .24l-.84 8a1.273 1.273 0 0 0 .33 1.19c.25.16 2.63 2 3.14 2.4a1.31 1.31 0 0 1-.27-1.13l.83-8a1.205 1.205 0 0 0 0-.19c.03-.22.03-.29.03-.29Z" opacity=".1"/><path fill="#38A0ED" d="M380.91 81.33a1.996 1.996 0 0 0 0-2c-.09-.19-3.17-2.45-3.28-2.53a.482.482 0 0 0-.47 0l-3.43 1.21-1.17-3a1.066 1.066 0 0 0-.14-.24c-.27-.29-3.16-2.43-3.24-2.5-.44-.36-1.19.22-1.49 1.3l-2.18 8.09a2.41 2.41 0 0 1-.72 1.21l-4.89 3.92c-.78.62-1.09 2.27-.52 2.79l3.54 3.27a1.393 1.393 0 0 1 .27 1.13l-.84 8a1.262 1.262 0 0 0 .34 1.19c.24.16 2.56 2 3.12 2.38a.55.55 0 0 0 .11.1c.27.14.65 0 1-.47L371.3 99c.27-.38.6-.57.88-.51l4.38 1c.69.16 1.5-1.22 1.37-2.33l-.84-7c-.042-.5.055-1.001.28-1.45l3.54-7.38Z"/><path fill="#fff" d="M380.91 81.33a1.996 1.996 0 0 0 0-2c-.09-.19-3.17-2.45-3.28-2.53a.482.482 0 0 0-.47 0l-3.43 1.21-1.17-3a1.066 1.066 0 0 0-.14-.24c-.27-.29-3.16-2.43-3.24-2.5-.44-.36-1.19.22-1.49 1.3l-2.18 8.09a2.41 2.41 0 0 1-.72 1.21l-4.89 3.92c-.78.62-1.09 2.27-.52 2.79l3.54 3.27a1.393 1.393 0 0 1 .27 1.13l-.84 8a1.262 1.262 0 0 0 .34 1.19c.24.16 2.56 2 3.12 2.38a.55.55 0 0 0 .11.1c.27.14.65 0 1-.47L371.3 99c.27-.38.6-.57.88-.51l4.38 1c.69.16 1.5-1.22 1.37-2.33l-.84-7c-.042-.5.055-1.001.28-1.45l3.54-7.38Z" opacity=".5"/><path fill="#38A0ED" d="M372.33 74.58c-.45-.28-1.15.29-1.44 1.33L368.7 84c-.079.3-.208.583-.38.84l-3.24-2.43a2.57 2.57 0 0 0 .42-.86l2.19-8.09c.3-1.08 1.05-1.66 1.49-1.29.07.06 2.57 1.91 3.15 2.41Z"/><path fill="#000" d="M372.33 74.58c-.45-.28-1.15.29-1.44 1.33L368.7 84c-.079.3-.208.583-.38.84l-3.24-2.43a2.57 2.57 0 0 0 .42-.86l2.19-8.09c.3-1.08 1.05-1.66 1.49-1.29.07.06 2.57 1.91 3.15 2.41Z" opacity=".1"/><path fill="#38A0ED" d="m372.59 74.93 2.19 5.56a.543.543 0 0 0 .485.42.539.539 0 0 0 .225-.03l4.9-1.73c.78-.27 1.09 1 .53 2.18l-3.53 7.36c-.225.448-.322.95-.28 1.45l.84 7c.13 1.11-.68 2.49-1.37 2.33l-4.38-1c-.28-.06-.61.13-.88.51l-4.38 6.07c-.69 1-1.5.52-1.37-.74l.83-8a1.318 1.318 0 0 0-.27-1.13l-3.54-3.27c-.56-.52-.25-2.17.53-2.79l4.89-3.92a2.4 2.4 0 0 0 .71-1.21l2.19-8.09c.33-1.27 1.33-1.85 1.68-.97Z"/><path fill="#38A0ED" d="M366.39 95.88c-.01-.256-.109-.5-.28-.69l-3.54-3.27a1.525 1.525 0 0 1-.25-1.29l-3.2-2.42a1.484 1.484 0 0 0 .26 1.26l3.54 3.27a.992.992 0 0 1 .24.47c.011.14.011.28 0 .42.005.08.005.16 0 .24l-.84 8a1.285 1.285 0 0 0 .33 1.19c.25.16 2.63 2 3.15 2.4a1.29 1.29 0 0 1-.28-1.13l.83-8c.005-.06.005-.12 0-.18.04-.15.04-.27.04-.27Z"/><path fill="#000" d="M366.39 95.88c-.01-.256-.109-.5-.28-.69l-3.54-3.27a1.525 1.525 0 0 1-.25-1.29l-3.2-2.42a1.484 1.484 0 0 0 .26 1.26l3.54 3.27a.992.992 0 0 1 .24.47c.011.14.011.28 0 .42.005.08.005.16 0 .24l-.84 8a1.285 1.285 0 0 0 .33 1.19c.25.16 2.63 2 3.15 2.4a1.29 1.29 0 0 1-.28-1.13l.83-8c.005-.06.005-.12 0-.18.04-.15.04-.27.04-.27Z" opacity=".1"/><path fill="#38A0ED" d="m367.03 182.82-18-10.37a4.707 4.707 0 0 0-4.68 0l-.61.35-39.17 22.62a14.223 14.223 0 0 0-7.11 12.32v29.81c0 2.19.74 3.75 1.95 4.53 1.21.78 16.59 9.5 17.8 10.27 1.21.77 3.13.76 5.16-.41l39.17-22.62a15.717 15.717 0 0 0 7.15-12.32v-29.81a5.53 5.53 0 0 0-1.66-4.37Z"/><path fill="#000" d="M317.29 252.38c-1.21-.77-16.51-9.44-17.8-10.27-1.29-.83-1.95-2.34-1.95-4.53v-29.84c.002-2.492.657-4.94 1.9-7.1L317.39 211a14.52 14.52 0 0 0-2.07 7v29.81c-.02 2.19.73 3.8 1.97 4.57Z" opacity=".1"/><path fill="#38A0ED" d="M368.69 187.19V217a15.705 15.705 0 0 1-7.11 12.32l-39.19 22.62c-3.93 2.27-7.11.43-7.11-4.11V218a15.727 15.727 0 0 1 7.11-12.31l39.17-22.61c3.95-2.27 7.13-.43 7.13 4.11Z"/><path fill="#fff" d="m349.07 172.45 17.46 10.08c-1.28-.69-3-.57-4.95.55l-39.19 22.61a14.572 14.572 0 0 0-5 5.33l-18-10.38a14.33 14.33 0 0 1 5.22-5.21l39.16-22.62.61-.35a4.73 4.73 0 0 1 4.68 0l.01-.01Z" opacity=".5"/><path fill="#455A64" d="m345.81 227.17-7.63 4.4 1.18-13.8c-.91-.48-1.49-1.67-1.49-3.38 0-3 1.85-6.57 4.13-7.88 2.28-1.31 4.12.08 4.12 3.12a10.426 10.426 0 0 1-1.49 5.1l1.18 12.44Z"/><path fill="#37474F" d="m345.81 227.17-6.91-3.99-.72 8.39 7.63-4.4ZM342 206.51a8.932 8.932 0 0 0-3.52 4.67l6.15 3.55a10.426 10.426 0 0 0 1.49-5.1c0-3.04-1.84-4.44-4.12-3.12Zm7.79-24.05v-30.24c0-6.05-2.29-10.85-6.28-13.15-3.81-2.2-8.52-1.9-13.27.84-8.71 5-15.54 17.31-15.54 28v30.29a2.002 2.002 0 0 0 1.17 1.64 6.27 6.27 0 0 0 5.66 0 2 2 0 0 0 1.17-1.64v-30.34c0-7.78 5.29-17.41 11.54-21 2.14-1.23 4.06-1.54 5.27-.84 1.42.82 2.28 3.15 2.28 6.22v30.24c.036.349.163.682.368.967.206.284.482.509.802.653a6.25 6.25 0 0 0 5.65 0 1.993 1.993 0 0 0 1.18-1.62v-.02Z"/><path fill="#38A0ED" d="m137.09 127.54 102.74-59.3c1.18-.68 2.14-.13 2.14 1.24v41.06a4.733 4.733 0 0 1-2.14 3.71l-102.74 59.31c-1.18.68-2.14.13-2.14-1.24v-41.07a4.75 4.75 0 0 1 2.14-3.71Z" opacity=".7"/><path fill="#38A0ED" d="m135.58 129.14-5.46-3.14a4.36 4.36 0 0 0-.63 2.11v41.08a1.513 1.513 0 0 0 .62 1.37c.39.24 5.06 2.91 5.43 3.14a1.524 1.524 0 0 1-.58-1.36v-41.09a4.342 4.342 0 0 1 .62-2.11Z" opacity=".3"/><path fill="#38A0ED" d="M241.26 68c-.76-.46-5-2.9-5.36-3.1a1.51 1.51 0 0 0-1.53.13l-102.73 59.36a4.397 4.397 0 0 0-1.52 1.59l5.46 3.16a4.398 4.398 0 0 1 1.51-1.6l102.74-59.3a1.574 1.574 0 0 1 1.43-.24Z" opacity=".5"/><path fill="#fff" d="M151.58 139.07a3.332 3.332 0 0 1-1.67-.43 4.108 4.108 0 0 1-1.81-3.76 10.793 10.793 0 0 1 4.95-8.56 3.695 3.695 0 0 1 4.186-.348 3.703 3.703 0 0 1 1.814 3.788 10.815 10.815 0 0 1-4.94 8.57 5.106 5.106 0 0 1-2.53.74Zm9.61 1.25c-1.85-1.07-4.19-.89-6.61.51l-2.73 1.57a18.46 18.46 0 0 0-8.46 14.6v4.69l20.74-11.95v-3.23c.01-2.85-1.06-5.11-2.94-6.19Z"/><path fill="#fff" d="M171.48 121.31c0 3.08 2.31 4.25 5.16 2.61L225.04 96a11.046 11.046 0 0 0 5.16-8.56c0-3.09-2.31-4.26-5.16-2.61l-48.4 27.94a11.076 11.076 0 0 0-5.16 8.54Z" opacity=".7"/><path fill="#455A64" d="m176.39 116.59 48.86-28.19c.95-.55 1.72-.16 1.72.87a3.66 3.66 0 0 1-1.72 2.85l-48.86 28.19c-.95.55-1.72.16-1.72-.87a3.693 3.693 0 0 1 1.72-2.85Z"/><path fill="#fff" d="M171.48 139.93c0 3.09 2.31 4.26 5.16 2.61l48.4-27.94a11.066 11.066 0 0 0 5.16-8.57c0-3.08-2.31-4.25-5.16-2.61l-48.4 28a11.043 11.043 0 0 0-5.16 8.51Z" opacity=".7"/><path fill="#455A64" d="M179.55 133.42c.89-.52 1.61-.1 1.61.93a3.555 3.555 0 0 1-1.61 2.79c-.89.52-1.61.1-1.61-.93a3.543 3.543 0 0 1 1.61-2.79Zm5.09-2.94c.89-.52 1.61-.1 1.61.93a3.557 3.557 0 0 1-1.61 2.79c-.89.52-1.61.1-1.61-.93a3.543 3.543 0 0 1 1.61-2.79Zm5.09-2.94c.89-.52 1.61-.1 1.61.93a3.543 3.543 0 0 1-1.61 2.79c-.89.52-1.61.1-1.61-.93a3.555 3.555 0 0 1 1.61-2.79Zm5.09-2.94c.89-.52 1.61-.1 1.61.93a3.586 3.586 0 0 1-1.61 2.8c-.89.51-1.61.09-1.61-.94a3.543 3.543 0 0 1 1.61-2.79Zm5.09-2.94c.89-.51 1.61-.1 1.61.93a3.588 3.588 0 0 1-1.61 2.8c-.89.51-1.61.09-1.61-.94a3.586 3.586 0 0 1 1.61-2.79Zm5.09-2.94c.89-.51 1.61-.1 1.61.93a3.59 3.59 0 0 1-1.61 2.8c-.89.51-1.61.1-1.61-.93a3.573 3.573 0 0 1 1.61-2.8Zm5.09-2.94c.89-.51 1.61-.09 1.61.93a3.588 3.588 0 0 1-1.61 2.8c-.89.51-1.61.1-1.61-.93a3.586 3.586 0 0 1 1.61-2.8Zm5.09-2.94c.89-.51 1.61-.09 1.61.94a3.55 3.55 0 0 1-.472 1.587 3.55 3.55 0 0 1-1.138 1.203c-.89.51-1.61.1-1.61-.93a3.573 3.573 0 0 1 1.61-2.8Zm5.09-2.93c.89-.52 1.61-.1 1.61.93a3.557 3.557 0 0 1-1.61 2.79c-.89.52-1.61.1-1.61-.93a3.543 3.543 0 0 1 1.61-2.79Zm5.12-2.91c.89-.52 1.61-.1 1.61.93a3.557 3.557 0 0 1-1.61 2.79c-.89.52-1.61.1-1.61-.93a3.543 3.543 0 0 1 1.61-2.79Z"/><path fill="#38A0ED" d="M231.47 142.66a1 1 0 0 0-.39-.9l-.1-.06-2.06-1.2a1.007 1.007 0 0 0-1 .1l-41.13 23.72-1.2-4.83a1.357 1.357 0 0 0-.6-.79l-2.14-1.24a1.27 1.27 0 0 0-1.3 0l-17.5 10.1a3.136 3.136 0 0 0-1.42 2.47v58.36a.991.991 0 0 0 .073.499.993.993 0 0 0 .307.401l2.2 1.27a1 1 0 0 0 1-.11l63.89-36.89a3.149 3.149 0 0 0 1.43-2.46l-.06-48.44Z"/><path fill="#000" d="M184.96 158.68a1.28 1.28 0 0 0-1.28.06l-17.5 10.1a3 3 0 0 0-1 1.07l-2.14-1.25a2.874 2.874 0 0 1 1-1.06l17.5-10.1a1.272 1.272 0 0 1 1.3 0l2.12 1.18Zm46.02-16.98a1.09 1.09 0 0 0-.93.14l-41.18 23.76a1.248 1.248 0 0 1-1.63-.231 1.252 1.252 0 0 1-.27-.529l-.19-.52 41.13-23.72c.19-.117.407-.182.63-.19a.715.715 0 0 1 .37.09l2.07 1.2Z" opacity=".2"/><path fill="#38A0ED" d="M231.47 142.66v48.48a3.101 3.101 0 0 1-.413 1.401 3.102 3.102 0 0 1-1.007 1.059l-64.05 37a.839.839 0 0 1-1.26-.72v-58.57a3.104 3.104 0 0 1 1.42-2.46l17.5-10.11a1.304 1.304 0 0 1 1.28-.06c.294.172.509.452.6.78l1.2 4.83.19.52a1.25 1.25 0 0 0 .746.874 1.237 1.237 0 0 0 1.144-.114L230 141.81a1.056 1.056 0 0 1 .93-.13h.11a.999.999 0 0 1 .43.98Z"/><path fill="#000" d="M231.47 142.66v48.48a3.101 3.101 0 0 1-.413 1.401 3.102 3.102 0 0 1-1.007 1.059l-64.05 37a.839.839 0 0 1-1.26-.72v-58.57a3.104 3.104 0 0 1 1.42-2.46l17.5-10.11a1.304 1.304 0 0 1 1.28-.06c.294.172.509.452.6.78l1.2 4.83.19.52a1.25 1.25 0 0 0 .746.874 1.237 1.237 0 0 0 1.144-.114L230 141.81a1.056 1.056 0 0 1 .93-.13h.11a.999.999 0 0 1 .43.98Z" opacity=".3"/><path fill="#000" d="M165.28 230.63h-.07l-2.2-1.28a1.013 1.013 0 0 1-.31-.405 1.014 1.014 0 0 1-.07-.505v-58.38a2.9 2.9 0 0 1 .42-1.4l2.13 1.25a2.878 2.878 0 0 0-.42 1.4v58.54a.828.828 0 0 0 .52.78Z" opacity=".5"/><path fill="#38A0ED" d="M152.85 175.58a1.163 1.163 0 0 0-1 .14l-67.24 38.83a3.438 3.438 0 0 0-1.56 2.7V278a1.108 1.108 0 0 0 .43 1c-.27-.17-2.63-1.5-2.92-1.68a1.104 1.104 0 0 1-.45-1v-60.76a3.437 3.437 0 0 1 1.57-2.7L148.87 174a1.104 1.104 0 0 1 1.12-.1c.25.18 2.3 1.34 2.86 1.68Z" opacity=".7"/><path fill="#38A0ED" d="m84.57 214.55 67.23-38.83c.87-.49 1.57-.09 1.57.91v60.7a3.443 3.443 0 0 1-1.57 2.71l-67.23 38.82c-.86.5-1.56.1-1.56-.9v-60.71a3.46 3.46 0 0 1 1.56-2.7Z" opacity=".7"/><path fill="#000" d="m83.47 215.72-2.94-1.7a3.26 3.26 0 0 0-.46 1.54v60.71a1.108 1.108 0 0 0 .45 1c.29.18 2.65 1.51 2.92 1.68a1.114 1.114 0 0 1-.43-1v-60.7a3.19 3.19 0 0 1 .46-1.53Z" opacity=".15"/><path fill="#fff" d="M152.85 175.58c-.56-.34-2.61-1.5-2.86-1.65a1.099 1.099 0 0 0-1.12.1l-67.23 38.83a3.26 3.26 0 0 0-1.11 1.16l2.94 1.7c.258-.48.638-.883 1.1-1.17l67.24-38.83a1.161 1.161 0 0 1 1.04-.14Z" opacity=".5"/><path fill="#FAFAFA" d="m127.021 234.68 5.31 7.47-24-21.85-25.31 42.87V278c0 1 .7 1.4 1.56.9L151.8 240a3.462 3.462 0 0 0 1.57-2.71v-8.12l-17.91-12.9-8.44 18.41Zm2.889-35.94c3.14-1.81 5.68-.34 5.68 3.28a12.528 12.528 0 0 1-5.68 9.83c-3.13 1.81-5.67.34-5.67-3.28a12.552 12.552 0 0 1 5.67-9.83Z" opacity=".95"/><path fill="#38A0ED" d="m172.07 240.18 52.49-30.31a1.12 1.12 0 0 1 1.33 0c.3.26 2.19 1.22 2.52 1.45a1.67 1.67 0 0 1 .55 1.42V260a4.346 4.346 0 0 1-1.81 3.46l-9.22 5.32-47.09-27.2a3.447 3.447 0 0 1 1.23-1.4Z"/><path fill="#fff" d="m172.07 240.18 52.49-30.31a1.12 1.12 0 0 1 1.33 0c.3.26 2.19 1.22 2.52 1.45a1.67 1.67 0 0 1 .55 1.42V260a4.346 4.346 0 0 1-1.81 3.46l-9.22 5.32-47.09-27.2a3.447 3.447 0 0 1 1.23-1.4Z" opacity=".5"/><path fill="#38A0ED" d="M173.39 293.8c-.36-.23-2.27-1.28-2.59-1.5a1.62 1.62 0 0 1-.58-1.43v-47.23a4.386 4.386 0 0 1 .58-2.09l47.09 27.2-43.27 25a1.132 1.132 0 0 1-1.23.05Z"/><path fill="#000" d="M173.39 293.8c-.36-.23-2.27-1.28-2.59-1.5a1.62 1.62 0 0 1-.58-1.43v-47.23a4.386 4.386 0 0 1 .58-2.09l47.09 27.2-43.27 25a1.132 1.132 0 0 1-1.23.05Z" opacity=".2"/><path fill="#38A0ED" d="m174.66 293.73 52.49-30.3a4.343 4.343 0 0 0 1.81-3.46v-47.23c0-1.34-.81-2-1.81-1.37l-52.49 30.3a4.359 4.359 0 0 0-1.81 3.46v47.23c0 1.34.81 1.95 1.81 1.37Z"/><path fill="#000" d="M172.85 292.36v-.92l21.7-36-21.42-11.84c0-.13.1-.26.15-.38l26.69 11.12c.57.23 1.3-.19 1.86-1.07l26.66-41.89c.058.055.111.116.16.18l-21.39 36.57 21.7 10.87v1a4.755 4.755 0 0 1-.55 2.13L206.16 250l-3.15 5.38c-1.26 2.14-3 3.13-4.21 2.43l-3.15-1.74-22.26 37.73a1.703 1.703 0 0 1-.54-1.44Z" opacity=".2"/><path fill="#EBEBEB" d="M80 153v48a2.228 2.228 0 0 0 1 1.75l1.77 1a2.213 2.213 0 0 0 2 0l34-19.56a2.24 2.24 0 0 0 1-1.75v-48a2.22 2.22 0 0 0-1-1.75l-1.78-1a2.253 2.253 0 0 0-2 0l-34 19.57A2.22 2.22 0 0 0 80 153Z"/><path fill="#F5F5F5" d="M119.82 134.3c-.07-.52-.49-.71-1-.42l-34 19.57a2.07 2.07 0 0 0-.72.75l-3.8-2.2a2.06 2.06 0 0 1 .71-.75l34-19.57a2.264 2.264 0 0 1 2 0l1.77 1a2.283 2.283 0 0 1 1.04 1.62Z"/><path fill="#E0E0E0" d="M84.63 203.88h-.18l-.21.06a2.377 2.377 0 0 1-1.22-.1l-.22-.11-1.78-1a2.262 2.262 0 0 1-1-1.75V153a2 2 0 0 1 .3-1l3.79 2.19a2.121 2.121 0 0 0-.29 1v48a.82.82 0 0 0 .15.53.544.544 0 0 0 .54.18l.12-.02Z"/><path fill="#455A64" d="M109.87 172.57a5.492 5.492 0 0 1-3.11-.84.323.323 0 1 1 .36-.54 6.002 6.002 0 0 0 4.5.56.307.307 0 0 1 .128 0 .31.31 0 0 1 .206.141.32.32 0 0 1 .046.119.324.324 0 0 1 .001.128.33.33 0 0 1-.142.206.314.314 0 0 1-.119.046c-.617.115-1.242.175-1.87.18Zm-3.48-1.65a.365.365 0 0 1-.25-.11c-1.14-1.28-1.26-3.22-1.38-5.27 0-.35-.05-.7-.07-1a2.487 2.487 0 0 0-.73-1.9 1.41 1.41 0 0 0-1.25-.08.333.333 0 0 1-.271-.007.332.332 0 0 1-.184-.345.324.324 0 0 1 .275-.278 2.08 2.08 0 0 1 1.81.17 2.995 2.995 0 0 1 1 2.39c0 .35.05.71.08 1.06.12 2 .23 3.77 1.22 4.88a.317.317 0 0 1 .072.355.328.328 0 0 1-.072.105.345.345 0 0 1-.25.03Zm-6.08 4.66a.311.311 0 0 1-.3-.2c-1.1-2.68-1.68-10.79 1.54-13a.329.329 0 0 1 .242-.055.318.318 0 0 1 .208.135.314.314 0 0 1 .052.118.325.325 0 0 1-.132.342c-2.79 1.93-2.36 9.67-1.31 12.23a.329.329 0 0 1-.18.43.244.244 0 0 1-.12 0Zm7.64 5.01a8.07 8.07 0 0 1-7.4-4.1.328.328 0 0 1 .12-.44.337.337 0 0 1 .249-.029.336.336 0 0 1 .201.149c1.6 2.82 4.51 4.13 8.2 3.69a.328.328 0 0 1 .08.65c-.5.05-1.01.08-1.45.08Z"/><path fill="#455A64" d="M108.67 178.7a7.285 7.285 0 0 1-5.25-1.87c-2-1.94-2.87-5.37-2.54-10.2a3.362 3.362 0 0 1 1.38-2.55 1.18 1.18 0 0 1 1.23 0 1.394 1.394 0 0 1 .62 1.27c-.06 3.89.65 6.4 2.17 7.69 1.16 1 2.82 1.28 5.07.88a.329.329 0 0 1 .375.265.32.32 0 0 1-.055.242.335.335 0 0 1-.092.088.332.332 0 0 1-.118.045c-2.45.44-4.28.1-5.61-1-1.67-1.43-2.45-4.11-2.39-8.2a.773.773 0 0 0-.3-.7.542.542 0 0 0-.56 0 2.742 2.742 0 0 0-1.07 2c-.32 4.63.47 7.89 2.34 9.69 1.41 1.36 3.48 1.91 6.14 1.62a.322.322 0 0 1 .07.64c-.468.059-.939.089-1.41.09Z"/><path fill="#455A64" d="M107.15 182.79a8.703 8.703 0 0 1-3.443-.53 8.704 8.704 0 0 1-2.957-1.84c-2.36-2.34-3.4-6.32-3.09-11.84.17-3.06 1.3-6.87 4-8.41l.11-.06a3.19 3.19 0 0 1 3.15-.23c1.1.59 1.78 2 1.92 3.84v.33c.14 1.91.29 3.89 1.53 4.87a4.527 4.527 0 0 0 3.62.51.307.307 0 0 1 .244.053.314.314 0 0 1 .126.217.32.32 0 0 1-.27.37 5.091 5.091 0 0 1-4.12-.64c-1.47-1.16-1.64-3.37-1.78-5.33v-.33c-.12-1.66-.68-2.84-1.57-3.32a2.605 2.605 0 0 0-2.54.23l-.1.06c-2.43 1.4-3.48 5.12-3.63 7.88-.3 5.32.67 9.14 2.9 11.34a8.484 8.484 0 0 0 6.84 2.15.345.345 0 0 1 .143.006.339.339 0 0 1 .213.18.317.317 0 0 1 .031.139c0 .048-.01.096-.031.139a.324.324 0 0 1-.213.18.345.345 0 0 1-.143.006l-.94.03Zm-.56 2.32a10.416 10.416 0 0 1-3.38-.61.331.331 0 0 1-.2-.42.342.342 0 0 1 .41-.2 9.686 9.686 0 0 0 3.17.58.332.332 0 0 1 .125.021c.04.016.077.039.108.069.03.03.055.066.072.105a.336.336 0 0 1 0 .251.326.326 0 0 1-.179.179.341.341 0 0 1-.126.025Zm-4.41-.95a.366.366 0 0 1-.14 0 8.603 8.603 0 0 1-4.35-4 .325.325 0 0 1-.015-.247.322.322 0 0 1 .165-.183.331.331 0 0 1 .44.15 7.798 7.798 0 0 0 4 3.74.331.331 0 0 1 .17.43.34.34 0 0 1-.27.11Z"/><path fill="#455A64" d="M97.39 178.88a.322.322 0 0 1-.31-.22c-1.27-3.64-2-11.11 1-16.74a.318.318 0 0 1 .44-.13.322.322 0 0 1 .169.319.321.321 0 0 1-.04.121c-2.95 5.45-2.19 12.69-1 16.22a.318.318 0 0 1-.2.41.182.182 0 0 1-.06.02Zm10.63-15.18a.319.319 0 0 1-.32-.29c-.31-3.28-1.2-4.85-3-5.24-1.8-.39-3.79.82-5.38 3a.327.327 0 0 1-.216.172.336.336 0 0 1-.271-.053.328.328 0 0 1-.043-.499c1.78-2.44 4.09-3.69 6.05-3.26 2.63.58 3.23 3.26 3.46 5.8a.33.33 0 0 1-.29.36l.01.01Zm2.82 4.56a2.832 2.832 0 0 1-1.52-.4 3.372 3.372 0 0 1-1.41-2.61.326.326 0 0 1 .048-.267.327.327 0 0 1 .491-.061.335.335 0 0 1 .111.248 2.78 2.78 0 0 0 1.1 2.14 2.922 2.922 0 0 0 2.48.06.323.323 0 0 1 .21.61 4.502 4.502 0 0 1-1.51.28Z"/><path fill="#455A64" d="M105.27 186.87a13.283 13.283 0 0 1-3.38-.86c-5.67-2.32-7.94-7-7.6-15.71.2-5 2.76-11.44 7.28-14.05 1.88-1.08 3.52-1.29 4.87-.63 1.62.8 2.69 2.81 3.1 5.82.45 3.33 1.29 3.91 2.86 3.85a.332.332 0 0 1 .125.021c.04.016.077.039.108.069.03.03.055.066.072.105a.336.336 0 0 1 .003.25.314.314 0 0 1-.298.205c-2.14 0-3.06-1.05-3.51-4.41-.38-2.79-1.33-4.63-2.74-5.32-1.15-.57-2.58-.36-4.26.6-4.32 2.5-6.77 8.69-7 13.52-.41 10.52 3.4 13.52 7.18 15.07a12.44 12.44 0 0 0 3.21.82.325.325 0 0 1 .195.113.328.328 0 0 1-.195.537h-.02Z"/><path fill="#455A64" d="M112.39 163.7c-1.82 0-2.21-2.36-2.52-4.26 0-.27-.08-.54-.13-.79a.307.307 0 0 1 0-.128.31.31 0 0 1 .141-.206.32.32 0 0 1 .119-.046.307.307 0 0 1 .128 0 .31.31 0 0 1 .206.141.32.32 0 0 1 .046.119c0 .26.09.53.14.81.28 1.76.63 3.75 1.92 3.71a.316.316 0 0 1 .311.186.313.313 0 0 1 .029.124.326.326 0 0 1-.09.236.322.322 0 0 1-.23.104h-.07Zm-2.64-5.95a.319.319 0 0 1-.31-.23c-.66-2.12-1.9-3.45-3.52-3.75a.329.329 0 0 1-.26-.38.34.34 0 0 1 .38-.26c1.84.34 3.3 1.87 4 4.2a.334.334 0 0 1-.021.248.332.332 0 0 1-.189.162l-.08.01Zm-10.66-.97a.314.314 0 0 1-.22-.09.327.327 0 0 1-.098-.23.32.32 0 0 1 .098-.23 9.59 9.59 0 0 1 6.14-3.17.35.35 0 0 1 .34.32.33.33 0 0 1-.32.33 9.047 9.047 0 0 0-5.69 3 .328.328 0 0 1-.25.07ZM93.71 166h-.07a.327.327 0 0 1-.202-.145.312.312 0 0 1-.038-.245 21.608 21.608 0 0 1 4.33-8.38.33.33 0 0 1 .532.102.315.315 0 0 1 0 .245.31.31 0 0 1-.072.103 20.872 20.872 0 0 0-4.2 8.11.327.327 0 0 1-.28.21Zm-.68 9.6a.33.33 0 0 1-.33-.29 27.8 27.8 0 0 1 .28-8.33.33.33 0 0 1 .64.12 27.189 27.189 0 0 0-.27 8.14.33.33 0 0 1-.29.36h-.03Zm2.36 7.9a.337.337 0 0 1-.28-.16 19.394 19.394 0 0 1-2.22-6.37.33.33 0 0 1 .397-.376.326.326 0 0 1 .2.146.327.327 0 0 1 .043.12 18.787 18.787 0 0 0 2.14 6.14.33.33 0 0 1-.12.45.336.336 0 0 1-.16.05Zm7.12 5.43a.244.244 0 0 1-.12 0 14.325 14.325 0 0 1-6.34-4.41.33.33 0 0 1 .52-.39 13.806 13.806 0 0 0 6.07 4.2.32.32 0 0 1 .17.42.31.31 0 0 1-.3.18Z"/><path fill="#455A64" d="M100.05 190.33h-.12c-5.92-2.43-9-8.64-9-18 0-7.24 3.3-16.36 10.67-20.4a7.232 7.232 0 0 1 7.2 0c2.54 1.5 4 4.55 4 8.36a.317.317 0 0 1-.33.32.32.32 0 0 1-.32-.32c0-3.63-1.31-6.4-3.69-7.8a6.55 6.55 0 0 0-6.55 0c-7.14 3.91-10.33 12.78-10.33 19.83 0 6.31 1.5 14.45 8.64 17.37a.33.33 0 0 1-.12.63l-.05.01Zm9.07-13.61h-.68a.331.331 0 0 1-.143-.644.345.345 0 0 1 .143-.006c.805.038 1.611.005 2.41-.1a.338.338 0 0 1 .37.29.332.332 0 0 1-.29.36c-.601.069-1.205.102-1.81.1Z"/><path fill="#455A64" d="M107.27 176.59h-.06a5.005 5.005 0 0 1-3.55-2.59.325.325 0 0 1 .049-.355.337.337 0 0 1 .352-.091c.082.028.15.088.189.166a4.322 4.322 0 0 0 3.08 2.23.314.314 0 0 1 .211.135.31.31 0 0 1 .049.117.307.307 0 0 1 0 .128.33.33 0 0 1-.32.26Zm-3.82-3.4a.33.33 0 0 1-.3-.2 15.242 15.242 0 0 1-.92-7.13.318.318 0 0 1 .223-.287c.041-.013.084-.017.127-.013a.293.293 0 0 1 .123.033.308.308 0 0 1 .163.19.321.321 0 0 1 .014.127 14.888 14.888 0 0 0 .86 6.82.324.324 0 0 1 .011.249.327.327 0 0 1-.171.181l-.13.03Zm6.58-23.07a.332.332 0 0 1-.19-.06 7.057 7.057 0 0 0-5.17-1 .329.329 0 0 1-.243-.034.325.325 0 0 1-.114-.443.328.328 0 0 1 .197-.153 7.698 7.698 0 0 1 5.71 1.06.316.316 0 0 1 .127.344.322.322 0 0 1-.057.116.322.322 0 0 1-.109.117.326.326 0 0 1-.151.053Zm-13.72 3.99a.338.338 0 0 1-.21-.08.327.327 0 0 1-.098-.23.323.323 0 0 1 .098-.23 17.823 17.823 0 0 1 6.85-4.66.32.32 0 0 1 .42.19.32.32 0 0 1-.19.42 17.225 17.225 0 0 0-6.59 4.48.359.359 0 0 1-.28.11Zm.22 36.99a.42.42 0 0 1-.15 0 7.87 7.87 0 0 1-2.6-2.11.328.328 0 0 1-.097-.23.317.317 0 0 1 .097-.23.33.33 0 0 1 .46 0 7.203 7.203 0 0 0 2.39 1.94.327.327 0 0 1 .165.363.333.333 0 0 1-.305.257l.04.01Zm-3.34-3.22a.34.34 0 0 1-.26-.12 14.57 14.57 0 0 1-2.29-4.11.33.33 0 0 1 .62-.21 13.546 13.546 0 0 0 2.18 3.91.33.33 0 0 1 0 .46.309.309 0 0 1-.25.07Z"/><path fill="#38A0ED" d="M308.63 366.15c-14.94-8.62-39.14-8.62-54.08 0-6.25 3.61-10.17 6-11.18 10.75v4.87a15.438 15.438 0 0 0 4.64 10.53l-67 33.83V431l7.51 4.34h20.95l8.24-4.76V426l6.57-3.66 9.13-.81 3.64-2.1.37-8.16 6.75-3.9 9.89 2.24 12.88-7.43c13.87 3.32 30.42 1.73 41.7-4.78 7.48-4.32 11.21-10 11.19-15.66v-4.82c-.68-5.09-4.49-6.92-11.2-10.77Zm-9.33 14a17 17 0 0 1-15.32 0c-4.23-2.45-4.23-6.4 0-8.85a16.998 16.998 0 0 1 15.32 0c4.23 2.41 4.23 6.36 0 8.81v.04Z"/><path fill="#000" d="M308.63 366.15c-14.94-8.62-39.14-8.62-54.08 0-6.25 3.61-10.17 6-11.18 10.75v4.87a15.438 15.438 0 0 0 4.64 10.53l-67 33.83V431l7.51 4.34h20.95l8.24-4.76V426l6.57-3.66 9.13-.81 3.64-2.1.37-8.16 6.75-3.9 9.89 2.24 12.88-7.43c13.87 3.32 30.42 1.73 41.7-4.78 7.48-4.32 11.21-10 11.19-15.66v-4.82c-.68-5.09-4.49-6.92-11.2-10.77Zm-9.33 14a17 17 0 0 1-15.32 0c-4.23-2.45-4.23-6.4 0-8.85a16.998 16.998 0 0 1 15.32 0c4.23 2.41 4.23 6.36 0 8.81v.04Z" opacity=".1"/><path fill="#38A0ED" d="M308.63 361.29c-14.94-8.63-39.14-8.63-54.08 0-12.26 7.08-14.43 17.77-6.54 26.15l-67 38.69 7.51 4.33h20.95l8.24-4.76-.56-4.28 7.13-4 9.13-.8 3.64-2.1.37-8.16 6.75-3.9 9.89 2.23 12.88-7.43c13.87 3.32 30.42 1.73 41.7-4.78 14.92-8.6 14.92-22.57-.01-31.19Zm-9.33 13.95a17 17 0 0 1-15.32 0c-4.23-2.44-4.23-6.4 0-8.84a16.998 16.998 0 0 1 15.32 0c4.23 2.44 4.23 6.4 0 8.84Z"/><path fill="#000" d="M281.59 394.57c-9.45 0-18.27-2.08-24.84-5.87-5.72-3.31-9-7.61-9-11.8s3.28-8.5 9-11.81c6.57-3.79 15.39-5.87 24.84-5.87s18.27 2.08 24.84 5.87c5.72 3.31 9 7.61 9 11.81s-3.28 8.49-9 11.8c-6.57 3.79-15.39 5.87-24.84 5.87Zm0-34c-9.21 0-17.79 2-24.15 5.69-5.28 3.05-8.31 6.92-8.31 10.62 0 3.7 3 7.56 8.31 10.61 6.36 3.67 14.94 5.69 24.15 5.69 9.21 0 17.79-2 24.15-5.69 5.28-3.05 8.31-6.92 8.31-10.61 0-3.69-3-7.57-8.31-10.62-6.36-3.65-14.94-5.67-24.15-5.67v-.02Z" opacity=".3"/><path fill="#000" d="M295.35 397.48v4.87a64.892 64.892 0 0 1-28.42-.21v-4.86a64.742 64.742 0 0 0 28.42.2Zm-41.3 7.23v4.87l-9.89-2.24v-4.86l9.89 2.23Zm-16.64 1.67v4.86l-.37 8.16v-4.86l.37-8.16Zm-4.01 10.26v4.86l-9.13.81v-4.87l9.13-.8Zm-23.94 13.82h-20.95v4.87h20.95v-4.87Z" opacity=".1"/><path fill="#000" d="M181 426.13v4.86l7.51 4.34v-4.87l-3.29-1.9v2.1l-1.82-1.05v-2.12l-2.4-1.36Z" opacity=".15"/><path fill="#38A0ED" d="m183.4 427.49 1.82 1.07v2.1l-1.82-1.05v-2.12Z"/><path fill="#000" d="M183.4 427.49v2.12l68.72-39.68-1.81-1.07-66.91 38.63Z" opacity=".15"/><path fill="#000" d="M250.31 388.86v2.12l1.81-1.05-1.81-1.07Z" opacity=".15"/></svg>