<svg xmlns="http://www.w3.org/2000/svg" width="500" height="500" fill="none"><path fill="#FAFAFA" d="M87.322 177.157c-90.043 64.389-90.033 168.792 0 233.181 90.034 64.389 236.025 64.402 326.068 0 90.042-64.402 90.033-168.792 0-233.181-90.034-64.389-236.025-64.402-326.068 0Z"/><path fill="#EBEBEB" d="m178.146 321.691-9.425 4.368a3.609 3.609 0 0 1-2.158.13 54.778 54.778 0 0 0-7.306-1.742 1.802 1.802 0 0 1-1.365-1.3l-1.17-6.201a1.45 1.45 0 0 0-1.378-1.144h-13.663a1.467 1.467 0 0 0-1.378 1.144l-1.17 6.201a1.755 1.755 0 0 1-1.365 1.3 54.852 54.852 0 0 0-7.306 1.742 3.61 3.61 0 0 1-2.158-.13l-9.412-4.368a2.588 2.588 0 0 0-2.067.091l-9.282 5.369a.691.691 0 0 0-.387 1.032c.077.12.19.214.322.268l7.358 5.304a.96.96 0 0 1 .297.311.968.968 0 0 1-.154 1.197 18.516 18.516 0 0 0-2.6 3.653 2.308 2.308 0 0 1-1.677 1.105l-12.376.78a1.3 1.3 0 0 0-1.157 1.235v6.851a1.301 1.301 0 0 0 1.157 1.222l12.376.793a2.301 2.301 0 0 1 1.677 1.105 18.575 18.575 0 0 0 2.6 3.653.968.968 0 0 1 .154 1.196.973.973 0 0 1-.297.312l-7.358 5.291a.69.69 0 0 0 .065 1.3l9.282 5.369a2.604 2.604 0 0 0 2.067.091l9.412-4.368a3.398 3.398 0 0 1 2.158-.13 55.164 55.164 0 0 0 7.306 1.742 1.746 1.746 0 0 1 1.365 1.3l1.17 6.201a1.484 1.484 0 0 0 1.378 1.144h13.663a1.474 1.474 0 0 0 1.378-1.144l1.17-6.201a1.774 1.774 0 0 1 1.365-1.3 55.09 55.09 0 0 0 7.306-1.742 3.397 3.397 0 0 1 2.158.13l9.425 4.368a2.603 2.603 0 0 0 2.054-.091l9.282-5.369a.683.683 0 0 0 .495-.627.687.687 0 0 0-.43-.673l-7.358-5.291a.98.98 0 0 1-.376-1.147.98.98 0 0 1 .233-.361 18.492 18.492 0 0 0 2.6-3.653 2.304 2.304 0 0 1 1.677-1.105l12.376-.793a1.301 1.301 0 0 0 1.157-1.222v-6.916a1.29 1.29 0 0 0-.35-.832 1.291 1.291 0 0 0-.807-.403l-12.376-.78a2.274 2.274 0 0 1-1.664-1.105 19.067 19.067 0 0 0-2.6-3.653.982.982 0 0 1-.153-1.197.967.967 0 0 1 .296-.311l7.358-5.304a.693.693 0 0 0 .283-1.066.69.69 0 0 0-.348-.234l-9.282-5.369a2.514 2.514 0 0 0-2.067-.026Zm-13.936 14.69c8.671 5.005 8.671 13.117 0 18.122-8.671 5.005-22.724 5.005-31.395 0s-8.658-13.117 0-18.122c8.658-5.005 22.724-5.005 31.395 0Zm53.573-55.731-6.981 3.237a2.61 2.61 0 0 1-1.599.091 44.194 44.194 0 0 0-5.408-1.3 1.302 1.302 0 0 1-1.014-.975l-.871-4.602a1.076 1.076 0 0 0-1.014-.845h-10.127a1.073 1.073 0 0 0-1.014.845l-.871 4.602a1.302 1.302 0 0 1-1.014.975 45.047 45.047 0 0 0-5.421 1.3 2.607 2.607 0 0 1-1.586-.091l-6.981-3.237a1.835 1.835 0 0 0-1.521.078l-6.89 3.965a.52.52 0 0 0 0 .936l5.447 3.9a.707.707 0 0 1 .323.533.718.718 0 0 1-.219.585 14.144 14.144 0 0 0-1.95 2.704 1.673 1.673 0 0 1-1.235.819l-9.178.585a.933.933 0 0 0-.858.91v5.122a.94.94 0 0 0 .858.91l9.178.572a1.732 1.732 0 0 1 1.235.832 14.176 14.176 0 0 0 1.95 2.704.712.712 0 0 1 .119.888.72.72 0 0 1-.223.23l-5.447 3.9a.508.508 0 0 0 0 .923l6.89 3.978a1.831 1.831 0 0 0 1.521.065l6.981-3.224a2.454 2.454 0 0 1 1.586-.104 40.84 40.84 0 0 0 5.421 1.3 1.3 1.3 0 0 1 1.014.988l.871 4.589a1.078 1.078 0 0 0 1.014.845h10.127a1.083 1.083 0 0 0 1.014-.845l.871-4.589a1.302 1.302 0 0 1 1.014-.988 40.121 40.121 0 0 0 5.408-1.3 2.492 2.492 0 0 1 1.599.104l6.981 3.224a1.834 1.834 0 0 0 1.521-.065l6.877-3.978a.518.518 0 0 0 .217-.187.515.515 0 0 0 0-.549.505.505 0 0 0-.217-.187l-5.46-3.9a.73.73 0 0 1-.091-1.118 13.56 13.56 0 0 0 1.963-2.678 1.735 1.735 0 0 1 1.3-.832l9.1-.572a.926.926 0 0 0 .858-.91v-5.122a.92.92 0 0 0-.858-.91l-9.1-.585a1.694 1.694 0 0 1-1.3-.819 13.488 13.488 0 0 0-1.937-2.704.733.733 0 0 1-.123-.884.716.716 0 0 1 .214-.234l5.46-3.9a.522.522 0 0 0 .214-.745.52.52 0 0 0-.214-.191l-6.877-3.965a1.819 1.819 0 0 0-1.547-.104Zm-10.322 10.881c6.422 3.718 6.422 9.724 0 13.429s-16.835 3.705-23.257 0c-6.422-3.705-6.422-9.711 0-13.429s16.835-3.744 23.257 0Z"/><path fill="#E0E0E0" d="m264.515 326.768-13.52-7.8c-6.669-3.9-6.669-10.114 0-13.962l83.993-48.464c6.682-3.9 17.498-3.9 24.18 0l13.507 7.8c6.682 3.9 6.682 10.114 0 13.962l-83.98 48.464c-6.708 3.861-17.537 3.861-24.18 0Z"/><path fill="#38A0ED" d="M370.14 167.245c0-2.197-1.443-4.381-4.342-6.058l-8.554-4.94c-5.798-3.354-15.197-3.354-21.008 0l-77.506 44.746c-2.899 1.677-4.355 3.9-4.342 6.071v102.375c0 2.197 1.443 4.407 4.342 6.084l8.554 4.927c5.798 3.354 15.197 3.354 20.995 0l77.519-44.746c2.899-1.677 4.342-3.9 4.342-6.058V167.245Z"/><path fill="#fff" d="m267.284 218.062-8.554-4.94c-5.798-3.341-5.798-8.775 0-12.129l77.506-44.746c5.811-3.354 15.21-3.354 21.008 0l8.554 4.94c5.798 3.341 5.798 8.775 0 12.129l-77.519 44.746c-5.798 3.341-15.197 3.341-20.995 0Z" opacity=".3"/><path fill="#000" d="M277.802 220.571v102.388a21.38 21.38 0 0 1-10.504-2.496l-8.567-4.953c-2.912-1.664-4.368-3.9-4.342-6.084V207.064c0 2.197 1.43 4.381 4.342 6.058l8.567 4.953a21.52 21.52 0 0 0 10.504 2.496Z" opacity=".2"/><path fill="#37474F" d="m334.195 271.219-18.499 10.686 2.86-33.488c-2.21-1.17-3.614-4.043-3.614-8.177 0-7.371 4.472-15.938 10.01-19.136 5.538-3.198 10.01.208 10.01 7.579a25.17 25.17 0 0 1-3.627 12.363l2.86 30.173Z"/><path fill="#263238" d="m334.195 271.219-16.757-9.685-1.742 20.371 18.499-10.686Zm-9.243-50.115c-3.627 2.093-6.786 6.5-8.541 11.336l14.924 8.606a25.173 25.173 0 0 0 3.627-12.363c0-7.371-4.485-10.764-10.01-7.579Z"/><path fill="#F0F0F0" d="M349.197 172.094v-43.511c0-12.675-4.784-22.724-13.143-27.547-7.969-4.602-17.836-3.978-27.768 1.755-18.2 10.543-32.5 36.244-32.5 58.5v41.171a4.168 4.168 0 0 0 2.47 3.406 12.997 12.997 0 0 0 11.83 0 4.132 4.132 0 0 0 2.457-3.406v-41.145c0-16.289 11.076-36.4 24.167-44.018 4.472-2.6 8.489-3.211 11.024-1.755 2.977 1.729 4.771 6.604 4.771 13v43.511a4.173 4.173 0 0 0 2.457 3.393 13.074 13.074 0 0 0 11.83 0 4.172 4.172 0 0 0 2.457-3.393l-.052.039Z"/><path fill="#E0E0E0" d="M324.523 99.294a21.451 21.451 0 0 1 10.881 2.873c7.943 4.589 12.493 14.209 12.493 26.416v43.524a3.024 3.024 0 0 1-.611 1.37 3.023 3.023 0 0 1-1.196.905 11.698 11.698 0 0 1-10.53 0 3.013 3.013 0 0 1-1.807-2.275v-43.524c0-7.007-1.976-12.168-5.421-14.157a7.652 7.652 0 0 0-3.9-.949 17.655 17.655 0 0 0-8.476 2.704c-13.455 7.8-24.817 28.444-24.817 45.136v41.171c0 .793-.65 1.625-1.807 2.288a11.843 11.843 0 0 1-10.53 0 3.064 3.064 0 0 1-1.807-2.21v-41.249c0-21.853 14.001-47.073 31.889-57.395a31.302 31.302 0 0 1 15.6-4.628m0-1.3a32.66 32.66 0 0 0-16.237 4.797c-18.2 10.543-32.5 36.244-32.5 58.5v41.171a4.168 4.168 0 0 0 2.47 3.406 12.997 12.997 0 0 0 11.83 0 4.124 4.124 0 0 0 2.457-3.406v-41.145c0-16.289 11.076-36.4 24.167-44.018a16.41 16.41 0 0 1 7.8-2.522 6.515 6.515 0 0 1 3.198.767c2.977 1.729 4.771 6.604 4.771 13v43.511a4.172 4.172 0 0 0 2.457 3.393 12.997 12.997 0 0 0 11.83 0 4.172 4.172 0 0 0 2.457-3.393v-43.472c0-12.675-4.784-22.724-13.143-27.547a22.87 22.87 0 0 0-11.531-3.042h-.026Z"/><path fill="#E0E0E0" d="M315.943 99.398c-.867.416-1.733.884-2.6 1.404-18.2 10.53-32.5 36.257-32.5 58.5v41.145a4.132 4.132 0 0 0 2.457 3.419 12.607 12.607 0 0 0 7.8 1.3c-.3.276-.632.516-.988.715a12.996 12.996 0 0 1-11.843 0 4.096 4.096 0 0 1-2.457-3.419v-41.145c0-22.282 14.3-47.996 32.5-58.5a35.778 35.778 0 0 1 7.631-3.419Z"/><path fill="#38A0ED" d="M193.75 65.383a33.464 33.464 0 0 1-4.394-2.977c.481-1.183.884-2.301 1.3-3.367a33.3 33.3 0 0 0 11.011 10.868l-7.917-4.524Z"/><path fill="#000" d="M193.75 65.383a33.464 33.464 0 0 1-4.394-2.977c.481-1.183.884-2.301 1.3-3.367a33.3 33.3 0 0 0 11.011 10.868l-7.917-4.524Z" opacity=".1"/><path fill="#38A0ED" d="M248.662 76.446c.208 47.047.598 110.5-52.806 161.746l-1.157 1.105-1.586.312c-3.21.644-6.475.975-9.75.988a35.62 35.62 0 0 1-22.685-7.631 37.543 37.543 0 0 0 13.871 2.522 50.911 50.911 0 0 0 9.75-.988l1.56-.299 1.157-1.118c53.417-51.246 53.04-114.699 52.806-161.746v-7.254l8.801-6.942V68.36c0 2.535.013 5.252.039 8.086Z"/><path fill="#000" d="M248.662 76.446c.208 47.047.598 110.5-52.806 161.746l-1.157 1.105-1.586.312c-3.21.644-6.475.975-9.75.988a35.62 35.62 0 0 1-22.685-7.631 37.543 37.543 0 0 0 13.871 2.522 50.911 50.911 0 0 0 9.75-.988l1.56-.299 1.157-1.118c53.417-51.246 53.04-114.699 52.806-161.746v-7.254l8.801-6.942V68.36c0 2.535.013 5.252.039 8.086Z" opacity=".2"/><path fill="#000" d="m194.699 239.297 1.157-1.105c53.404-51.246 53.014-114.686 52.806-161.746V57.115l-4.615 3.64-4.186 3.302v7.28c.234 47.047.611 110.5-52.806 161.746l-1.157 1.118 8.84 5.096h-.039Z" opacity=".1"/><path fill="#38A0ED" d="M214.407 68.633c-3.133 0-7.462-1.3-12.48-5.63a13.41 13.41 0 0 0 3.64.52c7.085 0 14.703-3.054 22.1-8.84l17.511-13.896 8.84 5.109-17.576 13.91c-7.345 5.759-14.95 8.827-22.035 8.827Z"/><path fill="#fff" d="M214.407 68.633c-3.133 0-7.462-1.3-12.48-5.63a13.41 13.41 0 0 0 3.64.52c7.085 0 14.703-3.054 22.1-8.84l17.511-13.896 8.84 5.109-17.576 13.91c-7.345 5.759-14.95 8.827-22.035 8.827Z" opacity=".6"/><path fill="#263238" d="m243.189 68.334-8.84-5.11c-14.846 11.7-29.224 13-39.533 9.387a21.961 21.961 0 0 1-2.743-2.873l-8.827-5.11c-8.268 20.138-29.211 49.583-51.168 57.578 0 36.231-2.6 86.892 26.624 103.779l8.853 5.109c6.5 3.744 14.508 5.083 24.466 3.133 54.977-52.676 51.168-121.628 51.168-165.893Z"/><path fill="#37474F" d="m184.702 127.991 7.371-58.253-8.827-5.11c-8.268 20.138-29.211 49.583-51.168 57.578l8.84 5.096 43.784.689Z"/><path fill="#FAFAFA" d="M183.377 232.979a27.882 27.882 0 0 1-20.8-8.437c-19.903-20.007-19.669-55.445-19.5-89.024v-6.682c22.204-9.009 41.379-37.154 49.595-55.16a31.536 31.536 0 0 0 21.671 8.009c8.84 0 17.966-3.12 26.611-9.1v3.9c.325 45.721.663 106.821-49.92 155.766a43.431 43.431 0 0 1-7.657.728Z"/><path fill="#455A64" d="M238.86 76.602c.221 45.214.533 105.3-48.867 153.621a39.773 39.773 0 0 1-6.617.585 25.79 25.79 0 0 1-19.201-7.8c-19.266-19.357-19.032-54.262-18.876-87.503v-5.2c21.151-9.36 39.39-35.1 48.165-53.118a34.516 34.516 0 0 0 20.917 6.708 47.854 47.854 0 0 0 24.453-7.267m4.329-8.268c-10.205 8.034-20.189 11.18-28.782 11.18-9.867 0-17.888-4.134-22.334-9.776-8.268 20.11-29.172 49.556-51.077 57.642 0 41.782-3.393 107.822 42.406 107.822a44.736 44.736 0 0 0 8.697-.897c54.925-52.715 51.116-121.667 51.116-165.932l-.026-.04Z"/><path fill="#38A0ED" d="m166.216 201.87 56.706-32.734-.936-8.164c-.585-5.2-2.6-8.788-5.616-10.491l-7.878-4.55c-2.951-1.703-6.786-1.521-10.933.884L175.81 159.36c-8.333 4.81-15.392 17.056-16.562 28.717l-.923 9.243 7.891 4.55Z"/><path fill="#000" d="m166.216 201.87 56.706-32.734-.936-8.164c-.585-5.2-2.6-8.788-5.616-10.491l-7.878-4.55c-2.951-1.703-6.786-1.521-10.933.884L175.81 159.36c-8.333 4.81-15.392 17.056-16.562 28.717l-.923 9.243 7.891 4.55Z" opacity=".3"/><path fill="#38A0ED" d="M221.986 160.972c-.585-5.2-2.6-8.788-5.616-10.491-3.016-1.703-6.786-1.521-10.933.884l-21.749 12.558c-8.32 4.797-15.379 17.043-16.51 28.717l-.923 9.23 56.706-32.734-.975-8.164Zm-15.145-45.266c2.795 1.612 4.511 5.07 4.511 9.997 0 9.841-6.903 21.801-15.431 26.728-4.251 2.457-8.112 2.691-10.907 1.079l-7.8-4.472c-2.782-1.612-4.511-5.07-4.511-9.997 0-9.841 6.903-21.801 15.431-26.715 4.251-2.47 8.112-2.704 10.907-1.092l7.8 4.472Z"/><path fill="#000" d="M206.841 115.706c2.795 1.612 4.511 5.07 4.511 9.997 0 9.841-6.903 21.801-15.431 26.728-4.251 2.457-8.112 2.691-10.907 1.079l-7.8-4.472c-2.782-1.612-4.511-5.07-4.511-9.997 0-9.841 6.903-21.801 15.431-26.715 4.251-2.47 8.112-2.704 10.907-1.092l7.8 4.472Z" opacity=".3"/><path fill="#38A0ED" d="M195.921 152.457c-4.251 2.457-8.112 2.691-10.907 1.079-2.795-1.612-4.511-5.07-4.511-9.997 0-9.841 6.903-21.801 15.431-26.715 4.251-2.47 8.112-2.704 10.907-1.092s4.511 5.07 4.511 9.997c.026 9.841-6.903 21.801-15.431 26.728ZM180.282 41.034c-5.304 24.44-32.838 63.999-51.896 70.993l-7.137 2.6 8.84 5.109 7.137-2.6c19.058-6.981 46.54-46.553 51.896-70.993l-8.84-5.11Z"/><path fill="#fff" d="M180.282 41.034c-5.304 24.44-32.838 63.999-51.896 70.993l-7.137 2.6 8.84 5.109 7.137-2.6c19.058-6.981 46.54-46.553 51.896-70.993l-8.84-5.11Z" opacity=".6"/><path fill="#38A0ED" d="M153.372 233.759c-23.738-23.855-23.478-62.556-23.309-98.293v-15.717l-8.84-5.109v15.678c-.169 35.75-.416 74.438 23.309 98.293a42.418 42.418 0 0 0 8.762 6.799l8.19 4.732a42.387 42.387 0 0 1-8.112-6.383Z"/><path fill="#fff" d="M153.372 233.759c-23.738-23.855-23.478-62.556-23.309-98.293v-15.717l-8.84-5.109v15.678c-.169 35.75-.416 74.438 23.309 98.293a42.418 42.418 0 0 0 8.762 6.799l8.19 4.732a42.387 42.387 0 0 1-8.112-6.383Z" opacity=".1"/><path fill="#38A0ED" d="M254.097 76.407V45.896l-17.641 13.91c-7.345 5.798-14.976 8.853-22.1 8.853-5.59 0-14.963-4.004-25.285-22.503-5.317 24.427-32.786 63.986-51.792 70.967l-7.137 2.6v15.795c-.169 35.75-.429 74.451 23.309 98.306a40.886 40.886 0 0 0 30.004 12.285 57.497 57.497 0 0 0 10.79-1.092l3.133-.611 2.314-2.223c55.016-52.936 54.587-117.845 54.405-165.776Zm-58.253 161.785-1.157 1.105-1.56.312a50.76 50.76 0 0 1-9.75.988 35.541 35.541 0 0 1-26.143-10.686c-22.1-22.243-21.892-59.579-21.723-94.432v-11.973l3.562-1.3c20.683-7.579 45.5-44.837 51.506-63.18 5.655 9.308 16.315 15.08 23.829 15.08 8.307 0 17.095-3.471 25.415-10.023l8.801-6.942v19.318c.26 47.047.637 110.474-52.78 161.733Z"/><path fill="#fff" d="M254.097 76.407V45.896l-17.641 13.91c-7.345 5.798-14.976 8.853-22.1 8.853-5.59 0-14.963-4.004-25.285-22.503-5.317 24.427-32.786 63.986-51.792 70.967l-7.137 2.6v15.795c-.169 35.75-.429 74.451 23.309 98.306a40.886 40.886 0 0 0 30.004 12.285 57.497 57.497 0 0 0 10.79-1.092l3.133-.611 2.314-2.223c55.016-52.936 54.587-117.845 54.405-165.776Zm-58.253 161.785-1.157 1.105-1.56.312a50.76 50.76 0 0 1-9.75.988 35.541 35.541 0 0 1-26.143-10.686c-22.1-22.243-21.892-59.579-21.723-94.432v-11.973l3.562-1.3c20.683-7.579 45.5-44.837 51.506-63.18 5.655 9.308 16.315 15.08 23.829 15.08 8.307 0 17.095-3.471 25.415-10.023l8.801-6.942v19.318c.26 47.047.637 110.474-52.78 161.733Z" opacity=".3"/></svg>